# Made in Blockbench 5.1.4
mtllib materials.mtl

o cube
v -0.276617 -0.007446 0.131250
v -0.276617 -0.007446 -0.131250
v -0.169728 0.218551 0.131250
v -0.169728 0.218551 -0.131250
v 0.175378 -0.221224 -0.131250
v 0.175378 -0.221224 0.131250
v 0.282267 0.004774 -0.131250
v 0.282267 0.004774 0.131250
vt 0 1
vt 0.5 1
vt 0.5 0.75
vt 0 0.75
vt 0 1
vt 0.26249999999999996 1
vt 0.26249999999999996 0.75
vt 0 0.75
vt 0.125 1
vt 0.625 1
vt 0.625 0.75
vt 0.125 0.75
vt 0.05625000000000002 1
vt 0.31875 1
vt 0.31875 0.75
vt 0.05625000000000002 0.75
vt 0.125 0.94375
vt 0.625 0.94375
vt 0.625 0.68125
vt 0.125 0.68125
vt 0.125 1
vt 0.625 1
vt 0.625 0.7375
vt 0.125 0.7375
vn 0.000000 0.000000 -1.000000
vn -0.903989 0.427555 0.000000
vn 0.000000 0.000000 1.000000
vn 0.903989 -0.427555 0.000000
vn -0.427555 -0.903989 0.000000
vn 0.427555 0.903989 0.000000
usemtl m_13732854-2ae0-6618-8c27-410836b29007
f 4/4/1 7/3/1 5/2/1 2/1/1
f 3/8/2 4/7/2 2/6/2 1/5/2
f 8/12/3 3/11/3 1/10/3 6/9/3
f 7/16/4 8/15/4 6/14/4 5/13/4
f 6/20/5 1/19/5 2/18/5 5/17/5
f 7/24/6 4/23/6 3/22/6 8/21/6
o cube
v -0.148656 0.277723 -0.243750
v -0.148656 0.277723 -0.381250
v 0.082992 0.168162 -0.243750
v 0.082992 0.168162 -0.381250
v -0.308989 -0.061273 -0.381250
v -0.308989 -0.061273 -0.243750
v -0.077342 -0.170834 -0.381250
v -0.077342 -0.170834 -0.243750
vt 0.0625 1
vt 0.4375 1
vt 0.4375 0.74375
vt 0.0625 0.74375
vt 0.012500000000000011 1
vt 0.14999999999999997 1
vt 0.14999999999999997 0.74375
vt 0.012500000000000011 0.74375
vt 0 1
vt 0.375 1
vt 0.375 0.74375
vt 0 0.74375
vt 0.18125000000000002 1
vt 0.31875 1
vt 0.31875 0.74375
vt 0.18125000000000002 0.74375
vt 0 0.81875
vt 0.375 0.81875
vt 0.375 0.68125
vt 0 0.68125
vt 0 0.9875
vt 0.375 0.9875
vt 0.375 0.8500000000000001
vt 0 0.8500000000000001
vn 0.000000 0.000000 -1.000000
vn 0.427555 0.903989 0.000000
vn 0.000000 0.000000 1.000000
vn -0.427555 -0.903989 0.000000
vn -0.903989 0.427555 0.000000
vn 0.903989 -0.427555 0.000000
usemtl m_13732854-2ae0-6618-8c27-410836b29007
f 12/28/7 15/27/7 13/26/7 10/25/7
f 11/32/8 12/31/8 10/30/8 9/29/8
f 16/36/9 11/35/9 9/34/9 14/33/9
f 15/40/10 16/39/10 14/38/10 13/37/10
f 14/44/11 9/43/11 10/42/11 13/41/11
f 15/48/12 12/47/12 11/46/12 16/45/12
o cube
v -0.145601 0.138002 -0.118750
v -0.145601 0.138002 -0.256250
v -0.026952 0.081885 -0.118750
v -0.026952 0.081885 -0.256250
v -0.199045 0.025003 -0.256250
v -0.199045 0.025003 -0.118750
v -0.080397 -0.031113 -0.256250
v -0.080397 -0.031113 -0.118750
vt 0.1875 0.9375
vt 0.3125 0.9375
vt 0.3125 0.80625
vt 0.1875 0.80625
vt 0.012500000000000011 0.9375
vt 0.14999999999999997 0.9375
vt 0.14999999999999997 0.80625
vt 0.012500000000000011 0.80625
vt 0.125 0.9375
vt 0.25 0.9375
vt 0.25 0.80625
vt 0.125 0.80625
vt 0.18125000000000002 0.9375
vt 0.31875 0.9375
vt 0.31875 0.80625
vt 0.18125000000000002 0.80625
vt 0.125 0.81875
vt 0.25 0.81875
vt 0.25 0.68125
vt 0.125 0.68125
vt 0.125 0.9875
vt 0.25 0.9875
vt 0.25 0.8500000000000001
vt 0.125 0.8500000000000001
vn 0.000000 0.000000 -1.000000
vn 0.427555 0.903989 0.000000
vn 0.000000 0.000000 1.000000
vn -0.427555 -0.903989 0.000000
vn -0.903989 0.427555 0.000000
vn 0.903989 -0.427555 0.000000
usemtl m_13732854-2ae0-6618-8c27-410836b29007
f 20/52/13 23/51/13 21/50/13 18/49/13
f 19/56/14 20/55/14 18/54/14 17/53/14
f 24/60/15 19/59/15 17/58/15 22/57/15
f 23/64/16 24/63/16 22/62/16 21/61/16
f 22/68/17 17/67/17 18/66/17 21/65/17
f 23/72/18 20/71/18 19/70/18 24/69/18