# Made in Blockbench 5.1.4
mtllib materials.mtl

o cube
v 0.5 0.4999999999999999 0.5
v 0.5 0.4999999999999999 0.4375
v 0.5 -0.5000000000000001 0.5
v 0.5 -0.5000000000000001 0.4375
v 0.4375 0.4999999999999999 0.4375
v 0.4375 0.4999999999999999 0.5
v 0.4375 -0.5000000000000001 0.4375
v 0.4375 -0.5000000000000001 0.5
vt 0.125 1
vt 0.1875 1
vt 0.1875 0
vt 0.125 0
vt 0 1
vt 0.0625 1
vt 0.0625 0
vt 0 0
vt 0.8125 1
vt 0.875 1
vt 0.875 0
vt 0.8125 0
vt 0.9375 1
vt 1 1
vt 1 0
vt 0.9375 0
vt 0.8125 0.0625
vt 0.875 0.0625
vt 0.875 0
vt 0.8125 0
vt 0.8125 1
vt 0.875 1
vt 0.875 0.9375
vt 0.8125 0.9375
vn 0 0 -1
vn 1 0 0
vn 0 0 1
vn -1 0 0
vn 0 1 0
vn 0 -1 0
usemtl m_e173ba23-2498-7ce2-3200-97345287b51b
f 4/4/1 7/3/1 5/2/1 2/1/1
f 3/8/2 4/7/2 2/6/2 1/5/2
f 8/12/3 3/11/3 1/10/3 6/9/3
f 7/16/4 8/15/4 6/14/4 5/13/4
f 6/20/5 1/19/5 2/18/5 5/17/5
f 7/24/6 4/23/6 3/22/6 8/21/6
o cube
v -0.4375 0.4999999999999999 0.5
v -0.4375 0.4999999999999999 0.4375
v -0.4375 -0.5000000000000001 0.5
v -0.4375 -0.5000000000000001 0.4375
v -0.5 0.4999999999999999 0.4375
v -0.5 0.4999999999999999 0.5
v -0.5 -0.5000000000000001 0.4375
v -0.5 -0.5000000000000001 0.5
vt 0.125 1
vt 0.1875 1
vt 0.1875 0
vt 0.125 0
vt 0 1
vt 0.0625 1
vt 0.0625 0
vt 0 0
vt 0.8125 1
vt 0.875 1
vt 0.875 0
vt 0.8125 0
vt 0.9375 1
vt 1 1
vt 1 0
vt 0.9375 0
vt 0.8125 0.0625
vt 0.875 0.0625
vt 0.875 0
vt 0.8125 0
vt 0.8125 1
vt 0.875 1
vt 0.875 0.9375
vt 0.8125 0.9375
vn 0 0 -1
vn 1 0 0
vn 0 0 1
vn -1 0 0
vn 0 1 0
vn 0 -1 0
usemtl m_e173ba23-2498-7ce2-3200-97345287b51b
f 12/28/7 15/27/7 13/26/7 10/25/7
f 11/32/8 12/31/8 10/30/8 9/29/8
f 16/36/9 11/35/9 9/34/9 14/33/9
f 15/40/10 16/39/10 14/38/10 13/37/10
f 14/44/11 9/43/11 10/42/11 13/41/11
f 15/48/12 12/47/12 11/46/12 16/45/12
o cube
v -0.4375 0.4999999999999999 -0.4375
v -0.4375 0.4999999999999999 -0.5
v -0.4375 -0.5000000000000001 -0.4375
v -0.4375 -0.5000000000000001 -0.5
v -0.5 0.4999999999999999 -0.5
v -0.5 0.4999999999999999 -0.4375
v -0.5 -0.5000000000000001 -0.5
v -0.5 -0.5000000000000001 -0.4375
vt 0.125 1
vt 0.1875 1
vt 0.1875 0
vt 0.125 0
vt 0 1
vt 0.0625 1
vt 0.0625 0
vt 0 0
vt 0.8125 1
vt 0.875 1
vt 0.875 0
vt 0.8125 0
vt 0.9375 1
vt 1 1
vt 1 0
vt 0.9375 0
vt 0.8125 0.0625
vt 0.875 0.0625
vt 0.875 0
vt 0.8125 0
vt 0.8125 1
vt 0.875 1
vt 0.875 0.9375
vt 0.8125 0.9375
vn 0 0 -1
vn 1 0 0
vn 0 0 1
vn -1 0 0
vn 0 1 0
vn 0 -1 0
usemtl m_e173ba23-2498-7ce2-3200-97345287b51b
f 20/52/13 23/51/13 21/50/13 18/49/13
f 19/56/14 20/55/14 18/54/14 17/53/14
f 24/60/15 19/59/15 17/58/15 22/57/15
f 23/64/16 24/63/16 22/62/16 21/61/16
f 22/68/17 17/67/17 18/66/17 21/65/17
f 23/72/18 20/71/18 19/70/18 24/69/18
o cube
v 0.5 0.4999999999999999 -0.4375
v 0.5 0.4999999999999999 -0.5
v 0.5 -0.5000000000000001 -0.4375
v 0.5 -0.5000000000000001 -0.5
v 0.4375 0.4999999999999999 -0.5
v 0.4375 0.4999999999999999 -0.4375
v 0.4375 -0.5000000000000001 -0.5
v 0.4375 -0.5000000000000001 -0.4375
vt 0.125 1
vt 0.1875 1
vt 0.1875 0
vt 0.125 0
vt 0 1
vt 0.0625 1
vt 0.0625 0
vt 0 0
vt 0.8125 1
vt 0.875 1
vt 0.875 0
vt 0.8125 0
vt 0.9375 1
vt 1 1
vt 1 0
vt 0.9375 0
vt 0.8125 0.0625
vt 0.875 0.0625
vt 0.875 0
vt 0.8125 0
vt 0.8125 1
vt 0.875 1
vt 0.875 0.9375
vt 0.8125 0.9375
vn 0 0 -1
vn 1 0 0
vn 0 0 1
vn -1 0 0
vn 0 1 0
vn 0 -1 0
usemtl m_e173ba23-2498-7ce2-3200-97345287b51b
f 28/76/19 31/75/19 29/74/19 26/73/19
f 27/80/20 28/79/20 26/78/20 25/77/20
f 32/84/21 27/83/21 25/82/21 30/81/21
f 31/88/22 32/87/22 30/86/22 29/85/22
f 30/92/23 25/91/23 26/90/23 29/89/23
f 31/96/24 28/95/24 27/94/24 32/93/24
o cube
v -0.4375 -0.4375000000000001 0.4375
v -0.4375 -0.4375000000000001 -0.4375
v -0.4375 -0.5000000000000001 0.4375
v -0.4375 -0.5000000000000001 -0.4375
v -0.5 -0.4375000000000001 -0.4375
v -0.5 -0.4375000000000001 0.4375
v -0.5 -0.5000000000000001 -0.4375
v -0.5 -0.5000000000000001 0.4375
vt 0.125 0.0625
vt 0.1875 0.0625
vt 0.1875 0
vt 0.125 0
vt 0 0.0625
vt 0.875 0.0625
vt 0.875 0
vt 0 0
vt 0.8125 0.0625
vt 0.875 0.0625
vt 0.875 0
vt 0.8125 0
vt 0.125 0.0625
vt 1 0.0625
vt 1 0
vt 0.125 0
vt 0.8125 0.875
vt 0.875 0.875
vt 0.875 0
vt 0.8125 0
vt 0.8125 1
vt 0.875 1
vt 0.875 0.125
vt 0.8125 0.125
vn 0 0 -1
vn 1 0 0
vn 0 0 1
vn -1 0 0
vn 0 1 0
vn 0 -1 0
usemtl m_e173ba23-2498-7ce2-3200-97345287b51b
f 36/100/25 39/99/25 37/98/25 34/97/25
f 35/104/26 36/103/26 34/102/26 33/101/26
f 40/108/27 35/107/27 33/106/27 38/105/27
f 39/112/28 40/111/28 38/110/28 37/109/28
f 38/116/29 33/115/29 34/114/29 37/113/29
f 39/120/30 36/119/30 35/118/30 40/117/30
o cube
v 0.5 -0.4375000000000001 0.4375
v 0.5 -0.4375000000000001 -0.4375
v 0.5 -0.5000000000000001 0.4375
v 0.5 -0.5000000000000001 -0.4375
v 0.4375 -0.4375000000000001 -0.4375
v 0.4375 -0.4375000000000001 0.4375
v 0.4375 -0.5000000000000001 -0.4375
v 0.4375 -0.5000000000000001 0.4375
vt 0.125 0.0625
vt 0.1875 0.0625
vt 0.1875 0
vt 0.125 0
vt 0 0.0625
vt 0.875 0.0625
vt 0.875 0
vt 0 0
vt 0.8125 0.0625
vt 0.875 0.0625
vt 0.875 0
vt 0.8125 0
vt 0.125 0.0625
vt 1 0.0625
vt 1 0
vt 0.125 0
vt 0.8125 0.875
vt 0.875 0.875
vt 0.875 0
vt 0.8125 0
vt 0.8125 1
vt 0.875 1
vt 0.875 0.125
vt 0.8125 0.125
vn 0 0 -1
vn 1 0 0
vn 0 0 1
vn -1 0 0
vn 0 1 0
vn 0 -1 0
usemtl m_e173ba23-2498-7ce2-3200-97345287b51b
f 44/124/31 47/123/31 45/122/31 42/121/31
f 43/128/32 44/127/32 42/126/32 41/125/32
f 48/132/33 43/131/33 41/130/33 46/129/33
f 47/136/34 48/135/34 46/134/34 45/133/34
f 46/140/35 41/139/35 42/138/35 45/137/35
f 47/144/36 44/143/36 43/142/36 48/141/36
o cube
v 0.4375 -0.4375000000000001 0.5
v 0.4375 -0.4375000000000001 0.4375
v 0.4375 -0.5000000000000001 0.5
v 0.4375 -0.5000000000000001 0.4375
v -0.4375 -0.4375000000000001 0.4375
v -0.4375 -0.4375000000000001 0.5
v -0.4375 -0.5000000000000001 0.4375
v -0.4375 -0.5000000000000001 0.5
vt 0 0.0625
vt 0.875 0.0625
vt 0.875 0
vt 0 0
vt 0 0.0625
vt 0.0625 0.0625
vt 0.0625 0
vt 0 0
vt 0.125 0.0625
vt 1 0.0625
vt 1 0
vt 0.125 0
vt 0.9375 0.0625
vt 1 0.0625
vt 1 0
vt 0.9375 0
vt 0.125 0.0625
vt 1 0.0625
vt 1 0
vt 0.125 0
vt 0.125 1
vt 1 1
vt 1 0.9375
vt 0.125 0.9375
vn 0 0 -1
vn 1 0 0
vn 0 0 1
vn -1 0 0
vn 0 1 0
vn 0 -1 0
usemtl m_e173ba23-2498-7ce2-3200-97345287b51b
f 52/148/37 55/147/37 53/146/37 50/145/37
f 51/152/38 52/151/38 50/150/38 49/149/38
f 56/156/39 51/155/39 49/154/39 54/153/39
f 55/160/40 56/159/40 54/158/40 53/157/40
f 54/164/41 49/163/41 50/162/41 53/161/41
f 55/168/42 52/167/42 51/166/42 56/165/42
o cube
v 0.4375 -0.4375000000000001 -0.4375
v 0.4375 -0.4375000000000001 -0.5
v 0.4375 -0.5000000000000001 -0.4375
v 0.4375 -0.5000000000000001 -0.5
v -0.4375 -0.4375000000000001 -0.5
v -0.4375 -0.4375000000000001 -0.4375
v -0.4375 -0.5000000000000001 -0.5
v -0.4375 -0.5000000000000001 -0.4375
vt 0 0.0625
vt 0.875 0.0625
vt 0.875 0
vt 0 0
vt 0 0.0625
vt 0.0625 0.0625
vt 0.0625 0
vt 0 0
vt 0.125 0.0625
vt 1 0.0625
vt 1 0
vt 0.125 0
vt 0.9375 0.0625
vt 1 0.0625
vt 1 0
vt 0.9375 0
vt 0.125 0.0625
vt 1 0.0625
vt 1 0
vt 0.125 0
vt 0.125 1
vt 1 1
vt 1 0.9375
vt 0.125 0.9375
vn 0 0 -1
vn 1 0 0
vn 0 0 1
vn -1 0 0
vn 0 1 0
vn 0 -1 0
usemtl m_e173ba23-2498-7ce2-3200-97345287b51b
f 60/172/43 63/171/43 61/170/43 58/169/43
f 59/176/44 60/175/44 58/174/44 57/173/44
f 64/180/45 59/179/45 57/178/45 62/177/45
f 63/184/46 64/183/46 62/182/46 61/181/46
f 62/188/47 57/187/47 58/186/47 61/185/47
f 63/192/48 60/191/48 59/190/48 64/189/48
o cube
v -0.4375 0.49999999999999983 0.4375
v -0.4375 0.49999999999999983 -0.4375
v -0.4375 0.43749999999999983 0.4375
v -0.4375 0.43749999999999983 -0.4375
v -0.5 0.49999999999999983 -0.4375
v -0.5 0.49999999999999983 0.4375
v -0.5 0.43749999999999983 -0.4375
v -0.5 0.43749999999999983 0.4375
vt 0.125 0.0625
vt 0.1875 0.0625
vt 0.1875 0
vt 0.125 0
vt 0 0.0625
vt 0.875 0.0625
vt 0.875 0
vt 0 0
vt 0.8125 0.0625
vt 0.875 0.0625
vt 0.875 0
vt 0.8125 0
vt 0.125 0.0625
vt 1 0.0625
vt 1 0
vt 0.125 0
vt 0.8125 0.875
vt 0.875 0.875
vt 0.875 0
vt 0.8125 0
vt 0.8125 1
vt 0.875 1
vt 0.875 0.125
vt 0.8125 0.125
vn 0 0 -1
vn 1 0 0
vn 0 0 1
vn -1 0 0
vn 0 1 0
vn 0 -1 0
usemtl m_e173ba23-2498-7ce2-3200-97345287b51b
f 68/196/49 71/195/49 69/194/49 66/193/49
f 67/200/50 68/199/50 66/198/50 65/197/50
f 72/204/51 67/203/51 65/202/51 70/201/51
f 71/208/52 72/207/52 70/206/52 69/205/52
f 70/212/53 65/211/53 66/210/53 69/209/53
f 71/216/54 68/215/54 67/214/54 72/213/54
o cube
v 0.5 0.49999999999999983 0.4375
v 0.5 0.49999999999999983 -0.4375
v 0.5 0.43749999999999983 0.4375
v 0.5 0.43749999999999983 -0.4375
v 0.4375 0.49999999999999983 -0.4375
v 0.4375 0.49999999999999983 0.4375
v 0.4375 0.43749999999999983 -0.4375
v 0.4375 0.43749999999999983 0.4375
vt 0.125 0.0625
vt 0.1875 0.0625
vt 0.1875 0
vt 0.125 0
vt 0 0.0625
vt 0.875 0.0625
vt 0.875 0
vt 0 0
vt 0.8125 0.0625
vt 0.875 0.0625
vt 0.875 0
vt 0.8125 0
vt 0.125 0.0625
vt 1 0.0625
vt 1 0
vt 0.125 0
vt 0.8125 0.875
vt 0.875 0.875
vt 0.875 0
vt 0.8125 0
vt 0.8125 1
vt 0.875 1
vt 0.875 0.125
vt 0.8125 0.125
vn 0 0 -1
vn 1 0 0
vn 0 0 1
vn -1 0 0
vn 0 1 0
vn 0 -1 0
usemtl m_e173ba23-2498-7ce2-3200-97345287b51b
f 76/220/55 79/219/55 77/218/55 74/217/55
f 75/224/56 76/223/56 74/222/56 73/221/56
f 80/228/57 75/227/57 73/226/57 78/225/57
f 79/232/58 80/231/58 78/230/58 77/229/58
f 78/236/59 73/235/59 74/234/59 77/233/59
f 79/240/60 76/239/60 75/238/60 80/237/60
o cube
v 0.4375 0.49999999999999983 0.5
v 0.4375 0.49999999999999983 0.4375
v 0.4375 0.43749999999999983 0.5
v 0.4375 0.43749999999999983 0.4375
v -0.4375 0.49999999999999983 0.4375
v -0.4375 0.49999999999999983 0.5
v -0.4375 0.43749999999999983 0.4375
v -0.4375 0.43749999999999983 0.5
vt 0 0.0625
vt 0.875 0.0625
vt 0.875 0
vt 0 0
vt 0 0.0625
vt 0.0625 0.0625
vt 0.0625 0
vt 0 0
vt 0.125 0.0625
vt 1 0.0625
vt 1 0
vt 0.125 0
vt 0.9375 0.0625
vt 1 0.0625
vt 1 0
vt 0.9375 0
vt 0.125 0.0625
vt 1 0.0625
vt 1 0
vt 0.125 0
vt 0.125 1
vt 1 1
vt 1 0.9375
vt 0.125 0.9375
vn 0 0 -1
vn 1 0 0
vn 0 0 1
vn -1 0 0
vn 0 1 0
vn 0 -1 0
usemtl m_e173ba23-2498-7ce2-3200-97345287b51b
f 84/244/61 87/243/61 85/242/61 82/241/61
f 83/248/62 84/247/62 82/246/62 81/245/62
f 88/252/63 83/251/63 81/250/63 86/249/63
f 87/256/64 88/255/64 86/254/64 85/253/64
f 86/260/65 81/259/65 82/258/65 85/257/65
f 87/264/66 84/263/66 83/262/66 88/261/66
o cube
v 0.4375 0.49999999999999983 -0.4375
v 0.4375 0.49999999999999983 -0.5
v 0.4375 0.43749999999999983 -0.4375
v 0.4375 0.43749999999999983 -0.5
v -0.4375 0.49999999999999983 -0.5
v -0.4375 0.49999999999999983 -0.4375
v -0.4375 0.43749999999999983 -0.5
v -0.4375 0.43749999999999983 -0.4375
vt 0 0.0625
vt 0.875 0.0625
vt 0.875 0
vt 0 0
vt 0 0.0625
vt 0.0625 0.0625
vt 0.0625 0
vt 0 0
vt 0.125 0.0625
vt 1 0.0625
vt 1 0
vt 0.125 0
vt 0.9375 0.0625
vt 1 0.0625
vt 1 0
vt 0.9375 0
vt 0.125 0.0625
vt 1 0.0625
vt 1 0
vt 0.125 0
vt 0.125 1
vt 1 1
vt 1 0.9375
vt 0.125 0.9375
vn 0 0 -1
vn 1 0 0
vn 0 0 1
vn -1 0 0
vn 0 1 0
vn 0 -1 0
usemtl m_e173ba23-2498-7ce2-3200-97345287b51b
f 92/268/67 95/267/67 93/266/67 90/265/67
f 91/272/68 92/271/68 90/270/68 89/269/68
f 96/276/69 91/275/69 89/274/69 94/273/69
f 95/280/70 96/279/70 94/278/70 93/277/70
f 94/284/71 89/283/71 90/282/71 93/281/71
f 95/288/72 92/287/72 91/286/72 96/285/72
o cube
v 0.4375 0.1875 0.4375
v 0.4375 0.1875 -0.4375
v 0.4375 -0.1875 0.4375
v 0.4375 -0.1875 -0.4375
v -0.4375 0.1875 -0.4375
v -0.4375 0.1875 0.4375
v -0.4375 -0.1875 -0.4375
v -0.4375 -0.1875 0.4375
vt 0 1
vt 0.875 1
vt 0.875 0.625
vt 0 0.625
vt 0.0625 1
vt 0.9375 1
vt 0.9375 0.625
vt 0.0625 0.625
vt 0.0625 1
vt 0.9375 1
vt 0.9375 0.625
vt 0.0625 0.625
vt 0.0625 1
vt 0.9375 1
vt 0.9375 0.625
vt 0.0625 0.625
vt 0.0625 0.9375
vt 0.9375 0.9375
vt 0.9375 0.0625
vt 0.0625 0.0625
vt 0.0625 0.9375
vt 0.9375 0.9375
vt 0.9375 0.0625
vt 0.0625 0.0625
vn 0 0 -1
vn 1 0 0
vn 0 0 1
vn -1 0 0
vn 0 1 0
vn 0 -1 0
usemtl m_e173ba23-2498-7ce2-3200-97345287b51b
f 100/292/73 103/291/73 101/290/73 98/289/73
f 99/296/74 100/295/74 98/294/74 97/293/74
f 104/300/75 99/299/75 97/298/75 102/297/75
f 103/304/76 104/303/76 102/302/76 101/301/76
f 102/308/77 97/307/77 98/306/77 101/305/77
f 103/312/78 100/311/78 99/310/78 104/309/78
o tube
v 0.049728091844914495 0 0.25
v 0.049728091844914495 0.5 0.25
v 0.025838276837188753 0 0.1298977895520796
v 0.025838276837188753 0.5 0.1298977895520796
v 0.14161362433763036 0 0.21193976625564337
v 0.14161362433763036 0.5 0.21193976625564337
v 0.07358118708766706 0 0.11012202861917
v 0.07358118708766706 0.5 0.11012202861917
v 0.21193976625564337 0 0.14161362433763042
v 0.21193976625564337 0.5 0.14161362433763042
v 0.11012202861917 0 0.07358118708766707
v 0.11012202861917 0.5 0.07358118708766707
v 0.25 0 0.04972809184491452
v 0.25 0.5 0.04972809184491452
v 0.1298977895520796 0 0.025838276837188763
v 0.1298977895520796 0.5 0.025838276837188763
v 0.25 0 -0.04972809184491448
v 0.25 0.5 -0.04972809184491448
v 0.1298977895520796 0 -0.025838276837188746
v 0.1298977895520796 0.5 -0.025838276837188746
v 0.21193976625564345 0 -0.1416136243376303
v 0.21193976625564345 0.5 -0.1416136243376303
v 0.11012202861917003 0 -0.07358118708766703
v 0.11012202861917003 0.5 -0.07358118708766703
v 0.14161362433763036 0 -0.2119397662556434
v 0.14161362433763036 0.5 -0.2119397662556434
v 0.07358118708766706 0 -0.11012202861917002
v 0.07358118708766706 0.5 -0.11012202861917002
v 0.04972809184491459 0 -0.25
v 0.04972809184491459 0.5 -0.25
v 0.0258382768371888 0 -0.1298977895520796
v 0.0258382768371888 0.5 -0.1298977895520796
v -0.04972809184491453 0 -0.25
v -0.04972809184491453 0.5 -0.25
v -0.025838276837188767 0 -0.1298977895520796
v -0.025838276837188767 0.5 -0.1298977895520796
v -0.1416136243376303 0 -0.21193976625564345
v -0.1416136243376303 0.5 -0.21193976625564345
v -0.07358118708766703 0 -0.11012202861917003
v -0.07358118708766703 0.5 -0.11012202861917003
v -0.21193976625564337 0 -0.14161362433763036
v -0.21193976625564337 0.5 -0.14161362433763036
v -0.11012202861917 0 -0.07358118708766706
v -0.11012202861917 0.5 -0.07358118708766706
v -0.24999999999999997 0 -0.049728091844914606
v -0.24999999999999997 0.5 -0.049728091844914606
v -0.12989778955207956 0 -0.025838276837188808
v -0.12989778955207956 0.5 -0.025838276837188808
v -0.25 0 0.04972809184491451
v -0.25 0.5 0.04972809184491451
v -0.1298977895520796 0 0.02583827683718876
v -0.1298977895520796 0.5 0.02583827683718876
v -0.21193976625564345 0 0.14161362433763028
v -0.21193976625564345 0.5 0.14161362433763028
v -0.11012202861917003 0 0.07358118708766702
v -0.11012202861917003 0.5 0.07358118708766702
v -0.14161362433763036 0 0.21193976625564337
v -0.14161362433763036 0.5 0.21193976625564337
v -0.07358118708766706 0 0.11012202861917
v -0.07358118708766706 0.5 0.11012202861917
v -0.04972809184491462 0 0.24999999999999997
v -0.04972809184491462 0.5 0.24999999999999997
v -0.025838276837188815 0 0.12989778955207956
v -0.025838276837188815 0.5 0.12989778955207956
vt 0 0.5
vt 0.09945 0.5
vt 0.09945 1
vt 0 1
vt 0.05167500000000151 1
vt 1.5126788710517758e-15 1
vt 1.5126788710517758e-15 0.5
vt 0.05167500000000151 0.5
vt 0 0.9761112727796452
vt 0 0.924434234464137
vt 0.12009644356423038 0.9005411313580916
vt 0.12009975590333846 1
vt 0 0.8799010397440555
vt 0.09945886869706493 0.8799010397440555
vt 0.07556976524906725 0.9999982789682083
vt 0.02389272696221735 1
vt 0 0.5
vt 0.09945 0.5
vt 0.09945 1
vt 0 1
vt 0.05167500000000151 1
vt 1.5126788710517758e-15 1
vt 1.5126788710517758e-15 0.5
vt 0.05167500000000151 0.5
vt 0 0.976113049048042
vt 0 0.9244323821780701
vt 0.12009766736715269 0.9005454312261121
vt 0.12009766736715266 1
vt 0 0.8799023326328473
vt 0.0994545687738879 0.8799023326328473
vt 0.07556761782192983 1
vt 0.02388695095195805 1
vt 0 0.5
vt 0.09945 0.5
vt 0.09945 1
vt 0 1
vt 0.05167500000000151 1
vt 1.5126788710517758e-15 1
vt 1.5126788710517758e-15 0.5
vt 0.05167500000000151 0.5
vt 0 0.9761068968939545
vt 2.7755575615628914e-17 0.9244298585784463
vt 0.12009975590333849 0.9005411313580916
vt 0.12009644356423041 1
vt 0 0.8799010397440554
vt 0.09945886869706491 0.8799010397440555
vt 0.07556614173484742 1
vt 0.02388910344799753 0.9999982789682081
vt 0 0.5
vt 0.09945 0.5
vt 0.09945 1
vt 0 1
vt 0.05167500000000151 1
vt 1.5126788710517758e-15 1
vt 1.5126788710517758e-15 0.5
vt 0.05167500000000151 0.5
vt 0 0.9761125
vt 0 0.9244375
vt 0.12010000000000001 0.90055
vt 0.12010000000000001 1
vt 0.12010000000000001 0.90055
vt 0.12010000000000001 1
vt 0 0.9761125
vt 0 0.9244375
vt 0 0.5
vt 0.09945 0.5
vt 0.09945 1
vt 0 1
vt 0.05167500000000151 1
vt 1.5126788710517758e-15 1
vt 1.5126788710517758e-15 0.5
vt 0.05167500000000151 0.5
vt 0.07557014142155372 1
vt 0.02389310310604554 1
vt 0 0.8799035564357696
vt 0.0994588686419085 0.8799002440966616
vt 0.12009896025594446 0.9005411313029351
vt 0.12009896025594452 1
vt 0.0000017210317918014972 0.9761108965520023
vt 0 0.9244338582651525
vt 0 0.5
vt 0.09945 0.5
vt 0.09945 1
vt 0 1
vt 0.05167500000000151 1
vt 1.5126788710517758e-15 1
vt 1.5126788710517758e-15 0.5
vt 0.05167500000000151 0.5
vt 0.07556761782192983 1
vt 0.02388695095195805 1
vt 0 0.8799023326328473
vt 0.0994545687738879 0.8799023326328473
vt 0.12009766736715269 0.9005454312261121
vt 0.12009766736715266 1
vt 0 0.976113049048042
vt 0 0.9244323821780701
vt 0 0.5
vt 0.09945 0.5
vt 0.09945 1
vt 0 1
vt 0.05167500000000151 1
vt 1.5126788710517758e-15 1
vt 1.5126788710517758e-15 0.5
vt 0.05167500000000151 0.5
vt 0.07556576553586294 1
vt 0.023888727220354775 1
vt 0 0.8799002440966615
vt 0.09945886864190849 0.8799035564357696
vt 0.12009896025594449 0.9005411313029351
vt 0.12009896025594449 1
vt 0 0.9761072730377827
vt 0.000001721031791745986 0.9244302347509328
vt 0 0.5
vt 0.09945 0.5
vt 0.09945 1
vt 0 1
vt 0.05167500000000151 1
vt 1.5126788710517758e-15 1
vt 1.5126788710517758e-15 0.5
vt 0.05167500000000151 0.5
vt 0.0755625 1
vt 0.0238875 1
vt 0 0.8799
vt 0.09945 0.8799
vt 0.09945 1
vt 0 1
vt 0.0238875 0.8799
vt 0.0755625 0.8799
vt 0 0.5
vt 0.09945 0.5
vt 0.09945 1
vt 0 1
vt 0.05167500000000151 1
vt 1.5126788710517758e-15 1
vt 1.5126788710517758e-15 0.5
vt 0.05167500000000151 0.5
vt 0.12009975590333843 0.9244298585784464
vt 0.1200997559033384 0.9761068968939546
vt 0.0000033123391079969977 1
vt 0 0.9005411313580916
vt 0.09945886869706493 1
vt 0 1
vt 0.023889103447997682 0.8799027607758473
vt 0.07556614173484758 0.8799010397440555
vt 0 0.5
vt 0.09945 0.5
vt 0.09945 1
vt 0 1
vt 0.05167500000000151 1
vt 1.5126788710517758e-15 1
vt 1.5126788710517758e-15 0.5
vt 0.05167500000000151 0.5
vt 0.12009766736715269 0.9244323821780702
vt 0.12009766736715269 0.976113049048042
vt 0 1
vt 2.7755575615628914e-17 0.9005454312261121
vt 0.0994545687738879 1
vt 0 1
vt 0.023886950951958065 0.8799023326328473
vt 0.07556761782192986 0.8799023326328473
vt 0 0.5
vt 0.09945 0.5
vt 0.09945 1
vt 0 1
vt 0.05167500000000151 1
vt 1.5126788710517758e-15 1
vt 1.5126788710517758e-15 0.5
vt 0.05167500000000151 0.5
vt 0.12009975590333846 0.924434234464137
vt 0.12009975590333849 0.9761112727796452
vt 0 1
vt 0.0000033123391080802644 0.9005411313580916
vt 0.09945886869706493 1
vt 0 1
vt 0.02389272696221735 0.8799010397440555
vt 0.07556976524906725 0.8799027607758473
vt 0 0.5
vt 0.09945 0.5
vt 0.09945 1
vt 0 1
vt 0.05167500000000151 1
vt 1.5126788710517758e-15 1
vt 1.5126788710517758e-15 0.5
vt 0.05167500000000151 0.5
vt 0.12010000000000001 0.9244375
vt 0.12010000000000001 0.9761125
vt 0 1
vt 0 0.90055
vt 0 1
vt 0 0.90055
vt 0.12010000000000001 0.9244375
vt 0.12010000000000001 0.9761125
vt 0 0.5
vt 0.09945 0.5
vt 0.09945 1
vt 0 1
vt 0.05167500000000151 1
vt 1.5126788710517758e-15 1
vt 1.5126788710517758e-15 0.5
vt 0.05167500000000151 0.5
vt 0.023888727220354795 0.8799002440966615
vt 0.07556576553586297 0.8799002440966615
vt 0.0994588686419085 0.9999966876608919
vt 0 1
vt 0 1
vt 0 0.9005411313029351
vt 0.12009723922415275 0.9244302347509328
vt 0.12009896025594449 0.9761072730377827
vt 0 0.5
vt 0.09945 0.5
vt 0.09945 1
vt 0 1
vt 0.05167500000000151 1
vt 1.5126788710517758e-15 1
vt 1.5126788710517758e-15 0.5
vt 0.05167500000000151 0.5
vt 0.023886950951958065 0.8799023326328473
vt 0.07556761782192986 0.8799023326328473
vt 0.0994545687738879 1
vt 0 1
vt 0 1
vt 2.7755575615628914e-17 0.9005454312261121
vt 0.12009766736715269 0.9244323821780702
vt 0.12009766736715269 0.976113049048042
vt 0 0.5
vt 0.09945 0.5
vt 0.09945 1
vt 0 1
vt 0.05167500000000151 1
vt 1.5126788710517758e-15 1
vt 1.5126788710517758e-15 0.5
vt 0.05167500000000151 0.5
vt 0.02389310310604542 0.8799002440966616
vt 0.07557014142155359 0.8799002440966616
vt 0.09945886864190849 1
vt 0 0.999996687660892
vt 0 1
vt 0 0.9005411313029351
vt 0.12009896025594449 0.9244338582651525
vt 0.12009723922415275 0.9761108965520023
vt 0 0.5
vt 0.09945 0.5
vt 0.09945 1
vt 0 1
vt 0.05167500000000151 1
vt 1.5126788710517758e-15 1
vt 1.5126788710517758e-15 0.5
vt 0.05167500000000151 0.5
vt 0.0238875 0.8799
vt 0.0755625 0.8799
vt 0.09945 1
vt 0 1
vt 0 0.8799
vt 0.09945 0.8799
vt 0.0755625 1
vt 0.0238875 1
vn 0.38268343236509 0 0.9238795325112868
vn -0.38268343236509 0 -0.9238795325112867
vn 0 -1 0
vn 0 1 0
vn 0.7071067811865472 0 0.7071067811865478
vn -0.7071067811865475 0 -0.7071067811865477
vn 0 -1 0
vn 0 1 0
vn 0.9238795325112867 0 0.3826834323650898
vn -0.9238795325112867 0 -0.38268343236508995
vn 0 -1 0
vn 0 1 0
vn 1 0 0
vn -1 0 0
vn 0 -1 0
vn 0 1 0
vn 0.9238795325112871 0 -0.3826834323650894
vn -0.9238795325112868 0 0.3826834323650896
vn 0 -1 0
vn 0 1 0
vn 0.7071067811865476 0 -0.7071067811865476
vn -0.7071067811865477 0 0.7071067811865474
vn 0 -1 0
vn 0 1 0
vn 0.38268343236509006 0 -0.9238795325112868
vn -0.3826834323650901 0 0.9238795325112868
vn 0 -1 0
vn 0 1 0
vn 0 0 -1
vn 0 0 1
vn 0 -1 0
vn 0 1 0
vn -0.3826834323650895 0 -0.9238795325112868
vn 0.3826834323650898 0 0.9238795325112867
vn 0 -1 0
vn 0 1 0
vn -0.7071067811865477 0 -0.7071067811865475
vn 0.7071067811865476 0 0.7071067811865476
vn 0 -1 0
vn 0 1 0
vn -0.9238795325112866 0 -0.38268343236509006
vn 0.9238795325112867 0 0.3826834323650899
vn 0 -1 0
vn 0 1 0
vn -1 0 -2.7907340283827257e-16
vn 1 0 5.371019087403031e-16
vn 0 -1 0
vn 0 1 0
vn -0.9238795325112868 0 0.3826834323650895
vn 0.9238795325112867 0 -0.3826834323650898
vn 0 -1 0
vn 0 1 0
vn -0.7071067811865476 0 0.7071067811865476
vn 0.7071067811865477 0 -0.7071067811865474
vn 0 -1 0
vn 0 1 0
vn -0.38268343236509006 0 0.9238795325112866
vn 0.3826834323650899 0 -0.9238795325112867
vn 0 -1 0
vn 0 1 0
vn -2.7907340283827257e-16 0 1
vn 5.371019087403031e-16 0 -1
vn 0 -1 0
vn 0 1 0
usemtl m_e173ba23-2498-7ce2-3200-97345287b51b
f 105/313/79 109/314/79 110/315/79 106/316/79
f 108/317/80 112/318/80 111/319/80 107/320/80
f 107/321/81 111/322/81 109/323/81 105/324/81
f 106/325/82 110/326/82 112/327/82 108/328/82
f 109/329/83 113/330/83 114/331/83 110/332/83
f 112/333/84 116/334/84 115/335/84 111/336/84
f 111/337/85 115/338/85 113/339/85 109/340/85
f 110/341/86 114/342/86 116/343/86 112/344/86
f 113/345/87 117/346/87 118/347/87 114/348/87
f 116/349/88 120/350/88 119/351/88 115/352/88
f 115/353/89 119/354/89 117/355/89 113/356/89
f 114/357/90 118/358/90 120/359/90 116/360/90
f 117/361/91 121/362/91 122/363/91 118/364/91
f 120/365/92 124/366/92 123/367/92 119/368/92
f 119/369/93 123/370/93 121/371/93 117/372/93
f 118/373/94 122/374/94 124/375/94 120/376/94
f 121/377/95 125/378/95 126/379/95 122/380/95
f 124/381/96 128/382/96 127/383/96 123/384/96
f 123/385/97 127/386/97 125/387/97 121/388/97
f 122/389/98 126/390/98 128/391/98 124/392/98
f 125/393/99 129/394/99 130/395/99 126/396/99
f 128/397/100 132/398/100 131/399/100 127/400/100
f 127/401/101 131/402/101 129/403/101 125/404/101
f 126/405/102 130/406/102 132/407/102 128/408/102
f 129/409/103 133/410/103 134/411/103 130/412/103
f 132/413/104 136/414/104 135/415/104 131/416/104
f 131/417/105 135/418/105 133/419/105 129/420/105
f 130/421/106 134/422/106 136/423/106 132/424/106
f 133/425/107 137/426/107 138/427/107 134/428/107
f 136/429/108 140/430/108 139/431/108 135/432/108
f 135/433/109 139/434/109 137/435/109 133/436/109
f 134/437/110 138/438/110 140/439/110 136/440/110
f 137/441/111 141/442/111 142/443/111 138/444/111
f 140/445/112 144/446/112 143/447/112 139/448/112
f 139/449/113 143/450/113 141/451/113 137/452/113
f 138/453/114 142/454/114 144/455/114 140/456/114
f 141/457/115 145/458/115 146/459/115 142/460/115
f 144/461/116 148/462/116 147/463/116 143/464/116
f 143/465/117 147/466/117 145/467/117 141/468/117
f 142/469/118 146/470/118 148/471/118 144/472/118
f 145/473/119 149/474/119 150/475/119 146/476/119
f 148/477/120 152/478/120 151/479/120 147/480/120
f 147/481/121 151/482/121 149/483/121 145/484/121
f 146/485/122 150/486/122 152/487/122 148/488/122
f 149/489/123 153/490/123 154/491/123 150/492/123
f 152/493/124 156/494/124 155/495/124 151/496/124
f 151/497/125 155/498/125 153/499/125 149/500/125
f 150/501/126 154/502/126 156/503/126 152/504/126
f 153/505/127 157/506/127 158/507/127 154/508/127
f 156/509/128 160/510/128 159/511/128 155/512/128
f 155/513/129 159/514/129 157/515/129 153/516/129
f 154/517/130 158/518/130 160/519/130 156/520/130
f 157/521/131 161/522/131 162/523/131 158/524/131
f 160/525/132 164/526/132 163/527/132 159/528/132
f 159/529/133 163/530/133 161/531/133 157/532/133
f 158/533/134 162/534/134 164/535/134 160/536/134
f 161/537/135 165/538/135 166/539/135 162/540/135
f 164/541/136 168/542/136 167/543/136 163/544/136
f 163/545/137 167/546/137 165/547/137 161/548/137
f 162/549/138 166/550/138 168/551/138 164/552/138
f 165/553/139 105/554/139 106/555/139 166/556/139
f 168/557/140 108/558/140 107/559/140 167/560/140
f 167/561/141 107/562/141 105/563/141 165/564/141
f 166/565/142 106/566/142 108/567/142 168/568/142