# Made in Blockbench 5.1.4
mtllib materials.mtl

o cube
v -0.025939 0.174863 0.500000
v -0.025939 0.174863 -0.500000
v 0.174863 0.025939 0.500000
v 0.174863 0.025939 -0.500000
v -0.174863 -0.025939 -0.500000
v -0.174863 -0.025939 0.500000
v 0.025939 -0.174863 -0.500000
v 0.025939 -0.174863 0.500000
vt 0 0.9375
vt 0.25 0.9375
vt 0.25 0.6875
vt 0 0.6875
vt 0 0.9375
vt 1 0.9375
vt 1 0.6875
vt 0 0.6875
vt 0 0.9375
vt 0.25 0.9375
vt 0.25 0.6875
vt 0 0.6875
vt 0 0.9375
vt 1 0.9375
vt 1 0.6875
vt 0 0.6875
vt 0 1
vt 0.25 1
vt 0.25 0
vt 0 0
vt 0 1
vt 0.25 1
vt 0.25 0
vt 0 0
vn 0.000000 0.000000 -1.000000
vn 0.595699 0.803208 0.000000
vn 0.000000 0.000000 1.000000
vn -0.595699 -0.803208 0.000000
vn -0.803208 0.595699 0.000000
vn 0.803208 -0.595699 0.000000
usemtl none
f 4/4/1 7/3/1 5/2/1 2/1/1
f 3/8/2 4/7/2 2/6/2 1/5/2
f 8/12/3 3/11/3 1/10/3 6/9/3
f 7/16/4 8/15/4 6/14/4 5/13/4
f 6/20/5 1/19/5 2/18/5 5/17/5
f 7/24/6 4/23/6 3/22/6 8/21/6