# Made in Blockbench 5.0.7
mtllib materials.mtl

o mesh
v -0.08948453784052954 2.321875 0.030838152647773114
v -0.029877228418765348 2.321875 0.012044040178756049
v -0.08948453784052954 2.303125 0.030838152647773114
v -0.029877228418765348 2.303125 0.012044040178756049
v -0.09512277158123465 2.321875 0.012955959821243862
v -0.03551546215947047 2.321875 -0.005838152647773202
v -0.09512277158123465 2.303125 0.012955959821243862
v -0.03551546215947047 2.303125 -0.005838152647773202
vt 0.234375 0.65625
vt 0.21875 0.65625
vt 0.21875 0.640625
vt 0.234375 0.640625
vt 0.265625 0.640625
vt 0.265625 0.65625
vt 0.25 0.65625
vt 0.25 0.640625
vt 0.21875 0.609375
vt 0.234375 0.609375
vt 0.234375 0.625
vt 0.21875 0.625
vt 0.265625 0.609375
vt 0.265625 0.625
vt 0.25 0.625
vt 0.25 0.609375
vt 0.09375 0.5
vt 0.09375 0.515625
vt 0.078125 0.515625
vt 0.078125 0.5
vt 0.125 0.515625
vt 0.109375 0.515625
vt 0.109375 0.5
vt 0.125 0.5
vn 0.30070579950427306 0 0.9537169507482269
vn -0.30070579950427306 0 -0.9537169507482269
vn 0 1 0
vn 0 -1 0
vn -0.9537169507482269 0 0.30070579950427306
vn 0.9537169507482269 0 -0.30070579950427306
usemtl m_630bfdee-1a92-38f8-fcf3-e7a66dacfa09
f 2/1/1 1/2/1 3/3/1 4/4/1
f 7/5/2 5/6/2 6/7/2 8/8/2
f 5/9/3 1/10/3 2/11/3 6/12/3
f 4/13/4 3/14/4 7/15/4 8/16/4
f 3/17/5 1/18/5 5/19/5 7/20/5
f 6/21/6 2/22/6 4/23/6 8/24/6
o mesh
v -0.04375000000000001 2.321875 0.015624999999999972
v 0.01874999999999999 2.321875 0.01562499999999998
v -0.04375000000000001 2.303125 0.015624999999999972
v 0.01874999999999999 2.303125 0.01562499999999998
v -0.04375000000000001 2.321875 -0.003125000000000028
v 0.01874999999999999 2.321875 -0.003125000000000021
v -0.04375000000000001 2.303125 -0.003125000000000028
v 0.01874999999999999 2.303125 -0.003125000000000021
vt 0.40625 0.375
vt 0.390625 0.375
vt 0.390625 0.359375
vt 0.40625 0.359375
vt 0.4375 0.359375
vt 0.4375 0.375
vt 0.421875 0.375
vt 0.421875 0.359375
vt 0.390625 0.328125
vt 0.40625 0.328125
vt 0.40625 0.34375
vt 0.390625 0.34375
vt 0.4375 0.328125
vt 0.4375 0.34375
vt 0.421875 0.34375
vt 0.421875 0.328125
vt 0.40625 0.296875
vt 0.40625 0.3125
vt 0.390625 0.3125
vt 0.390625 0.296875
vt 0.4375 0.3125
vt 0.421875 0.3125
vt 0.421875 0.296875
vt 0.4375 0.296875
vn -9.957992501029599e-17 0 1
vn 9.957992501029599e-17 0 -1
vn 0 1 0
vn 0 -1 0
vn -1 0 -9.957992501029599e-17
vn 1 0 9.957992501029599e-17
usemtl m_630bfdee-1a92-38f8-fcf3-e7a66dacfa09
f 10/25/7 9/26/7 11/27/7 12/28/7
f 15/29/8 13/30/8 14/31/8 16/32/8
f 13/33/9 9/34/9 10/35/9 14/36/9
f 12/37/10 11/38/10 15/39/10 16/40/10
f 11/41/11 9/42/11 13/43/11 15/44/11
f 14/45/12 10/46/12 12/47/12 16/48/12
o mesh
v -0.0013727715812346455 2.321875 0.012044040178756054
v 0.058234537840529524 2.321875 0.030838152647773148
v -0.0013727715812346455 2.303125 0.012044040178756054
v 0.058234537840529524 2.303125 0.030838152647773148
v 0.00426546215947048 2.321875 -0.005838152647773195
v 0.06387277158123464 2.321875 0.012955959821243899
v 0.00426546215947048 2.303125 -0.005838152647773195
v 0.06387277158123464 2.303125 0.012955959821243899
vt 0.09375 0.484375
vt 0.078125 0.484375
vt 0.078125 0.46875
vt 0.09375 0.46875
vt 0.125 0.46875
vt 0.125 0.484375
vt 0.109375 0.484375
vt 0.109375 0.46875
vt 0.15625 0.4375
vt 0.171875 0.4375
vt 0.171875 0.453125
vt 0.15625 0.453125
vt 0.203125 0.4375
vt 0.203125 0.453125
vt 0.1875 0.453125
vt 0.1875 0.4375
vt 0.171875 0.40625
vt 0.171875 0.421875
vt 0.15625 0.421875
vt 0.15625 0.40625
vt 0.203125 0.421875
vt 0.1875 0.421875
vt 0.1875 0.40625
vt 0.203125 0.40625
vn -0.30070579950427356 0 0.9537169507482269
vn 0.30070579950427356 0 -0.9537169507482269
vn 0 1 0
vn 0 -1 0
vn -0.9537169507482269 0 -0.30070579950427356
vn 0.9537169507482269 0 0.30070579950427356
usemtl m_630bfdee-1a92-38f8-fcf3-e7a66dacfa09
f 18/49/13 17/50/13 19/51/13 20/52/13
f 23/53/14 21/54/14 22/55/14 24/56/14
f 21/57/15 17/58/15 18/59/15 22/60/15
f 20/61/16 19/62/16 23/63/16 24/64/16
f 19/65/17 17/66/17 21/67/17 23/68/17
f 22/69/18 18/70/18 20/71/18 24/72/18
o mesh
v 0.058234537840529524 2.321875 0.03166184735222678
v -0.0013727715812346455 2.321875 0.05045595982124387
v 0.058234537840529524 2.303125 0.03166184735222678
v -0.0013727715812346455 2.303125 0.05045595982124387
v 0.06387277158123464 2.321875 0.049544040178756035
v 0.00426546215947048 2.321875 0.06833815264777313
v 0.06387277158123464 2.303125 0.049544040178756035
v 0.00426546215947048 2.303125 0.06833815264777313
vt 0.40625 0.28125
vt 0.390625 0.28125
vt 0.390625 0.265625
vt 0.40625 0.265625
vt 0.4375 0.265625
vt 0.4375 0.28125
vt 0.421875 0.28125
vt 0.421875 0.265625
vt 0.390625 0.234375
vt 0.40625 0.234375
vt 0.40625 0.25
vt 0.390625 0.25
vt 0.4375 0.234375
vt 0.4375 0.25
vt 0.421875 0.25
vt 0.421875 0.234375
vt 0.171875 0.21875
vt 0.171875 0.234375
vt 0.15625 0.234375
vt 0.15625 0.21875
vt 0.203125 0.234375
vt 0.1875 0.234375
vt 0.1875 0.21875
vt 0.203125 0.21875
vn -0.30070579950427356 0 -0.9537169507482269
vn 0.30070579950427356 0 0.9537169507482269
vn 0 1 0
vn 0 -1 0
vn 0.9537169507482269 0 -0.30070579950427356
vn -0.9537169507482269 0 0.30070579950427356
usemtl m_630bfdee-1a92-38f8-fcf3-e7a66dacfa09
f 26/73/19 25/74/19 27/75/19 28/76/19
f 31/77/20 29/78/20 30/79/20 32/80/20
f 29/81/21 25/82/21 26/83/21 30/84/21
f 28/85/22 27/86/22 31/87/22 32/88/22
f 27/89/23 25/90/23 29/91/23 31/92/23
f 30/93/24 26/94/24 28/95/24 32/96/24
o mesh
v -0.029877228418765348 2.321875 0.05045595982124388
v -0.08948453784052954 2.321875 0.03166184735222682
v -0.029877228418765348 2.303125 0.05045595982124388
v -0.08948453784052954 2.303125 0.03166184735222682
v -0.03551546215947047 2.321875 0.06833815264777313
v -0.09512277158123465 2.321875 0.04954404017875607
v -0.03551546215947047 2.303125 0.06833815264777313
v -0.09512277158123465 2.303125 0.04954404017875607
vt 0.234375 0.234375
vt 0.21875 0.234375
vt 0.21875 0.21875
vt 0.234375 0.21875
vt 0.265625 0.21875
vt 0.265625 0.234375
vt 0.25 0.234375
vt 0.25 0.21875
vt 0.28125 0.21875
vt 0.296875 0.21875
vt 0.296875 0.234375
vt 0.28125 0.234375
vt 0.78125 0.59375
vt 0.78125 0.609375
vt 0.765625 0.609375
vt 0.765625 0.59375
vt 0.78125 0.5625
vt 0.78125 0.578125
vt 0.765625 0.578125
vt 0.765625 0.5625
vt 0.78125 0.546875
vt 0.765625 0.546875
vt 0.765625 0.53125
vt 0.78125 0.53125
vn 0.30070579950427306 0 -0.9537169507482269
vn -0.30070579950427306 0 0.9537169507482269
vn 0 1 0
vn 0 -1 0
vn 0.9537169507482269 0 0.30070579950427306
vn -0.9537169507482269 0 -0.30070579950427306
usemtl m_630bfdee-1a92-38f8-fcf3-e7a66dacfa09
f 34/97/25 33/98/25 35/99/25 36/100/25
f 39/101/26 37/102/26 38/103/26 40/104/26
f 37/105/27 33/106/27 34/107/27 38/108/27
f 36/109/28 35/110/28 39/111/28 40/112/28
f 35/113/29 33/114/29 37/115/29 39/116/29
f 38/117/30 34/118/30 36/119/30 40/120/30
o mesh
v 0.01875 2.321875 0.04687499999999996
v -0.04375 2.321875 0.04687499999999998
v 0.01875 2.303125 0.04687499999999996
v -0.04375 2.303125 0.04687499999999998
v 0.018750000000000003 2.321875 0.06562499999999996
v -0.04375 2.321875 0.06562499999999998
v 0.018750000000000003 2.303125 0.06562499999999996
v -0.04375 2.303125 0.06562499999999998
vt 0.78125 0.515625
vt 0.765625 0.515625
vt 0.765625 0.5
vt 0.78125 0.5
vt 0.78125 0.46875
vt 0.78125 0.484375
vt 0.765625 0.484375
vt 0.765625 0.46875
vt 0.765625 0.4375
vt 0.78125 0.4375
vt 0.78125 0.453125
vt 0.765625 0.453125
vt 0.78125 0.40625
vt 0.78125 0.421875
vt 0.765625 0.421875
vt 0.765625 0.40625
vt 0.78125 0.375
vt 0.78125 0.390625
vt 0.765625 0.390625
vt 0.765625 0.375
vt 0.78125 0.359375
vt 0.765625 0.359375
vt 0.765625 0.34375
vt 0.78125 0.34375
vn -3.4450928483976665e-16 0 -1
vn 3.4450928483976665e-16 0 1
vn 0 1 0
vn 0 -1 0
vn 1 0 -3.4450928483976665e-16
vn -1 0 3.4450928483976665e-16
usemtl m_630bfdee-1a92-38f8-fcf3-e7a66dacfa09
f 42/121/31 41/122/31 43/123/31 44/124/31
f 47/125/32 45/126/32 46/127/32 48/128/32
f 45/129/33 41/130/33 42/131/33 46/132/33
f 44/133/34 43/134/34 47/135/34 48/136/34
f 43/137/35 41/138/35 45/139/35 47/140/35
f 46/141/36 42/142/36 44/143/36 48/144/36
o mesh
v 0.25 3.5625 0.25
v 0.25 3.5625 -0.25
v 0.25 3.0625 0.25
v 0.25 3.0625 -0.25
v -0.25 3.5625 0.25
v -0.25 3.5625 -0.25
v -0.25 3.0625 0.25
v -0.25 3.0625 -0.25
vt 0.125 0.796875
vt 0 0.796875
vt 0 0.671875
vt 0.125 0.671875
vt 0.265625 0.671875
vt 0.265625 0.796875
vt 0.140625 0.796875
vt 0.140625 0.671875
vt 0.28125 0.875
vt 0.40625 0.875
vt 0.40625 1
vt 0.28125 1
vt 0.40625 0.734375
vt 0.40625 0.859375
vt 0.28125 0.859375
vt 0.28125 0.734375
vt 0.40625 0.59375
vt 0.40625 0.71875
vt 0.28125 0.71875
vt 0.28125 0.59375
vt 0.125 0.65625
vt 0 0.65625
vt 0 0.53125
vt 0.125 0.53125
vn 1 0 0
vn -1 0 0
vn 0 1 0
vn 0 -1 0
vn 0 0 1
vn 0 0 -1
usemtl m_630bfdee-1a92-38f8-fcf3-e7a66dacfa09
f 50/145/37 49/146/37 51/147/37 52/148/37
f 55/149/38 53/150/38 54/151/38 56/152/38
f 53/153/39 49/154/39 50/155/39 54/156/39
f 52/157/40 51/158/40 55/159/40 56/160/40
f 51/161/41 49/162/41 53/163/41 55/164/41
f 54/165/42 50/166/42 52/167/42 56/168/42
o mesh
v 0.125 3.0625 0.25
v 0.125 3.0625 -0.25
v 0.125 2.3125 0.25
v 0.125 2.3125 -0.25
v -0.125 3.0625 0.25
v -0.125 3.0625 -0.25
v -0.125 2.3125 0.25
v -0.125 2.3125 -0.25
vt 0.125 1
vt 0 1
vt 0 0.8125
vt 0.125 0.8125
vt 0.265625 0.8125
vt 0.265625 1
vt 0.140625 1
vt 0.140625 0.8125
vt 0.15625 0.25
vt 0.21875 0.25
vt 0.21875 0.375
vt 0.15625 0.375
vt 0.296875 0.25
vt 0.296875 0.375
vt 0.234375 0.375
vt 0.234375 0.25
vt 0.359375 0.390625
vt 0.359375 0.578125
vt 0.296875 0.578125
vt 0.296875 0.390625
vt 0.4375 0.578125
vt 0.375 0.578125
vt 0.375 0.390625
vt 0.4375 0.390625
vn 1 0 0
vn -1 0 0
vn 0 1 0
vn 0 -1 0
vn 0 0 1
vn 0 0 -1
usemtl m_630bfdee-1a92-38f8-fcf3-e7a66dacfa09
f 58/169/43 57/170/43 59/171/43 60/172/43
f 63/173/44 61/174/44 62/175/44 64/176/44
f 61/177/45 57/178/45 58/179/45 62/180/45
f 60/181/46 59/182/46 63/183/46 64/184/46
f 59/185/47 57/186/47 61/187/47 63/188/47
f 62/189/48 58/190/48 60/191/48 64/192/48
o mesh
v 0.125 3.0625 0.5
v 0.125 3.0625 0.25
v 0.125 2.3125 0.5
v 0.125 2.3125 0.25
v -0.125 3.0625 0.5
v -0.125 3.0625 0.25
v -0.125 2.3125 0.5
v -0.125 2.3125 0.25
vt 0.515625 0.59375
vt 0.453125 0.59375
vt 0.453125 0.40625
vt 0.515625 0.40625
vt 0.0625 0.328125
vt 0.0625 0.515625
vt 0 0.515625
vt 0 0.328125
vt 0.6875 0.46875
vt 0.75 0.46875
vt 0.75 0.53125
vt 0.6875 0.53125
vt 0.75 0.390625
vt 0.75 0.453125
vt 0.6875 0.453125
vt 0.6875 0.390625
vt 0.5625 0.8125
vt 0.5625 1
vt 0.5 1
vt 0.5 0.8125
vt 0.5625 0.796875
vt 0.5 0.796875
vt 0.5 0.609375
vt 0.5625 0.609375
vn 1 0 0
vn -1 0 0
vn 0 1 0
vn 0 -1 0
vn 0 0 1
vn 0 0 -1
usemtl m_630bfdee-1a92-38f8-fcf3-e7a66dacfa09
f 66/193/49 65/194/49 67/195/49 68/196/49
f 71/197/50 69/198/50 70/199/50 72/200/50
f 69/201/51 65/202/51 66/203/51 70/204/51
f 68/205/52 67/206/52 71/207/52 72/208/52
f 67/209/53 65/210/53 69/211/53 71/212/53
f 70/213/54 66/214/54 68/215/54 72/216/54
o mesh
v 0.125 3.0625 -0.25
v 0.125 3.0625 -0.5
v 0.125 2.3125 -0.25
v 0.125 2.3125 -0.5
v -0.125 3.0625 -0.25
v -0.125 3.0625 -0.5
v -0.125 2.3125 -0.25
v -0.125 2.3125 -0.5
vt 0.203125 0.65625
vt 0.140625 0.65625
vt 0.140625 0.46875
vt 0.203125 0.46875
vt 0.484375 0.8125
vt 0.484375 1
vt 0.421875 1
vt 0.421875 0.8125
vt 0.3125 0.3125
vt 0.375 0.3125
vt 0.375 0.375
vt 0.3125 0.375
vt 0.71875 0.9375
vt 0.71875 1
vt 0.65625 1
vt 0.65625 0.9375
vt 0.484375 0.609375
vt 0.484375 0.796875
vt 0.421875 0.796875
vt 0.421875 0.609375
vt 0.28125 0.578125
vt 0.21875 0.578125
vt 0.21875 0.390625
vt 0.28125 0.390625
vn 1 0 0
vn -1 0 0
vn 0 1 0
vn 0 -1 0
vn 0 0 1
vn 0 0 -1
usemtl m_630bfdee-1a92-38f8-fcf3-e7a66dacfa09
f 74/217/55 73/218/55 75/219/55 76/220/55
f 79/221/56 77/222/56 78/223/56 80/224/56
f 77/225/57 73/226/57 74/227/57 78/228/57
f 76/229/58 75/230/58 79/231/58 80/232/58
f 75/233/59 73/234/59 77/235/59 79/236/59
f 78/237/60 74/238/60 76/239/60 80/240/60
o mesh
v 0.125 2.3125 0
v 0.125 2.3125 -0.25
v 0.125 1.5625 0
v 0.125 1.5625 -0.25
v -0.125 2.3125 0
v -0.125 2.3125 -0.25
v -0.125 1.5625 0
v -0.125 1.5625 -0.25
vt 0.59375 0.59375
vt 0.53125 0.59375
vt 0.53125 0.40625
vt 0.59375 0.40625
vt 0.140625 0.265625
vt 0.140625 0.453125
vt 0.078125 0.453125
vt 0.078125 0.265625
vt 0.6875 0.3125
vt 0.75 0.3125
vt 0.75 0.375
vt 0.6875 0.375
vt 0.375 0.234375
vt 0.375 0.296875
vt 0.3125 0.296875
vt 0.3125 0.234375
vt 0.640625 0.8125
vt 0.640625 1
vt 0.578125 1
vt 0.578125 0.8125
vt 0.640625 0.796875
vt 0.578125 0.796875
vt 0.578125 0.609375
vt 0.640625 0.609375
vn 1 0 0
vn -1 0 0
vn 0 1 0
vn 0 -1 0
vn 0 0 1
vn 0 0 -1
usemtl m_630bfdee-1a92-38f8-fcf3-e7a66dacfa09
f 82/241/61 81/242/61 83/243/61 84/244/61
f 87/245/62 85/246/62 86/247/62 88/248/62
f 85/249/63 81/250/63 82/251/63 86/252/63
f 84/253/64 83/254/64 87/255/64 88/256/64
f 83/257/65 81/258/65 85/259/65 87/260/65
f 86/261/66 82/262/66 84/263/66 88/264/66
o mesh
v 0.125 2.3125 0.25
v 0.125 2.3125 0
v 0.125 1.5625 0.25
v 0.125 1.5625 0
v -0.125 2.3125 0.25
v -0.125 2.3125 0
v -0.125 1.5625 0.25
v -0.125 1.5625 0
vt 0.671875 0.59375
vt 0.609375 0.59375
vt 0.609375 0.40625
vt 0.671875 0.40625
vt 0.515625 0.203125
vt 0.515625 0.390625
vt 0.453125 0.390625
vt 0.453125 0.203125
vt 0.6875 0.234375
vt 0.75 0.234375
vt 0.75 0.296875
vt 0.6875 0.296875
vt 0.796875 0.9375
vt 0.796875 1
vt 0.734375 1
vt 0.734375 0.9375
vt 0.59375 0.203125
vt 0.59375 0.390625
vt 0.53125 0.390625
vt 0.53125 0.203125
vt 0.671875 0.390625
vt 0.609375 0.390625
vt 0.609375 0.203125
vt 0.671875 0.203125
vn 1 0 0
vn -1 0 0
vn 0 1 0
vn 0 -1 0
vn 0 0 1
vn 0 0 -1
usemtl m_630bfdee-1a92-38f8-fcf3-e7a66dacfa09
f 90/265/67 89/266/67 91/267/67 92/268/67
f 95/269/68 93/270/68 94/271/68 96/272/68
f 93/273/69 89/274/69 90/275/69 94/276/69
f 92/277/70 91/278/70 95/279/70 96/280/70
f 91/281/71 89/282/71 93/283/71 95/284/71
f 94/285/72 90/286/72 92/287/72 96/288/72
o cube
v -0.1513368851743358 3.021074680116571 0
v -0.1513368851743358 3.021074680116571 -0.25
v 0.0401742256054087 2.860377777694936 0
v 0.0401742256054087 2.860377777694936 -0.25
v -0.3120337875959706 2.8295635693368264 -0.25
v -0.3120337875959706 2.8295635693368264 0
v -0.12052267681622611 2.6688666669151915 -0.25
v -0.12052267681622611 2.6688666669151915 0
vt 0.734375 0.921875
vt 0.796875 0.921875
vt 0.796875 0.859375
vt 0.734375 0.859375
vt 0.734375 0.84375
vt 0.796875 0.84375
vt 0.796875 0.78125
vt 0.734375 0.78125
vt 0.734375 0.765625
vt 0.796875 0.765625
vt 0.796875 0.703125
vt 0.734375 0.703125
vt 0.734375 0.6875
vt 0.796875 0.6875
vt 0.796875 0.625
vt 0.734375 0.625
vt 0.140625 0.1875
vt 0.078125 0.1875
vt 0.078125 0.25
vt 0.140625 0.25
vt 0.0625 0.234375
vt 0 0.234375
vt 0 0.171875
vt 0.0625 0.171875
vn 0 0 -1
vn 0.6427876096865393 0.766044443118978 0
vn 0 0 1
vn -0.6427876096865393 -0.766044443118978 0
vn -0.766044443118978 0.6427876096865393 0
vn 0.766044443118978 -0.6427876096865393 0
usemtl m_630bfdee-1a92-38f8-fcf3-e7a66dacfa09
f 100/292/73 103/291/73 101/290/73 98/289/73
f 99/296/74 100/295/74 98/294/74 97/293/74
f 104/300/75 99/299/75 97/298/75 102/297/75
f 103/304/76 104/303/76 102/302/76 101/301/76
f 102/308/77 97/307/77 98/306/77 101/305/77
f 103/312/78 100/311/78 99/310/78 104/309/78
o cube
v -0.1513368851743358 3.021074680116571 0.25
v -0.1513368851743358 3.021074680116571 0
v 0.0401742256054087 2.860377777694936 0.25
v 0.0401742256054087 2.860377777694936 0
v -0.3120337875959706 2.8295635693368264 0
v -0.3120337875959706 2.8295635693368264 0.25
v -0.12052267681622611 2.6688666669151915 0
v -0.12052267681622611 2.6688666669151915 0.25
vt 0.65625 0.921875
vt 0.71875 0.921875
vt 0.71875 0.859375
vt 0.65625 0.859375
vt 0.65625 0.84375
vt 0.71875 0.84375
vt 0.71875 0.78125
vt 0.65625 0.78125
vt 0.65625 0.765625
vt 0.71875 0.765625
vt 0.71875 0.703125
vt 0.65625 0.703125
vt 0.65625 0.6875
vt 0.71875 0.6875
vt 0.71875 0.625
vt 0.65625 0.625
vt 0.0625 0.25
vt 0 0.25
vt 0 0.3125
vt 0.0625 0.3125
vt 0.75 0.609375
vt 0.6875 0.609375
vt 0.6875 0.546875
vt 0.75 0.546875
vn 0 0 -1
vn 0.6427876096865393 0.766044443118978 0
vn 0 0 1
vn -0.6427876096865393 -0.766044443118978 0
vn -0.766044443118978 0.6427876096865393 0
vn 0.766044443118978 -0.6427876096865393 0
usemtl m_630bfdee-1a92-38f8-fcf3-e7a66dacfa09
f 108/316/79 111/315/79 109/314/79 106/313/79
f 107/320/80 108/319/80 106/318/80 105/317/80
f 112/324/81 107/323/81 105/322/81 110/321/81
f 111/328/82 112/327/82 110/326/82 109/325/82
f 110/332/83 105/331/83 106/330/83 109/329/83
f 111/336/84 108/335/84 107/334/84 112/333/84