# File generated by ImageToStl.com - Free Image and 3D model conversion tools

mtllib 635e88fbe03e497cbfa1a1c82a17dbb0.mtl

o obj1
v 0.15910937 1.82298436 0.15910937
v 0.15910937 1.44226562 0.15910937
v 0.15910937 1.82298436 -0.22160937
v 0.15910937 1.44226562 -0.22160937
v -0.22160937 1.82298436 -0.22160937
v -0.22160937 1.44226562 -0.22160937
v -0.22160937 1.82298436 0.15910937
v -0.22160937 1.44226562 0.15910937
v -0.22160937 1.82298436 -0.22160937
v -0.22160937 1.82298436 0.15910937
v 0.15910937 1.82298436 -0.22160937
v 0.15910937 1.82298436 0.15910937
v -0.22160937 1.44226562 0.15910937
v -0.22160937 1.44226562 -0.22160937
v 0.15910937 1.44226562 0.15910937
v 0.15910937 1.44226562 -0.22160937
v -0.22160937 1.82298436 0.15910937
v -0.22160937 1.44226562 0.15910937
v 0.15910937 1.82298436 0.15910937
v 0.15910937 1.44226562 0.15910937
v 0.15910937 1.82298436 -0.22160937
v 0.15910937 1.44226562 -0.22160937
v -0.22160937 1.82298436 -0.22160937
v -0.22160937 1.44226562 -0.22160937
vn 1 0 0
vn -1 0 0
vn 0 1 0
vn 0 -1 0
vn 0 0 1
vn 0 0 -1
vt 0 0.90625
vt 0 0.8125
vt 0.09375 0.90625
vt 0.09375 0.8125
vt 0.1875 0.90625
vt 0.1875 0.8125
vt 0.09375 0.71875
vt 0 0.71875
vt 0.28125 1
vt 0.28125 0.90625
vt 0.1875 1
vt 0.09375 1
vt 0 1
usemtl mat0
f 1/1/1 2/2/1 3/3/1
f 2/2/1 4/4/1 3/3/1
f 5/3/2 6/4/2 7/5/2
f 6/4/2 8/6/2 7/5/2
f 9/7/3 10/4/3 11/8/3
f 10/4/3 12/2/3 11/8/3
f 13/9/4 14/10/4 15/11/4
f 14/10/4 16/5/4 15/11/4
f 17/12/5 18/3/5 19/11/5
f 18/3/5 20/5/5 19/11/5
f 21/13/6 22/1/6 23/12/6
f 22/1/6 24/3/6 23/12/6
# Vertices: 24, normals: 6, texture coordinates: 13, faces: 12

o obj2
v 0.15276407 1.75953124 -0.22281593
v 0.15276407 1.60089843 -0.22281593
v 0.15276407 1.75953124 -0.22287843
v 0.15276407 1.60089843 -0.22287843
v -0.00586874 1.75953124 -0.22287843
v -0.00586874 1.60089843 -0.22287843
v -0.00586874 1.75953124 -0.22281593
v -0.00586874 1.60089843 -0.22281593
v -0.00586874 1.75953124 -0.22287843
v -0.00586874 1.75953124 -0.22281593
v -0.00586874 1.60089843 -0.22281593
v -0.00586874 1.60089843 -0.22287843
v 0.15276407 1.60089843 -0.22281593
v 0.15276407 1.60089843 -0.22287843
v -0.00586874 1.75953124 -0.22281593
v -0.00586874 1.60089843 -0.22281593
v 0.15276407 1.75953124 -0.22281593
v 0.15276407 1.60089843 -0.22281593
v 0.15276407 1.75953124 -0.22287843
v 0.15276407 1.60089843 -0.22287843
v -0.00586874 1.75953124 -0.22287843
v -0.00586874 1.60089843 -0.22287843
vn 1 0 0
vn -1 0 0
vn 0 1 0
vn 0 -1 0
vn 0 0 1
vn 0 0 -1
vt 0 1
vt 0 0.95312
vt 0.04688 1
vt 0.125 0.65625
vt 0.125 0.60938
vt 0.17188 0.65625
vt 0.17188 0.60938
vt 0.0625 0.65625
vt 0.0625 0.60938
vt 0.10938 0.65625
vt 0.10938 0.60938
usemtl mat0
f 25/14/7 26/15/7 27/14/7
f 26/15/7 28/15/7 27/14/7
f 29/14/8 30/15/8 31/14/8
f 30/15/8 32/15/8 31/14/8
f 33/16/9 34/16/9 27/14/9
f 34/16/9 25/14/9 27/14/9
f 35/16/10 36/16/10 37/14/10
f 36/16/10 38/14/10 37/14/10
f 39/17/11 40/18/11 41/19/11
f 40/18/11 42/20/11 41/19/11
f 43/21/12 44/22/12 45/23/12
f 44/22/12 46/24/12 45/23/12
# Vertices: 22, normals: 6, texture coordinates: 11, faces: 12

o obj3
v 0.1210375 1.72780468 -0.22345046
v 0.1210375 1.63262499 -0.22345046
v 0.1210375 1.72780468 -0.22351296
v 0.1210375 1.63262499 -0.22351296
v 0.02585781 1.72780468 -0.22351296
v 0.02585781 1.63262499 -0.22351296
v 0.02585781 1.72780468 -0.22345046
v 0.02585781 1.63262499 -0.22345046
v 0.02585781 1.72780468 -0.22351296
v 0.02585781 1.72780468 -0.22345046
v 0.02585781 1.63262499 -0.22345046
v 0.02585781 1.63262499 -0.22351296
v 0.1210375 1.63262499 -0.22345046
v 0.1210375 1.63262499 -0.22351296
v 0.02585781 1.72780468 -0.22345046
v 0.02585781 1.63262499 -0.22345046
v 0.1210375 1.72780468 -0.22345046
v 0.1210375 1.63262499 -0.22345046
v 0.1210375 1.72780468 -0.22351296
v 0.1210375 1.63262499 -0.22351296
v 0.02585781 1.72780468 -0.22351296
v 0.02585781 1.63262499 -0.22351296
vn 1 0 0
vn -1 0 0
vn 0 1 0
vn 0 -1 0
vn 0 0 1
vn 0 0 -1
vt 0 1
vt 0 0.96875
vt 0.03125 1
vt 0.4375 0.8125
vt 0.4375 0.78125
vt 0.46875 0.8125
vt 0.46875 0.78125
vt 0.4375 0.9375
vt 0.4375 0.90625
vt 0.46875 0.9375
vt 0.46875 0.90625
usemtl mat0
f 47/25/13 48/26/13 49/25/13
f 48/26/13 50/26/13 49/25/13
f 51/25/14 52/26/14 53/25/14
f 52/26/14 54/26/14 53/25/14
f 55/27/15 56/27/15 49/25/15
f 56/27/15 47/25/15 49/25/15
f 57/27/16 58/27/16 59/25/16
f 58/27/16 60/25/16 59/25/16
f 61/28/17 62/29/17 63/30/17
f 62/29/17 64/31/17 63/30/17
f 65/32/18 66/33/18 67/34/18
f 66/33/18 68/35/18 67/34/18
# Vertices: 22, normals: 6, texture coordinates: 11, faces: 12

o obj4
v -0.05663125 1.75953125 -0.22281594
v -0.05663125 1.60089843 -0.22281594
v -0.05663125 1.75953125 -0.22287844
v -0.05663125 1.60089843 -0.22287844
v -0.21526406 1.75953125 -0.22287844
v -0.21526406 1.60089843 -0.22287844
v -0.21526406 1.75953125 -0.22281594
v -0.21526406 1.60089843 -0.22281594
v -0.21526406 1.75953125 -0.22287844
v -0.21526406 1.75953125 -0.22281594
v -0.21526406 1.60089843 -0.22281594
v -0.21526406 1.60089843 -0.22287844
v -0.05663125 1.60089843 -0.22281594
v -0.05663125 1.60089843 -0.22287844
v -0.21526406 1.75953125 -0.22281594
v -0.21526406 1.60089843 -0.22281594
v -0.05663125 1.75953125 -0.22281594
v -0.05663125 1.60089843 -0.22281594
v -0.05663125 1.75953125 -0.22287844
v -0.05663125 1.60089843 -0.22287844
v -0.21526406 1.75953125 -0.22287844
v -0.21526406 1.60089843 -0.22287844
vn 1 0 0
vn -1 0 0
vn 0 1 0
vn 0 -1 0
vn 0 0 1
vn 0 0 -1
vt 0 1
vt 0 0.95312
vt 0.04688 1
vt 0.25 0.65625
vt 0.25 0.60938
vt 0.29688 0.65625
vt 0.29688 0.60938
vt 0.1875 0.65625
vt 0.1875 0.60938
vt 0.23438 0.65625
vt 0.23438 0.60938
usemtl mat0
f 69/36/19 70/37/19 71/36/19
f 70/37/19 72/37/19 71/36/19
f 73/36/20 74/37/20 75/36/20
f 74/37/20 76/37/20 75/36/20
f 77/38/21 78/38/21 71/36/21
f 78/38/21 69/36/21 71/36/21
f 79/38/22 80/38/22 81/36/22
f 80/38/22 82/36/22 81/36/22
f 83/39/23 84/40/23 85/41/23
f 84/40/23 86/42/23 85/41/23
f 87/43/24 88/44/24 89/45/24
f 88/44/24 90/46/24 89/45/24
# Vertices: 22, normals: 6, texture coordinates: 11, faces: 12

o obj5
v -0.08835781 1.72780468 -0.22345046
v -0.08835781 1.632625 -0.22345046
v -0.08835781 1.72780468 -0.22351296
v -0.08835781 1.632625 -0.22351296
v -0.1835375 1.72780468 -0.22351296
v -0.1835375 1.632625 -0.22351296
v -0.1835375 1.72780468 -0.22345046
v -0.1835375 1.632625 -0.22345046
v -0.1835375 1.72780468 -0.22351296
v -0.1835375 1.72780468 -0.22345046
v -0.1835375 1.632625 -0.22345046
v -0.1835375 1.632625 -0.22351296
v -0.08835781 1.632625 -0.22345046
v -0.08835781 1.632625 -0.22351296
v -0.1835375 1.72780468 -0.22345046
v -0.1835375 1.632625 -0.22345046
v -0.08835781 1.72780468 -0.22345046
v -0.08835781 1.632625 -0.22345046
v -0.08835781 1.72780468 -0.22351296
v -0.08835781 1.632625 -0.22351296
v -0.1835375 1.72780468 -0.22351296
v -0.1835375 1.632625 -0.22351296
vn 1 0 0
vn -1 0 0
vn 0 1 0
vn 0 -1 0
vn 0 0 1
vn 0 0 -1
vt 0 1
vt 0 0.96875
vt 0.03125 1
vt 0.40625 0.5625
vt 0.40625 0.53125
vt 0.4375 0.5625
vt 0.4375 0.53125
vt 0.4375 0.71875
vt 0.4375 0.6875
vt 0.46875 0.71875
vt 0.46875 0.6875
usemtl mat0
f 91/47/25 92/48/25 93/47/25
f 92/48/25 94/48/25 93/47/25
f 95/47/26 96/48/26 97/47/26
f 96/48/26 98/48/26 97/47/26
f 99/49/27 100/49/27 93/47/27
f 100/49/27 91/47/27 93/47/27
f 101/49/28 102/49/28 103/47/28
f 102/49/28 104/47/28 103/47/28
f 105/50/29 106/51/29 107/52/29
f 106/51/29 108/53/29 107/52/29
f 109/54/30 110/55/30 111/56/30
f 110/55/30 112/57/30 111/56/30
# Vertices: 22, normals: 6, texture coordinates: 11, faces: 12

o obj6
v 0.19313487 1.75953124 -0.25554648
v 0.19313487 1.69607811 -0.25554648
v 0.19309067 1.75953124 -0.25559067
v 0.19309067 1.69607811 -0.25559067
v -0.25559067 1.75953124 0.19309068
v -0.25559067 1.69607811 0.19309068
v -0.25554648 1.75953124 0.19313487
v -0.25554648 1.69607811 0.19313487
v -0.25559067 1.75953124 0.19309068
v -0.25554648 1.75953124 0.19313487
v -0.25554648 1.69607811 0.19313487
v -0.25559067 1.69607811 0.19309068
v 0.19313487 1.69607811 -0.25554648
v 0.19309067 1.69607811 -0.25559067
v -0.25554648 1.75953124 0.19313487
v -0.25554648 1.69607811 0.19313487
v 0.19313487 1.75953124 -0.25554648
v 0.19313487 1.69607811 -0.25554648
v 0.19309067 1.75953124 -0.25559067
v 0.19309067 1.69607811 -0.25559067
v -0.25559067 1.75953124 0.19309068
v -0.25559067 1.69607811 0.19309068
vn 1 0 0
vn -1 0 0
vn 0 1 0
vn 0 -1 0
vn 0 0 1
vn 0 0 -1
vt 0 1
vt 0 0.98438
vt 0.15625 1
vt 0.09375 0.75
vt 0.09375 0.73438
vt 0.25 0.75
vt 0.25 0.73438
vt 0.09375 0.78125
vt 0.09375 0.76562
vt 0.25 0.78125
vt 0.25 0.76562
usemtl mat0
f 113/58/31 114/59/31 115/58/31
f 114/59/31 116/59/31 115/58/31
f 117/58/32 118/59/32 119/58/32
f 118/59/32 120/59/32 119/58/32
f 121/60/33 122/60/33 115/58/33
f 122/60/33 113/58/33 115/58/33
f 123/60/34 124/60/34 125/58/34
f 124/60/34 126/58/34 125/58/34
f 127/61/35 128/62/35 129/63/35
f 128/62/35 130/64/35 129/63/35
f 131/65/36 132/66/36 133/67/36
f 132/66/36 134/68/36 133/67/36
# Vertices: 22, normals: 6, texture coordinates: 11, faces: 12

o obj7
v 0.21556894 1.65800624 -0.27798055
v 0.21556894 1.59455311 -0.27798055
v 0.21552475 1.65800624 -0.27802474
v 0.21552475 1.59455311 -0.27802474
v -0.27802475 1.65800624 0.21552475
v -0.27802475 1.59455311 0.21552475
v -0.27798055 1.65800624 0.21556894
v -0.27798055 1.59455311 0.21556894
v -0.27802475 1.65800624 0.21552475
v -0.27798055 1.65800624 0.21556894
v -0.27798055 1.59455311 0.21556894
v -0.27802475 1.59455311 0.21552475
v 0.21556894 1.59455311 -0.27798055
v 0.21552475 1.59455311 -0.27802474
v -0.27798055 1.65800624 0.21556894
v -0.27798055 1.59455311 0.21556894
v 0.21556894 1.65800624 -0.27798055
v 0.21556894 1.59455311 -0.27798055
v 0.21552475 1.65800624 -0.27802474
v 0.21552475 1.59455311 -0.27802474
v -0.27802475 1.65800624 0.21552475
v -0.27802475 1.59455311 0.21552475
vn 1 0 0
vn -1 0 0
vn 0 1 0
vn 0 -1 0
vn 0 0 1
vn 0 0 -1
vt 0 1
vt 0 0.98438
vt 0.17188 1
vt 0.1875 0.90625
vt 0.1875 0.89062
vt 0.35938 0.90625
vt 0.35938 0.89062
vt 0.09375 0.8125
vt 0.09375 0.79688
vt 0.26562 0.8125
vt 0.26562 0.79688
usemtl mat0
f 135/69/37 136/70/37 137/69/37
f 136/70/37 138/70/37 137/69/37
f 139/69/38 140/70/38 141/69/38
f 140/70/38 142/70/38 141/69/38
f 143/71/39 144/71/39 137/69/39
f 144/71/39 135/69/39 137/69/39
f 145/71/40 146/71/40 147/69/40
f 146/71/40 148/69/40 147/69/40
f 149/72/41 150/73/41 151/74/41
f 150/73/41 152/75/41 151/74/41
f 153/76/42 154/77/42 155/78/42
f 154/77/42 156/79/42 155/78/42
# Vertices: 22, normals: 6, texture coordinates: 11, faces: 12

o obj8
v 0.19313487 1.55648124 -0.25554648
v 0.19313487 1.49302812 -0.25554648
v 0.19309067 1.55648124 -0.25559067
v 0.19309067 1.49302812 -0.25559067
v -0.25559067 1.55648124 0.19309068
v -0.25559067 1.49302812 0.19309068
v -0.25554648 1.55648124 0.19313487
v -0.25554648 1.49302812 0.19313487
v -0.25559067 1.55648124 0.19309068
v -0.25554648 1.55648124 0.19313487
v -0.25554648 1.49302812 0.19313487
v -0.25559067 1.49302812 0.19309068
v 0.19313487 1.49302812 -0.25554648
v 0.19309067 1.49302812 -0.25559067
v -0.25554648 1.55648124 0.19313487
v -0.25554648 1.49302812 0.19313487
v 0.19313487 1.55648124 -0.25554648
v 0.19313487 1.49302812 -0.25554648
v 0.19309067 1.55648124 -0.25559067
v 0.19309067 1.49302812 -0.25559067
v -0.25559067 1.55648124 0.19309068
v -0.25559067 1.49302812 0.19309068
vn 1 0 0
vn -1 0 0
vn 0 1 0
vn 0 -1 0
vn 0 0 1
vn 0 0 -1
vt 0 1
vt 0 0.98438
vt 0.15625 1
vt 0.25 0.75
vt 0.25 0.73438
vt 0.40625 0.75
vt 0.40625 0.73438
vt 0.25 0.78125
vt 0.25 0.76562
vt 0.40625 0.78125
vt 0.40625 0.76562
usemtl mat0
f 157/80/43 158/81/43 159/80/43
f 158/81/43 160/81/43 159/80/43
f 161/80/44 162/81/44 163/80/44
f 162/81/44 164/81/44 163/80/44
f 165/82/45 166/82/45 159/80/45
f 166/82/45 157/80/45 159/80/45
f 167/82/46 168/82/46 169/80/46
f 168/82/46 170/80/46 169/80/46
f 171/83/47 172/84/47 173/85/47
f 172/84/47 174/86/47 173/85/47
f 175/87/48 176/88/48 177/89/48
f 176/88/48 178/90/48 177/89/48
# Vertices: 22, normals: 6, texture coordinates: 11, faces: 12

o obj9
v -0.25554648 1.55648124 -0.25563487
v -0.25554648 1.49302812 -0.25563487
v -0.25559067 1.55648124 -0.25559067
v -0.25559067 1.49302812 -0.25559067
v 0.19309067 1.55648124 0.19309068
v 0.19309067 1.49302812 0.19309068
v 0.19313487 1.55648124 0.19304648
v 0.19313487 1.49302812 0.19304648
v 0.19309067 1.55648124 0.19309068
v 0.19313487 1.55648124 0.19304648
v 0.19313487 1.49302812 0.19304648
v 0.19309067 1.49302812 0.19309068
v -0.25554648 1.49302812 -0.25563487
v -0.25559067 1.49302812 -0.25559067
v 0.19313487 1.55648124 0.19304648
v 0.19313487 1.49302812 0.19304648
v -0.25554648 1.55648124 -0.25563487
v -0.25554648 1.49302812 -0.25563487
v -0.25559067 1.55648124 -0.25559067
v -0.25559067 1.49302812 -0.25559067
v 0.19309067 1.55648124 0.19309068
v 0.19309067 1.49302812 0.19309068
vn 1 0 0
vn -1 0 0
vn 0 1 0
vn 0 -1 0
vn 0 0 1
vn 0 0 -1
vt 0 1
vt 0 0.98438
vt 0.15625 1
vt 0.28125 1
vt 0.28125 0.98438
vt 0.4375 1
vt 0.4375 0.98438
vt 0 0.71875
vt 0 0.70312
vt 0.15625 0.71875
vt 0.15625 0.70312
usemtl mat0
f 179/91/49 180/92/49 181/91/49
f 180/92/49 182/92/49 181/91/49
f 183/91/50 184/92/50 185/91/50
f 184/92/50 186/92/50 185/91/50
f 187/93/51 188/93/51 181/91/51
f 188/93/51 179/91/51 181/91/51
f 189/93/52 190/93/52 191/91/52
f 190/93/52 192/91/52 191/91/52
f 193/94/53 194/95/53 195/96/53
f 194/95/53 196/97/53 195/96/53
f 197/98/54 198/99/54 199/100/54
f 198/99/54 200/101/54 199/100/54
# Vertices: 22, normals: 6, texture coordinates: 11, faces: 12

o obj10
v -0.25554648 1.75953124 -0.25563487
v -0.25554648 1.69607811 -0.25563487
v -0.25559067 1.75953124 -0.25559067
v -0.25559067 1.69607811 -0.25559067
v 0.19309067 1.75953124 0.19309068
v 0.19309067 1.69607811 0.19309068
v 0.19313487 1.75953124 0.19304648
v 0.19313487 1.69607811 0.19304648
v 0.19309067 1.75953124 0.19309068
v 0.19313487 1.75953124 0.19304648
v 0.19313487 1.69607811 0.19304648
v 0.19309067 1.69607811 0.19309068
v -0.25554648 1.69607811 -0.25563487
v -0.25559067 1.69607811 -0.25559067
v 0.19313487 1.75953124 0.19304648
v 0.19313487 1.69607811 0.19304648
v -0.25554648 1.75953124 -0.25563487
v -0.25554648 1.69607811 -0.25563487
v -0.25559067 1.75953124 -0.25559067
v -0.25559067 1.69607811 -0.25559067
v 0.19309067 1.75953124 0.19309068
v 0.19309067 1.69607811 0.19309068
vn 1 0 0
vn -1 0 0
vn 0 1 0
vn 0 -1 0
vn 0 0 1
vn 0 0 -1
vt 0 1
vt 0 0.98438
vt 0.15625 1
vt 0.28125 0.9375
vt 0.28125 0.92188
vt 0.4375 0.9375
vt 0.4375 0.92188
vt 0.28125 0.96875
vt 0.28125 0.95312
vt 0.4375 0.96875
vt 0.4375 0.95312
usemtl mat0
f 201/102/55 202/103/55 203/102/55
f 202/103/55 204/103/55 203/102/55
f 205/102/56 206/103/56 207/102/56
f 206/103/56 208/103/56 207/102/56
f 209/104/57 210/104/57 203/102/57
f 210/104/57 201/102/57 203/102/57
f 211/104/58 212/104/58 213/102/58
f 212/104/58 214/102/58 213/102/58
f 215/105/59 216/106/59 217/107/59
f 216/106/59 218/108/59 217/107/59
f 219/109/60 220/110/60 221/111/60
f 220/110/60 222/112/60 221/111/60
# Vertices: 22, normals: 6, texture coordinates: 11, faces: 12

o obj11
v -0.27798055 1.65800624 -0.27806894
v -0.27798055 1.59455311 -0.27806894
v -0.27802475 1.65800624 -0.27802474
v -0.27802475 1.59455311 -0.27802474
v 0.21552475 1.65800624 0.21552475
v 0.21552475 1.59455311 0.21552475
v 0.21556894 1.65800624 0.21548055
v 0.21556894 1.59455311 0.21548055
v 0.21552475 1.65800624 0.21552475
v 0.21556894 1.65800624 0.21548055
v 0.21556894 1.59455311 0.21548055
v 0.21552475 1.59455311 0.21552475
v -0.27798055 1.59455311 -0.27806894
v -0.27802475 1.59455311 -0.27802474
v 0.21556894 1.65800624 0.21548055
v 0.21556894 1.59455311 0.21548055
v -0.27798055 1.65800624 -0.27806894
v -0.27798055 1.59455311 -0.27806894
v -0.27802475 1.65800624 -0.27802474
v -0.27802475 1.59455311 -0.27802474
v 0.21552475 1.65800624 0.21552475
v 0.21552475 1.59455311 0.21552475
vn 1 0 0
vn -1 0 0
vn 0 1 0
vn 0 -1 0
vn 0 0 1
vn 0 0 -1
vt 0 1
vt 0 0.98438
vt 0.17188 1
vt 0.1875 0.84375
vt 0.1875 0.82812
vt 0.35938 0.84375
vt 0.35938 0.82812
vt 0.1875 0.875
vt 0.1875 0.85938
vt 0.35938 0.875
vt 0.35938 0.85938
usemtl mat0
f 223/113/61 224/114/61 225/113/61
f 224/114/61 226/114/61 225/113/61
f 227/113/62 228/114/62 229/113/62
f 228/114/62 230/114/62 229/113/62
f 231/115/63 232/115/63 225/113/63
f 232/115/63 223/113/63 225/113/63
f 233/115/64 234/115/64 235/113/64
f 234/115/64 236/113/64 235/113/64
f 237/116/65 238/117/65 239/118/65
f 238/117/65 240/119/65 239/118/65
f 241/120/66 242/121/66 243/122/66
f 242/121/66 244/123/66 243/122/66
# Vertices: 22, normals: 6, texture coordinates: 11, faces: 12

o obj12
v -0.16690823 1.85446207 -0.24534757
v -0.10358615 1.85055155 -0.24649712
v -0.16691157 1.85442206 -0.24539547
v -0.10358949 1.85051154 -0.24654502
v -0.1838712 1.4899743 0.06016877
v -0.12054912 1.48606379 0.05901923
v -0.18386786 1.49001431 0.06021667
v -0.12054578 1.4861038 0.05906713
v -0.1838712 1.4899743 0.06016877
v -0.18386786 1.49001431 0.06021667
v -0.12054578 1.4861038 0.05906713
v -0.12054912 1.48606379 0.05901923
v -0.10358615 1.85055155 -0.24649712
v -0.10358949 1.85051154 -0.24654502
v -0.18386786 1.49001431 0.06021667
v -0.12054578 1.4861038 0.05906713
v -0.16690823 1.85446207 -0.24534757
v -0.10358615 1.85055155 -0.24649712
v -0.16691157 1.85442206 -0.24539547
v -0.10358949 1.85051154 -0.24654502
v -0.1838712 1.4899743 0.06016877
v -0.12054912 1.48606379 0.05901923
vn 1 0 0
vn -1 0 0
vn 0 1 0
vn 0 -1 0
vn 0 0 1
vn 0 0 -1
vt 0 1
vt 0 0.98438
vt 0.125 1
vt 0.3125 0.65625
vt 0.3125 0.64062
vt 0.4375 0.65625
vt 0.4375 0.64062
vt 0.3125 0.71875
vt 0.3125 0.70312
vt 0.4375 0.71875
vt 0.4375 0.70312
usemtl mat0
f 245/124/67 246/125/67 247/124/67
f 246/125/67 248/125/67 247/124/67
f 249/124/68 250/125/68 251/124/68
f 250/125/68 252/125/68 251/124/68
f 253/126/69 254/126/69 247/124/69
f 254/126/69 245/124/69 247/124/69
f 255/126/70 256/126/70 257/124/70
f 256/126/70 258/124/70 257/124/70
f 259/127/71 260/128/71 261/129/71
f 260/128/71 262/130/71 261/129/71
f 263/131/72 264/132/72 265/133/72
f 264/132/72 266/134/72 265/133/72
# Vertices: 22, normals: 6, texture coordinates: 11, faces: 12

o obj13
v -0.0509001 1.87113849 -0.28992782
v 0.01248804 1.86868343 -0.28843947
v -0.05090113 1.87108896 -0.28996592
v 0.01248701 1.8686339 -0.28847758
v -0.0709727 1.5814501 0.08710939
v -0.00758456 1.57899504 0.08859773
v -0.07097167 1.58149964 0.08714749
v -0.00758353 1.57904457 0.08863584
v -0.0709727 1.5814501 0.08710939
v -0.07097167 1.58149964 0.08714749
v -0.00758353 1.57904457 0.08863584
v -0.00758456 1.57899504 0.08859773
v 0.01248804 1.86868343 -0.28843947
v 0.01248701 1.8686339 -0.28847758
v -0.07097167 1.58149964 0.08714749
v -0.00758353 1.57904457 0.08863584
v -0.0509001 1.87113849 -0.28992782
v 0.01248804 1.86868343 -0.28843947
v -0.05090113 1.87108896 -0.28996592
v 0.01248701 1.8686339 -0.28847758
v -0.0709727 1.5814501 0.08710939
v -0.00758456 1.57899504 0.08859773
vn 1 0 0
vn -1 0 0
vn 0 1 0
vn 0 -1 0
vn 0 0 1
vn 0 0 -1
vt 0 1
vt 0 0.98438
vt 0.125 1
vt 0.375 0.875
vt 0.375 0.85938
vt 0.5 0.875
vt 0.5 0.85938
vt 0.375 0.90625
vt 0.375 0.89062
vt 0.5 0.90625
vt 0.5 0.89062
usemtl mat0
f 267/135/73 268/136/73 269/135/73
f 268/136/73 270/136/73 269/135/73
f 271/135/74 272/136/74 273/135/74
f 272/136/74 274/136/74 273/135/74
f 275/137/75 276/137/75 269/135/75
f 276/137/75 267/135/75 269/135/75
f 277/137/76 278/137/76 279/135/76
f 278/137/76 280/135/76 279/135/76
f 281/138/77 282/139/77 283/140/77
f 282/139/77 284/141/77 283/140/77
f 285/142/78 286/143/78 287/144/78
f 286/143/78 288/145/78 287/144/78
# Vertices: 22, normals: 6, texture coordinates: 11, faces: 12

o obj14
v 0.06062874 1.84754403 -0.24727896
v 0.12402148 1.84754404 -0.24451118
v 0.06063075 1.84750181 -0.247325
v 0.12402349 1.84750181 -0.24455721
v 0.04473674 1.44985012 0.11670883
v 0.10812947 1.44985013 0.11947662
v 0.04473473 1.44989235 0.11675487
v 0.10812746 1.44989235 0.11952266
v 0.04473674 1.44985012 0.11670883
v 0.04473473 1.44989235 0.11675487
v 0.10812746 1.44989235 0.11952266
v 0.10812947 1.44985013 0.11947662
v 0.12402148 1.84754404 -0.24451118
v 0.12402349 1.84750181 -0.24455721
v 0.04473473 1.44989235 0.11675487
v 0.10812746 1.44989235 0.11952266
v 0.06062874 1.84754403 -0.24727896
v 0.12402148 1.84754404 -0.24451118
v 0.06063075 1.84750181 -0.247325
v 0.12402349 1.84750181 -0.24455721
v 0.04473674 1.44985012 0.11670883
v 0.10812947 1.44985013 0.11947662
vn 1 0 0
vn -1 0 0
vn 0 1 0
vn 0 -1 0
vn 0 0 1
vn 0 0 -1
vt 0 1
vt 0 0.98438
vt 0.14062 1
vt 0.28125 0.8125
vt 0.28125 0.79688
vt 0.42188 0.8125
vt 0.42188 0.79688
vt 0.15625 0.71875
vt 0.15625 0.70312
vt 0.29688 0.71875
vt 0.29688 0.70312
usemtl mat0
f 289/146/79 290/147/79 291/146/79
f 290/147/79 292/147/79 291/146/79
f 293/146/80 294/147/80 295/146/80
f 294/147/80 296/147/80 295/146/80
f 297/148/81 298/148/81 291/146/81
f 298/148/81 289/146/81 291/146/81
f 299/148/82 300/148/82 301/146/82
f 300/148/82 302/146/82 301/146/82
f 303/149/83 304/150/83 305/151/83
f 304/150/83 306/152/83 305/151/83
f 307/153/84 308/154/84 309/155/84
f 308/154/84 310/156/84 309/155/84
# Vertices: 22, normals: 6, texture coordinates: 11, faces: 12

o obj15
v 0.21299739 1.87031174 0.00047656
v -0.16126302 1.52736526 0.00047656
v 0.21299739 1.87031174 -0.06297656
v -0.16126302 1.52736526 -0.06297656
v 0.21295516 1.87035782 -0.06297656
v -0.16130524 1.52741134 -0.06297656
v 0.21295516 1.87035782 0.00047656
v -0.16130524 1.52741134 0.00047656
v 0.21295516 1.87035782 -0.06297656
v 0.21295516 1.87035782 0.00047656
v 0.21299739 1.87031174 -0.06297656
v 0.21299739 1.87031174 0.00047656
v -0.16130524 1.52741134 0.00047656
v -0.16130524 1.52741134 -0.06297656
v -0.16126302 1.52736526 0.00047656
v -0.16126302 1.52736526 -0.06297656
v -0.16130524 1.52741134 0.00047656
v -0.16126302 1.52736526 0.00047656
v 0.21299739 1.87031174 -0.06297656
v -0.16126302 1.52736526 -0.06297656
v 0.21295516 1.87035782 -0.06297656
v -0.16130524 1.52741134 -0.06297656
vn 1 0 0
vn -1 0 0
vn 0 1 0
vn 0 -1 0
vn 0 0 1
vn 0 0 -1
vt 0.3125 0.625
vt 0.3125 0.5
vt 0.32812 0.625
vt 0.32812 0.5
vt 0.34375 0.625
vt 0.34375 0.5
vt 0.35938 0.625
vt 0.35938 0.5
vt 0 0.98438
vt 0 1
vt 0 0.875
usemtl mat0
f 311/157/85 312/158/85 313/159/85
f 312/158/85 314/160/85 313/159/85
f 315/161/86 316/162/86 317/163/86
f 316/162/86 318/164/86 317/163/86
f 319/165/87 320/166/87 321/165/87
f 320/166/87 322/166/87 321/165/87
f 323/166/88 324/165/88 325/166/88
f 324/165/88 326/165/88 325/166/88
f 320/166/89 327/167/89 322/166/89
f 327/167/89 328/167/89 322/166/89
f 329/166/90 330/167/90 331/166/90
f 330/167/90 332/167/90 331/166/90
# Vertices: 22, normals: 6, texture coordinates: 11, faces: 12

o obj16
v 0.18960611 1.84887758 -0.12642968
v -0.16126302 1.52736526 -0.12642968
v 0.18960611 1.84887758 -0.18988281
v -0.16126302 1.52736526 -0.18988281
v 0.18956388 1.84892366 -0.18988281
v -0.16130524 1.52741134 -0.18988281
v 0.18956388 1.84892366 -0.12642968
v -0.16130524 1.52741134 -0.12642968
v 0.18956388 1.84892366 -0.18988281
v 0.18956388 1.84892366 -0.12642968
v 0.18960611 1.84887758 -0.18988281
v 0.18960611 1.84887758 -0.12642968
v -0.16130524 1.52741134 -0.12642968
v -0.16130524 1.52741134 -0.18988281
v -0.16126302 1.52736526 -0.12642968
v -0.16126302 1.52736526 -0.18988281
v -0.16130524 1.52741134 -0.12642968
v -0.16126302 1.52736526 -0.12642968
v 0.18960611 1.84887758 -0.18988281
v -0.16126302 1.52736526 -0.18988281
v 0.18956388 1.84892366 -0.18988281
v -0.16130524 1.52741134 -0.18988281
vn 1 0 0
vn -1 0 0
vn 0 1 0
vn 0 -1 0
vn 0 0 1
vn 0 0 -1
vt 0.375 0.625
vt 0.375 0.5
vt 0.39062 0.625
vt 0.39062 0.5
vt 0.0625 0.59375
vt 0.0625 0.46875
vt 0.07812 0.59375
vt 0.07812 0.46875
vt 0 0.98438
vt 0 1
vt 0 0.875
usemtl mat0
f 333/168/91 334/169/91 335/170/91
f 334/169/91 336/171/91 335/170/91
f 337/172/92 338/173/92 339/174/92
f 338/173/92 340/175/92 339/174/92
f 341/176/93 342/177/93 343/176/93
f 342/177/93 344/177/93 343/176/93
f 345/177/94 346/176/94 347/177/94
f 346/176/94 348/176/94 347/177/94
f 342/177/95 349/178/95 344/177/95
f 349/178/95 350/178/95 344/177/95
f 351/177/96 352/178/96 353/177/96
f 352/178/96 354/178/96 353/177/96
# Vertices: 22, normals: 6, texture coordinates: 11, faces: 12

o obj17
v 0.18960611 1.84887758 0.12738282
v -0.16126302 1.52736526 0.12738282
v 0.18960611 1.84887758 0.06392969
v -0.16126302 1.52736526 0.06392969
v 0.18956388 1.84892366 0.06392969
v -0.16130524 1.52741134 0.06392969
v 0.18956388 1.84892366 0.12738282
v -0.16130524 1.52741134 0.12738282
v 0.18956388 1.84892366 0.06392969
v 0.18956388 1.84892366 0.12738282
v 0.18960611 1.84887758 0.06392969
v 0.18960611 1.84887758 0.12738282
v -0.16130524 1.52741134 0.12738282
v -0.16130524 1.52741134 0.06392969
v -0.16126302 1.52736526 0.12738282
v -0.16126302 1.52736526 0.06392969
v -0.16130524 1.52741134 0.12738282
v -0.16126302 1.52736526 0.12738282
v 0.18960611 1.84887758 0.06392969
v -0.16126302 1.52736526 0.06392969
v 0.18956388 1.84892366 0.06392969
v -0.16130524 1.52741134 0.06392969
vn 1 0 0
vn -1 0 0
vn 0 1 0
vn 0 -1 0
vn 0 0 1
vn 0 0 -1
vt 0.09375 0.59375
vt 0.09375 0.46875
vt 0.10938 0.59375
vt 0.10938 0.46875
vt 0.125 0.59375
vt 0.125 0.46875
vt 0.14062 0.59375
vt 0.14062 0.46875
vt 0 0.98438
vt 0 1
vt 0 0.875
usemtl mat0
f 355/179/97 356/180/97 357/181/97
f 356/180/97 358/182/97 357/181/97
f 359/183/98 360/184/98 361/185/98
f 360/184/98 362/186/98 361/185/98
f 363/187/99 364/188/99 365/187/99
f 364/188/99 366/188/99 365/187/99
f 367/188/100 368/187/100 369/188/100
f 368/187/100 370/187/100 369/188/100
f 364/188/101 371/189/101 366/188/101
f 371/189/101 372/189/101 366/188/101
f 373/188/102 374/189/102 375/188/102
f 374/189/102 376/189/102 375/188/102
# Vertices: 22, normals: 6, texture coordinates: 11, faces: 12

o obj18
v -0.25864435 1.8685371 0.00047656
v 0.10573629 1.47088541 0.00047656
v -0.25864435 1.8685371 -0.06297656
v 0.10573629 1.47088541 -0.06297656
v -0.25869043 1.86849487 -0.06297656
v 0.10569021 1.47084319 -0.06297656
v -0.25869043 1.86849487 0.00047656
v 0.10569021 1.47084319 0.00047656
v -0.25869043 1.86849487 -0.06297656
v -0.25869043 1.86849487 0.00047656
v -0.25864435 1.8685371 -0.06297656
v -0.25864435 1.8685371 0.00047656
v 0.10569021 1.47084319 0.00047656
v 0.10569021 1.47084319 -0.06297656
v 0.10573629 1.47088541 0.00047656
v 0.10573629 1.47088541 -0.06297656
v 0.10569021 1.47084319 0.00047656
v 0.10573629 1.47088541 0.00047656
v -0.25864435 1.8685371 -0.06297656
v 0.10573629 1.47088541 -0.06297656
v -0.25869043 1.86849487 -0.06297656
v 0.10569021 1.47084319 -0.06297656
vn 1 0 0
vn -1 0 0
vn 0 1 0
vn 0 -1 0
vn 0 0 1
vn 0 0 -1
vt 0 0.6875
vt 0 0.54688
vt 0.01562 0.6875
vt 0.01562 0.54688
vt 0.03125 0.6875
vt 0.03125 0.54688
vt 0.04688 0.6875
vt 0.04688 0.54688
vt 0 0.98438
vt 0 1
vt 0 0.85938
usemtl mat0
f 377/190/103 378/191/103 379/192/103
f 378/191/103 380/193/103 379/192/103
f 381/194/104 382/195/104 383/196/104
f 382/195/104 384/197/104 383/196/104
f 385/198/105 386/199/105 387/198/105
f 386/199/105 388/199/105 387/198/105
f 389/199/106 390/198/106 391/199/106
f 390/198/106 392/198/106 391/199/106
f 386/199/107 393/200/107 388/199/107
f 393/200/107 394/200/107 388/199/107
f 395/199/108 396/200/108 397/199/108
f 396/200/108 398/200/108 397/199/108
# Vertices: 22, normals: 6, texture coordinates: 11, faces: 12

o obj19
v -0.23721019 1.84514582 -0.12642968
v 0.10573629 1.47088541 -0.12642968
v -0.23721019 1.84514582 -0.18988281
v 0.10573629 1.47088541 -0.18988281
v -0.23725627 1.84510359 -0.18988281
v 0.10569021 1.47084319 -0.18988281
v -0.23725627 1.84510359 -0.12642968
v 0.10569021 1.47084319 -0.12642968
v -0.23725627 1.84510359 -0.18988281
v -0.23725627 1.84510359 -0.12642968
v -0.23721019 1.84514582 -0.18988281
v -0.23721019 1.84514582 -0.12642968
v 0.10569021 1.47084319 -0.12642968
v 0.10569021 1.47084319 -0.18988281
v 0.10573629 1.47088541 -0.12642968
v 0.10573629 1.47088541 -0.18988281
v 0.10569021 1.47084319 -0.12642968
v 0.10573629 1.47088541 -0.12642968
v -0.23721019 1.84514582 -0.18988281
v 0.10573629 1.47088541 -0.18988281
v -0.23725627 1.84510359 -0.18988281
v 0.10569021 1.47084319 -0.18988281
vn 1 0 0
vn -1 0 0
vn 0 1 0
vn 0 -1 0
vn 0 0 1
vn 0 0 -1
vt 0.15625 0.59375
vt 0.15625 0.46875
vt 0.17188 0.59375
vt 0.17188 0.46875
vt 0.1875 0.59375
vt 0.1875 0.46875
vt 0.20312 0.59375
vt 0.20312 0.46875
vt 0 0.98438
vt 0 1
vt 0 0.875
usemtl mat0
f 399/201/109 400/202/109 401/203/109
f 400/202/109 402/204/109 401/203/109
f 403/205/110 404/206/110 405/207/110
f 404/206/110 406/208/110 405/207/110
f 407/209/111 408/210/111 409/209/111
f 408/210/111 410/210/111 409/209/111
f 411/210/112 412/209/112 413/210/112
f 412/209/112 414/209/112 413/210/112
f 408/210/113 415/211/113 410/210/113
f 415/211/113 416/211/113 410/210/113
f 417/210/114 418/211/114 419/210/114
f 418/211/114 420/211/114 419/210/114
# Vertices: 22, normals: 6, texture coordinates: 11, faces: 12

o obj20
v -0.23721019 1.84514582 0.12738282
v 0.10573629 1.47088541 0.12738282
v -0.23721019 1.84514582 0.06392969
v 0.10573629 1.47088541 0.06392969
v -0.23725627 1.84510359 0.06392969
v 0.10569021 1.47084319 0.06392969
v -0.23725627 1.84510359 0.12738282
v 0.10569021 1.47084319 0.12738282
v -0.23725627 1.84510359 0.06392969
v -0.23725627 1.84510359 0.12738282
v -0.23721019 1.84514582 0.06392969
v -0.23721019 1.84514582 0.12738282
v 0.10569021 1.47084319 0.12738282
v 0.10569021 1.47084319 0.06392969
v 0.10573629 1.47088541 0.12738282
v 0.10573629 1.47088541 0.06392969
v 0.10569021 1.47084319 0.12738282
v 0.10573629 1.47088541 0.12738282
v -0.23721019 1.84514582 0.06392969
v 0.10573629 1.47088541 0.06392969
v -0.23725627 1.84510359 0.06392969
v 0.10569021 1.47084319 0.06392969
vn 1 0 0
vn -1 0 0
vn 0 1 0
vn 0 -1 0
vn 0 0 1
vn 0 0 -1
vt 0.21875 0.59375
vt 0.21875 0.46875
vt 0.23438 0.59375
vt 0.23438 0.46875
vt 0.25 0.59375
vt 0.25 0.46875
vt 0.26562 0.59375
vt 0.26562 0.46875
vt 0 0.98438
vt 0 1
vt 0 0.875
usemtl mat0
f 421/212/115 422/213/115 423/214/115
f 422/213/115 424/215/115 423/214/115
f 425/216/116 426/217/116 427/218/116
f 426/217/116 428/219/116 427/218/116
f 429/220/117 430/221/117 431/220/117
f 430/221/117 432/221/117 431/220/117
f 433/221/118 434/220/118 435/221/118
f 434/220/118 436/220/118 435/221/118
f 430/221/119 437/222/119 432/221/119
f 437/222/119 438/222/119 432/221/119
f 439/221/120 440/222/120 441/221/120
f 440/222/120 442/222/120 441/221/120
# Vertices: 22, normals: 6, texture coordinates: 11, faces: 12

o obj21
v -0.05301154 1.85365516 0.19039495
v 0.0103766 1.8519585 0.18807895
v -0.05301197 1.8536994 0.1903508
v 0.01037617 1.85200274 0.1880348
v -0.0714573 1.56254963 -0.10120145
v -0.00806916 1.56085297 -0.10351745
v -0.07145687 1.56250539 -0.1011573
v -0.00806873 1.56080873 -0.1034733
v -0.0714573 1.56254963 -0.10120145
v -0.07145687 1.56250539 -0.1011573
v -0.00806873 1.56080873 -0.1034733
v -0.00806916 1.56085297 -0.10351745
v 0.0103766 1.8519585 0.18807895
v 0.01037617 1.85200274 0.1880348
v -0.07145687 1.56250539 -0.1011573
v -0.00806873 1.56080873 -0.1034733
v -0.05301154 1.85365516 0.19039495
v 0.0103766 1.8519585 0.18807895
v -0.05301197 1.8536994 0.1903508
v 0.01037617 1.85200274 0.1880348
v -0.0714573 1.56254963 -0.10120145
v -0.00806916 1.56085297 -0.10351745
vn 1 0 0
vn -1 0 0
vn 0 1 0
vn 0 -1 0
vn 0 0 1
vn 0 0 -1
vt 0 1
vt 0 0.98438
vt 0.10938 1
vt 0.375 0.6875
vt 0.375 0.67188
vt 0.48438 0.6875
vt 0.48438 0.67188
vt 0.375 0.84375
vt 0.375 0.82812
vt 0.48438 0.84375
vt 0.48438 0.82812
usemtl mat0
f 443/223/121 444/224/121 445/223/121
f 444/224/121 446/224/121 445/223/121
f 447/223/122 448/224/122 449/223/122
f 448/224/122 450/224/122 449/223/122
f 451/225/123 452/225/123 445/223/123
f 452/225/123 443/223/123 445/223/123
f 453/225/124 454/225/124 455/223/124
f 454/225/124 456/223/124 455/223/124
f 457/226/125 458/227/125 459/228/125
f 458/227/125 460/229/125 459/228/125
f 461/230/126 462/231/126 463/232/126
f 462/231/126 464/233/126 463/232/126
# Vertices: 22, normals: 6, texture coordinates: 11, faces: 12

o obj22
v -0.16803888 1.84295196 0.18314618
v -0.1047168 1.84375631 0.17915036
v -0.16804222 1.84299619 0.18310215
v -0.10472014 1.84380054 0.17910633
v -0.1838712 1.52924199 -0.13089848
v -0.12054912 1.53004634 -0.1348943
v -0.18386785 1.52919775 -0.13085445
v -0.12054578 1.5300021 -0.13485027
v -0.1838712 1.52924199 -0.13089848
v -0.18386785 1.52919775 -0.13085445
v -0.12054578 1.5300021 -0.13485027
v -0.12054912 1.53004634 -0.1348943
v -0.1047168 1.84375631 0.17915036
v -0.10472014 1.84380054 0.17910633
v -0.18386785 1.52919775 -0.13085445
v -0.12054578 1.5300021 -0.13485027
v -0.16803888 1.84295196 0.18314618
v -0.1047168 1.84375631 0.17915036
v -0.16804222 1.84299619 0.18310215
v -0.10472014 1.84380054 0.17910633
v -0.1838712 1.52924199 -0.13089848
v -0.12054912 1.53004634 -0.1348943
vn 1 0 0
vn -1 0 0
vn 0 1 0
vn 0 -1 0
vn 0 0 1
vn 0 0 -1
vt 0 1
vt 0 0.98438
vt 0.10938 1
vt 0.40625 0.75
vt 0.40625 0.73438
vt 0.51562 0.75
vt 0.51562 0.73438
vt 0.40625 0.78125
vt 0.40625 0.76562
vt 0.51562 0.78125
vt 0.51562 0.76562
usemtl mat0
f 465/234/127 466/235/127 467/234/127
f 466/235/127 468/235/127 467/234/127
f 469/234/128 470/235/128 471/234/128
f 470/235/128 472/235/128 471/234/128
f 473/236/129 474/236/129 467/234/129
f 474/236/129 465/234/129 467/234/129
f 475/236/130 476/236/130 477/234/130
f 476/236/130 478/234/130 477/234/130
f 479/237/131 480/238/131 481/239/131
f 480/238/131 482/240/131 481/239/131
f 483/241/132 484/242/132 485/243/132
f 484/242/132 486/244/132 485/243/132
# Vertices: 22, normals: 6, texture coordinates: 11, faces: 12

o obj23
v 0.06062876 1.84918646 0.18298657
v 0.12402149 1.8464292 0.1832278
v 0.06063077 1.84922864 0.18294049
v 0.1240235 1.84647139 0.18318172
v 0.04473673 1.45192248 -0.1814704
v 0.10812946 1.44916523 -0.18122917
v 0.04473472 1.4518803 -0.18142433
v 0.10812745 1.44912305 -0.1811831
v 0.04473673 1.45192248 -0.1814704
v 0.04473472 1.4518803 -0.18142433
v 0.10812745 1.44912305 -0.1811831
v 0.10812946 1.44916523 -0.18122917
v 0.12402149 1.8464292 0.1832278
v 0.1240235 1.84647139 0.18318172
v 0.04473472 1.4518803 -0.18142433
v 0.10812745 1.44912305 -0.1811831
v 0.06062876 1.84918646 0.18298657
v 0.12402149 1.8464292 0.1832278
v 0.06063077 1.84922864 0.18294049
v 0.1240235 1.84647139 0.18318172
v 0.04473673 1.45192248 -0.1814704
v 0.10812946 1.44916523 -0.18122917
vn 1 0 0
vn -1 0 0
vn 0 1 0
vn 0 -1 0
vn 0 0 1
vn 0 0 -1
vt 0 1
vt 0 0.98438
vt 0.14062 1
vt 0.21875 0.6875
vt 0.21875 0.67188
vt 0.35938 0.6875
vt 0.35938 0.67188
vt 0.0625 0.6875
vt 0.0625 0.67188
vt 0.20312 0.6875
vt 0.20312 0.67188
usemtl mat0
f 487/245/133 488/246/133 489/245/133
f 488/246/133 490/246/133 489/245/133
f 491/245/134 492/246/134 493/245/134
f 492/246/134 494/246/134 493/245/134
f 495/247/135 496/247/135 489/245/135
f 496/247/135 487/245/135 489/245/135
f 497/247/136 498/247/136 499/245/136
f 498/247/136 500/245/136 499/245/136
f 501/248/137 502/249/137 503/250/137
f 502/249/137 504/251/137 503/250/137
f 505/252/138 506/253/138 507/254/138
f 506/253/138 508/255/138 507/254/138
# Vertices: 22, normals: 6, texture coordinates: 11, faces: 12

o obj24
v 0.21875 1.5 0.09999999
v 0.21875 0.75 0.09999999
v 0.21875 1.5 -0.15625
v 0.21875 0.75 -0.15625
v -0.28125 1.5 -0.15625
v -0.28125 0.75 -0.15625
v -0.28125 1.5 0.09999999
v -0.28125 0.75 0.09999999
v -0.28125 1.5 -0.15625
v -0.28125 1.5 0.09999999
v 0.21875 1.5 -0.15625
v 0.21875 1.5 0.09999999
v -0.28125 0.75 0.09999999
v -0.28125 0.75 -0.15625
v 0.21875 0.75 0.09999999
v 0.21875 0.75 -0.15625
v -0.28125 1.5 0.09999999
v -0.28125 0.75 0.09999999
v 0.21875 1.5 0.09999999
v 0.21875 0.75 0.09999999
v 0.21875 1.5 -0.15625
v 0.21875 0.75 -0.15625
v -0.28125 1.5 -0.15625
v -0.28125 0.75 -0.15625
vn 1 0 0
vn -1 0 0
vn 0 1 0
vn 0 -1 0
vn 0 0 1
vn 0 0 -1
vt 0 0.8125
vt 0 0.625
vt 0.0625 0.8125
vt 0.0625 0.625
vt 0.125 0.8125
vt 0.125 0.625
vt 0.5 0.79688
vt 0.5 0.85938
vt 0.375 0.79688
vt 0.375 0.85938
vt 0.5 0.73438
vt 0.375 0.73438
vt 0.125 1
vt 0.25 1
vt 0.25 0.8125
vt 0 1
usemtl mat1
f 509/256/139 510/257/139 511/258/139
f 510/257/139 512/259/139 511/258/139
f 513/258/140 514/259/140 515/260/140
f 514/259/140 516/261/140 515/260/140
f 517/262/141 518/263/141 519/264/141
f 518/263/141 520/265/141 519/264/141
f 521/262/142 522/266/142 523/264/142
f 522/266/142 524/267/142 523/264/142
f 525/268/143 526/260/143 527/269/143
f 526/260/143 528/270/143 527/269/143
f 529/271/144 530/256/144 531/268/144
f 530/256/144 532/260/144 531/268/144
# Vertices: 24, normals: 6, texture coordinates: 16, faces: 12

o obj25
v -0.15707637 0.74694178 0.121875
v -0.26273094 0.52036484 0.121875
v -0.15707637 0.74694178 -0.1625
v -0.26273094 0.52036484 -0.1625
v -0.26753263 0.79844838 -0.1625
v -0.3731872 0.57187144 -0.1625
v -0.26753263 0.79844838 0.121875
v -0.3731872 0.57187144 0.121875
v -0.26753263 0.79844838 -0.1625
v -0.26753263 0.79844838 0.121875
v -0.15707637 0.74694178 -0.1625
v -0.15707637 0.74694178 0.121875
v -0.3731872 0.57187144 0.121875
v -0.3731872 0.57187144 -0.1625
v -0.26273094 0.52036484 0.121875
v -0.26273094 0.52036484 -0.1625
v -0.26753263 0.79844838 0.121875
v -0.3731872 0.57187144 0.121875
v -0.15707637 0.74694178 0.121875
v -0.26273094 0.52036484 0.121875
v -0.15707637 0.74694178 -0.1625
v -0.26273094 0.52036484 -0.1625
v -0.26753263 0.79844838 -0.1625
v -0.3731872 0.57187144 -0.1625
vn 1 0 0
vn -1 0 0
vn 0 1 0
vn 0 -1 0
vn 0 0 1
vn 0 0 -1
vt 0.5 0.6875
vt 0.5 0.5
vt 0.65625 0.6875
vt 0.65625 0.5
vt 0.53125 0.25
vt 0.53125 0.125
vt 0.65625 0.25
vt 0.65625 0.125
vt 0.84375 0.28125
vt 0.84375 0.40625
vt 0.78125 0.28125
vt 0.78125 0.40625
vt 1 0.28125
vt 1 0.125
vt 0.875 0.28125
vt 0.875 0.125
vt 0.71875 1
vt 0.71875 0.875
vt 0.65625 1
vt 0.65625 0.875
usemtl mat2
f 533/272/145 534/273/145 535/274/145
f 534/273/145 536/275/145 535/274/145
f 537/276/146 538/277/146 539/278/146
f 538/277/146 540/279/146 539/278/146
f 541/280/147 542/281/147 543/282/147
f 542/281/147 544/283/147 543/282/147
f 545/284/148 546/285/148 547/286/148
f 546/285/148 548/287/148 547/286/148
f 549/288/149 550/289/149 551/290/149
f 550/289/149 552/291/149 551/290/149
f 553/290/150 554/291/150 555/288/150
f 554/291/150 556/289/150 555/288/150
# Vertices: 24, normals: 6, texture coordinates: 20, faces: 12

o obj26
v 0.09410952 0.76754844 0.091875
v -0.0144206 0.15204361 0.091875
v 0.09410952 0.76754844 -0.151875
v -0.0144206 0.15204361 -0.151875
v -0.27519338 0.83266651 -0.151875
v -0.38372349 0.21716167 -0.151875
v -0.27519338 0.83266651 0.091875
v -0.38372349 0.21716167 0.091875
v -0.27519338 0.83266651 -0.151875
v -0.27519338 0.83266651 0.091875
v 0.09410952 0.76754844 -0.151875
v 0.09410952 0.76754844 0.091875
v -0.38372349 0.21716167 0.091875
v -0.38372349 0.21716167 -0.151875
v -0.0144206 0.15204361 0.091875
v -0.0144206 0.15204361 -0.151875
v 0.09410952 0.76754844 0.091875
v -0.0144206 0.15204361 0.091875
v 0.09410952 0.76754844 -0.151875
v -0.0144206 0.15204361 -0.151875
v -0.27519338 0.83266651 -0.151875
v -0.38372349 0.21716167 -0.151875
vn 1 0 0
vn -1 0 0
vn 0 1 0
vn 0 -1 0
vn 0 0 1
vn 0 0 -1
vt 0 0.6875
vt 0 0.375
vt 0.125 0.6875
vt 0.125 0.375
vt 0.0625 1
vt 0.0625 0.6875
vt 0.1875 1
vt 0.1875 0.6875
vt 0.96875 0.875
vt 0.96875 1
vt 0.78125 0.875
vt 0.78125 1
vt 0.96875 0.75
vt 0.78125 0.75
vt 0 1
usemtl mat2
f 557/292/151 558/293/151 559/294/151
f 558/293/151 560/295/151 559/294/151
f 561/296/152 562/297/152 563/298/152
f 562/297/152 564/299/152 563/298/152
f 565/300/153 566/301/153 567/302/153
f 566/301/153 568/303/153 567/302/153
f 569/300/154 570/304/154 571/302/154
f 570/304/154 572/305/154 571/302/154
f 563/298/155 564/299/155 573/306/155
f 564/299/155 574/292/155 573/306/155
f 575/306/156 576/292/156 577/298/156
f 576/292/156 578/299/156 577/298/156
# Vertices: 22, normals: 6, texture coordinates: 15, faces: 12

o obj27
v -0.06875 0.75 0.0875
v -0.06875 0.125 0.0875
v -0.06875 0.75 -0.140625
v -0.06875 0.125 -0.140625
v -0.28125 0.75 -0.140625
v -0.28125 0.125 -0.140625
v -0.28125 0.75 0.0875
v -0.28125 0.125 0.0875
v -0.28125 0.75 -0.140625
v -0.28125 0.75 0.0875
v -0.06875 0.75 -0.140625
v -0.06875 0.75 0.0875
v -0.28125 0.125 0.0875
v -0.28125 0.125 -0.140625
v -0.06875 0.125 0.0875
v -0.06875 0.125 -0.140625
v -0.28125 0.75 0.0875
v -0.28125 0.125 0.0875
v -0.06875 0.75 0.0875
v -0.06875 0.125 0.0875
v -0.06875 0.75 -0.140625
v -0.06875 0.125 -0.140625
v -0.28125 0.75 -0.140625
v -0.28125 0.125 -0.140625
vn 1 0 0
vn -1 0 0
vn 0 1 0
vn 0 -1 0
vn 0 0 1
vn 0 0 -1
vt 0.25 1
vt 0.25 0.84375
vt 0.3125 1
vt 0.3125 0.84375
vt 0.25 0.6875
vt 0.3125 0.6875
vt 0.57812 0.6875
vt 0.57812 0.75
vt 0.53125 0.6875
vt 0.53125 0.75
vt 0.57812 0.625
vt 0.53125 0.625
vt 0.3125 0.57812
vt 0.3125 0.42188
vt 0.35938 0.57812
vt 0.35938 0.42188
vt 0.42188 0.73438
vt 0.42188 0.57812
vt 0.46875 0.73438
vt 0.46875 0.57812
usemtl mat1
f 579/307/157 580/308/157 581/309/157
f 580/308/157 582/310/157 581/309/157
f 583/308/158 584/311/158 585/310/158
f 584/311/158 586/312/158 585/310/158
f 587/313/159 588/314/159 589/315/159
f 588/314/159 590/316/159 589/315/159
f 591/313/160 592/317/160 593/315/160
f 592/317/160 594/318/160 593/315/160
f 595/319/161 596/320/161 597/321/161
f 596/320/161 598/322/161 597/321/161
f 599/323/162 600/324/162 601/325/162
f 600/324/162 602/326/162 601/325/162
# Vertices: 24, normals: 6, texture coordinates: 20, faces: 12

o obj28
v -0.06875 0.125 0.0875
v -0.06875 0 0.0875
v -0.06875 0.125 -0.203125
v -0.06875 0 -0.203125
v -0.28125 0.125 -0.203125
v -0.28125 0 -0.203125
v -0.28125 0.125 0.0875
v -0.28125 0 0.0875
v -0.28125 0.125 -0.203125
v -0.28125 0.125 0.0875
v -0.06875 0.125 -0.203125
v -0.06875 0.125 0.0875
v -0.28125 0 0.0875
v -0.28125 0 -0.203125
v -0.06875 0 0.0875
v -0.06875 0 -0.203125
v -0.28125 0 0.0875
v -0.06875 0.125 0.0875
v -0.06875 0 0.0875
v -0.06875 0.125 -0.203125
v -0.06875 0 -0.203125
v -0.28125 0.125 -0.203125
v -0.28125 0 -0.203125
vn 1 0 0
vn -1 0 0
vn 0 1 0
vn 0 -1 0
vn 0 0 1
vn 0 0 -1
vt 0.51562 0.46875
vt 0.51562 0.4375
vt 0.59375 0.46875
vt 0.59375 0.4375
vt 0.09375 0.45312
vt 0.09375 0.42188
vt 0.17188 0.45312
vt 0.17188 0.42188
vt 0.5625 0.92188
vt 0.5625 1
vt 0.51562 0.92188
vt 0.51562 1
vt 0.29688 0.48438
vt 0.29688 0.40625
vt 0.25 0.48438
vt 0.25 0.40625
vt 0.5625 0.96875
vt 0.60938 1
vt 0.60938 0.96875
vt 0.54688 0.79688
vt 0.54688 0.76562
vt 0.59375 0.79688
vt 0.59375 0.76562
usemtl mat1
f 603/327/163 604/328/163 605/329/163
f 604/328/163 606/330/163 605/329/163
f 607/331/164 608/332/164 609/333/164
f 608/332/164 610/334/164 609/333/164
f 611/335/165 612/336/165 613/337/165
f 612/336/165 614/338/165 613/337/165
f 615/339/166 616/340/166 617/341/166
f 616/340/166 618/342/166 617/341/166
f 612/336/167 619/343/167 620/344/167
f 619/343/167 621/345/167 620/344/167
f 622/346/168 623/347/168 624/348/168
f 623/347/168 625/349/168 624/348/168
# Vertices: 23, normals: 6, texture coordinates: 23, faces: 12

o obj29
v 0.09306936 0.75364071 -0.16052694
v 0.19855872 0.52714079 -0.16888052
v 0.09531541 0.7442048 0.12368259
v 0.20080477 0.51770488 0.11532902
v 0.205805 0.79563311 0.12451687
v 0.31129436 0.56913319 0.11616329
v 0.20355895 0.80506901 -0.15969267
v 0.30904831 0.5785691 -0.16804625
v 0.205805 0.79563311 0.12451687
v 0.20355895 0.80506901 -0.15969267
v 0.09531541 0.7442048 0.12368259
v 0.09306936 0.75364071 -0.16052694
v 0.30904831 0.5785691 -0.16804625
v 0.31129436 0.56913319 0.11616329
v 0.19855872 0.52714079 -0.16888052
v 0.20080477 0.51770488 0.11532902
v 0.20355895 0.80506901 -0.15969267
v 0.30904831 0.5785691 -0.16804625
v 0.09306936 0.75364071 -0.16052694
v 0.19855872 0.52714079 -0.16888052
v 0.09531541 0.7442048 0.12368259
v 0.20080477 0.51770488 0.11532902
v 0.205805 0.79563311 0.12451687
v 0.31129436 0.56913319 0.11616329
vn 1 0 0
vn -1 0 0
vn 0 1 0
vn 0 -1 0
vn 0 0 1
vn 0 0 -1
vt 0.5 0.6875
vt 0.5 0.5
vt 0.65625 0.6875
vt 0.65625 0.5
vt 0.53125 0.25
vt 0.53125 0.125
vt 0.65625 0.25
vt 0.65625 0.125
vt 0.84375 0.28125
vt 0.84375 0.40625
vt 0.78125 0.28125
vt 0.78125 0.40625
vt 1 0.28125
vt 1 0.125
vt 0.875 0.28125
vt 0.875 0.125
vt 0.71875 1
vt 0.71875 0.875
vt 0.65625 1
vt 0.65625 0.875
usemtl mat2
f 626/350/169 627/351/169 628/352/169
f 627/351/169 629/353/169 628/352/169
f 630/354/170 631/355/170 632/356/170
f 631/355/170 633/357/170 632/356/170
f 634/358/171 635/359/171 636/360/171
f 635/359/171 637/361/171 636/360/171
f 638/362/172 639/363/172 640/364/172
f 639/363/172 641/365/172 640/364/172
f 642/366/173 643/367/173 644/368/173
f 643/367/173 645/369/173 644/368/173
f 646/368/174 647/369/174 648/366/174
f 647/369/174 649/367/174 648/366/174
# Vertices: 24, normals: 6, texture coordinates: 20, faces: 12

o obj30
v 0.21875 0.8125 0.09375
v 0.21875 0.1875 0.09375
v 0.21875 0.8125 -0.15000001
v 0.21875 0.1875 -0.15000001
v -0.03125 0.8125 -0.15000001
v -0.03125 0.1875 -0.15000001
v -0.03125 0.8125 0.09375
v -0.03125 0.1875 0.09375
v -0.03125 0.8125 -0.15000001
v -0.03125 0.8125 0.09375
v 0.21875 0.8125 -0.15000001
v 0.21875 0.8125 0.09375
v -0.03125 0.1875 0.09375
v -0.03125 0.1875 -0.15000001
v 0.21875 0.1875 0.09375
v 0.21875 0.1875 -0.15000001
v -0.03125 0.8125 0.09375
v -0.03125 0.1875 0.09375
v 0.21875 0.8125 0.09375
v 0.21875 0.1875 0.09375
v 0.21875 0.8125 -0.15000001
v 0.21875 0.1875 -0.15000001
v -0.03125 0.8125 -0.15000001
v -0.03125 0.1875 -0.15000001
vn 1 0 0
vn -1 0 0
vn 0 1 0
vn 0 -1 0
vn 0 0 1
vn 0 0 -1
vt 0.1875 0.6875
vt 0.1875 0.375
vt 0.28125 0.6875
vt 0.28125 0.375
vt 0.5 1
vt 0.5 0.6875
vt 0.625 1
vt 0.625 0.6875
vt 0.125 0.0625
vt 0.125 0.1875
vt 0 0.0625
vt 0 0.1875
vt 0.25 0.1875
vt 0.25 0.0625
vt 0.40625 0.6875
vt 0.40625 0.375
vt 0.25 0.6875
vt 0.25 0.375
usemtl mat2
f 650/370/175 651/371/175 652/372/175
f 651/371/175 653/373/175 652/372/175
f 654/374/176 655/375/176 656/376/176
f 655/375/176 657/377/176 656/376/176
f 658/378/177 659/379/177 660/380/177
f 659/379/177 661/381/177 660/380/177
f 662/382/178 663/383/178 664/379/178
f 663/383/178 665/378/178 664/379/178
f 666/384/179 667/385/179 668/386/179
f 667/385/179 669/387/179 668/386/179
f 670/386/180 671/387/180 672/384/180
f 671/387/180 673/385/180 672/384/180
# Vertices: 24, normals: 6, texture coordinates: 18, faces: 12

o obj31
v 0.2125 0.75 0.0875
v 0.2125 0.125 0.0875
v 0.2125 0.75 -0.140625
v 0.2125 0.125 -0.140625
v 0 0.75 -0.140625
v 0 0.125 -0.140625
v 0 0.75 0.0875
v 0 0.125 0.0875
v 0 0.75 -0.140625
v 0 0.75 0.0875
v 0.2125 0.75 -0.140625
v 0.2125 0.75 0.0875
v 0 0.125 0.0875
v 0 0.125 -0.140625
v 0.2125 0.125 0.0875
v 0.2125 0.125 -0.140625
v 0 0.75 0.0875
v 0 0.125 0.0875
v 0.2125 0.75 0.0875
v 0.2125 0.125 0.0875
v 0.2125 0.75 -0.140625
v 0.2125 0.125 -0.140625
v 0 0.75 -0.140625
v 0 0.125 -0.140625
vn 1 0 0
vn -1 0 0
vn 0 1 0
vn 0 -1 0
vn 0 0 1
vn 0 0 -1
vt 0.125 0.8125
vt 0.125 0.65625
vt 0.1875 0.8125
vt 0.1875 0.65625
vt 0.25 0.8125
vt 0.25 0.65625
vt 0.09375 0.40625
vt 0.09375 0.46875
vt 0.04688 0.40625
vt 0.04688 0.46875
vt 0.21875 0.46875
vt 0.21875 0.40625
vt 0.17188 0.46875
vt 0.17188 0.40625
vt 0.375 0.73438
vt 0.375 0.57812
vt 0.42188 0.73438
vt 0.42188 0.57812
vt 0.0625 0.625
vt 0.0625 0.46875
vt 0.10938 0.625
vt 0.10938 0.46875
usemtl mat1
f 674/388/181 675/389/181 676/390/181
f 675/389/181 677/391/181 676/390/181
f 678/390/182 679/391/182 680/392/182
f 679/391/182 681/393/182 680/392/182
f 682/394/183 683/395/183 684/396/183
f 683/395/183 685/397/183 684/396/183
f 686/398/184 687/399/184 688/400/184
f 687/399/184 689/401/184 688/400/184
f 690/402/185 691/403/185 692/404/185
f 691/403/185 693/405/185 692/404/185
f 694/406/186 695/407/186 696/408/186
f 695/407/186 697/409/186 696/408/186
# Vertices: 24, normals: 6, texture coordinates: 22, faces: 12

o obj32
v 0.2125 0.125 0.0875
v 0.2125 0 0.0875
v 0.2125 0.125 -0.203125
v 0.2125 0 -0.203125
v 0 0.125 -0.203125
v 0 0 -0.203125
v 0 0.125 0.0875
v 0 0 0.0875
v 0 0.125 -0.203125
v 0 0.125 0.0875
v 0.2125 0.125 -0.203125
v 0.2125 0.125 0.0875
v 0 0 0.0875
v 0 0 -0.203125
v 0.2125 0 0.0875
v 0.2125 0 -0.203125
v 0 0 0.0875
v 0.2125 0.125 0.0875
v 0.2125 0 0.0875
v 0.2125 0.125 -0.203125
v 0.2125 0 -0.203125
v 0 0.125 -0.203125
v 0 0 -0.203125
vn 1 0 0
vn -1 0 0
vn 0 1 0
vn 0 -1 0
vn 0 0 1
vn 0 0 -1
vt 0.35938 0.46875
vt 0.35938 0.4375
vt 0.4375 0.46875
vt 0.4375 0.4375
vt 0.51562 0.46875
vt 0.51562 0.4375
vt 0.54688 0.75
vt 0.54688 0.82812
vt 0.5 0.75
vt 0.5 0.82812
vt 0.04688 0.48438
vt 0.04688 0.40625
vt 0 0.48438
vt 0 0.40625
vt 0.54688 0.79688
vt 0.59375 0.82812
vt 0.59375 0.79688
vt 0.46875 0.60938
vt 0.46875 0.57812
vt 0.51562 0.60938
vt 0.51562 0.57812
usemtl mat1
f 698/410/187 699/411/187 700/412/187
f 699/411/187 701/413/187 700/412/187
f 702/412/188 703/413/188 704/414/188
f 703/413/188 705/415/188 704/414/188
f 706/416/189 707/417/189 708/418/189
f 707/417/189 709/419/189 708/418/189
f 710/420/190 711/421/190 712/422/190
f 711/421/190 713/423/190 712/422/190
f 707/417/191 714/424/191 715/425/191
f 714/424/191 716/426/191 715/425/191
f 717/427/192 718/428/192 719/429/192
f 718/428/192 720/430/192 719/429/192
# Vertices: 23, normals: 6, texture coordinates: 21, faces: 12

o obj33
v -0.28125 1.5 0.09375
v -0.28125 0.9375 0.09375
v -0.28125 1.5 -0.15625
v -0.28125 0.9375 -0.15625
v -0.53125 1.5 -0.15625
v -0.53125 0.9375 -0.15625
v -0.53125 1.5 0.09375
v -0.53125 0.9375 0.09375
v -0.53125 1.5 -0.15625
v -0.53125 1.5 0.09375
v -0.28125 1.5 -0.15625
v -0.28125 1.5 0.09375
v -0.53125 0.9375 0.09375
v -0.53125 0.9375 -0.15625
v -0.28125 0.9375 0.09375
v -0.28125 0.9375 -0.15625
v -0.53125 1.5 0.09375
v -0.53125 0.9375 0.09375
v -0.28125 1.5 0.09375
v -0.28125 0.9375 0.09375
v -0.28125 1.5 -0.15625
v -0.28125 0.9375 -0.15625
v -0.53125 1.5 -0.15625
v -0.53125 0.9375 -0.15625
vn 1 0 0
vn -1 0 0
vn 0 1 0
vn 0 -1 0
vn 0 0 1
vn 0 0 -1
vt 0.3125 0.85938
vt 0.3125 0.71875
vt 0.375 0.85938
vt 0.375 0.71875
vt 0.3125 0.57812
vt 0.375 0.57812
vt 0.3125 0.48438
vt 0.3125 0.54688
vt 0.25 0.48438
vt 0.25 0.54688
vt 0.53125 0.73438
vt 0.53125 0.67188
vt 0.46875 0.73438
vt 0.46875 0.67188
vt 0.375 1
vt 0.3125 1
usemtl mat1
f 721/431/193 722/432/193 723/433/193
f 722/432/193 724/434/193 723/433/193
f 725/432/194 726/435/194 727/434/194
f 726/435/194 728/436/194 727/434/194
f 729/437/195 730/438/195 731/439/195
f 730/438/195 732/440/195 731/439/195
f 733/441/196 734/442/196 735/443/196
f 734/442/196 736/444/196 735/443/196
f 737/445/197 738/433/197 739/446/197
f 738/433/197 740/431/197 739/446/197
f 741/446/198 742/431/198 743/445/198
f 742/431/198 744/433/198 743/445/198
# Vertices: 24, normals: 6, texture coordinates: 16, faces: 12

o obj34
v -0.28125 1.4375 0.0875
v -0.28125 0.75 0.0875
v -0.28125 1.4375 -0.15000001
v -0.28125 0.75 -0.15000001
v -0.515625 1.4375 -0.15000001
v -0.515625 0.75 -0.15000001
v -0.515625 1.4375 0.0875
v -0.515625 0.75 0.0875
v -0.515625 1.4375 -0.15000001
v -0.515625 1.4375 0.0875
v -0.28125 1.4375 -0.15000001
v -0.28125 1.4375 0.0875
v -0.515625 0.75 0.0875
v -0.515625 0.75 -0.15000001
v -0.28125 0.75 0.0875
v -0.28125 0.75 -0.15000001
v -0.515625 1.4375 0.0875
v -0.515625 0.75 0.0875
v -0.28125 1.4375 0.0875
v -0.28125 0.75 0.0875
v -0.28125 1.4375 -0.15000001
v -0.28125 0.75 -0.15000001
v -0.515625 1.4375 -0.15000001
v -0.515625 0.75 -0.15000001
vn 1 0 0
vn -1 0 0
vn 0 1 0
vn 0 -1 0
vn 0 0 1
vn 0 0 -1
vt 0.51562 0.92188
vt 0.51562 0.875
vt 0.57812 0.92188
vt 0.57812 0.875
vt 0.51562 0.60938
vt 0.51562 0.5625
vt 0.57812 0.60938
vt 0.57812 0.5625
vt 0.4375 0.51562
vt 0.4375 0.57812
vt 0.35938 0.51562
vt 0.35938 0.57812
vt 0.51562 1
vt 0.51562 0.9375
vt 0.4375 1
vt 0.4375 0.9375
vt 0.35938 0.46875
vt 0.4375 0.46875
vt 0.17188 0.51562
vt 0.17188 0.46875
vt 0.25 0.51562
vt 0.25 0.46875
usemtl mat1
f 745/447/199 746/448/199 747/449/199
f 746/448/199 748/450/199 747/449/199
f 749/451/200 750/452/200 751/453/200
f 750/452/200 752/454/200 751/453/200
f 753/455/201 754/456/201 755/457/201
f 754/456/201 756/458/201 755/457/201
f 757/459/202 758/460/202 759/461/202
f 758/460/202 760/462/202 759/461/202
f 761/457/203 762/463/203 763/455/203
f 762/463/203 764/464/203 763/455/203
f 765/465/204 766/466/204 767/467/204
f 766/466/204 768/468/204 767/467/204
# Vertices: 24, normals: 6, texture coordinates: 22, faces: 12

o obj35
v -0.23520137 0.96569178 0.1094375
v -0.42009686 0.56918214 0.1094375
v -0.23520137 0.96569178 0.109375
v -0.42009686 0.56918214 0.109375
v -0.51842254 1.09775999 0.109375
v -0.70331804 0.70125034 0.109375
v -0.51842254 1.09775999 0.1094375
v -0.70331804 0.70125034 0.1094375
v -0.51842254 1.09775999 0.109375
v -0.51842254 1.09775999 0.1094375
v -0.70331804 0.70125034 0.1094375
v -0.70331804 0.70125034 0.109375
v -0.42009686 0.56918214 0.1094375
v -0.42009686 0.56918214 0.109375
v -0.51842254 1.09775999 0.1094375
v -0.70331804 0.70125034 0.1094375
v -0.23520137 0.96569178 0.1094375
v -0.42009686 0.56918214 0.1094375
v -0.23520137 0.96569178 0.109375
v -0.42009686 0.56918214 0.109375
v -0.51842254 1.09775999 0.109375
v -0.70331804 0.70125034 0.109375
vn 1 0 0
vn -1 0 0
vn 0 1 0
vn 0 -1 0
vn 0 0 1
vn 0 0 -1
vt 0 1
vt 0 0.8125
vt 0.125 1
vt 0.28125 0.375
vt 0.28125 0.1875
vt 0.40625 0.375
vt 0.40625 0.1875
vt 0.15625 0.34375
vt 0.15625 0.1875
vt 0.25 0.34375
vt 0.25 0.1875
usemtl mat2
f 769/469/205 770/470/205 771/469/205
f 770/470/205 772/470/205 771/469/205
f 773/469/206 774/470/206 775/469/206
f 774/470/206 776/470/206 775/469/206
f 777/471/207 778/471/207 771/469/207
f 778/471/207 769/469/207 771/469/207
f 779/471/208 780/471/208 781/469/208
f 780/471/208 782/469/208 781/469/208
f 783/472/209 784/473/209 785/474/209
f 784/473/209 786/475/209 785/474/209
f 787/476/210 788/477/210 789/478/210
f 788/477/210 790/479/210 789/478/210
# Vertices: 22, normals: 6, texture coordinates: 11, faces: 12

o obj36
v -0.23520137 0.96569178 0.11562499
v -0.4465105 0.5125379 0.11562499
v -0.23520137 0.96569178 -0.171875
v -0.4465105 0.5125379 -0.171875
v -0.51842254 1.09775999 -0.171875
v -0.72973168 0.64460611 -0.171875
v -0.51842254 1.09775999 0.11562499
v -0.72973168 0.64460611 0.11562499
v -0.51842254 1.09775999 -0.171875
v -0.51842254 1.09775999 0.11562499
v -0.23520137 0.96569178 -0.171875
v -0.23520137 0.96569178 0.11562499
v -0.72973168 0.64460611 0.11562499
v -0.72973168 0.64460611 -0.171875
v -0.4465105 0.5125379 0.11562499
v -0.4465105 0.5125379 -0.171875
v -0.51842254 1.09775999 0.11562499
v -0.72973168 0.64460611 0.11562499
v -0.23520137 0.96569178 0.11562499
v -0.4465105 0.5125379 0.11562499
v -0.23520137 0.96569178 -0.171875
v -0.4465105 0.5125379 -0.171875
v -0.51842254 1.09775999 -0.171875
v -0.72973168 0.64460611 -0.171875
vn 1 0 0
vn -1 0 0
vn 0 1 0
vn 0 -1 0
vn 0 0 1
vn 0 0 -1
vt 0.5 0.6875
vt 0.5 0.5
vt 0.65625 0.6875
vt 0.65625 0.5
vt 0.5 0.3125
vt 0.65625 0.3125
vt 0.90625 0.59375
vt 0.90625 0.75
vt 0.78125 0.59375
vt 0.78125 0.75
vt 0.90625 0.4375
vt 0.78125 0.4375
vt 0.65625 0.625
vt 0.65625 0.4375
vt 0.78125 0.625
vt 0.65625 0.8125
vt 0.78125 0.8125
usemtl mat2
f 791/480/211 792/481/211 793/482/211
f 792/481/211 794/483/211 793/482/211
f 795/481/212 796/484/212 797/483/212
f 796/484/212 798/485/212 797/483/212
f 799/486/213 800/487/213 801/488/213
f 800/487/213 802/489/213 801/488/213
f 803/486/214 804/490/214 805/488/214
f 804/490/214 806/491/214 805/488/214
f 807/492/215 808/493/215 809/494/215
f 808/493/215 810/491/215 809/494/215
f 811/495/216 812/492/216 813/496/216
f 812/492/216 814/494/216 813/496/216
# Vertices: 24, normals: 6, texture coordinates: 17, faces: 12

o obj37
v 0.21909623 1.50000001 -0.153125
v 0.21909623 0.9375 -0.153125
v 0.21909623 1.50000001 0.096875
v 0.21909623 0.9375 0.096875
v 0.46909623 1.50000001 0.096875
v 0.46909623 0.9375 0.096875
v 0.46909623 1.50000001 -0.153125
v 0.46909623 0.9375 -0.153125
v 0.46909623 1.50000001 0.096875
v 0.46909623 1.50000001 -0.153125
v 0.21909623 1.50000001 0.096875
v 0.21909623 1.50000001 -0.153125
v 0.46909623 0.9375 -0.153125
v 0.46909623 0.9375 0.096875
v 0.21909623 0.9375 -0.153125
v 0.21909623 0.9375 0.096875
v 0.46909623 1.50000001 -0.153125
v 0.46909623 0.9375 -0.153125
v 0.21909623 1.50000001 -0.153125
v 0.21909623 0.9375 -0.153125
v 0.21909623 1.50000001 0.096875
v 0.21909623 0.9375 0.096875
v 0.46909623 1.50000001 0.096875
v 0.46909623 0.9375 0.096875
vn 1 0 0
vn -1 0 0
vn 0 1 0
vn 0 -1 0
vn 0 0 1
vn 0 0 -1
vt 0.3125 0.85938
vt 0.3125 0.71875
vt 0.375 0.85938
vt 0.375 0.71875
vt 0.3125 0.57812
vt 0.375 0.57812
vt 0.3125 0.48438
vt 0.3125 0.54688
vt 0.25 0.48438
vt 0.25 0.54688
vt 0.53125 0.73438
vt 0.53125 0.67188
vt 0.46875 0.73438
vt 0.46875 0.67188
vt 0.375 1
vt 0.3125 1
usemtl mat3
f 815/497/217 816/498/217 817/499/217
f 816/498/217 818/500/217 817/499/217
f 819/498/218 820/501/218 821/500/218
f 820/501/218 822/502/218 821/500/218
f 823/503/219 824/504/219 825/505/219
f 824/504/219 826/506/219 825/505/219
f 827/507/220 828/508/220 829/509/220
f 828/508/220 830/510/220 829/509/220
f 831/511/221 832/499/221 833/512/221
f 832/499/221 834/497/221 833/512/221
f 835/512/222 836/497/222 837/511/222
f 836/497/222 838/499/222 837/511/222
# Vertices: 24, normals: 6, texture coordinates: 16, faces: 12

o obj38
v 0.1886726 0.9656917 -0.175
v 0.39998174 0.51253781 -0.175
v 0.1886726 0.9656917 0.1125
v 0.39998174 0.51253781 0.1125
v 0.47189378 1.09775991 0.1125
v 0.68320292 0.64460602 0.1125
v 0.47189378 1.09775991 -0.175
v 0.68320292 0.64460602 -0.175
v 0.47189378 1.09775991 0.1125
v 0.47189378 1.09775991 -0.175
v 0.1886726 0.9656917 0.1125
v 0.1886726 0.9656917 -0.175
v 0.68320292 0.64460602 -0.175
v 0.68320292 0.64460602 0.1125
v 0.39998174 0.51253781 -0.175
v 0.39998174 0.51253781 0.1125
v 0.47189378 1.09775991 -0.175
v 0.68320292 0.64460602 -0.175
v 0.1886726 0.9656917 -0.175
v 0.39998174 0.51253781 -0.175
v 0.1886726 0.9656917 0.1125
v 0.39998174 0.51253781 0.1125
v 0.47189378 1.09775991 0.1125
v 0.68320292 0.64460602 0.1125
vn 1 0 0
vn -1 0 0
vn 0 1 0
vn 0 -1 0
vn 0 0 1
vn 0 0 -1
vt 0.5 0.6875
vt 0.5 0.5
vt 0.65625 0.6875
vt 0.65625 0.5
vt 0.5 0.3125
vt 0.65625 0.3125
vt 0.90625 0.59375
vt 0.90625 0.75
vt 0.78125 0.59375
vt 0.78125 0.75
vt 0.90625 0.4375
vt 0.78125 0.4375
vt 0.65625 0.625
vt 0.65625 0.4375
vt 0.78125 0.625
vt 0.65625 0.8125
vt 0.78125 0.8125
usemtl mat4
f 839/513/223 840/514/223 841/515/223
f 840/514/223 842/516/223 841/515/223
f 843/514/224 844/517/224 845/516/224
f 844/517/224 846/518/224 845/516/224
f 847/519/225 848/520/225 849/521/225
f 848/520/225 850/522/225 849/521/225
f 851/519/226 852/523/226 853/521/226
f 852/523/226 854/524/226 853/521/226
f 855/525/227 856/526/227 857/527/227
f 856/526/227 858/524/227 857/527/227
f 859/528/228 860/525/228 861/529/228
f 860/525/228 862/527/228 861/529/228
# Vertices: 24, normals: 6, texture coordinates: 17, faces: 12

o obj39
v 0.1886726 0.9656917 0.10618749
v 0.3735681 0.56918205 0.10618749
v 0.1886726 0.9656917 0.10624999
v 0.3735681 0.56918205 0.10624999
v 0.47189378 1.09775991 0.10624999
v 0.65678927 0.70125025 0.10624999
v 0.47189378 1.09775991 0.10618749
v 0.65678927 0.70125025 0.10618749
v 0.47189378 1.09775991 0.10624999
v 0.47189378 1.09775991 0.10618749
v 0.65678927 0.70125025 0.10618749
v 0.65678927 0.70125025 0.10624999
v 0.3735681 0.56918205 0.10618749
v 0.3735681 0.56918205 0.10624999
v 0.47189378 1.09775991 0.10618749
v 0.65678927 0.70125025 0.10618749
v 0.1886726 0.9656917 0.10618749
v 0.3735681 0.56918205 0.10618749
v 0.1886726 0.9656917 0.10624999
v 0.3735681 0.56918205 0.10624999
v 0.47189378 1.09775991 0.10624999
v 0.65678927 0.70125025 0.10624999
vn 1 0 0
vn -1 0 0
vn 0 1 0
vn 0 -1 0
vn 0 0 1
vn 0 0 -1
vt 0 1
vt 0 0.8125
vt 0.125 1
vt 0.28125 0.375
vt 0.28125 0.1875
vt 0.40625 0.375
vt 0.40625 0.1875
vt 0.15625 0.34375
vt 0.15625 0.1875
vt 0.25 0.34375
vt 0.25 0.1875
usemtl mat4
f 863/530/229 864/531/229 865/530/229
f 864/531/229 866/531/229 865/530/229
f 867/530/230 868/531/230 869/530/230
f 868/531/230 870/531/230 869/530/230
f 871/532/231 872/532/231 865/530/231
f 872/532/231 863/530/231 865/530/231
f 873/532/232 874/532/232 875/530/232
f 874/532/232 876/530/232 875/530/232
f 877/533/233 878/534/233 879/535/233
f 878/534/233 880/536/233 879/535/233
f 881/537/234 882/538/234 883/539/234
f 882/538/234 884/540/234 883/539/234
# Vertices: 22, normals: 6, texture coordinates: 11, faces: 12

o obj40
v 0.21909623 1.43750001 -0.146875
v 0.21909623 0.75000001 -0.146875
v 0.21909623 1.43750001 0.09062501
v 0.21909623 0.75000001 0.09062501
v 0.45347123 1.43750001 0.09062501
v 0.45347123 0.75000001 0.09062501
v 0.45347123 1.43750001 -0.146875
v 0.45347123 0.75000001 -0.146875
v 0.45347123 1.43750001 0.09062501
v 0.45347123 1.43750001 -0.146875
v 0.21909623 1.43750001 0.09062501
v 0.21909623 1.43750001 -0.146875
v 0.45347123 0.75000001 -0.146875
v 0.45347123 0.75000001 0.09062501
v 0.21909623 0.75000001 -0.146875
v 0.21909623 0.75000001 0.09062501
v 0.45347123 1.43750001 -0.146875
v 0.45347123 0.75000001 -0.146875
v 0.21909623 1.43750001 -0.146875
v 0.21909623 0.75000001 -0.146875
v 0.21909623 1.43750001 0.09062501
v 0.21909623 0.75000001 0.09062501
v 0.45347123 1.43750001 0.09062501
v 0.45347123 0.75000001 0.09062501
vn 1 0 0
vn -1 0 0
vn 0 1 0
vn 0 -1 0
vn 0 0 1
vn 0 0 -1
vt 0.51562 0.92188
vt 0.51562 0.875
vt 0.57812 0.92188
vt 0.57812 0.875
vt 0.51562 0.60938
vt 0.51562 0.5625
vt 0.57812 0.60938
vt 0.57812 0.5625
vt 0.4375 0.51562
vt 0.4375 0.57812
vt 0.35938 0.51562
vt 0.35938 0.57812
vt 0.51562 1
vt 0.51562 0.9375
vt 0.4375 1
vt 0.4375 0.9375
vt 0.35938 0.46875
vt 0.4375 0.46875
vt 0.17188 0.51562
vt 0.17188 0.46875
vt 0.25 0.51562
vt 0.25 0.46875
usemtl mat3
f 885/541/235 886/542/235 887/543/235
f 886/542/235 888/544/235 887/543/235
f 889/545/236 890/546/236 891/547/236
f 890/546/236 892/548/236 891/547/236
f 893/549/237 894/550/237 895/551/237
f 894/550/237 896/552/237 895/551/237
f 897/553/238 898/554/238 899/555/238
f 898/554/238 900/556/238 899/555/238
f 901/551/239 902/557/239 903/549/239
f 902/557/239 904/558/239 903/549/239
f 905/559/240 906/560/240 907/561/240
f 906/560/240 908/562/240 907/561/240
# Vertices: 24, normals: 6, texture coordinates: 22, faces: 12

