{"asset":{"version":"2.0","generator":"Blockbench 5.1.4 glTF exporter"},"scenes":[{"nodes":[15],"name":"blockbench_export"}],"scene":0,"nodes":[{"translation":[0.39036875,-15.733825,0.5490375000000001],"name":"group"},{"translation":[0.07786874999999999,0.2751625000000013,0.2365375],"name":"колючки"},{"translation":[1.12484375,1.068325000000001,-1.68291875],"name":"левый глаз"},{"translation":[-0.95324375,1.1476375000000005,-1.6734],"name":"правый глаз"},{"translation":[-0.39036875,15.733825,-0.5490375000000001],"name":"голова","children":[0,1,2,3]},{"translation":[0.3125,7.5,-0.9375],"name":"торс"},{"rotation":[-0.7071067811865475,0,0,0.7071067811865476],"translation":[2.1875,12.5,-0.3125],"name":"group3"},{"translation":[5.625,-0.3125,1.09375],"name":"левая нога","children":[6]},{"name":"правая нога"},{"translation":[-4.0625,6.5625,-0.78125],"name":"ноги","children":[7,8]},{"rotation":[-0.7071067811865475,0,0,0.7071067811865476],"translation":[-6.5625,-8.75,5.625],"name":"group2"},{"translation":[0.625,7.1875,0.78125],"name":"правая рука","children":[10]},{"translation":[6.71875,7.1875,0.625],"name":"левая рука"},{"translation":[-4.0625,6.5625,-0.78125],"name":"руки","children":[11,12]},{"name":"Мужик","children":[4,5,9,13]},{"translation":[1.875,0,0],"name":"Мужик","mesh":0,"children":[14],"skin":0}],"bufferViews":[{"buffer":0,"byteOffset":0,"byteLength":15456,"target":34962,"byteStride":12},{"buffer":0,"byteOffset":15456,"byteLength":15456,"target":34962,"byteStride":12},{"buffer":0,"byteOffset":30912,"byteLength":10304,"target":34962,"byteStride":8},{"buffer":0,"byteOffset":41216,"byteLength":10304,"target":34962,"byteStride":8},{"buffer":0,"byteOffset":51520,"byteLength":20608,"target":34962,"byteStride":16},{"buffer":0,"byteOffset":72128,"byteLength":3528,"target":34963},{"buffer":0,"byteOffset":75656,"byteLength":960},{"buffer":0,"byteOffset":76616,"byteLength":12},{"buffer":0,"byteOffset":76628,"byteLength":48},{"buffer":0,"byteOffset":76676,"byteLength":12},{"buffer":0,"byteOffset":76688,"byteLength":48},{"buffer":0,"byteOffset":76736,"byteLength":12},{"buffer":0,"byteOffset":76748,"byteLength":48},{"buffer":0,"byteOffset":76796,"byteLength":12},{"buffer":0,"byteOffset":76808,"byteLength":36},{"buffer":0,"byteOffset":76844,"byteLength":12},{"buffer":0,"byteOffset":76856,"byteLength":48},{"buffer":0,"byteOffset":76904,"byteLength":16},{"buffer":0,"byteOffset":76920,"byteLength":48},{"buffer":0,"byteOffset":76968,"byteLength":4},{"buffer":0,"byteOffset":76972,"byteLength":16},{"buffer":0,"byteOffset":76988,"byteLength":12},{"buffer":0,"byteOffset":77000,"byteLength":48},{"buffer":0,"byteOffset":77048,"byteLength":12},{"buffer":0,"byteOffset":77060,"byteLength":48},{"buffer":0,"byteOffset":77108,"byteLength":12},{"buffer":0,"byteOffset":77120,"byteLength":48},{"buffer":0,"byteOffset":77168,"byteLength":12},{"buffer":0,"byteOffset":77180,"byteLength":48},{"buffer":0,"byteOffset":77228,"byteLength":12},{"buffer":0,"byteOffset":77240,"byteLength":48},{"buffer":0,"byteOffset":77288,"byteLength":12},{"buffer":0,"byteOffset":77300,"byteLength":48},{"buffer":0,"byteOffset":77348,"byteLength":8},{"buffer":0,"byteOffset":77356,"byteLength":24},{"buffer":0,"byteOffset":77380,"byteLength":16},{"buffer":0,"byteOffset":77396,"byteLength":64},{"buffer":0,"byteOffset":77460,"byteLength":12},{"buffer":0,"byteOffset":77472,"byteLength":36}],"buffers":[{"byteLength":77508,"uri":"data:application/octet-stream;base64,"}],"accessors":[{"bufferView":0,"componentType":5126,"count":1288,"max":[4.690962314605713,19.375,5.261471271514893],"min":[-5.3125,0,-6.200113296508789],"type":"VEC3"},{"bufferView":1,"componentType":5126,"count":1288,"max":[1,1,1],"min":[-1,-1,-1],"type":"VEC3"},{"bufferView":2,"componentType":5126,"count":1288,"max":[0.6015625,0.625],"min":[0,0],"type":"VEC2"},{"bufferView":3,"componentType":5123,"count":1288,"max":[0,14,0,0],"min":[0,1,0,0],"type":"VEC4"},{"bufferView":4,"componentType":5126,"count":1288,"max":[0,1,0,0],"min":[0,1,0,0],"type":"VEC4"},{"bufferView":5,"componentType":5123,"count":1764,"max":[1287],"min":[0],"type":"SCALAR"},{"bufferView":6,"componentType":5126,"count":15,"max":[1,0,0,0,0,1,1,0,0,0,1,0,10,5.625,2.2319562435150146,1],"min":[1,0,0,0,0,2.220446049250313e-16,0,0,0,-1,2.220446049250313e-16,0,-3.75,-16.88146209716797,-18.75,1],"type":"MAT4"},{"bufferView":7,"componentType":5126,"count":3,"max":[0.9583333134651184],"min":[0],"type":"SCALAR"},{"bufferView":8,"componentType":5126,"count":3,"max":[0,0.06540312618017197,0,0.9978589415550232],"min":[0,-0.10886687785387039,0,0.9940563440322876],"type":"VEC4"},{"bufferView":9,"componentType":5126,"count":3,"max":[0.9583333134651184],"min":[0],"type":"SCALAR"},{"bufferView":10,"componentType":5126,"count":3,"max":[0,0.08715574443340302,0,0.9961947202682495],"min":[0,-0.08715574443340302,0,0.9961947202682495],"type":"VEC4"},{"bufferView":11,"componentType":5126,"count":3,"max":[0.9583333134651184],"min":[0],"type":"SCALAR"},{"bufferView":12,"componentType":5126,"count":3,"max":[0,0.08715574443340302,0,0.9961947202682495],"min":[0,-0.08715574443340302,0,0.9961947202682495],"type":"VEC4"},{"bufferView":13,"componentType":5126,"count":3,"max":[0.9583333134651184],"min":[0],"type":"SCALAR"},{"bufferView":14,"componentType":5126,"count":3,"max":[1.25,7.1875,1.40625],"min":[0.625,7.1875,0.15625],"type":"VEC3"},{"bufferView":15,"componentType":5126,"count":3,"max":[0.9583333134651184],"min":[0],"type":"SCALAR"},{"bufferView":16,"componentType":5126,"count":3,"max":[0,0.08715574443340302,0,0.9961947202682495],"min":[0,-0.08715574443340302,0,0.9961947202682495],"type":"VEC4"},{"bufferView":17,"componentType":5126,"count":4,"max":[0.9583333134651184],"min":[0],"type":"SCALAR"},{"bufferView":18,"componentType":5126,"count":4,"max":[6.71875,7.1875,1.25],"min":[6.09375,7.1875,0],"type":"VEC3"},{"bufferView":19,"componentType":5126,"count":1,"max":[0],"min":[0],"type":"SCALAR"},{"bufferView":20,"componentType":5126,"count":1,"max":[-0.7010573744773865,0.09229595214128494,-0.09229595214128494,0.7010573744773865],"min":[-0.7010573744773865,0.09229595214128494,-0.09229595214128494,0.7010573744773865],"type":"VEC4"},{"bufferView":21,"componentType":5126,"count":3,"max":[0.4583333432674408],"min":[0],"type":"SCALAR"},{"bufferView":22,"componentType":5126,"count":3,"max":[0.08715574443340302,0,0,0.9961947202682495],"min":[-0.08715574443340302,0,0,0.9961947202682495],"type":"VEC4"},{"bufferView":23,"componentType":5126,"count":3,"max":[0.4583333432674408],"min":[0],"type":"SCALAR"},{"bufferView":24,"componentType":5126,"count":3,"max":[0.08715574443340302,0,0,0.9961947202682495],"min":[-0.08715574443340302,0,0,0.9961947202682495],"type":"VEC4"},{"bufferView":25,"componentType":5126,"count":3,"max":[0.4583333432674408],"min":[0],"type":"SCALAR"},{"bufferView":26,"componentType":5126,"count":3,"max":[0.08715574443340302,0,0,0.9961947202682495],"min":[-0.08715574443340302,0,0,0.9961947202682495],"type":"VEC4"},{"bufferView":27,"componentType":5126,"count":3,"max":[0.4583333432674408],"min":[0],"type":"SCALAR"},{"bufferView":28,"componentType":5126,"count":3,"max":[0.08715574443340302,0,0,0.9961947202682495],"min":[-0.08715574443340302,0,0,0.9961947202682495],"type":"VEC4"},{"bufferView":29,"componentType":5126,"count":3,"max":[1.5],"min":[0],"type":"SCALAR"},{"bufferView":30,"componentType":5126,"count":3,"max":[0.6810076236724854,0,0.14438402652740479,1],"min":[0,-0.10869037359952927,0,0.7113892436027527],"type":"VEC4"},{"bufferView":31,"componentType":5126,"count":3,"max":[1.5],"min":[0],"type":"SCALAR"},{"bufferView":32,"componentType":5126,"count":3,"max":[0.682198703289032,0.19065159559249878,0,1],"min":[0,0,-0.1866855025291443,0.6839408874511719],"type":"VEC4"},{"bufferView":33,"componentType":5126,"count":2,"max":[0.25],"min":[0],"type":"SCALAR"},{"bufferView":34,"componentType":5126,"count":2,"max":[-5.3125,-8.75,5.625],"min":[-6.5625,-8.75,5.625],"type":"VEC3"},{"bufferView":35,"componentType":5126,"count":4,"max":[1.5],"min":[0],"type":"SCALAR"},{"bufferView":36,"componentType":5126,"count":4,"max":[-7.156175456657365e-7,0,0.005692882463335991,0.9990482330322266],"min":[-0.7071067690849304,-0.0435258150100708,0,0.7071067690849304],"type":"VEC4"},{"bufferView":37,"componentType":5126,"count":3,"max":[1],"min":[0],"type":"SCALAR"},{"bufferView":38,"componentType":5126,"count":3,"max":[2.1875,12.5,2.8125],"min":[-2.8125,7.5,-0.3125],"type":"VEC3"}],"materials":[{"pbrMetallicRoughness":{"metallicFactor":0,"roughnessFactor":1,"baseColorTexture":{"index":0}},"alphaMode":"MASK","alphaCutoff":0.05,"doubleSided":true}],"textures":[{"sampler":0,"source":0,"name":"texture"}],"samplers":[{"magFilter":9728,"minFilter":9728,"wrapS":33071,"wrapT":33071}],"images":[{"mimeType":"image/png","name":"texture","uri":"texture.png"}],"meshes":[{"primitives":[{"mode":4,"attributes":{"POSITION":0,"NORMAL":1,"TEXCOORD_0":2,"JOINTS_0":3,"WEIGHTS_0":4},"indices":5,"material":0}]}],"skins":[{"inverseBindMatrices":6,"joints":[14,4,0,1,2,3,5,9,7,6,8,13,11,10,12],"skeleton":14}],"animations":[{"name":"animation2","samplers":[{"input":7,"output":8,"interpolation":"LINEAR"},{"input":9,"output":10,"interpolation":"LINEAR"},{"input":11,"output":12,"interpolation":"LINEAR"},{"input":13,"output":14,"interpolation":"LINEAR"},{"input":15,"output":16,"interpolation":"LINEAR"},{"input":17,"output":18,"interpolation":"LINEAR"},{"input":19,"output":20,"interpolation":"LINEAR"}],"channels":[{"sampler":0,"target":{"node":4,"path":"rotation"}},{"sampler":1,"target":{"node":5,"path":"rotation"}},{"sampler":2,"target":{"node":11,"path":"rotation"}},{"sampler":3,"target":{"node":11,"path":"translation"}},{"sampler":4,"target":{"node":12,"path":"rotation"}},{"sampler":5,"target":{"node":12,"path":"translation"}},{"sampler":6,"target":{"node":6,"path":"rotation"}}]},{"name":"animation","samplers":[{"input":21,"output":22,"interpolation":"LINEAR"},{"input":23,"output":24,"interpolation":"LINEAR"},{"input":25,"output":26,"interpolation":"LINEAR"},{"input":27,"output":28,"interpolation":"LINEAR"}],"channels":[{"sampler":0,"target":{"node":11,"path":"rotation"}},{"sampler":1,"target":{"node":12,"path":"rotation"}},{"sampler":2,"target":{"node":8,"path":"rotation"}},{"sampler":3,"target":{"node":7,"path":"rotation"}}]},{"name":"animation3","samplers":[{"input":29,"output":30,"interpolation":"LINEAR"},{"input":31,"output":32,"interpolation":"LINEAR"},{"input":33,"output":34,"interpolation":"LINEAR"},{"input":35,"output":36,"interpolation":"LINEAR"},{"input":37,"output":38,"interpolation":"LINEAR"}],"channels":[{"sampler":0,"target":{"node":11,"path":"rotation"}},{"sampler":1,"target":{"node":12,"path":"rotation"}},{"sampler":2,"target":{"node":10,"path":"translation"}},{"sampler":3,"target":{"node":6,"path":"rotation"}},{"sampler":4,"target":{"node":6,"path":"translation"}}]}]}