{"asset":{"version":"2.0","generator":"Blockbench 5.1.4 glTF exporter"},"scenes":[{"nodes":[12],"name":"blockbench_export"}],"scene":0,"nodes":[{"translation":[0.07786874999999999,0.2751625000000013,0.2365375],"name":"колючки"},{"translation":[1.12484375,1.068325000000001,-1.68291875],"name":"левый глаз"},{"translation":[-0.95324375,1.1476375000000005,-1.6734],"name":"правый глаз"},{"translation":[-0.39036875,15.733825,-0.5490375000000001],"name":"голова","children":[0,1,2]},{"translation":[0.3125,7.5,-0.9375],"name":"торс"},{"translation":[5.625,-0.3125,1.09375],"name":"левая нога"},{"name":"правая нога"},{"translation":[-4.0625,6.5625,-0.78125],"name":"ноги","children":[5,6]},{"translation":[0.625,7.1875,0.78125],"name":"правая рука"},{"translation":[6.71875,7.1875,0.625],"name":"левая рука"},{"translation":[-4.0625,6.5625,-0.78125],"name":"руки","children":[8,9]},{"name":"Мужик","children":[3,4,7,10]},{"name":"Мужик","mesh":0,"children":[11],"skin":0}],"bufferViews":[{"buffer":0,"byteOffset":0,"byteLength":11232,"target":34962,"byteStride":12},{"buffer":0,"byteOffset":11232,"byteLength":11232,"target":34962,"byteStride":12},{"buffer":0,"byteOffset":22464,"byteLength":7488,"target":34962,"byteStride":8},{"buffer":0,"byteOffset":29952,"byteLength":7488,"target":34962,"byteStride":8},{"buffer":0,"byteOffset":37440,"byteLength":14976,"target":34962,"byteStride":16},{"buffer":0,"byteOffset":52416,"byteLength":2736,"target":34963},{"buffer":0,"byteOffset":55152,"byteLength":768},{"buffer":0,"byteOffset":55920,"byteLength":12},{"buffer":0,"byteOffset":55932,"byteLength":48},{"buffer":0,"byteOffset":55980,"byteLength":12},{"buffer":0,"byteOffset":55992,"byteLength":48},{"buffer":0,"byteOffset":56040,"byteLength":12},{"buffer":0,"byteOffset":56052,"byteLength":48},{"buffer":0,"byteOffset":56100,"byteLength":12},{"buffer":0,"byteOffset":56112,"byteLength":36},{"buffer":0,"byteOffset":56148,"byteLength":12},{"buffer":0,"byteOffset":56160,"byteLength":48},{"buffer":0,"byteOffset":56208,"byteLength":16},{"buffer":0,"byteOffset":56224,"byteLength":48},{"buffer":0,"byteOffset":56272,"byteLength":12},{"buffer":0,"byteOffset":56284,"byteLength":48},{"buffer":0,"byteOffset":56332,"byteLength":12},{"buffer":0,"byteOffset":56344,"byteLength":48},{"buffer":0,"byteOffset":56392,"byteLength":12},{"buffer":0,"byteOffset":56404,"byteLength":48},{"buffer":0,"byteOffset":56452,"byteLength":12},{"buffer":0,"byteOffset":56464,"byteLength":48},{"buffer":0,"byteOffset":56512,"byteLength":4},{"buffer":0,"byteOffset":56516,"byteLength":16},{"buffer":0,"byteOffset":56532,"byteLength":4},{"buffer":0,"byteOffset":56536,"byteLength":12},{"buffer":0,"byteOffset":56548,"byteLength":4},{"buffer":0,"byteOffset":56552,"byteLength":16},{"buffer":0,"byteOffset":56568,"byteLength":12},{"buffer":0,"byteOffset":56580,"byteLength":48},{"buffer":0,"byteOffset":56628,"byteLength":4},{"buffer":0,"byteOffset":56632,"byteLength":12},{"buffer":0,"byteOffset":56644,"byteLength":12},{"buffer":0,"byteOffset":56656,"byteLength":48},{"buffer":0,"byteOffset":56704,"byteLength":4},{"buffer":0,"byteOffset":56708,"byteLength":12}],"buffers":[{"byteLength":56720,"uri":"data:application/octet-stream;base64,"}],"accessors":[{"bufferView":0,"componentType":5126,"count":936,"max":[4.690962314605713,20.625,5],"min":[-5.3125,0,-5],"type":"VEC3"},{"bufferView":1,"componentType":5126,"count":936,"max":[1,1,1],"min":[-1,-1,-1],"type":"VEC3"},{"bufferView":2,"componentType":5126,"count":936,"max":[1,1],"min":[0,0],"type":"VEC2"},{"bufferView":3,"componentType":5123,"count":936,"max":[0,11,0,0],"min":[0,1,0,0],"type":"VEC4"},{"bufferView":4,"componentType":5126,"count":936,"max":[0,1,0,0],"min":[0,1,0,0],"type":"VEC4"},{"bufferView":5,"componentType":5123,"count":1368,"max":[935],"min":[0],"type":"SCALAR"},{"bufferView":6,"componentType":5126,"count":12,"max":[1,0,0,0,0,1,0,0,0,0,1,0,4.0625,0,2.2319562435150146,1],"min":[1,0,0,0,0,1,0,0,0,0,1,0,-2.65625,-16.88146209716797,-0.3125,1],"type":"MAT4"},{"bufferView":7,"componentType":5126,"count":3,"max":[0.9583333134651184],"min":[0],"type":"SCALAR"},{"bufferView":8,"componentType":5126,"count":3,"max":[0,0.06540312618017197,0,0.9978589415550232],"min":[0,-0.10886687785387039,0,0.9940563440322876],"type":"VEC4"},{"bufferView":9,"componentType":5126,"count":3,"max":[0.9583333134651184],"min":[0],"type":"SCALAR"},{"bufferView":10,"componentType":5126,"count":3,"max":[0,0.08715574443340302,0,0.9961947202682495],"min":[0,-0.08715574443340302,0,0.9961947202682495],"type":"VEC4"},{"bufferView":11,"componentType":5126,"count":3,"max":[0.9583333134651184],"min":[0],"type":"SCALAR"},{"bufferView":12,"componentType":5126,"count":3,"max":[0,0.08715574443340302,0,0.9961947202682495],"min":[0,-0.08715574443340302,0,0.9961947202682495],"type":"VEC4"},{"bufferView":13,"componentType":5126,"count":3,"max":[0.9583333134651184],"min":[0],"type":"SCALAR"},{"bufferView":14,"componentType":5126,"count":3,"max":[1.25,7.1875,1.40625],"min":[0.625,7.1875,0.15625],"type":"VEC3"},{"bufferView":15,"componentType":5126,"count":3,"max":[0.9583333134651184],"min":[0],"type":"SCALAR"},{"bufferView":16,"componentType":5126,"count":3,"max":[0,0.08715574443340302,0,0.9961947202682495],"min":[0,-0.08715574443340302,0,0.9961947202682495],"type":"VEC4"},{"bufferView":17,"componentType":5126,"count":4,"max":[0.9583333134651184],"min":[0],"type":"SCALAR"},{"bufferView":18,"componentType":5126,"count":4,"max":[6.71875,7.1875,1.25],"min":[6.09375,7.1875,0],"type":"VEC3"},{"bufferView":19,"componentType":5126,"count":3,"max":[0.4583333432674408],"min":[0],"type":"SCALAR"},{"bufferView":20,"componentType":5126,"count":3,"max":[0.08715574443340302,0,0,0.9961947202682495],"min":[-0.08715574443340302,0,0,0.9961947202682495],"type":"VEC4"},{"bufferView":21,"componentType":5126,"count":3,"max":[0.4583333432674408],"min":[0],"type":"SCALAR"},{"bufferView":22,"componentType":5126,"count":3,"max":[0.08715574443340302,0,0,0.9961947202682495],"min":[-0.08715574443340302,0,0,0.9961947202682495],"type":"VEC4"},{"bufferView":23,"componentType":5126,"count":3,"max":[0.4583333432674408],"min":[0],"type":"SCALAR"},{"bufferView":24,"componentType":5126,"count":3,"max":[0.08715574443340302,0,0,0.9961947202682495],"min":[-0.08715574443340302,0,0,0.9961947202682495],"type":"VEC4"},{"bufferView":25,"componentType":5126,"count":3,"max":[0.4583333432674408],"min":[0],"type":"SCALAR"},{"bufferView":26,"componentType":5126,"count":3,"max":[0.08715574443340302,0,0,0.9961947202682495],"min":[-0.08715574443340302,0,0,0.9961947202682495],"type":"VEC4"},{"bufferView":27,"componentType":5126,"count":1,"max":[0],"min":[0],"type":"SCALAR"},{"bufferView":28,"componentType":5126,"count":1,"max":[-0.258819043636322,0,0,0.9659258127212524],"min":[-0.258819043636322,0,0,0.9659258127212524],"type":"VEC4"},{"bufferView":29,"componentType":5126,"count":1,"max":[0],"min":[0],"type":"SCALAR"},{"bufferView":30,"componentType":5126,"count":1,"max":[-0.3903687596321106,15.733824729919434,-4.299037456512451],"min":[-0.3903687596321106,15.733824729919434,-4.299037456512451],"type":"VEC3"},{"bufferView":31,"componentType":5126,"count":1,"max":[0],"min":[0],"type":"SCALAR"},{"bufferView":32,"componentType":5126,"count":1,"max":[-0.2164396196603775,0,0,0.9762960076332092],"min":[-0.2164396196603775,0,0,0.9762960076332092],"type":"VEC4"},{"bufferView":33,"componentType":5126,"count":3,"max":[0.5],"min":[0],"type":"SCALAR"},{"bufferView":34,"componentType":5126,"count":3,"max":[0.252684623003006,-0.05601859837770462,0.28026092052459717,0.9430292248725891],"min":[0.14508336782455444,-0.10898720473051071,0.20906513929367065,0.9426168203353882],"type":"VEC4"},{"bufferView":35,"componentType":5126,"count":1,"max":[0],"min":[0],"type":"SCALAR"},{"bufferView":36,"componentType":5126,"count":1,"max":[0.625,7.1875,-2.34375],"min":[0.625,7.1875,-2.34375],"type":"VEC3"},{"bufferView":37,"componentType":5126,"count":3,"max":[0.5],"min":[0],"type":"SCALAR"},{"bufferView":38,"componentType":5126,"count":3,"max":[0.3898876905441284,-0.002350438619032502,-0.20225054025650024,0.9342100620269775],"min":[0.29371681809425354,-0.009829673916101456,-0.3034863770008087,0.869360089302063],"type":"VEC4"},{"bufferView":39,"componentType":5126,"count":1,"max":[0],"min":[0],"type":"SCALAR"},{"bufferView":40,"componentType":5126,"count":1,"max":[6.71875,7.1875,-1.875],"min":[6.71875,7.1875,-1.875],"type":"VEC3"}],"materials":[{"pbrMetallicRoughness":{"metallicFactor":0,"roughnessFactor":1,"baseColorTexture":{"index":0}},"alphaMode":"MASK","alphaCutoff":0.05,"doubleSided":true}],"textures":[{"sampler":0,"source":0,"name":"texture"}],"samplers":[{"magFilter":9728,"minFilter":9728,"wrapS":33071,"wrapT":33071}],"images":[{"mimeType":"image/png","name":"texture","uri":"texture.png"}],"meshes":[{"primitives":[{"mode":4,"attributes":{"POSITION":0,"NORMAL":1,"TEXCOORD_0":2,"JOINTS_0":3,"WEIGHTS_0":4},"indices":5,"material":0}]}],"skins":[{"inverseBindMatrices":6,"joints":[11,3,0,1,2,4,7,5,6,10,8,9],"skeleton":11}],"animations":[{"name":"animation2","samplers":[{"input":7,"output":8,"interpolation":"LINEAR"},{"input":9,"output":10,"interpolation":"LINEAR"},{"input":11,"output":12,"interpolation":"LINEAR"},{"input":13,"output":14,"interpolation":"LINEAR"},{"input":15,"output":16,"interpolation":"LINEAR"},{"input":17,"output":18,"interpolation":"LINEAR"}],"channels":[{"sampler":0,"target":{"node":3,"path":"rotation"}},{"sampler":1,"target":{"node":4,"path":"rotation"}},{"sampler":2,"target":{"node":8,"path":"rotation"}},{"sampler":3,"target":{"node":8,"path":"translation"}},{"sampler":4,"target":{"node":9,"path":"rotation"}},{"sampler":5,"target":{"node":9,"path":"translation"}}]},{"name":"animation","samplers":[{"input":19,"output":20,"interpolation":"LINEAR"},{"input":21,"output":22,"interpolation":"LINEAR"},{"input":23,"output":24,"interpolation":"LINEAR"},{"input":25,"output":26,"interpolation":"LINEAR"}],"channels":[{"sampler":0,"target":{"node":8,"path":"rotation"}},{"sampler":1,"target":{"node":9,"path":"rotation"}},{"sampler":2,"target":{"node":6,"path":"rotation"}},{"sampler":3,"target":{"node":5,"path":"rotation"}}]},{"name":"animation3","samplers":[{"input":27,"output":28,"interpolation":"LINEAR"},{"input":29,"output":30,"interpolation":"LINEAR"},{"input":31,"output":32,"interpolation":"LINEAR"},{"input":33,"output":34,"interpolation":"LINEAR"},{"input":35,"output":36,"interpolation":"LINEAR"},{"input":37,"output":38,"interpolation":"LINEAR"},{"input":39,"output":40,"interpolation":"LINEAR"}],"channels":[{"sampler":0,"target":{"node":3,"path":"rotation"}},{"sampler":1,"target":{"node":3,"path":"translation"}},{"sampler":2,"target":{"node":4,"path":"rotation"}},{"sampler":3,"target":{"node":8,"path":"rotation"}},{"sampler":4,"target":{"node":8,"path":"translation"}},{"sampler":5,"target":{"node":9,"path":"rotation"}},{"sampler":6,"target":{"node":9,"path":"translation"}}]}]}