# Made in Blockbench 5.1.4
mtllib materials.mtl

o cube
v -0.15276437499999998 1.60089875 0.22287812500000004
v 0.005868750000000035 1.60089875 0.222878125
v 0.005868750000000035 1.75953125 0.222878125
v -0.15276437499999998 1.75953125 0.22287812500000004
v -0.15276437499999998 1.60089875 0.22287812500000004
v -0.15276437499999998 1.75953125 0.22287812500000004
v 0.005868750000000035 1.60089875 0.222878125
v 0.005868750000000035 1.75953125 0.222878125
vt 0.359375 0.890625
vt 0.3828125 0.890625
vt 0.3828125 0.9140625
vt 0.359375 0.9140625
vt 0 0.9765625
vt 0 0.9765625
vt 0 1
vt 0 1
vt 0.390625 0.9140625
vt 0.4140625 0.9140625
vt 0.4140625 0.9375
vt 0.390625 0.9375
vt 0 0.9765625
vt 0 0.9765625
vt 0 1
vt 0 1
vt 0.0234375 1
vt 0 1
vt 0 1
vt 0.0234375 1
vt 0 1
vt 0.0234375 1
vt 0.0234375 1
vt 0 1
vn 1.2246467991473532e-16 0 1
vn 0 0 0
vn -1.2246467991473532e-16 0 -1
vn 0 0 0
vn 0 0 0
vn 0 0 0
usemtl m_85f054cb-9e4d-e206-5b54-a4a9ee7c71b1
f 1/1/1 2/2/1 3/3/1 4/4/1
f 5/5/2 1/6/2 4/7/2 6/8/2
f 7/9/3 5/10/3 6/11/3 8/12/3
f 2/13/4 7/14/4 8/15/4 3/16/4
f 8/17/5 6/18/5 4/19/5 3/20/5
f 2/21/6 1/22/6 5/23/6 7/24/6
o cube
v -0.12103749999999998 1.632625 0.22351312500000003
v -0.025857499999999964 1.632625 0.223513125
v -0.025857499999999964 1.727805 0.223513125
v -0.12103749999999998 1.727805 0.22351312500000003
v -0.12103749999999998 1.632625 0.22351312500000003
v -0.12103749999999998 1.727805 0.22351312500000003
v -0.025857499999999964 1.632625 0.223513125
v -0.025857499999999964 1.727805 0.223513125
vt 0.34375 0.984375
vt 0.359375 0.984375
vt 0.359375 1
vt 0.34375 1
vt 0 0.984375
vt 0 0.984375
vt 0 1
vt 0 1
vt 0.2734375 0.625
vt 0.2890625 0.625
vt 0.2890625 0.640625
vt 0.2734375 0.640625
vt 0 0.984375
vt 0 0.984375
vt 0 1
vt 0 1
vt 0.015625 1
vt 0 1
vt 0 1
vt 0.015625 1
vt 0 1
vt 0.015625 1
vt 0.015625 1
vt 0 1
vn 1.2246467991473532e-16 0 1
vn 0 0 0
vn -1.2246467991473532e-16 0 -1
vn 0 0 0
vn 0 0 0
vn 0 0 0
usemtl m_85f054cb-9e4d-e206-5b54-a4a9ee7c71b1
f 9/25/7 10/26/7 11/27/7 12/28/7
f 13/29/8 9/30/8 12/31/8 14/32/8
f 15/33/9 13/34/9 14/35/9 16/36/9
f 10/37/10 15/38/10 16/39/10 11/40/10
f 16/41/11 14/42/11 12/43/11 11/44/11
f 10/45/12 9/46/12 13/47/12 15/48/12
o cube
v 0.05663125000000001 1.60089875 0.222878125
v 0.21526437500000004 1.60089875 0.22287812499999998
v 0.21526437500000004 1.75953125 0.22287812499999998
v 0.05663125000000001 1.75953125 0.222878125
v 0.05663125000000001 1.60089875 0.222878125
v 0.05663125000000001 1.75953125 0.222878125
v 0.21526437500000004 1.60089875 0.22287812499999998
v 0.21526437500000004 1.75953125 0.22287812499999998
vt 0.09375 0.4765625
vt 0.1171875 0.4765625
vt 0.1171875 0.5
vt 0.09375 0.5
vt 0 0.9765625
vt 0 0.9765625
vt 0 1
vt 0 1
vt 0.1171875 0.4765625
vt 0.140625 0.4765625
vt 0.140625 0.5
vt 0.1171875 0.5
vt 0 0.9765625
vt 0 0.9765625
vt 0 1
vt 0 1
vt 0 1
vt 0.0234375 1
vt 0.0234375 1
vt 0 1
vt 0 1
vt 0.0234375 1
vt 0.0234375 1
vt 0 1
vn 1.2246467991473532e-16 0 1
vn 0 0 0
vn -1.2246467991473532e-16 0 -1
vn 0 0 0
vn 0 0 0
vn 0 0 0
usemtl m_85f054cb-9e4d-e206-5b54-a4a9ee7c71b1
f 17/49/13 18/50/13 19/51/13 20/52/13
f 21/53/14 17/54/14 20/55/14 22/56/14
f 23/57/15 21/58/15 22/59/15 24/60/15
f 18/61/16 23/62/16 24/63/16 19/64/16
f 24/65/17 22/66/17 20/67/17 19/68/17
f 18/69/18 17/70/18 21/71/18 23/72/18
o cube
v 0.08835750000000003 1.632625 0.223513125
v 0.18353750000000002 1.632625 0.22351312499999998
v 0.18353750000000002 1.727805 0.22351312499999998
v 0.08835750000000003 1.727805 0.223513125
v 0.08835750000000003 1.632625 0.223513125
v 0.08835750000000003 1.727805 0.223513125
v 0.18353750000000002 1.632625 0.22351312499999998
v 0.18353750000000002 1.727805 0.22351312499999998
vt 0.03125 0.5703125
vt 0.046875 0.5703125
vt 0.046875 0.5859375
vt 0.03125 0.5859375
vt 0 0.984375
vt 0 0.984375
vt 0 1
vt 0 1
vt 0.4140625 0.859375
vt 0.4296875 0.859375
vt 0.4296875 0.875
vt 0.4140625 0.875
vt 0 0.984375
vt 0 0.984375
vt 0 1
vt 0 1
vt 0 1
vt 0.015625 1
vt 0.015625 1
vt 0 1
vt 0 1
vt 0.015625 1
vt 0.015625 1
vt 0 1
vn 1.2246467991473532e-16 0 1
vn 0 0 0
vn -1.2246467991473532e-16 0 -1
vn 0 0 0
vn 0 0 0
vn 0 0 0
usemtl m_85f054cb-9e4d-e206-5b54-a4a9ee7c71b1
f 25/73/19 26/74/19 27/75/19 28/76/19
f 29/77/20 25/78/20 28/79/20 30/80/20
f 31/81/21 29/82/21 30/83/21 32/84/21
f 26/85/22 31/86/22 32/87/22 27/88/22
f 32/89/23 30/90/23 28/91/23 27/92/23
f 26/93/24 25/94/24 29/95/24 31/96/24
o хуйня
v -0.19309067487488818 1.696078125 0.2555906748748883
v 0.2555906748748882 1.696078125 -0.1930906748748883
v 0.2555906748748882 1.7595312499999998 -0.1930906748748883
v -0.19309067487488818 1.7595312499999998 0.2555906748748883
v -0.19309067487488818 1.696078125 0.2555906748748883
v -0.19309067487488818 1.7595312499999998 0.2555906748748883
v 0.2555906748748882 1.696078125 -0.1930906748748883
v 0.2555906748748882 1.7595312499999998 -0.1930906748748883
vt 0.3984375 0.5
vt 0.4765625 0.5
vt 0.4765625 0.5078125
vt 0.3984375 0.5078125
vt 0 0.9921875
vt 0 0.9921875
vt 0 1
vt 0 1
vt 0.4921875 0.5859375
vt 0.5703125 0.5859375
vt 0.5703125 0.59375
vt 0.4921875 0.59375
vt 0 0.9921875
vt 0 0.9921875
vt 0 1
vt 0 1
vt 0.078125 1
vt 0 1
vt 0 1
vt 0.078125 1
vt 0 1
vt 0.078125 1
vt 0.078125 1
vt 0 1
vn 0.7071067811865478 0 0.7071067811865472
vn 0 0 0
vn -0.7071067811865478 0 -0.7071067811865472
vn 0 0 0
vn 0 0 0
vn 0 0 0
usemtl m_85f054cb-9e4d-e206-5b54-a4a9ee7c71b1
f 33/97/25 34/98/25 35/99/25 36/100/25
f 37/101/26 33/102/26 36/103/26 38/104/26
f 39/105/27 37/106/27 38/107/27 40/108/27
f 34/109/28 39/110/28 40/111/28 35/112/28
f 40/113/29 36/114/29 38/115/29 35/116/29
f 34/117/30 37/118/30 33/119/30 39/120/30
o хуйня
v -0.21552496333324614 1.594553125 0.2780249633332462
v 0.27802496333324617 1.594553125 -0.21552496333324622
v 0.27802496333324617 1.6580062499999997 -0.21552496333324622
v -0.21552496333324614 1.6580062499999997 0.2780249633332462
v -0.21552496333324614 1.594553125 0.2780249633332462
v -0.21552496333324614 1.6580062499999997 0.2780249633332462
v 0.27802496333324617 1.594553125 -0.21552496333324622
v 0.27802496333324617 1.6580062499999997 -0.21552496333324622
vt 0.46875 0.9609375
vt 0.5546875 0.9609375
vt 0.5546875 0.96875
vt 0.46875 0.96875
vt 0 0.9921875
vt 0 0.9921875
vt 0 1
vt 0 1
vt 0.46875 0.953125
vt 0.5546875 0.953125
vt 0.5546875 0.9609375
vt 0.46875 0.9609375
vt 0 0.9921875
vt 0 0.9921875
vt 0 1
vt 0 1
vt 0.0859375 1
vt 0 1
vt 0 1
vt 0.0859375 1
vt 0 1
vt 0.0859375 1
vt 0.0859375 1
vt 0 1
vn 0.7071067811865478 0 0.7071067811865474
vn 0 0 0
vn -0.7071067811865478 0 -0.7071067811865474
vn 0 0 0
vn 0 0 0
vn 0 0 0
usemtl m_85f054cb-9e4d-e206-5b54-a4a9ee7c71b1
f 41/121/31 42/122/31 43/123/31 44/124/31
f 45/125/32 41/126/32 44/127/32 46/128/32
f 47/129/33 45/130/33 46/131/33 48/132/33
f 42/133/34 47/134/34 48/135/34 43/136/34
f 48/137/35 46/138/35 44/139/35 43/140/35
f 42/141/36 41/142/36 45/143/36 47/144/36
o хуйня
v -0.19309067487488818 1.493028125 0.2555906748748883
v 0.2555906748748882 1.493028125 -0.1930906748748883
v 0.2555906748748882 1.55648125 -0.1930906748748883
v -0.19309067487488818 1.55648125 0.2555906748748883
v -0.19309067487488818 1.493028125 0.2555906748748883
v -0.19309067487488818 1.55648125 0.2555906748748883
v 0.2555906748748882 1.493028125 -0.1930906748748883
v 0.2555906748748882 1.55648125 -0.1930906748748883
vt 0.4921875 0.578125
vt 0.5703125 0.578125
vt 0.5703125 0.5859375
vt 0.4921875 0.5859375
vt 0 0.9921875
vt 0 0.9921875
vt 0 1
vt 0 1
vt 0.4921875 0.5703125
vt 0.5703125 0.5703125
vt 0.5703125 0.578125
vt 0.4921875 0.578125
vt 0 0.9921875
vt 0 0.9921875
vt 0 1
vt 0 1
vt 0 1
vt 0.078125 1
vt 0.078125 1
vt 0 1
vt 0 1
vt 0.078125 1
vt 0.078125 1
vt 0 1
vn 0.7071067811865479 0 0.7071067811865472
vn 0 0 0
vn -0.7071067811865479 0 -0.7071067811865472
vn 0 0 0
vn 0 0 0
vn 0 0 0
usemtl m_85f054cb-9e4d-e206-5b54-a4a9ee7c71b1
f 49/145/37 50/146/37 51/147/37 52/148/37
f 53/149/38 49/150/38 52/151/38 54/152/38
f 55/153/39 53/154/39 54/155/39 56/156/39
f 50/157/40 55/158/40 56/159/40 51/160/40
f 56/161/41 52/162/41 54/163/41 51/164/41
f 50/165/42 53/166/42 49/167/42 55/168/42
o хуйня
v 0.25559067487488824 1.493028125 0.25559067487488824
v -0.19309067487488824 1.493028125 -0.19309067487488826
v -0.19309067487488824 1.55648125 -0.19309067487488826
v 0.25559067487488824 1.55648125 0.25559067487488824
v 0.25559067487488824 1.493028125 0.25559067487488824
v 0.25559067487488824 1.55648125 0.25559067487488824
v -0.19309067487488824 1.493028125 -0.19309067487488826
v -0.19309067487488824 1.55648125 -0.19309067487488826
vt 0.4921875 0.5625
vt 0.5703125 0.5625
vt 0.5703125 0.5703125
vt 0.4921875 0.5703125
vt 0 0.9921875
vt 0 0.9921875
vt 0 1
vt 0 1
vt 0.4921875 0.5546875
vt 0.5703125 0.5546875
vt 0.5703125 0.5625
vt 0.4921875 0.5625
vt 0 0.9921875
vt 0 0.9921875
vt 0 1
vt 0 1
vt 0 1
vt 0.078125 1
vt 0.078125 1
vt 0 1
vt 0 1
vt 0.078125 1
vt 0.078125 1
vt 0 1
vn 0.7071067811865477 0 -0.7071067811865475
vn 0 0 0
vn -0.7071067811865477 0 0.7071067811865475
vn 0 0 0
vn 0 0 0
vn 0 0 0
usemtl m_85f054cb-9e4d-e206-5b54-a4a9ee7c71b1
f 57/169/43 58/170/43 59/171/43 60/172/43
f 61/173/44 57/174/44 60/175/44 62/176/44
f 63/177/45 61/178/45 62/179/45 64/180/45
f 58/181/46 63/182/46 64/183/46 59/184/46
f 64/185/47 62/186/47 60/187/47 59/188/47
f 58/189/48 57/190/48 61/191/48 63/192/48
o хуйня
v 0.25559067487488824 1.696078125 0.25559067487488824
v -0.19309067487488824 1.696078125 -0.19309067487488826
v -0.19309067487488824 1.7595312499999998 -0.19309067487488826
v 0.25559067487488824 1.7595312499999998 0.25559067487488824
v 0.25559067487488824 1.696078125 0.25559067487488824
v 0.25559067487488824 1.7595312499999998 0.25559067487488824
v -0.19309067487488824 1.696078125 -0.19309067487488826
v -0.19309067487488824 1.7595312499999998 -0.19309067487488826
vt 0.4921875 0.546875
vt 0.5703125 0.546875
vt 0.5703125 0.5546875
vt 0.4921875 0.5546875
vt 0 0.9921875
vt 0 0.9921875
vt 0 1
vt 0 1
vt 0.4765625 0.5
vt 0.5546875 0.5
vt 0.5546875 0.5078125
vt 0.4765625 0.5078125
vt 0 0.9921875
vt 0 0.9921875
vt 0 1
vt 0 1
vt 0 1
vt 0.078125 1
vt 0.078125 1
vt 0 1
vt 0 1
vt 0.078125 1
vt 0.078125 1
vt 0 1
vn 0.7071067811865476 0 -0.7071067811865475
vn 0 0 0
vn -0.7071067811865476 0 0.7071067811865475
vn 0 0 0
vn 0 0 0
vn 0 0 0
usemtl m_85f054cb-9e4d-e206-5b54-a4a9ee7c71b1
f 65/193/49 66/194/49 67/195/49 68/196/49
f 69/197/50 65/198/50 68/199/50 70/200/50
f 71/201/51 69/202/51 70/203/51 72/204/51
f 66/205/52 71/206/52 72/207/52 67/208/52
f 72/209/53 70/210/53 68/211/53 67/212/53
f 66/213/54 65/214/54 69/215/54 71/216/54
o хуйня
v 0.2780249633332462 1.594553125 0.27802496333324617
v -0.2155249633332462 1.594553125 -0.2155249633332462
v -0.2155249633332462 1.6580062499999997 -0.2155249633332462
v 0.2780249633332462 1.6580062499999997 0.27802496333324617
v 0.2780249633332462 1.594553125 0.27802496333324617
v 0.2780249633332462 1.6580062499999997 0.27802496333324617
v -0.2155249633332462 1.594553125 -0.2155249633332462
v -0.2155249633332462 1.6580062499999997 -0.2155249633332462
vt 0.46875 0.9453125
vt 0.5546875 0.9453125
vt 0.5546875 0.953125
vt 0.46875 0.953125
vt 0 0.9921875
vt 0 0.9921875
vt 0 1
vt 0 1
vt 0.46875 0.5390625
vt 0.5546875 0.5390625
vt 0.5546875 0.546875
vt 0.46875 0.546875
vt 0 0.9921875
vt 0 0.9921875
vt 0 1
vt 0 1
vt 0 1
vt 0.0859375 1
vt 0.0859375 1
vt 0 1
vt 0 1
vt 0.0859375 1
vt 0.0859375 1
vt 0 1
vn 0.7071067811865476 0 -0.7071067811865476
vn 0 0 0
vn -0.7071067811865476 0 0.7071067811865476
vn 0 0 0
vn 0 0 0
vn 0 0 0
usemtl m_85f054cb-9e4d-e206-5b54-a4a9ee7c71b1
f 73/217/55 74/218/55 75/219/55 76/220/55
f 77/221/56 73/222/56 76/223/56 78/224/56
f 79/225/57 77/226/57 78/227/57 80/228/57
f 74/229/58 79/230/58 80/231/58 75/232/58
f 80/233/59 78/234/59 76/235/59 75/236/59
f 74/237/60 73/238/60 77/239/60 79/240/60
o хуйня
v 0.10358917486364222 1.8505113168156542 0.24654451500431002
v 0.12054884571337554 1.4860633108894672 -0.05901994757708566
v 0.1838709229388168 1.48997383006484 -0.06016949005126091
v 0.16691125208908347 1.854421835991027 0.24539497253013473
v 0.10358917486364222 1.8505113168156542 0.24654451500431002
v 0.16691125208908347 1.854421835991027 0.24539497253013473
v 0.12054884571337554 1.4860633108894672 -0.05901994757708566
v 0.1838709229388168 1.48997383006484 -0.06016949005126091
vt 0.5 0.8515625
vt 0.5625 0.8515625
vt 0.5625 0.859375
vt 0.5 0.859375
vt 0 0.9921875
vt 0 0.9921875
vt 0 1
vt 0 1
vt 0.5 0.84375
vt 0.5625 0.84375
vt 0.5625 0.8515625
vt 0.5 0.8515625
vt 0 0.9921875
vt 0 0.9921875
vt 0 1
vt 0 1
vt 0.0625 1
vt 0 1
vt 0 1
vt 0.0625 1
vt 0 1
vt 0.0625 1
vt 0.0625 1
vt 0 1
vn 0.05344405417030393 -0.6401070427294542 0.7664246257277977
vn 0 0 0
vn -0.05344405417030484 0.6401070427294541 -0.7664246257277975
vn 0 0 0
vn 0 0 0
vn 0 0 0
usemtl m_85f054cb-9e4d-e206-5b54-a4a9ee7c71b1
f 81/241/61 82/242/61 83/243/61 84/244/61
f 85/245/62 81/246/62 84/247/62 86/248/62
f 87/249/63 85/250/63 86/251/63 88/252/63
f 82/253/64 87/254/64 88/255/64 83/256/64
f 88/257/65 86/258/65 84/259/65 83/260/65
f 82/261/66 81/262/66 85/263/66 87/264/66
o хуйня
v -0.012487338250344142 1.8686340928763006 0.28847749714888926
v 0.007584244586559342 1.578995034274068 -0.08859804905637238
v 0.07097301113892292 1.581450120997865 -0.08710968982182274
v 0.05090142830201944 1.8710891796000975 0.2899658563834389
v -0.012487338250344142 1.8686340928763006 0.28847749714888926
v 0.05090142830201944 1.8710891796000975 0.2899658563834389
v 0.007584244586559342 1.578995034274068 -0.08859804905637238
v 0.07097301113892292 1.581450120997865 -0.08710968982182274
vt 0.5 0.8046875
vt 0.5625 0.8046875
vt 0.5625 0.8125
vt 0.5 0.8125
vt 0 0.9921875
vt 0 0.9921875
vt 0 1
vt 0 1
vt 0.5 0.796875
vt 0.5625 0.796875
vt 0.5625 0.8046875
vt 0.5 0.8046875
vt 0 0.9921875
vt 0 0.9921875
vt 0 1
vt 0 1
vt 0 1
vt 0.0625 1
vt 0.0625 1
vt 0 1
vt 0 1
vt 0.0625 1
vt 0.0625 1
vt 0 1
vn 0.016380998821027996 -0.7925218876203757 0.6096234251734935
vn 0 0 0
vn -0.016380998821024777 0.7925218876203759 -0.6096234251734934
vn 0 0 0
vn 0 0 0
vn 0 0 0
usemtl m_85f054cb-9e4d-e206-5b54-a4a9ee7c71b1
f 89/265/67 90/266/67 91/267/67 92/268/67
f 93/269/68 89/270/68 92/271/68 94/272/68
f 95/273/69 93/274/69 94/275/69 96/276/69
f 90/277/70 95/278/70 96/279/70 91/280/70
f 96/281/71 94/282/71 92/283/71 91/284/71
f 90/285/72 89/286/72 93/287/72 95/288/72
o хуйня
v -0.12402381761688455 1.8475021305664536 0.2445571951705174
v -0.10812978577765833 1.4498506781202656 -0.11947642002991056
v -0.04473705409900958 1.4498506749485225 -0.11670863344413193
v -0.060631085938235796 1.8475021273947103 0.24732498175629603
v -0.12402381761688455 1.8475021305664536 0.2445571951705174
v -0.060631085938235796 1.8475021273947103 0.24732498175629603
v -0.10812978577765833 1.4498506781202656 -0.11947642002991056
v -0.04473705409900958 1.4498506749485225 -0.11670863344413193
vt 0.0234375 0.4921875
vt 0.09375 0.4921875
vt 0.09375 0.5
vt 0.0234375 0.5
vt 0 0.9921875
vt 0 0.9921875
vt 0 1
vt 0 1
vt 0.5 0.875
vt 0.5703125 0.875
vt 0.5703125 0.8828125
vt 0.5 0.8828125
vt 0 0.9921875
vt 0 0.9921875
vt 0 1
vt 0 1
vt 0.0703125 1
vt 0 1
vt 0 1
vt 0.0703125 1
vt 0 1
vt 0.0703125 1
vt 0.0703125 1
vt 0 1
vn -0.03215962113269809 -0.6755902091514456 0.7365756091992915
vn 0 0 0
vn 0.0321596211326989 0.6755902091514456 -0.7365756091992915
vn 0 0 0
vn 0 0 0
vn 0 0 0
usemtl m_85f054cb-9e4d-e206-5b54-a4a9ee7c71b1
f 97/289/73 98/290/73 99/291/73 100/292/73
f 101/293/74 97/294/74 100/295/74 102/296/74
f 103/297/75 101/298/75 102/299/75 104/300/75
f 98/301/76 103/302/76 104/303/76 99/304/76
f 104/305/77 102/306/77 100/307/77 99/308/77
f 98/309/78 97/310/78 101/311/78 103/312/78
o хуйня
v 0.16130534686120596 1.527411115429135 0.06297624999999998
v 0.16130534686120596 1.527411115429135 0.06297624999999998
v -0.21295506123703323 1.8703575945700344 0.06297625000000003
v -0.21295506123703323 1.8703575945700344 0.06297625000000003
v 0.16130534686120596 1.527411115429135 -0.00047625000000001724
v -0.21295506123703323 1.8703575945700344 -0.00047624999999997143
v 0.16130534686120596 1.527411115429135 -0.00047625000000001724
v -0.21295506123703323 1.8703575945700344 -0.00047624999999997143
vt 0 0.9375
vt 0 0.9375
vt 0 1
vt 0 1
vt 0.203125 0.4921875
vt 0.2109375 0.4921875
vt 0.2109375 0.5546875
vt 0.203125 0.5546875
vt 0 0.9375
vt 0 0.9375
vt 0 1
vt 0 1
vt 0.171875 0.484375
vt 0.1796875 0.484375
vt 0.1796875 0.546875
vt 0.171875 0.546875
vt 0 0.9921875
vt 0 0.9921875
vt 0 1
vt 0 1
vt 0 0.9921875
vt 0 0.9921875
vt 0 1
vt 0 1
vn 0 0 0
vn -0.6755902076156601 -0.7372773368101243 8.27359385291814e-17
vn 0 0 0
vn 0.6755902076156601 0.7372773368101243 -8.27359385291814e-17
vn 0 0 0
vn 0 0 0
usemtl m_85f054cb-9e4d-e206-5b54-a4a9ee7c71b1
f 105/313/79 106/314/79 107/315/79 108/316/79
f 109/317/80 105/318/80 108/319/80 110/320/80
f 111/321/81 109/322/81 110/323/81 112/324/81
f 106/325/82 111/326/82 112/327/82 107/328/82
f 112/329/83 110/330/83 108/331/83 107/332/83
f 106/333/84 105/334/84 109/335/84 111/336/84
o хуйня
v 0.16130534686120598 1.527411115429135 0.18988249999999998
v 0.16130534686120598 1.527411115429135 0.18988249999999998
v -0.18956355533172523 1.848923228501788 0.18988250000000004
v -0.18956355533172523 1.848923228501788 0.18988250000000004
v 0.16130534686120598 1.527411115429135 0.12642937499999998
v -0.18956355533172523 1.848923228501788 0.12642937500000004
v 0.16130534686120598 1.527411115429135 0.12642937499999998
v -0.18956355533172523 1.848923228501788 0.12642937500000004
vt 0 0.9375
vt 0 0.9375
vt 0 1
vt 0 1
vt 0.3203125 0.4453125
vt 0.328125 0.4453125
vt 0.328125 0.5078125
vt 0.3203125 0.5078125
vt 0 0.9375
vt 0 0.9375
vt 0 1
vt 0 1
vt 0.328125 0.4453125
vt 0.3359375 0.4453125
vt 0.3359375 0.5078125
vt 0.328125 0.5078125
vt 0 0.9921875
vt 0 0.9921875
vt 0 1
vt 0 1
vt 0 0.9921875
vt 0 0.9921875
vt 0 1
vt 0 1
vn 0 0 0
vn -0.6755902076156601 -0.7372773368101242 8.27359385291814e-17
vn 0 0 0
vn 0.6755902076156601 0.7372773368101242 -8.27359385291814e-17
vn 0 0 0
vn 0 0 0
usemtl m_85f054cb-9e4d-e206-5b54-a4a9ee7c71b1
f 113/337/85 114/338/85 115/339/85 116/340/85
f 117/341/86 113/342/86 116/343/86 118/344/86
f 119/345/87 117/346/87 118/347/87 120/348/87
f 114/349/88 119/350/88 120/351/88 115/352/88
f 120/353/89 118/354/89 116/355/89 115/356/89
f 114/357/90 113/358/90 117/359/90 119/360/90
o хуйня
v 0.16130534686120596 1.527411115429135 -0.06393000000000003
v 0.16130534686120596 1.527411115429135 -0.06393000000000003
v -0.18956355533172525 1.848923228501788 -0.06392999999999999
v -0.18956355533172525 1.848923228501788 -0.06392999999999999
v 0.16130534686120593 1.527411115429135 -0.12738312500000004
v -0.18956355533172528 1.848923228501788 -0.12738312499999999
v 0.16130534686120593 1.527411115429135 -0.12738312500000004
v -0.18956355533172528 1.848923228501788 -0.12738312499999999
vt 0 0.9375
vt 0 0.9375
vt 0 1
vt 0 1
vt 0.140625 0.4375
vt 0.1484375 0.4375
vt 0.1484375 0.5
vt 0.140625 0.5
vt 0 0.9375
vt 0 0.9375
vt 0 1
vt 0 1
vt 0.5 0.734375
vt 0.5078125 0.734375
vt 0.5078125 0.796875
vt 0.5 0.796875
vt 0 0.9921875
vt 0 0.9921875
vt 0 1
vt 0 1
vt 0 0.9921875
vt 0 0.9921875
vt 0 1
vt 0 1
vn 0 0 0
vn -0.6755902076156601 -0.7372773368101242 8.27359385291814e-17
vn 0 0 0
vn 0.6755902076156601 0.7372773368101242 -8.27359385291814e-17
vn 0 0 0
vn 0 0 0
usemtl m_85f054cb-9e4d-e206-5b54-a4a9ee7c71b1
f 121/361/91 122/362/91 123/363/91 124/364/91
f 125/365/92 121/366/92 124/367/92 126/368/92
f 127/369/93 125/370/93 126/371/93 128/372/93
f 122/373/94 127/374/94 128/375/94 123/376/94
f 128/377/95 126/378/95 124/379/95 123/380/95
f 122/381/96 121/382/96 125/383/96 127/384/96
o хуйня
v -0.10569013457086501 1.470843403138794 0.06297625000000001
v -0.10569013457086501 1.470843403138794 0.06297625000000001
v 0.2586907106382805 1.8684953171423409 0.06297624999999997
v 0.2586907106382805 1.8684953171423409 0.06297624999999997
v -0.10569013457086503 1.470843403138794 -0.00047624999999998455
v 0.2586907106382805 1.8684953171423409 -0.00047625000000002917
v -0.10569013457086503 1.470843403138794 -0.00047624999999998455
v 0.2586907106382805 1.8684953171423409 -0.00047625000000002917
vt 0 0.9296875
vt 0 0.9296875
vt 0 1
vt 0 1
vt 0.2890625 0.9140625
vt 0.296875 0.9140625
vt 0.296875 0.984375
vt 0.2890625 0.984375
vt 0 0.9296875
vt 0 0.9296875
vt 0 1
vt 0 1
vt 0.140625 0.6328125
vt 0.1484375 0.6328125
vt 0.1484375 0.703125
vt 0.140625 0.703125
vt 0 0.9921875
vt 0 0.9921875
vt 0 1
vt 0 1
vt 0 0.9921875
vt 0 0.9921875
vt 0 1
vt 0 1
vn 0 0 0
vn -0.7372773368101242 0.6755902076156602 9.029043306084037e-17
vn 0 0 0
vn 0.7372773368101242 -0.6755902076156602 -9.029043306084037e-17
vn 0 0 0
vn 0 0 0
usemtl m_85f054cb-9e4d-e206-5b54-a4a9ee7c71b1
f 129/385/97 130/386/97 131/387/97 132/388/97
f 133/389/98 129/390/98 132/391/98 134/392/98
f 135/393/99 133/394/99 134/395/99 136/396/99
f 130/397/100 135/398/100 136/399/100 131/400/100
f 136/401/101 134/402/101 132/403/101 131/404/101
f 130/405/102 129/406/102 133/407/102 135/408/102
o хуйня
v -0.105690134570865 1.470843403138794 0.1898825
v -0.105690134570865 1.470843403138794 0.1898825
v 0.2372563445700345 1.8451038112370333 0.18988249999999998
v 0.2372563445700345 1.8451038112370333 0.18988249999999998
v -0.10569013457086501 1.470843403138794 0.126429375
v 0.2372563445700345 1.8451038112370333 0.12642937499999998
v -0.10569013457086501 1.470843403138794 0.126429375
v 0.2372563445700345 1.8451038112370333 0.12642937499999998
vt 0 0.9375
vt 0 0.9375
vt 0 1
vt 0 1
vt 0.5 0.671875
vt 0.5078125 0.671875
vt 0.5078125 0.734375
vt 0.5 0.734375
vt 0 0.9375
vt 0 0.9375
vt 0 1
vt 0 1
vt 0.3359375 0.4375
vt 0.34375 0.4375
vt 0.34375 0.5
vt 0.3359375 0.5
vt 0 0.9921875
vt 0 0.9921875
vt 0 1
vt 0 1
vt 0 0.9921875
vt 0 0.9921875
vt 0 1
vt 0 1
vn 0 0 0
vn -0.7372773368101241 0.6755902076156602 9.029043306084036e-17
vn 0 0 0
vn 0.7372773368101241 -0.6755902076156602 -9.029043306084036e-17
vn 0 0 0
vn 0 0 0
usemtl m_85f054cb-9e4d-e206-5b54-a4a9ee7c71b1
f 137/409/103 138/410/103 139/411/103 140/412/103
f 141/413/104 137/414/104 140/415/104 142/416/104
f 143/417/105 141/418/105 142/419/105 144/420/105
f 138/421/106 143/422/106 144/423/106 139/424/106
f 144/425/107 142/426/107 140/427/107 139/428/107
f 138/429/108 137/430/108 141/431/108 143/432/108
o хуйня
v -0.10569013457086504 1.470843403138794 -0.06393
v -0.10569013457086504 1.470843403138794 -0.06393
v 0.23725634457003447 1.8451038112370333 -0.06393000000000004
v 0.23725634457003447 1.8451038112370333 -0.06393000000000004
v -0.10569013457086504 1.470843403138794 -0.127383125
v 0.23725634457003444 1.8451038112370333 -0.12738312500000004
v -0.10569013457086504 1.470843403138794 -0.127383125
v 0.23725634457003444 1.8451038112370333 -0.12738312500000004
vt 0 0.9375
vt 0 0.9375
vt 0 1
vt 0 1
vt 0.34375 0.4375
vt 0.3515625 0.4375
vt 0.3515625 0.5
vt 0.34375 0.5
vt 0 0.9375
vt 0 0.9375
vt 0 1
vt 0 1
vt 0.3515625 0.4375
vt 0.359375 0.4375
vt 0.359375 0.5
vt 0.3515625 0.5
vt 0 0.9921875
vt 0 0.9921875
vt 0 1
vt 0 1
vt 0 0.9921875
vt 0 0.9921875
vt 0 1
vt 0 1
vn 0 0 0
vn -0.7372773368101241 0.6755902076156602 9.029043306084036e-17
vn 0 0 0
vn 0.7372773368101241 -0.6755902076156602 -9.029043306084036e-17
vn 0 0 0
vn 0 0 0
usemtl m_85f054cb-9e4d-e206-5b54-a4a9ee7c71b1
f 145/433/109 146/434/109 147/435/109 148/436/109
f 149/437/110 145/438/110 148/439/110 150/440/110
f 151/441/111 149/442/111 150/443/111 152/444/111
f 146/445/112 151/446/112 152/447/112 147/448/112
f 152/449/113 150/450/113 148/451/113 147/452/113
f 146/453/114 145/454/114 149/455/114 151/456/114
o хуйня
v -0.010376502944321611 1.8520029581869129 -0.18803501417736956
v 0.008068850091353904 1.5608529727696654 0.1035174657032972
v 0.07145761673333621 1.5625496481657213 0.1012014464306631
v 0.053012263697660704 1.853699633582969 -0.19035103345000365
v -0.010376502944321611 1.8520029581869129 -0.18803501417736956
v 0.053012263697660704 1.853699633582969 -0.19035103345000365
v 0.008068850091353904 1.5608529727696654 0.1035174657032972
v 0.07145761673333621 1.5625496481657213 0.1012014464306631
vt 0.5 0.6640625
vt 0.5546875 0.6640625
vt 0.5546875 0.671875
vt 0.5 0.671875
vt 0 0.9921875
vt 0 0.9921875
vt 0 1
vt 0 1
vt 0.5 0.65625
vt 0.5546875 0.65625
vt 0.5546875 0.6640625
vt 0.5 0.6640625
vt 0 0.9921875
vt 0 0.9921875
vt 0 1
vt 0 1
vt 0.0546875 1
vt 0 1
vt 0 1
vt 0.0546875 1
vt 0 1
vt 0.0546875 1
vt 0.0546875 1
vt 0 1
vn 0.006863992101018354 0.7077954634033599 0.706384079377544
vn 0 0 0
vn -0.006863992101015171 -0.7077954634033597 -0.7063840793775441
vn 0 0 0
vn 0 0 0
vn 0 0 0
usemtl m_85f054cb-9e4d-e206-5b54-a4a9ee7c71b1
f 153/457/115 154/458/115 155/459/115 156/460/115
f 157/461/116 153/462/116 156/463/116 158/464/116
f 159/465/117 157/466/117 158/467/117 160/468/117
f 154/469/118 159/470/118 160/471/118 155/472/118
f 160/473/119 158/474/119 156/475/119 155/476/119
f 154/477/120 153/478/120 157/479/120 159/480/120
o хуйня
v 0.10471982208520308 1.8438002368204727 -0.17910601672572263
v 0.12054883488825434 1.5300455896672212 0.13489505572414898
v 0.1838709122340302 1.5292412431809825 0.1308992304512874
v 0.16804189943097894 1.842995890334234 -0.18310184199858423
v 0.10471982208520308 1.8438002368204727 -0.17910601672572263
v 0.16804189943097894 1.842995890334234 -0.18310184199858423
v 0.12054883488825434 1.5300455896672212 0.13489505572414898
v 0.1838709122340302 1.5292412431809825 0.1308992304512874
vt 0.5 0.6484375
vt 0.5546875 0.6484375
vt 0.5546875 0.65625
vt 0.5 0.65625
vt 0 0.9921875
vt 0 0.9921875
vt 0 1
vt 0 1
vt 0.5 0.640625
vt 0.5546875 0.640625
vt 0.5546875 0.6484375
vt 0.5 0.6484375
vt 0 0.9921875
vt 0 0.9921875
vt 0 1
vt 0 1
vt 0 1
vt 0.0546875 1
vt 0.0546875 1
vt 0 1
vt 0 1
vt 0.0546875 1
vt 0.0546875 1
vt 0 1
vn 0.05344405659399833 0.7077191286891866 0.70446956478062
vn 0 0 0
vn -0.05344405659399834 -0.7077191286891867 -0.7044695647806198
vn 0 0 0
vn 0 0 0
vn 0 0 0
usemtl m_85f054cb-9e4d-e206-5b54-a4a9ee7c71b1
f 161/481/121 162/482/121 163/483/121 164/484/121
f 165/485/122 161/486/122 164/487/122 166/488/122
f 167/489/123 165/490/123 166/491/123 168/492/123
f 162/493/124 167/494/124 168/495/124 163/496/124
f 168/497/125 166/498/125 164/499/125 163/500/125
f 162/501/126 161/502/126 165/503/126 167/504/126
o хуйня
v -0.12402382412844465 1.846471694051171 -0.18318171834436917
v -0.10812978125628815 1.4491657598970846 0.1812289633921699
v -0.044737049505649405 1.4519230126058338 0.18147019141134266
v -0.060631092377805895 1.8492289467599203 -0.18294049032519644
v -0.12402382412844465 1.846471694051171 -0.18318171834436917
v -0.060631092377805895 1.8492289467599203 -0.18294049032519644
v -0.10812978125628815 1.4491657598970846 0.1812289633921699
v -0.044737049505649405 1.4519230126058338 0.18147019141134266
vt 0.5 0.8671875
vt 0.5703125 0.8671875
vt 0.5703125 0.875
vt 0.5 0.875
vt 0 0.9921875
vt 0 0.9921875
vt 0 1
vt 0 1
vt 0.5 0.859375
vt 0.5703125 0.859375
vt 0.5703125 0.8671875
vt 0.5 0.8671875
vt 0 0.9921875
vt 0 0.9921875
vt 0 1
vt 0 1
vt 0 1
vt 0.0703125 1
vt 0.0703125 1
vt 0 1
vt 0 1
vt 0.0703125 1
vt 0.0703125 1
vt 0 1
vn -0.03215956714350581 0.6748912141030899 0.737216122563526
vn 0 0 0
vn 0.03215956714350985 -0.6748912141030897 -0.7372161225635259
vn 0 0 0
vn 0 0 0
vn 0 0 0
usemtl m_85f054cb-9e4d-e206-5b54-a4a9ee7c71b1
f 169/505/127 170/506/127 171/507/127 172/508/127
f 173/509/128 169/510/128 172/511/128 174/512/128
f 175/513/129 173/514/129 174/515/129 176/516/129
f 170/517/130 175/518/130 176/519/130 171/520/130
f 176/521/131 174/522/131 172/523/131 171/524/131
f 170/525/132 169/526/132 173/527/132 175/528/132
o cube
v -0.15910937499999997 1.442265625 0.22160937500000003
v 0.22160937500000003 1.442265625 0.22160937499999997
v 0.22160937500000003 1.8229843749999999 0.22160937499999997
v -0.15910937499999997 1.8229843749999999 0.22160937500000003
v -0.15910937500000003 1.442265625 -0.15910937499999997
v -0.15910937500000003 1.8229843749999999 -0.15910937499999997
v 0.22160937499999997 1.442265625 -0.15910937500000003
v 0.22160937499999997 1.8229843749999999 -0.15910937500000003
vt 0.21875 0.734375
vt 0.265625 0.734375
vt 0.265625 0.78125
vt 0.21875 0.78125
vt 0.390625 0.7265625
vt 0.4375 0.7265625
vt 0.4375 0.7734375
vt 0.390625 0.7734375
vt 0.421875 0.6796875
vt 0.46875 0.6796875
vt 0.46875 0.7265625
vt 0.421875 0.7265625
vt 0.421875 0.6328125
vt 0.46875 0.6328125
vt 0.46875 0.6796875
vt 0.421875 0.6796875
vt 0.46875 0.6328125
vt 0.421875 0.6328125
vt 0.421875 0.5859375
vt 0.46875 0.5859375
vt 0.46875 0.5390625
vt 0.421875 0.5390625
vt 0.421875 0.5859375
vt 0.46875 0.5859375
vn 1.2246467991473532e-16 0 1
vn -1 0 1.2246467991473532e-16
vn -1.2246467991473532e-16 0 -1
vn 1 0 -1.2246467991473532e-16
vn 0 1 0
vn 0 -1 0
usemtl m_85f054cb-9e4d-e206-5b54-a4a9ee7c71b1
f 177/529/133 178/530/133 179/531/133 180/532/133
f 181/533/134 177/534/134 180/535/134 182/536/134
f 183/537/135 181/538/135 182/539/135 184/540/135
f 178/541/136 183/542/136 184/543/136 179/544/136
f 184/545/137 182/546/137 180/547/137 179/548/137
f 178/549/138 177/550/138 181/551/138 183/552/138
o cube
v -0.21874999999999997 0.75 0.15625000000000003
v 0.28125 0.75 0.15624999999999997
v 0.28125 1.5 0.15624999999999997
v -0.21874999999999997 1.5 0.15625000000000003
v -0.21875 0.75 -0.09999999999999995
v -0.21875 1.5 -0.09999999999999995
v 0.28125 0.75 -0.1
v 0.28125 1.5 -0.1
vt 0.2890625 0.625
vt 0.3515625 0.625
vt 0.3515625 0.71875
vt 0.2890625 0.71875
vt 0.1484375 0.6171875
vt 0.1796875 0.6171875
vt 0.1796875 0.7109375
vt 0.1484375 0.7109375
vt 0.296875 0.890625
vt 0.359375 0.890625
vt 0.359375 0.984375
vt 0.296875 0.984375
vt 0.078125 0.609375
vt 0.109375 0.609375
vt 0.109375 0.703125
vt 0.078125 0.703125
vt 0.515625 0.9453125
vt 0.453125 0.9453125
vt 0.453125 0.9140625
vt 0.515625 0.9140625
vt 0.515625 0.8828125
vt 0.453125 0.8828125
vt 0.453125 0.9140625
vt 0.515625 0.9140625
vn 1.2246467991473532e-16 0 1
vn -1 0 1.2246467991473532e-16
vn -1.2246467991473532e-16 0 -1
vn 1 0 -1.2246467991473532e-16
vn 0 1 0
vn 0 -1 0
usemtl m_85f054cb-9e4d-e206-5b54-a4a9ee7c71b1
f 185/553/139 186/554/139 187/555/139 188/556/139
f 189/557/140 185/558/140 188/559/140 190/560/140
f 191/561/141 189/562/141 190/563/141 192/564/141
f 186/565/142 191/566/142 192/567/142 187/568/142
f 192/569/143 190/570/143 188/571/143 187/572/143
f 186/573/144 185/574/144 189/575/144 191/576/144
o cube
v 0.01442059316601904 0.15204359695297587 0.151875
v 0.383723500545597 0.2171616635780747 0.15187499999999995
v 0.27519338950376554 0.8326665092107047 0.15187499999999998
v -0.09410951787581243 0.7675484425856058 0.151875
v 0.01442059316601901 0.15204359695297587 -0.09187500000000001
v -0.09410951787581245 0.7675484425856058 -0.091875
v 0.383723500545597 0.2171616635780747 -0.09187500000000005
v 0.27519338950376554 0.8326665092107047 -0.09187500000000004
vt 0 0.625
vt 0.046875 0.625
vt 0.046875 0.703125
vt 0 0.703125
vt 0 0.546875
vt 0.03125 0.546875
vt 0.03125 0.625
vt 0 0.625
vt 0.046875 0.625
vt 0 0.625
vt 0 0.703125
vt 0.046875 0.703125
vt 0.2734375 0.546875
vt 0.3046875 0.546875
vt 0.3046875 0.625
vt 0.2734375 0.625
vt 0.5078125 0.84375
vt 0.4609375 0.84375
vt 0.4609375 0.8125
vt 0.5078125 0.8125
vt 0.421875 0.5078125
vt 0.375 0.5078125
vt 0.375 0.5390625
vt 0.421875 0.5390625
vn 1.2246467991473532e-16 0 1
vn -0.9848077530122082 -0.1736481776669304 1.2060416625018979e-16
vn -1.2246467991473532e-16 0 -1
vn 0.9848077530122082 0.1736481776669304 -1.2060416625018979e-16
vn -0.1736481776669304 0.9848077530122082 2.1265768495757722e-17
vn 0.17364817766693028 -0.9848077530122082 -2.126576849575771e-17
usemtl m_85f054cb-9e4d-e206-5b54-a4a9ee7c71b1
f 193/577/145 194/578/145 195/579/145 196/580/145
f 197/581/146 193/582/146 196/583/146 198/584/146
f 199/585/147 197/586/147 198/587/147 200/588/147
f 194/589/148 199/590/148 200/591/148 195/592/148
f 200/593/149 198/594/149 196/595/149 195/596/149
f 194/597/150 193/598/150 197/599/150 199/600/150
o cube
v 0.06875 0.125 0.140625
v 0.28125 0.125 0.14062499999999997
v 0.28125 0.75 0.14062499999999997
v 0.06875 0.75 0.140625
v 0.06874999999999998 0.125 -0.08750000000000001
v 0.06874999999999998 0.75 -0.08750000000000001
v 0.28125 0.125 -0.08750000000000002
v 0.28125 0.75 -0.08750000000000002
vt 0.1484375 0.46875
vt 0.171875 0.46875
vt 0.171875 0.546875
vt 0.1484375 0.546875
vt 0.3046875 0.546875
vt 0.3359375 0.546875
vt 0.3359375 0.625
vt 0.3046875 0.625
vt 0.2734375 0.46875
vt 0.296875 0.46875
vt 0.296875 0.546875
vt 0.2734375 0.546875
vt 0.3828125 0.8359375
vt 0.4140625 0.8359375
vt 0.4140625 0.9140625
vt 0.3828125 0.9140625
vt 0.3984375 0.5078125
vt 0.375 0.5078125
vt 0.375 0.4765625
vt 0.3984375 0.4765625
vt 0.515625 0.59375
vt 0.4921875 0.59375
vt 0.4921875 0.625
vt 0.515625 0.625
vn 1.2246467991473532e-16 0 1
vn -1 0 1.2246467991473532e-16
vn -1.2246467991473532e-16 0 -1
vn 1 0 -1.2246467991473532e-16
vn 0 1 0
vn 0 -1 0
usemtl m_85f054cb-9e4d-e206-5b54-a4a9ee7c71b1
f 201/601/151 202/602/151 203/603/151 204/604/151
f 205/605/152 201/606/152 204/607/152 206/608/152
f 207/609/153 205/610/153 206/611/153 208/612/153
f 202/613/154 207/614/154 208/615/154 203/616/154
f 208/617/155 206/618/155 204/619/155 203/620/155
f 202/621/156 201/622/156 205/623/156 207/624/156
o cube
v 0.06875000000000002 0 0.203125
v 0.28125 0 0.20312499999999997
v 0.28125 0.125 0.20312499999999997
v 0.06875000000000002 0.125 0.203125
v 0.06874999999999998 0 -0.08750000000000004
v 0.06874999999999998 0.125 -0.08750000000000004
v 0.28125 0 -0.08750000000000005
v 0.28125 0.125 -0.08750000000000005
vt 0.5 0.625
vt 0.5234375 0.625
vt 0.5234375 0.640625
vt 0.5 0.640625
vt 0.5 0.984375
vt 0.5390625 0.984375
vt 0.5390625 1
vt 0.5 1
vt 0.3984375 0.484375
vt 0.421875 0.484375
vt 0.421875 0.5
vt 0.3984375 0.5
vt 0.5 0.96875
vt 0.5390625 0.96875
vt 0.5390625 0.984375
vt 0.5 0.984375
vt 0.4921875 0.625
vt 0.46875 0.625
vt 0.46875 0.5859375
vt 0.4921875 0.5859375
vt 0.4921875 0.546875
vt 0.46875 0.546875
vt 0.46875 0.5859375
vt 0.4921875 0.5859375
vn 1.2246467991473532e-16 0 1
vn -1 0 1.2246467991473532e-16
vn -1.2246467991473532e-16 0 -1
vn 1 0 -1.2246467991473532e-16
vn 0 1 0
vn 0 -1 0
usemtl m_85f054cb-9e4d-e206-5b54-a4a9ee7c71b1
f 209/625/157 210/626/157 211/627/157 212/628/157
f 213/629/158 209/630/158 212/631/158 214/632/158
f 215/633/159 213/634/159 214/635/159 216/636/159
f 210/637/160 215/638/160 216/639/160 211/640/160
f 216/641/161 214/642/161 212/643/161 211/644/161
f 210/645/162 209/646/162 213/647/162 215/648/162
o cube
v 0.2627309312894218 0.5203648392338283 0.16249999999999998
v 0.3731871928345135 0.571871439883476 0.16249999999999995
v 0.2675326273993387 0.7984483866426384 0.16249999999999998
v 0.157076365854247 0.7469417859929907 0.16249999999999998
v 0.2627309312894218 0.5203648392338283 -0.12187500000000001
v 0.15707636585424695 0.7469417859929907 -0.121875
v 0.3731871928345135 0.571871439883476 -0.12187500000000002
v 0.2675326273993387 0.7984483866426384 -0.12187500000000001
vt 0.109375 0.703125
vt 0.125 0.703125
vt 0.125 0.734375
vt 0.109375 0.734375
vt 0.421875 0.5078125
vt 0.4609375 0.5078125
vt 0.4609375 0.5390625
vt 0.421875 0.5390625
vt 0.125 0.703125
vt 0.109375 0.703125
vt 0.109375 0.734375
vt 0.125 0.734375
vt 0.4609375 0.5078125
vt 0.5 0.5078125
vt 0.5 0.5390625
vt 0.4609375 0.5390625
vt 0.03125 0.5859375
vt 0.046875 0.5859375
vt 0.046875 0.625
vt 0.03125 0.625
vt 0.3359375 0.5859375
vt 0.3515625 0.5859375
vt 0.3515625 0.625
vt 0.3359375 0.625
vn 1.2246467991473532e-16 0 1
vn -0.90630778703665 -0.42261826174069966 1.1099069304367545e-16
vn -1.2246467991473532e-16 0 -1
vn 0.90630778703665 0.42261826174069955 -1.1099069304367545e-16
vn -0.4226182617406994 0.90630778703665 5.175581015019658e-17
vn 0.4226182617406995 -0.90630778703665 -5.1755810150196594e-17
usemtl m_85f054cb-9e4d-e206-5b54-a4a9ee7c71b1
f 217/649/163 218/650/163 219/651/163 220/652/163
f 221/653/164 217/654/164 220/655/164 222/656/164
f 223/657/165 221/658/165 222/659/165 224/660/165
f 218/661/166 223/662/166 224/663/166 219/664/166
f 224/665/167 222/666/167 220/667/167 219/668/167
f 218/669/168 217/670/168 221/671/168 223/672/168
o cube
v -0.21874999999999997 0.1875 0.15000000000000002
v 0.03125000000000002 0.1875 0.15
v 0.03125000000000002 0.8125 0.15
v -0.21874999999999997 0.8125 0.15000000000000002
v -0.21875 0.1875 -0.09374999999999997
v -0.21875 0.8125 -0.09374999999999997
v 0.03124999999999999 0.1875 -0.09375
v 0.03124999999999999 0.8125 -0.09375
vt 0.359375 0.7265625
vt 0.390625 0.7265625
vt 0.390625 0.8046875
vt 0.359375 0.8046875
vt 0.2109375 0.5625
vt 0.2421875 0.5625
vt 0.2421875 0.640625
vt 0.2109375 0.640625
vt 0.390625 0.7265625
vt 0.359375 0.7265625
vt 0.359375 0.8046875
vt 0.390625 0.8046875
vt 0.2421875 0.5625
vt 0.2734375 0.5625
vt 0.2734375 0.640625
vt 0.2421875 0.640625
vt 0.03125 0.78125
vt 0 0.78125
vt 0 0.75
vt 0.03125 0.75
vt 0.265625 0.8046875
vt 0.234375 0.8046875
vt 0.234375 0.8359375
vt 0.265625 0.8359375
vn 1.2246467991473532e-16 0 1
vn -1 0 1.2246467991473532e-16
vn -1.2246467991473532e-16 0 -1
vn 1 0 -1.2246467991473532e-16
vn 0 1 0
vn 0 -1 0
usemtl m_85f054cb-9e4d-e206-5b54-a4a9ee7c71b1
f 225/673/169 226/674/169 227/675/169 228/676/169
f 229/677/170 225/678/170 228/679/170 230/680/170
f 231/681/171 229/682/171 230/683/171 232/684/171
f 226/685/172 231/686/172 232/687/172 227/688/172
f 232/689/173 230/690/173 228/691/173 227/692/173
f 226/693/174 225/694/174 229/695/174 231/696/174
o cube
v -0.21249999999999997 0.125 0.14062500000000003
v 1.7221595613009655e-17 0.125 0.140625
v 1.7221595613009655e-17 0.75 0.140625
v -0.21249999999999997 0.75 0.14062500000000003
v -0.2125 0.125 -0.08749999999999997
v -0.2125 0.75 -0.08749999999999997
v -1.071565949253934e-17 0.125 -0.0875
v -1.071565949253934e-17 0.75 -0.0875
vt 0.1796875 0.4765625
vt 0.203125 0.4765625
vt 0.203125 0.5546875
vt 0.1796875 0.5546875
vt 0.046875 0.5546875
vt 0.078125 0.5546875
vt 0.078125 0.6328125
vt 0.046875 0.6328125
vt 0 0.46875
vt 0.0234375 0.46875
vt 0.0234375 0.546875
vt 0 0.546875
vt 0.3515625 0.5546875
vt 0.3828125 0.5546875
vt 0.3828125 0.6328125
vt 0.3515625 0.6328125
vt 0.15625 0.8046875
vt 0.1328125 0.8046875
vt 0.1328125 0.7734375
vt 0.15625 0.7734375
vt 0.3203125 0.4765625
vt 0.296875 0.4765625
vt 0.296875 0.5078125
vt 0.3203125 0.5078125
vn 1.2246467991473532e-16 0 1
vn -1 0 1.2246467991473532e-16
vn -1.2246467991473532e-16 0 -1
vn 1 0 -1.2246467991473532e-16
vn 0 1 0
vn 0 -1 0
usemtl m_85f054cb-9e4d-e206-5b54-a4a9ee7c71b1
f 233/697/175 234/698/175 235/699/175 236/700/175
f 237/701/176 233/702/176 236/703/176 238/704/176
f 239/705/177 237/706/177 238/707/177 240/708/177
f 234/709/178 239/710/178 240/711/178 235/712/178
f 240/713/179 238/714/179 236/715/179 235/716/179
f 234/717/180 233/718/180 237/719/180 239/720/180
o cube
v -0.21249999999999997 0 0.20312500000000003
v 2.487563810768061e-17 0 0.203125
v 2.487563810768061e-17 0.125 0.203125
v -0.21249999999999997 0.125 0.20312500000000003
v -0.2125 0 -0.0875
v -0.2125 0.125 -0.0875
v -1.0715659492539343e-17 0 -0.08750000000000002
v -1.0715659492539343e-17 0.125 -0.08750000000000002
vt 0.0625 0.8125
vt 0.0859375 0.8125
vt 0.0859375 0.828125
vt 0.0625 0.828125
vt 0.25 0.9140625
vt 0.2890625 0.9140625
vt 0.2890625 0.9296875
vt 0.25 0.9296875
vt 0.265625 0.734375
vt 0.2890625 0.734375
vt 0.2890625 0.75
vt 0.265625 0.75
vt 0.3046875 0.984375
vt 0.34375 0.984375
vt 0.34375 1
vt 0.3046875 1
vt 0.15625 0.84375
vt 0.1328125 0.84375
vt 0.1328125 0.8046875
vt 0.15625 0.8046875
vt 0.2578125 0.9296875
vt 0.234375 0.9296875
vt 0.234375 0.96875
vt 0.2578125 0.96875
vn 1.2246467991473532e-16 0 1
vn -1 0 1.2246467991473532e-16
vn -1.2246467991473532e-16 0 -1
vn 1 0 -1.2246467991473532e-16
vn 0 1 0
vn 0 -1 0
usemtl m_85f054cb-9e4d-e206-5b54-a4a9ee7c71b1
f 241/721/181 242/722/181 243/723/181 244/724/181
f 245/725/182 241/726/182 244/727/182 246/728/182
f 247/729/183 245/730/183 246/731/183 248/732/183
f 242/733/184 247/734/184 248/735/184 243/736/184
f 248/737/185 246/738/185 244/739/185 243/740/185
f 242/741/186 241/742/186 245/743/186 247/744/186
o cube
v -0.2008047727792406 0.5177048821634704 -0.11532901758694643
v -0.31129435908171743 0.5691331908584162 -0.1161632888167516
v -0.2058049910021312 0.7956331047305913 -0.12451686518060795
v -0.09531540469965429 0.7442047960356456 -0.12368259395080278
v -0.19855872531823776 0.5271407882834629 0.16888051703759374
v -0.09306935723865149 0.7536407021556382 0.1605269406737374
v -0.30904831162071467 0.5785690969784086 0.16804624580778857
v -0.20355894354112836 0.8050690108505839 0.1596926694439322
vt 0.109375 0.703125
vt 0.125 0.703125
vt 0.125 0.734375
vt 0.109375 0.734375
vt 0.421875 0.5078125
vt 0.4609375 0.5078125
vt 0.4609375 0.5390625
vt 0.421875 0.5390625
vt 0.125 0.703125
vt 0.109375 0.703125
vt 0.109375 0.734375
vt 0.125 0.734375
vt 0.4609375 0.5078125
vt 0.5 0.5078125
vt 0.5 0.5390625
vt 0.4609375 0.5390625
vt 0.046875 0.625
vt 0.03125 0.625
vt 0.03125 0.5859375
vt 0.046875 0.5859375
vt 0.3515625 0.5859375
vt 0.3359375 0.5859375
vt 0.3359375 0.625
vt 0.3515625 0.625
vn -0.007898188873856052 -0.033181208334039446 -0.9994181437346463
vn 0.9065812209434001 -0.42197586621493977 0.0068453023984013615
vn 0.007898188873856099 0.03318120833403928 0.9994181437346462
vn -0.9065812209434002 0.42197586621493943 -0.006845302398401439
vn 0.4219574723183452 0.9059996554887009 -0.03341430545542569
vn -0.42195747231834513 -0.9059996554887009 0.03341430545542534
usemtl m_85f054cb-9e4d-e206-5b54-a4a9ee7c71b1
f 249/745/187 250/746/187 251/747/187 252/748/187
f 253/749/188 249/750/188 252/751/188 254/752/188
f 255/753/189 253/754/189 254/755/189 256/756/189
f 250/757/190 255/758/190 256/759/190 251/760/190
f 256/761/191 254/762/191 252/763/191 251/764/191
f 250/765/192 249/766/192 253/767/192 255/768/192
o cube
v 0.28125 0.9375 0.15624999999999997
v 0.53125 0.9375 0.15624999999999994
v 0.53125 1.5 0.15624999999999994
v 0.28125 1.5 0.15624999999999997
v 0.28125 0.9375 -0.09375000000000003
v 0.28125 1.5 -0.09375000000000003
v 0.53125 0.9375 -0.09375000000000007
v 0.53125 1.5 -0.09375000000000007
vt 0.1484375 0.546875
vt 0.1796875 0.546875
vt 0.1796875 0.6171875
vt 0.1484375 0.6171875
vt 0.078125 0.5390625
vt 0.109375 0.5390625
vt 0.109375 0.609375
vt 0.078125 0.609375
vt 0.1796875 0.546875
vt 0.1484375 0.546875
vt 0.1484375 0.6171875
vt 0.1796875 0.6171875
vt 0.4296875 0.8046875
vt 0.4609375 0.8046875
vt 0.4609375 0.875
vt 0.4296875 0.875
vt 0.296875 0.78125
vt 0.265625 0.78125
vt 0.265625 0.75
vt 0.296875 0.75
vt 0.5 0.96875
vt 0.46875 0.96875
vt 0.46875 1
vt 0.5 1
vn 1.2246467991473532e-16 0 1
vn -1 0 1.2246467991473532e-16
vn -1.2246467991473532e-16 0 -1
vn 1 0 -1.2246467991473532e-16
vn 0 1 0
vn 0 -1 0
usemtl m_85f054cb-9e4d-e206-5b54-a4a9ee7c71b1
f 257/769/193 258/770/193 259/771/193 260/772/193
f 261/773/194 257/774/194 260/775/194 262/776/194
f 263/777/195 261/778/195 262/779/195 264/780/195
f 258/781/196 263/782/196 264/783/196 259/784/196
f 264/785/197 262/786/197 260/787/197 259/788/197
f 258/789/198 257/790/198 261/791/198 263/792/198
o cube
v 0.420096855365803 0.5691821291644563 -0.10937500000000006
v 0.7033180388147561 0.701250335958425 -0.10937500000000008
v 0.5184225493032001 1.0977599927869592 -0.10937500000000007
v 0.235201365854247 0.9656917859929908 -0.10937500000000003
v 0.420096855365803 0.5691821291644563 -0.10937500000000006
v 0.235201365854247 0.9656917859929908 -0.10937500000000003
v 0.7033180388147561 0.701250335958425 -0.10937500000000008
v 0.5184225493032001 1.0977599927869592 -0.10937500000000007
vt 0.4296875 0.9453125
vt 0.46875 0.9453125
vt 0.46875 1
vt 0.4296875 1
vt 0 0.9453125
vt 0 0.9453125
vt 0 1
vt 0 1
vt 0.03125 0.5
vt 0.0703125 0.5
vt 0.0703125 0.5546875
vt 0.03125 0.5546875
vt 0 0.9453125
vt 0 0.9453125
vt 0 1
vt 0 1
vt 0.0390625 1
vt 0 1
vt 0 1
vt 0.0390625 1
vt 0 1
vt 0.0390625 1
vt 0.0390625 1
vt 0 1
vn 1.2246467991473532e-16 0 1
vn 0 0 0
vn -1.2246467991473532e-16 0 -1
vn 0 0 0
vn 0 0 0
vn 0 0 0
usemtl m_85f054cb-9e4d-e206-5b54-a4a9ee7c71b1
f 265/793/199 266/794/199 267/795/199 268/796/199
f 269/797/200 265/798/200 268/799/200 270/800/200
f 271/801/201 269/802/201 270/803/201 272/804/201
f 266/805/202 271/806/202 272/807/202 267/808/202
f 272/809/203 270/810/203 268/811/203 267/812/203
f 266/813/204 265/814/204 269/815/204 271/816/204
o cube
v 0.44651049672459675 0.5125378924746657 0.17187499999999994
v 0.7297316801735498 0.6446060992686343 0.17187499999999992
v 0.5184225493032001 1.0977599927869592 0.17187499999999994
v 0.23520136585424703 0.9656917859929908 0.17187499999999997
v 0.44651049672459675 0.5125378924746657 -0.11562500000000003
v 0.23520136585424697 0.9656917859929908 -0.115625
v 0.7297316801735498 0.6446060992686343 -0.11562500000000006
v 0.5184225493032001 1.0977599927869592 -0.11562500000000005
vt 0.109375 0.5546875
vt 0.1484375 0.5546875
vt 0.1484375 0.6171875
vt 0.109375 0.6171875
vt 0.421875 0.5078125
vt 0.4609375 0.5078125
vt 0.4609375 0.5390625
vt 0.421875 0.5390625
vt 0.3828125 0.6640625
vt 0.421875 0.6640625
vt 0.421875 0.7265625
vt 0.3828125 0.7265625
vt 0.3828125 0.6015625
vt 0.421875 0.6015625
vt 0.421875 0.6640625
vt 0.3828125 0.6640625
vt 0.125 0.796875
vt 0.0859375 0.796875
vt 0.0859375 0.7578125
vt 0.125 0.7578125
vt 0.3359375 0.5078125
vt 0.296875 0.5078125
vt 0.296875 0.546875
vt 0.3359375 0.546875
vn 1.2246467991473532e-16 0 1
vn -0.90630778703665 -0.4226182617406995 1.1099069304367546e-16
vn -1.2246467991473532e-16 0 -1
vn 0.90630778703665 0.4226182617406996 -1.1099069304367545e-16
vn -0.4226182617406992 0.90630778703665 5.1755810150196563e-17
vn 0.42261826174069944 -0.9063077870366499 -5.175581015019659e-17
usemtl m_85f054cb-9e4d-e206-5b54-a4a9ee7c71b1
f 273/817/205 274/818/205 275/819/205 276/820/205
f 277/821/206 273/822/206 276/823/206 278/824/206
f 279/825/207 277/826/207 278/827/207 280/828/207
f 274/829/208 279/830/208 280/831/208 275/832/208
f 280/833/209 278/834/209 276/835/209 275/836/209
f 274/837/210 273/838/210 277/839/210 279/840/210
o cube
v 0.2875 0.75 0.14999999999999997
v 0.515625 0.75 0.14999999999999994
v 0.515625 1.4375 0.14999999999999994
v 0.2875 1.4375 0.14999999999999997
v 0.2875 0.75 -0.08750000000000004
v 0.2875 1.4375 -0.08750000000000004
v 0.515625 0.75 -0.08750000000000006
v 0.515625 1.4375 -0.08750000000000006
vt 0.109375 0.6171875
vt 0.140625 0.6171875
vt 0.140625 0.703125
vt 0.109375 0.703125
vt 0.296875 0.71875
vt 0.328125 0.71875
vt 0.328125 0.8046875
vt 0.296875 0.8046875
vt 0.3203125 0.8046875
vt 0.3515625 0.8046875
vt 0.3515625 0.890625
vt 0.3203125 0.890625
vt 0.328125 0.71875
vt 0.359375 0.71875
vt 0.359375 0.8046875
vt 0.328125 0.8046875
vt 0.5 0.8125
vt 0.46875 0.8125
vt 0.46875 0.78125
vt 0.5 0.78125
vt 0.5 0.75
vt 0.46875 0.75
vt 0.46875 0.78125
vt 0.5 0.78125
vn 1.2246467991473532e-16 0 1
vn -1 0 1.2246467991473532e-16
vn -1.2246467991473532e-16 0 -1
vn 1 0 -1.2246467991473532e-16
vn 0 1 0
vn 0 -1 0
usemtl m_85f054cb-9e4d-e206-5b54-a4a9ee7c71b1
f 281/841/211 282/842/211 283/843/211 284/844/211
f 285/845/212 281/846/212 284/847/212 286/848/212
f 287/849/213 285/850/213 286/851/213 288/852/213
f 282/853/214 287/854/214 288/855/214 283/856/214
f 288/857/215 286/858/215 284/859/215 283/860/215
f 282/861/216 281/862/216 285/863/216 287/864/216
o cube
v -0.3999817500656301 0.5125378052770858 -0.11250000000000009
v -0.6832029335145833 0.6446060120710545 -0.11250000000000006
v -0.47189380264423325 1.0977599055893794 -0.11250000000000003
v -0.1886726191952801 0.9656916987954107 -0.11250000000000006
v -0.3999817500656301 0.5125378052770858 0.17500000000000004
v -0.18867261919528008 0.9656916987954106 0.17500000000000007
v -0.6832029335145833 0.6446060120710545 0.17500000000000007
v -0.47189380264423325 1.0977599055893794 0.1750000000000001
vt 0.390625 0.9375
vt 0.4296875 0.9375
vt 0.4296875 1
vt 0.390625 1
vt 0.390625 0.7734375
vt 0.4296875 0.7734375
vt 0.4296875 0.8359375
vt 0.390625 0.8359375
vt 0.3828125 0.5390625
vt 0.421875 0.5390625
vt 0.421875 0.6015625
vt 0.3828125 0.6015625
vt 0.4140625 0.875
vt 0.453125 0.875
vt 0.453125 0.9375
vt 0.4140625 0.9375
vt 0.109375 0.5390625
vt 0.0703125 0.5390625
vt 0.0703125 0.5
vt 0.109375 0.5
vt 0.5 0.84375
vt 0.4609375 0.84375
vt 0.4609375 0.8828125
vt 0.5 0.8828125
vn -7.554462743357676e-17 1.0062037725651615e-16 -1
vn 0.9063077870366497 -0.42261826174069983 -1.1099069304367542e-16
vn 7.554462743357675e-17 -1.0062037725651617e-16 1
vn -0.9063077870366497 0.42261826174069994 1.1099069304367541e-16
vn 0.4226182617407 0.9063077870366497 2.5717581409332487e-16
vn -0.4226182617406997 -0.90630778703665 5.1755810150196625e-17
usemtl m_85f054cb-9e4d-e206-5b54-a4a9ee7c71b1
f 289/865/217 290/866/217 291/867/217 292/868/217
f 293/869/218 289/870/218 292/871/218 294/872/218
f 295/873/219 293/874/219 294/875/219 296/876/219
f 290/877/220 295/878/220 296/879/220 291/880/220
f 296/881/221 294/882/221 292/883/221 291/884/221
f 290/885/222 289/886/222 293/887/222 295/888/222
o cube
v -0.3735681087068363 0.5691820419668765 -0.10624999999999998
v -0.6567892921557894 0.7012502487608452 -0.10624999999999994
v -0.47189380264423325 1.0977599055893794 -0.10624999999999993
v -0.1886726191952801 0.9656916987954106 -0.10624999999999996
v -0.3735681087068363 0.5691820419668765 -0.10624999999999998
v -0.1886726191952801 0.9656916987954106 -0.10624999999999996
v -0.6567892921557894 0.7012502487608452 -0.10624999999999994
v -0.47189380264423325 1.0977599055893794 -0.10624999999999993
vt 0.109375 0.5
vt 0.1484375 0.5
vt 0.1484375 0.5546875
vt 0.109375 0.5546875
vt 0 0.9453125
vt 0 0.9453125
vt 0 1
vt 0 1
vt 0.3359375 0.5
vt 0.375 0.5
vt 0.375 0.5546875
vt 0.3359375 0.5546875
vt 0 0.9453125
vt 0 0.9453125
vt 0 1
vt 0 1
vt 0.0390625 1
vt 0 1
vt 0 1
vt 0.0390625 1
vt 0 1
vt 0.0390625 1
vt 0.0390625 1
vt 0 1
vn -8.224749207374224e-17 8.624603764844244e-17 -1
vn 0 0 0
vn 8.224749207374224e-17 -8.624603764844244e-17 1
vn 0 0 0
vn 0 0 0
vn 0 0 0
usemtl m_85f054cb-9e4d-e206-5b54-a4a9ee7c71b1
f 297/889/223 298/890/223 299/891/223 300/892/223
f 301/893/224 297/894/224 300/895/224 302/896/224
f 303/897/225 301/898/225 302/899/225 304/900/225
f 298/901/226 303/902/226 304/903/226 299/904/226
f 304/905/227 302/906/227 300/907/227 299/908/227
f 298/909/228 297/910/228 301/911/228 303/912/228
o cube
v -0.2253462499999999 0.75 -0.09062499999999991
v -0.4534712499999999 0.75 -0.09062499999999989
v -0.45347125 1.4375 -0.09062499999999997
v -0.22534624999999997 1.4375 -0.090625
v -0.22534624999999986 0.75 0.14687500000000006
v -0.22534624999999994 1.4375 0.14687499999999998
v -0.4534712499999999 0.75 0.1468750000000001
v -0.45347125 1.4375 0.146875
vt 0.3515625 0.8046875
vt 0.3828125 0.8046875
vt 0.3828125 0.890625
vt 0.3515625 0.890625
vt 0.3515625 0.6328125
vt 0.3828125 0.6328125
vt 0.3828125 0.71875
vt 0.3515625 0.71875
vt 0.359375 0.9140625
vt 0.390625 0.9140625
vt 0.390625 1
vt 0.359375 1
vt 0.1796875 0.5546875
vt 0.2109375 0.5546875
vt 0.2109375 0.640625
vt 0.1796875 0.640625
vt 0.5 0.6875
vt 0.46875 0.6875
vt 0.46875 0.65625
vt 0.5 0.65625
vt 0.5 0.625
vt 0.46875 0.625
vt 0.46875 0.65625
vt 0.5 0.65625
vn -1.2246467991473532e-16 -1.2111523905001707e-16 -1
vn 1 1.2111523905001707e-16 -1.2246467991473532e-16
vn 1.2246467991473532e-16 1.2111523905001707e-16 1
vn -1 -1.6148698540002277e-16 1.2246467991473532e-16
vn 0 1 0
vn 0 -1 0
usemtl m_85f054cb-9e4d-e206-5b54-a4a9ee7c71b1
f 305/913/229 306/914/229 307/915/229 308/916/229
f 309/917/230 305/918/230 308/919/230 310/920/230
f 311/921/231 309/922/231 310/923/231 312/924/231
f 306/925/232 311/926/232 312/927/232 307/928/232
f 312/929/233 310/930/233 308/931/233 307/932/233
f 306/933/234 305/934/234 309/935/234 311/936/234
o cube
v -0.21909624999999994 0.9375 -0.09687499999999998
v -0.46909624999999994 0.9375 -0.09687499999999995
v -0.46909625 1.5 -0.096875
v -0.21909625 1.5 -0.09687500000000003
v -0.2190962499999999 0.9375 0.153125
v -0.21909624999999996 1.5 0.15312499999999996
v -0.46909624999999994 0.9375 0.15312500000000004
v -0.46909625 1.5 0.15312499999999998
vt 0.4375 0.734375
vt 0.46875 0.734375
vt 0.46875 0.8046875
vt 0.4375 0.8046875
vt 0.2109375 0.4921875
vt 0.2421875 0.4921875
vt 0.2421875 0.5625
vt 0.2109375 0.5625
vt 0.46875 0.734375
vt 0.4375 0.734375
vt 0.4375 0.8046875
vt 0.46875 0.8046875
vt 0.2421875 0.4921875
vt 0.2734375 0.4921875
vt 0.2734375 0.5625
vt 0.2421875 0.5625
vt 0.5 0.75
vt 0.46875 0.75
vt 0.46875 0.71875
vt 0.5 0.71875
vt 0.5 0.6875
vt 0.46875 0.6875
vt 0.46875 0.71875
vt 0.5 0.71875
vn -1.2246467991473532e-16 -9.868649107779169e-17 -1
vn 1 9.868649107779169e-17 -1.2246467991473532e-16
vn 1.2246467991473532e-16 9.868649107779169e-17 1
vn -1 -9.868649107779169e-17 1.2246467991473532e-16
vn 0 1 0
vn 0 -1 0
usemtl m_85f054cb-9e4d-e206-5b54-a4a9ee7c71b1
f 313/937/235 314/938/235 315/939/235 316/940/235
f 317/941/236 313/942/236 316/943/236 318/944/236
f 319/945/237 317/946/237 318/947/237 320/948/237
f 314/949/238 319/950/238 320/951/238 315/952/238
f 320/953/239 318/954/239 316/955/239 315/956/239
f 314/957/240 313/958/240 317/959/240 319/960/240