# Made in Blockbench 5.0.7
mtllib materials.mtl

o 1 слой
v 0.21875 1.5 0.125
v 0.21875 1.5 -0.125
v 0.21875 0.9375 0.125
v 0.21875 0.9375 -0.125
v -0.28125 1.5 -0.125
v -0.28125 1.5 0.125
v -0.28125 0.9375 -0.125
v -0.28125 0.9375 0.125
vt 0 0.928
vt 0.0625 0.928
vt 0.0625 0.856
vt 0 0.856
vt 0.140625 0.832
vt 0.171875 0.832
vt 0.171875 0.76
vt 0.140625 0.76
vt 0.0625 0.928
vt 0.125 0.928
vt 0.125 0.856
vt 0.0625 0.856
vt 0.171875 0.952
vt 0.203125 0.952
vt 0.203125 0.88
vt 0.171875 0.88
vt 0.0625 0.776
vt 0 0.776
vt 0 0.808
vt 0.0625 0.808
vt 0.1953125 0.984
vt 0.1875 0.984
vt 0.1875 0.968
vt 0.1953125 0.968
vn 0 0 -1
vn 1 0 0
vn 0 0 1
vn -1 0 0
vn 0 1 0
vn 0 -1 0
usemtl none
f 4/4/1 7/3/1 5/2/1 2/1/1
f 3/8/2 4/7/2 2/6/2 1/5/2
f 8/12/3 3/11/3 1/10/3 6/9/3
f 7/16/4 8/15/4 6/14/4 5/13/4
f 6/20/5 1/19/5 2/18/5 5/17/5
f 7/24/6 4/23/6 3/22/6 8/21/6
o 1 слой
v 0.234375 1.515625 0.140625
v 0.234375 1.515625 -0.140625
v 0.234375 0.921875 0.140625
v 0.234375 0.921875 -0.140625
v -0.296875 1.515625 -0.140625
v -0.296875 1.515625 0.140625
v -0.296875 0.921875 -0.140625
v -0.296875 0.921875 0.140625
vt 0.703125 0.45599999999999996
vt 0.765625 0.45599999999999996
vt 0.765625 0.384
vt 0.703125 0.384
vt 0.671875 0.45599999999999996
vt 0.703125 0.45599999999999996
vt 0.703125 0.384
vt 0.671875 0.384
vt 0.796875 0.45599999999999996
vt 0.859375 0.45599999999999996
vt 0.859375 0.384
vt 0.796875 0.384
vt 0.765625 0.45599999999999996
vt 0.796875 0.45599999999999996
vt 0.796875 0.384
vt 0.765625 0.384
vt 0.765625 0.45599999999999996
vt 0.703125 0.45599999999999996
vt 0.703125 0.488
vt 0.765625 0.488
vt 0.828125 0.488
vt 0.765625 0.488
vt 0.765625 0.45599999999999996
vt 0.828125 0.45599999999999996
vn 0 0 -1
vn 1 0 0
vn 0 0 1
vn -1 0 0
vn 0 1 0
vn 0 -1 0
usemtl none
f 12/28/7 15/27/7 13/26/7 10/25/7
f 11/32/8 12/31/8 10/30/8 9/29/8
f 16/36/9 11/35/9 9/34/9 14/33/9
f 15/40/10 16/39/10 14/38/10 13/37/10
f 14/44/11 9/43/11 10/42/11 13/41/11
f 15/48/12 12/47/12 11/46/12 16/45/12
o 1 слой
v -0.28125 1.5 0.125
v -0.28125 1.5 -0.125
v -0.28125 1.125 0.125
v -0.28125 1.125 -0.125
v -0.46875 1.5 -0.125
v -0.46875 1.5 0.125
v -0.46875 1.125 -0.125
v -0.46875 1.125 0.125
vt 0.25 0.656
vt 0.2734375 0.656
vt 0.2734375 0.608
vt 0.25 0.608
vt 0 0.776
vt 0.03125 0.776
vt 0.03125 0.728
vt 0 0.728
vt 0.2734375 0.656
vt 0.296875 0.656
vt 0.296875 0.608
vt 0.2734375 0.608
vt 0.03125 0.776
vt 0.0625 0.776
vt 0.0625 0.728
vt 0.03125 0.728
vt 0.28125 0.768
vt 0.2578125 0.768
vt 0.2578125 0.8
vt 0.28125 0.8
vt 0.2890625 0.888
vt 0.265625 0.888
vt 0.265625 0.856
vt 0.2890625 0.856
vn 0 0 -1
vn 1 0 0
vn 0 0 1
vn -1 0 0
vn 0 1 0
vn 0 -1 0
usemtl none
f 20/52/13 23/51/13 21/50/13 18/49/13
f 19/56/14 20/55/14 18/54/14 17/53/14
f 24/60/15 19/59/15 17/58/15 22/57/15
f 23/64/16 24/63/16 22/62/16 21/61/16
f 22/68/17 17/67/17 18/66/17 21/65/17
f 23/72/18 20/71/18 19/70/18 24/69/18
o 1 слой
v -0.2875 1.125 0.11875
v -0.2875 1.125 -0.11875
v -0.2875 0.75 0.11875
v -0.2875 0.75 -0.11875
v -0.4625 1.125 -0.11875
v -0.4625 1.125 0.11875
v -0.4625 0.75 -0.11875
v -0.4625 0.75 0.11875
vt 0.34375 0.856
vt 0.3671875 0.856
vt 0.3671875 0.808
vt 0.34375 0.808
vt 0 0.72
vt 0.03125 0.72
vt 0.03125 0.6719999999999999
vt 0 0.6719999999999999
vt 0.34375 0.808
vt 0.3671875 0.808
vt 0.3671875 0.76
vt 0.34375 0.76
vt 0.03125 0.72
vt 0.0625 0.72
vt 0.0625 0.6719999999999999
vt 0.03125 0.6719999999999999
vt 0.265625 0.888
vt 0.2890625 0.888
vt 0.2890625 0.856
vt 0.265625 0.856
vt 0.3125 0.84
vt 0.2890625 0.84
vt 0.2890625 0.808
vt 0.3125 0.808
vn 0 0 -1
vn 1 0 0
vn 0 0 1
vn -1 0 0
vn 0 1 0
vn 0 -1 0
usemtl none
f 28/76/19 31/75/19 29/74/19 26/73/19
f 27/80/20 28/79/20 26/78/20 25/77/20
f 32/84/21 27/83/21 25/82/21 30/81/21
f 31/88/22 32/87/22 30/86/22 29/85/22
f 30/92/23 25/91/23 26/90/23 29/89/23
f 31/96/24 28/95/24 27/94/24 32/93/24
o 2 слой
v -0.27382882258373653 1.1029308108393865 0.134375
v -0.27382882258373653 1.1029308108393865 -0.134375
v -0.33584939373149286 0.9062266897475646 0.134375
v -0.33584939373149286 0.9062266897475646 -0.134375
v -0.47053294367555837 1.1649513819871427 -0.134375
v -0.47053294367555837 1.1649513819871427 0.134375
v -0.5325535148233147 0.968247260895321 -0.134375
v -0.5325535148233147 0.968247260895321 0.134375
vt 0.390625 0.632
vt 0.4140625 0.632
vt 0.4140625 0.608
vt 0.390625 0.608
vt 0.140625 0.952
vt 0.171875 0.952
vt 0.171875 0.928
vt 0.140625 0.928
vt 0.3828125 0.6
vt 0.40625 0.6
vt 0.40625 0.5760000000000001
vt 0.3828125 0.5760000000000001
vt 0.09375 0.856
vt 0.125 0.856
vt 0.125 0.832
vt 0.09375 0.832
vt 0.3203125 0.5840000000000001
vt 0.296875 0.5840000000000001
vt 0.296875 0.616
vt 0.3203125 0.616
vt 0.34375 0.616
vt 0.3203125 0.616
vt 0.3203125 0.5840000000000001
vt 0.34375 0.5840000000000001
vn 0 0 -1
vn 0.9537169507482269 -0.30070579950427306 0
vn 0 0 1
vn -0.9537169507482269 0.30070579950427306 0
vn 0.30070579950427306 0.9537169507482269 0
vn -0.30070579950427306 -0.9537169507482269 0
usemtl none
f 36/100/25 39/99/25 37/98/25 34/97/25
f 35/104/26 36/103/26 34/102/26 33/101/26
f 40/108/27 35/107/27 33/106/27 38/105/27
f 39/112/28 40/111/28 38/110/28 37/109/28
f 38/116/29 33/115/29 34/114/29 37/113/29
f 39/120/30 36/119/30 35/118/30 40/117/30
o 1 слой
v -0.275 1.13125 0.13125
v -0.275 1.13125 -0.13125
v -0.275 0.74375 0.13125
v -0.275 0.74375 -0.13125
v -0.475 1.13125 -0.13125
v -0.475 1.13125 0.13125
v -0.475 0.74375 -0.13125
v -0.475 0.74375 0.13125
vt 0.421875 0.784
vt 0.4296875 0.784
vt 0.4296875 0.776
vt 0.421875 0.776
vt 0.421875 0.784
vt 0.4296875 0.784
vt 0.4296875 0.776
vt 0.421875 0.776
vt 0.421875 0.784
vt 0.4296875 0.784
vt 0.4296875 0.776
vt 0.421875 0.776
vt 0.421875 0.784
vt 0.4296875 0.784
vt 0.4296875 0.776
vt 0.421875 0.776
vt 0.4296875 0.776
vt 0.421875 0.776
vt 0.421875 0.784
vt 0.4296875 0.784
vt 0.4296875 0.784
vt 0.421875 0.784
vt 0.421875 0.776
vt 0.4296875 0.776
vn 0 0 -1
vn 1 0 0
vn 0 0 1
vn -1 0 0
vn 0 1 0
vn 0 -1 0
usemtl none
f 44/124/31 47/123/31 45/122/31 42/121/31
f 43/128/32 44/127/32 42/126/32 41/125/32
f 48/132/33 43/131/33 41/130/33 46/129/33
f 47/136/34 48/135/34 46/134/34 45/133/34
f 46/140/35 41/139/35 42/138/35 45/137/35
f 47/144/36 44/143/36 43/142/36 48/141/36
o 1 слой
v 0.4 1.49375 0.11875
v 0.4 1.49375 -0.11875
v 0.4 1.125 0.11875
v 0.4 1.125 -0.11875
v 0.22499999999999998 1.49375 -0.11875
v 0.22499999999999998 1.49375 0.11875
v 0.22499999999999998 1.125 -0.11875
v 0.22499999999999998 1.125 0.11875
vt 0.0625 0.648
vt 0.0859375 0.648
vt 0.0859375 0.6
vt 0.0625 0.6
vt 0.125 0.76
vt 0.15625 0.76
vt 0.15625 0.712
vt 0.125 0.712
vt 0.0859375 0.648
vt 0.109375 0.648
vt 0.109375 0.6
vt 0.0859375 0.6
vt 0.15625 0.76
vt 0.1875 0.76
vt 0.1875 0.712
vt 0.15625 0.712
vt 0.40625 0.872
vt 0.3828125 0.872
vt 0.3828125 0.904
vt 0.40625 0.904
vt 0.1328125 0.608
vt 0.109375 0.608
vt 0.109375 0.5760000000000001
vt 0.1328125 0.5760000000000001
vn 0 0 -1
vn 1 0 0
vn 0 0 1
vn -1 0 0
vn 0 1 0
vn 0 -1 0
usemtl none
f 52/148/37 55/147/37 53/146/37 50/145/37
f 51/152/38 52/151/38 50/150/38 49/149/38
f 56/156/39 51/155/39 49/154/39 54/153/39
f 55/160/40 56/159/40 54/158/40 53/157/40
f 54/164/41 49/163/41 50/162/41 53/161/41
f 55/168/42 52/167/42 51/166/42 56/165/42
o 1 слой
v 0.40625 1.5 0.125
v 0.40625 1.5 -0.125
v 0.40625 1.3125 0.125
v 0.40625 1.3125 -0.125
v 0.21875 1.5 -0.125
v 0.21875 1.5 0.125
v 0.21875 1.3125 -0.125
v 0.21875 1.3125 0.125
vt 0.03125 0.512
vt 0.0546875 0.512
vt 0.0546875 0.488
vt 0.03125 0.488
vt 0 0.512
vt 0.03125 0.512
vt 0.03125 0.488
vt 0 0.488
vt 0.0859375 0.512
vt 0.109375 0.512
vt 0.109375 0.488
vt 0.0859375 0.488
vt 0.0546875 0.512
vt 0.0859375 0.512
vt 0.0859375 0.488
vt 0.0546875 0.488
vt 0.0546875 0.512
vt 0.03125 0.512
vt 0.03125 0.544
vt 0.0546875 0.544
vt 0.078125 0.544
vt 0.0546875 0.544
vt 0.0546875 0.512
vt 0.078125 0.512
vn 0 0 -1
vn 1 0 0
vn 0 0 1
vn -1 0 0
vn 0 1 0
vn 0 -1 0
usemtl none
f 60/172/43 63/171/43 61/170/43 58/169/43
f 59/176/44 60/175/44 58/174/44 57/173/44
f 64/180/45 59/179/45 57/178/45 62/177/45
f 63/184/46 64/183/46 62/182/46 61/181/46
f 62/188/47 57/187/47 58/186/47 61/185/47
f 63/192/48 60/191/48 59/190/48 64/189/48
o 2 слой
v 0.40556444837631145 1.4149015469426045 0.1325
v 0.40556444837631145 1.4149015469426045 -0.1325
v 0.48305784343024216 1.2278159416090688 0.1325
v 0.48305784343024216 1.2278159416090688 -0.1325
v 0.21847884304277587 1.3374081518886738 -0.1325
v 0.21847884304277587 1.3374081518886738 0.1325
v 0.2959722380967066 1.150322546555138 -0.1325
v 0.2959722380967066 1.150322546555138 0.1325
vt 0 0.5920000000000001
vt 0.0234375 0.5920000000000001
vt 0.0234375 0.5680000000000001
vt 0 0.5680000000000001
vt 0.0625 0.808
vt 0.09375 0.808
vt 0.09375 0.784
vt 0.0625 0.784
vt 0.0234375 0.5920000000000001
vt 0.046875 0.5920000000000001
vt 0.046875 0.5680000000000001
vt 0.0234375 0.5680000000000001
vt 0.203125 0.904
vt 0.234375 0.904
vt 0.234375 0.88
vt 0.203125 0.88
vt 0.3203125 0.5840000000000001
vt 0.296875 0.5840000000000001
vt 0.296875 0.616
vt 0.3203125 0.616
vt 0.203125 0.608
vt 0.1796875 0.608
vt 0.1796875 0.5760000000000001
vt 0.203125 0.5760000000000001
vn 0 0 -1
vn 0.9238795325112867 0.3826834323650897 0
vn 0 0 1
vn -0.9238795325112867 -0.3826834323650897 0
vn -0.3826834323650897 0.9238795325112867 0
vn 0.3826834323650897 -0.9238795325112867 0
usemtl none
f 68/196/49 71/195/49 69/194/49 66/193/49
f 67/200/50 68/199/50 66/198/50 65/197/50
f 72/204/51 67/203/51 65/202/51 70/201/51
f 71/208/52 72/207/52 70/206/52 69/205/52
f 70/212/53 65/211/53 66/210/53 69/209/53
f 71/216/54 68/215/54 67/214/54 72/213/54
o 1 слой
v 0.4 1.125 0.11875
v 0.4 1.125 -0.11875
v 0.4 0.75 0.11875
v 0.4 0.75 -0.11875
v 0.22499999999999998 1.125 -0.11875
v 0.22499999999999998 1.125 0.11875
v 0.22499999999999998 0.75 -0.11875
v 0.22499999999999998 0.75 0.11875
vt 0.34375 0.76
vt 0.3671875 0.76
vt 0.3671875 0.712
vt 0.34375 0.712
vt 0.28125 0.8
vt 0.3125 0.8
vt 0.3125 0.752
vt 0.28125 0.752
vt 0.34375 0.712
vt 0.3671875 0.712
vt 0.3671875 0.6639999999999999
vt 0.34375 0.6639999999999999
vt 0.28125 0.752
vt 0.3125 0.752
vt 0.3125 0.704
vt 0.28125 0.704
vt 0.15625 0.5760000000000001
vt 0.1328125 0.5760000000000001
vt 0.1328125 0.608
vt 0.15625 0.608
vt 0.1796875 0.608
vt 0.15625 0.608
vt 0.15625 0.5760000000000001
vt 0.1796875 0.5760000000000001
vn 0 0 -1
vn 1 0 0
vn 0 0 1
vn -1 0 0
vn 0 1 0
vn 0 -1 0
usemtl none
f 76/220/55 79/219/55 77/218/55 74/217/55
f 75/224/56 76/223/56 74/222/56 73/221/56
f 80/228/57 75/227/57 73/226/57 78/225/57
f 79/232/58 80/231/58 78/230/58 77/229/58
f 78/236/59 73/235/59 74/234/59 77/233/59
f 79/240/60 76/239/60 75/238/60 80/237/60
o 1 слой
v 0.4125 1.13125 0.13125
v 0.4125 1.13125 -0.13125
v 0.4125 0.74375 0.13125
v 0.4125 0.74375 -0.13125
v 0.2125 1.13125 -0.13125
v 0.2125 1.13125 0.13125
v 0.2125 0.74375 -0.13125
v 0.2125 0.74375 0.13125
vt 0.421875 0.784
vt 0.4296875 0.784
vt 0.4296875 0.776
vt 0.421875 0.776
vt 0.421875 0.784
vt 0.4296875 0.784
vt 0.4296875 0.776
vt 0.421875 0.776
vt 0.421875 0.784
vt 0.4296875 0.784
vt 0.4296875 0.776
vt 0.421875 0.776
vt 0.421875 0.784
vt 0.4296875 0.784
vt 0.4296875 0.776
vt 0.421875 0.776
vt 0.4296875 0.776
vt 0.421875 0.776
vt 0.421875 0.784
vt 0.4296875 0.784
vt 0.4296875 0.784
vt 0.421875 0.784
vt 0.421875 0.776
vt 0.4296875 0.776
vn 0 0 -1
vn 1 0 0
vn 0 0 1
vn -1 0 0
vn 0 1 0
vn 0 -1 0
usemtl none
f 84/244/61 87/243/61 85/242/61 82/241/61
f 83/248/62 84/247/62 82/246/62 81/245/62
f 88/252/63 83/251/63 81/250/63 86/249/63
f 87/256/64 88/255/64 86/254/64 85/253/64
f 86/260/65 81/259/65 82/258/65 85/257/65
f 87/264/66 84/263/66 83/262/66 88/261/66
o 1 слой
v 0.4125 1.31875 0.13125
v 0.4125 1.31875 -0.13125
v 0.4125 1.11875 0.13125
v 0.4125 1.11875 -0.13125
v 0.2125 1.31875 -0.13125
v 0.2125 1.31875 0.13125
v 0.2125 1.11875 -0.13125
v 0.2125 1.11875 0.13125
vt 0.421875 0.784
vt 0.4296875 0.784
vt 0.4296875 0.776
vt 0.421875 0.776
vt 0.421875 0.784
vt 0.4296875 0.784
vt 0.4296875 0.776
vt 0.421875 0.776
vt 0.421875 0.784
vt 0.4296875 0.784
vt 0.4296875 0.776
vt 0.421875 0.776
vt 0.421875 0.784
vt 0.4296875 0.784
vt 0.4296875 0.776
vt 0.421875 0.776
vt 0.4296875 0.776
vt 0.421875 0.776
vt 0.421875 0.784
vt 0.4296875 0.784
vt 0.4296875 0.784
vt 0.421875 0.784
vt 0.421875 0.776
vt 0.4296875 0.776
vn 0 0 -1
vn 1 0 0
vn 0 0 1
vn -1 0 0
vn 0 1 0
vn 0 -1 0
usemtl none
f 92/268/67 95/267/67 93/266/67 90/265/67
f 91/272/68 92/271/68 90/270/68 89/269/68
f 96/276/69 91/275/69 89/274/69 94/273/69
f 95/280/70 96/279/70 94/278/70 93/277/70
f 94/284/71 89/283/71 90/282/71 93/281/71
f 95/288/72 92/287/72 91/286/72 96/285/72
o Глаз
v 0.14375 1.765625 -0.222878125
v 0.14375 1.765625 -0.222878125
v 0.14375 1.625 -0.222878125
v 0.14375 1.625 -0.222878125
v 0.018749999999999992 1.765625 -0.222878125
v 0.018749999999999992 1.765625 -0.222878125
v 0.018749999999999992 1.625 -0.222878125
v 0.018749999999999992 1.625 -0.222878125
vt 0.390625 0.656
vt 0.4140625 0.656
vt 0.4140625 0.632
vt 0.390625 0.632
vt 0 1
vt 0 1
vt 0 0.976
vt 0 0.976
vt 0.359375 0.6
vt 0.3828125 0.6
vt 0.3828125 0.5760000000000001
vt 0.359375 0.5760000000000001
vt 0 1
vt 0 1
vt 0 0.976
vt 0 0.976
vt 0 1
vt 0.0234375 1
vt 0.0234375 1
vt 0 1
vt 0 1
vt 0.0234375 1
vt 0.0234375 1
vt 0 1
vn 0 0 -1
vn 1 0 0
vn 0 0 1
vn -1 0 0
vn 0 1 0
vn 0 -1 0
usemtl none
f 100/292/73 103/291/73 101/290/73 98/289/73
f 99/296/74 100/295/74 98/294/74 97/293/74
f 104/300/75 99/299/75 97/298/75 102/297/75
f 103/304/76 104/303/76 102/302/76 101/301/76
f 102/308/77 97/307/77 98/306/77 101/305/77
f 103/312/78 100/311/78 99/310/78 104/309/78
o Зрачок
v 0.1 1.728125 -0.223513125
v 0.1 1.728125 -0.223513125
v 0.1 1.65 -0.223513125
v 0.1 1.65 -0.223513125
v 0.037500000000000006 1.728125 -0.223513125
v 0.037500000000000006 1.728125 -0.223513125
v 0.037500000000000006 1.65 -0.223513125
v 0.037500000000000006 1.65 -0.223513125
vt 0.25 1
vt 0.265625 1
vt 0.265625 0.984
vt 0.25 0.984
vt 0 1
vt 0 1
vt 0 0.984
vt 0 0.984
vt 0.25 0.984
vt 0.265625 0.984
vt 0.265625 0.968
vt 0.25 0.968
vt 0 1
vt 0 1
vt 0 0.984
vt 0 0.984
vt 0 1
vt 0.015625 1
vt 0.015625 1
vt 0 1
vt 0 1
vt 0.015625 1
vt 0.015625 1
vt 0 1
vn 0 0 -1
vn 1 0 0
vn 0 0 1
vn -1 0 0
vn 0 1 0
vn 0 -1 0
usemtl none
f 108/316/79 111/315/79 109/314/79 106/313/79
f 107/320/80 108/319/80 106/318/80 105/317/80
f 112/324/81 107/323/81 105/322/81 110/321/81
f 111/328/82 112/327/82 110/326/82 109/325/82
f 110/332/83 105/331/83 106/330/83 109/329/83
f 111/336/84 108/335/84 107/334/84 112/333/84
o Глаз
v -0.09375 1.765625 -0.222878125
v -0.09375 1.765625 -0.222878125
v -0.09375 1.625 -0.222878125
v -0.09375 1.625 -0.222878125
v -0.21875 1.765625 -0.222878125
v -0.21875 1.765625 -0.222878125
v -0.21875 1.625 -0.222878125
v -0.21875 1.625 -0.222878125
vt 0.234375 0.904
vt 0.2578125 0.904
vt 0.2578125 0.88
vt 0.234375 0.88
vt 0 1
vt 0 1
vt 0 0.976
vt 0 0.976
vt 0.2734375 0.6
vt 0.296875 0.6
vt 0.296875 0.5760000000000001
vt 0.2734375 0.5760000000000001
vt 0 1
vt 0 1
vt 0 0.976
vt 0 0.976
vt 0.0234375 1
vt 0 1
vt 0 1
vt 0.0234375 1
vt 0 1
vt 0.0234375 1
vt 0.0234375 1
vt 0 1
vn 0 0 -1
vn 1 0 0
vn 0 0 1
vn -1 0 0
vn 0 1 0
vn 0 -1 0
usemtl none
f 116/340/85 119/339/85 117/338/85 114/337/85
f 115/344/86 116/343/86 114/342/86 113/341/86
f 120/348/87 115/347/87 113/346/87 118/345/87
f 119/352/88 120/351/88 118/350/88 117/349/88
f 118/356/89 113/355/89 114/354/89 117/353/89
f 119/360/90 116/359/90 115/358/90 120/357/90
o Зрачок
v -0.109375 1.728125 -0.223513125
v -0.109375 1.728125 -0.223513125
v -0.109375 1.65 -0.223513125
v -0.109375 1.65 -0.223513125
v -0.171875 1.728125 -0.223513125
v -0.171875 1.728125 -0.223513125
v -0.171875 1.65 -0.223513125
v -0.171875 1.65 -0.223513125
vt 0.1875 0.968
vt 0.203125 0.968
vt 0.203125 0.952
vt 0.1875 0.952
vt 0 1
vt 0 1
vt 0 0.984
vt 0 0.984
vt 0.125 0.784
vt 0.140625 0.784
vt 0.140625 0.768
vt 0.125 0.768
vt 0 1
vt 0 1
vt 0 0.984
vt 0 0.984
vt 0.015625 1
vt 0 1
vt 0 1
vt 0.015625 1
vt 0 1
vt 0.015625 1
vt 0.015625 1
vt 0 1
vn 0 0 -1
vn 1 0 0
vn 0 0 1
vn -1 0 0
vn 0 1 0
vn 0 -1 0
usemtl none
f 124/364/91 127/363/91 125/362/91 122/361/91
f 123/368/92 124/367/92 122/366/92 121/365/92
f 128/372/93 123/371/93 121/370/93 126/369/93
f 127/376/94 128/375/94 126/374/94 125/373/94
f 126/380/95 121/379/95 122/378/95 125/377/95
f 127/384/96 124/383/96 123/382/96 128/381/96
o Голова
v 0.153390625 1.875 0.25
v 0.153390625 1.875 -0.25
v 0.153390625 1.5 0.25
v 0.153390625 1.5 -0.25
v -0.221609375 1.875 -0.25
v -0.221609375 1.875 0.25
v -0.221609375 1.5 -0.25
v -0.221609375 1.5 0.25
vt 0.59375 0.888
vt 0.640625 0.888
vt 0.640625 0.84
vt 0.59375 0.84
vt 0.53125 0.888
vt 0.59375 0.888
vt 0.59375 0.84
vt 0.53125 0.84
vt 0.703125 0.888
vt 0.75 0.888
vt 0.75 0.84
vt 0.703125 0.84
vt 0.640625 0.888
vt 0.703125 0.888
vt 0.703125 0.84
vt 0.640625 0.84
vt 0.640625 0.888
vt 0.59375 0.888
vt 0.59375 0.952
vt 0.640625 0.952
vt 0.6875 0.952
vt 0.640625 0.952
vt 0.640625 0.888
vt 0.6875 0.888
vn 0 0 -1
vn 1 0 0
vn 0 0 1
vn -1 0 0
vn 0 1 0
vn 0 -1 0
usemtl none
f 132/388/97 135/387/97 133/386/97 130/385/97
f 131/392/98 132/391/98 130/390/98 129/389/98
f 136/396/99 131/395/99 129/394/99 134/393/99
f 135/400/100 136/399/100 134/398/100 133/397/100
f 134/404/101 129/403/101 130/402/101 133/401/101
f 135/408/102 132/407/102 131/406/102 136/405/102
o cube
v 0.1547056776239433 1.8699752627415138 0.249375
v 0.1547056776239433 1.8699752627415138 -0.249375
v 0.2473952481512836 1.524053076201741 0.249375
v 0.2473952481512836 1.524053076201741 -0.249375
v 0.035172356620671086 1.837946405910077 -0.249375
v 0.035172356620671086 1.837946405910077 0.249375
v 0.1278619271480114 1.4920242193703042 -0.249375
v 0.1278619271480114 1.4920242193703042 0.249375
vt 0.765625 0.768
vt 0.78125 0.768
vt 0.78125 0.72
vt 0.765625 0.72
vt 0.7265625 0.72
vt 0.7890625 0.72
vt 0.7890625 0.6719999999999999
vt 0.7265625 0.6719999999999999
vt 0.8671875 0.72
vt 0.8828125 0.72
vt 0.8828125 0.6719999999999999
vt 0.8671875 0.6719999999999999
vt 0.8046875 0.72
vt 0.8671875 0.72
vt 0.8671875 0.6719999999999999
vt 0.8046875 0.6719999999999999
vt 0.8046875 0.72
vt 0.7890625 0.72
vt 0.7890625 0.784
vt 0.8046875 0.784
vt 0.8203125 0.784
vt 0.8046875 0.784
vt 0.8046875 0.72
vt 0.8203125 0.72
vn 0 0 -1
vn 0.9659258262890683 0.25881904510252074 0
vn 0 0 1
vn -0.9659258262890683 -0.25881904510252074 0
vn -0.25881904510252074 0.9659258262890683 0
vn 0.25881904510252074 -0.9659258262890683 0
usemtl none
f 140/412/103 143/411/103 141/410/103 138/409/103
f 139/416/104 140/415/104 138/414/104 137/413/104
f 144/420/105 139/419/105 137/418/105 142/417/105
f 143/424/106 144/423/106 142/422/106 141/421/106
f 142/428/107 137/427/107 138/426/107 141/425/107
f 143/432/108 140/431/108 139/430/108 144/429/108
o cube
v -0.10370939303497775 1.8395640249419678 0.249375
v -0.10370939303497775 1.8395640249419678 -0.249375
v -0.19639896356231806 1.493641838402195 0.249375
v -0.19639896356231806 1.493641838402195 -0.249375
v -0.22324271403824994 1.8715928817734047 -0.249375
v -0.22324271403824994 1.8715928817734047 0.249375
v -0.31593228456559025 1.5256706952336319 -0.249375
v -0.31593228456559025 1.5256706952336319 0.249375
vt 0.8046875 0.72
vt 0.7890625 0.72
vt 0.7890625 0.6719999999999999
vt 0.8046875 0.6719999999999999
vt 0.8671875 0.72
vt 0.8046875 0.72
vt 0.8046875 0.6719999999999999
vt 0.8671875 0.6719999999999999
vt 0.8828125 0.72
vt 0.8671875 0.72
vt 0.8671875 0.6719999999999999
vt 0.8828125 0.6719999999999999
vt 0.7890625 0.72
vt 0.7265625 0.72
vt 0.7265625 0.6719999999999999
vt 0.7890625 0.6719999999999999
vt 0.7890625 0.72
vt 0.8046875 0.72
vt 0.8046875 0.784
vt 0.7890625 0.784
vt 0.8046875 0.784
vt 0.8203125 0.784
vt 0.8203125 0.72
vt 0.8046875 0.72
vn 0 0 -1
vn 0.9659258262890683 -0.25881904510252074 0
vn 0 0 1
vn -0.9659258262890683 0.25881904510252074 0
vn 0.25881904510252074 0.9659258262890683 0
vn -0.25881904510252074 -0.9659258262890683 0
usemtl none
f 148/436/109 151/435/109 149/434/109 146/433/109
f 147/440/110 148/439/110 146/438/110 145/437/110
f 152/444/111 147/443/111 145/442/111 150/441/111
f 151/448/112 152/447/112 150/446/112 149/445/112
f 150/452/113 145/451/113 146/450/113 149/449/113
f 151/456/114 148/455/114 147/454/114 152/453/114
o Голова
v 0.147140625 1.8624999999999998 0.147140625
v 0.147140625 1.8624999999999998 -0.215359375
v 0.147140625 1.5 0.147140625
v 0.147140625 1.5 -0.215359375
v -0.215359375 1.8624999999999998 -0.215359375
v -0.215359375 1.8624999999999998 0.147140625
v -0.215359375 1.5 -0.215359375
v -0.215359375 1.5 0.147140625
vt 0.7734375 1
vt 0.8046875 1
vt 0.8046875 0.96
vt 0.7734375 0.96
vt 0.125 0.88
vt 0.171875 0.88
vt 0.171875 0.832
vt 0.125 0.832
vt 0 0.856
vt 0.046875 0.856
vt 0.046875 0.808
vt 0 0.808
vt 0.140625 1
vt 0.1875 1
vt 0.1875 0.952
vt 0.140625 0.952
vt 0.09375 0.808
vt 0.046875 0.808
vt 0.046875 0.856
vt 0.09375 0.856
vt 0.140625 0.832
vt 0.09375 0.832
vt 0.09375 0.784
vt 0.140625 0.784
vn 0 0 -1
vn 1 0 0
vn 0 0 1
vn -1 0 0
vn 0 1 0
vn 0 -1 0
usemtl none
f 156/460/115 159/459/115 157/458/115 154/457/115
f 155/464/116 156/463/116 154/462/116 153/461/116
f 160/468/117 155/467/117 153/466/117 158/465/117
f 159/472/118 160/471/118 158/470/118 157/469/118
f 158/476/119 153/475/119 154/474/119 157/473/119
f 159/480/120 156/479/120 155/478/120 160/477/120
o Голова
v 0.15964062499999998 1.875 0.15964062499999998
v 0.15964062499999998 1.875 -0.227859375
v 0.15964062499999998 1.4874999999999998 0.15964062499999998
v 0.15964062499999998 1.4874999999999998 -0.227859375
v -0.227859375 1.875 -0.227859375
v -0.227859375 1.875 0.15964062499999998
v -0.227859375 1.4874999999999998 -0.227859375
v -0.227859375 1.4874999999999998 0.15964062499999998
vt 0.8046875 1
vt 0.8359375 1
vt 0.8359375 0.96
vt 0.8046875 0.96
vt 0.0859375 0.992
vt 0.1328125 0.992
vt 0.1328125 0.944
vt 0.0859375 0.944
vt 0.0859375 0.992
vt 0.1328125 0.992
vt 0.1328125 0.944
vt 0.0859375 0.944
vt 0.0859375 0.992
vt 0.1328125 0.992
vt 0.1328125 0.944
vt 0.0859375 0.944
vt 0.1328125 0.944
vt 0.0859375 0.944
vt 0.0859375 0.992
vt 0.1328125 0.992
vt 0.1328125 0.992
vt 0.0859375 0.992
vt 0.0859375 0.944
vt 0.1328125 0.944
vn 0 0 -1
vn 1 0 0
vn 0 0 1
vn -1 0 0
vn 0 1 0
vn 0 -1 0
usemtl none
f 164/484/121 167/483/121 165/482/121 162/481/121
f 163/488/122 164/487/122 162/486/122 161/485/122
f 168/492/123 163/491/123 161/490/123 166/489/123
f 167/496/124 168/495/124 166/494/124 165/493/124
f 166/500/125 161/499/125 162/498/125 165/497/125
f 167/504/126 164/503/126 163/502/126 168/501/126
o cube
v 0.015625 1.609375 -0.15625
v 0.015625 1.609375 -0.25
v 0.015625 1.515625 -0.15625
v 0.015625 1.515625 -0.25
v -0.078125 1.609375 -0.25
v -0.078125 1.609375 -0.15625
v -0.078125 1.515625 -0.25
v -0.078125 1.515625 -0.15625
vt 0.6484375 0.624
vt 0.6640625 0.624
vt 0.6640625 0.608
vt 0.6484375 0.608
vt 0.6328125 0.624
vt 0.6484375 0.624
vt 0.6484375 0.608
vt 0.6328125 0.608
vt 0.6796875 0.624
vt 0.6953125 0.624
vt 0.6953125 0.608
vt 0.6796875 0.608
vt 0.6640625 0.624
vt 0.6796875 0.624
vt 0.6796875 0.608
vt 0.6640625 0.608
vt 0.6640625 0.624
vt 0.6484375 0.624
vt 0.6484375 0.64
vt 0.6640625 0.64
vt 0.6796875 0.64
vt 0.6640625 0.64
vt 0.6640625 0.624
vt 0.6796875 0.624
vn 0 0 -1
vn 1 0 0
vn 0 0 1
vn -1 0 0
vn 0 1 0
vn 0 -1 0
usemtl none
f 172/508/127 175/507/127 173/506/127 170/505/127
f 171/512/128 172/511/128 170/510/128 169/509/128
f 176/516/129 171/515/129 169/514/129 174/513/129
f 175/520/130 176/519/130 174/518/130 173/517/130
f 174/524/131 169/523/131 170/522/131 173/521/131
f 175/528/132 172/527/132 171/526/132 176/525/132
o 2 слой
v 0.23375 1.0150000000000001 0.14
v 0.23375 1.0150000000000001 -0.14
v 0.23375 0.735 0.14
v 0.23375 0.735 -0.14
v -0.29625 1.0150000000000001 -0.14
v -0.29625 1.0150000000000001 0.14
v -0.29625 0.735 -0.14
v -0.29625 0.735 0.14
vt 0.203125 0.9359999999999999
vt 0.265625 0.9359999999999999
vt 0.265625 0.904
vt 0.203125 0.904
vt 0.3515625 0.904
vt 0.3828125 0.904
vt 0.3828125 0.872
vt 0.3515625 0.872
vt 0.1953125 0.792
vt 0.2578125 0.792
vt 0.2578125 0.76
vt 0.1953125 0.76
vt 0.359375 1
vt 0.390625 1
vt 0.390625 0.968
vt 0.359375 0.968
vt 0.296875 0.5840000000000001
vt 0.3203125 0.5840000000000001
vt 0.3203125 0.616
vt 0.296875 0.616
vt 0.125 0.784
vt 0.0625 0.784
vt 0.0625 0.752
vt 0.125 0.752
vn 0 0 -1
vn 1 0 0
vn 0 0 1
vn -1 0 0
vn 0 1 0
vn 0 -1 0
usemtl none
f 180/532/133 183/531/133 181/530/133 178/529/133
f 179/536/134 180/535/134 178/534/134 177/533/134
f 184/540/135 179/539/135 177/538/135 182/537/135
f 183/544/136 184/543/136 182/542/136 181/541/136
f 182/548/137 177/547/137 178/546/137 181/545/137
f 183/552/138 180/551/138 179/550/138 184/549/138
o 1 слой
v 0.218125 0.999375 0.124375
v 0.218125 0.999375 -0.124375
v 0.218125 0.750625 0.124375
v 0.218125 0.750625 -0.124375
v -0.280625 0.999375 -0.124375
v -0.280625 0.999375 0.124375
v -0.280625 0.750625 -0.124375
v -0.280625 0.750625 0.124375
vt 0.1875 1
vt 0.25 1
vt 0.25 0.968
vt 0.1875 0.968
vt 0.296875 0.648
vt 0.328125 0.648
vt 0.328125 0.616
vt 0.296875 0.616
vt 0.1953125 0.856
vt 0.2578125 0.856
vt 0.2578125 0.8240000000000001
vt 0.1953125 0.8240000000000001
vt 0.328125 0.648
vt 0.359375 0.648
vt 0.359375 0.616
vt 0.328125 0.616
vt 0.2421875 0.84
vt 0.21875 0.84
vt 0.21875 0.832
vt 0.2421875 0.832
vt 0.265625 0.968
vt 0.203125 0.968
vt 0.203125 0.9359999999999999
vt 0.265625 0.9359999999999999
vn 0 0 -1
vn 1 0 0
vn 0 0 1
vn -1 0 0
vn 0 1 0
vn 0 -1 0
usemtl none
f 188/556/139 191/555/139 189/554/139 186/553/139
f 187/560/140 188/559/140 186/558/140 185/557/140
f 192/564/141 187/563/141 185/562/141 190/561/141
f 191/568/142 192/567/142 190/566/142 189/565/142
f 190/572/143 185/571/143 186/570/143 189/569/143
f 191/576/144 188/575/144 187/574/144 192/573/144
o 1 слой
v -0.0625 0.75 0.125
v -0.0625 0.75 -0.125
v -0.0625 0.3125 0.125
v -0.0625 0.3125 -0.125
v -0.28125 0.75 -0.125
v -0.28125 0.75 0.125
v -0.28125 0.3125 -0.125
v -0.28125 0.3125 0.125
vt 0.1875 0.76
vt 0.21875 0.76
vt 0.21875 0.704
vt 0.1875 0.704
vt 0.21875 0.76
vt 0.25 0.76
vt 0.25 0.704
vt 0.21875 0.704
vt 0.0625 0.752
vt 0.09375 0.752
vt 0.09375 0.696
vt 0.0625 0.696
vt 0.09375 0.752
vt 0.125 0.752
vt 0.125 0.696
vt 0.09375 0.696
vt 0.390625 0.9359999999999999
vt 0.359375 0.9359999999999999
vt 0.359375 0.968
vt 0.390625 0.968
vt 0.390625 0.9359999999999999
vt 0.359375 0.9359999999999999
vt 0.359375 0.904
vt 0.390625 0.904
vn 0 0 -1
vn 1 0 0
vn 0 0 1
vn -1 0 0
vn 0 1 0
vn 0 -1 0
usemtl none
f 196/580/145 199/579/145 197/578/145 194/577/145
f 195/584/146 196/583/146 194/582/146 193/581/146
f 200/588/147 195/587/147 193/586/147 198/585/147
f 199/592/148 200/591/148 198/590/148 197/589/148
f 198/596/149 193/595/149 194/594/149 197/593/149
f 199/600/150 196/599/150 195/598/150 200/597/150
o 2 слой
v -0.002255789079657594 0.7527783859432576 0.13125
v -0.002255789079657594 0.7527783859432576 -0.13125
v -0.036985424613043646 0.555816835340816 0.13125
v -0.036985424613043646 0.555816835340816 -0.13125
v -0.2915430665269937 0.8037875381329184 -0.13125
v -0.2915430665269937 0.8037875381329184 0.13125
v -0.3262727020603797 0.6068259875304769 -0.13125
v -0.3262727020603797 0.6068259875304769 0.13125
vt 0.2890625 0.888
vt 0.3203125 0.888
vt 0.3203125 0.864
vt 0.2890625 0.864
vt 0.125 0.704
vt 0.15625 0.704
vt 0.15625 0.6799999999999999
vt 0.125 0.6799999999999999
vt 0.15625 0.704
vt 0.1875 0.704
vt 0.1875 0.6799999999999999
vt 0.15625 0.6799999999999999
vt 0.1875 0.704
vt 0.21875 0.704
vt 0.21875 0.6799999999999999
vt 0.1875 0.6799999999999999
vt 0.390625 0.632
vt 0.359375 0.632
vt 0.359375 0.6639999999999999
vt 0.390625 0.6639999999999999
vt 0.296875 0.616
vt 0.3203125 0.616
vt 0.3203125 0.5840000000000001
vt 0.296875 0.5840000000000001
vn 0 0 -1
vn 0.984807753012208 -0.17364817766693033 0
vn 0 0 1
vn -0.984807753012208 0.17364817766693033 0
vn 0.17364817766693033 0.984807753012208 0
vn -0.17364817766693033 -0.984807753012208 0
usemtl none
f 204/604/151 207/603/151 205/602/151 202/601/151
f 203/608/152 204/607/152 202/606/152 201/605/152
f 208/612/153 203/611/153 201/610/153 206/609/153
f 207/616/154 208/615/154 206/614/154 205/613/154
f 206/620/155 201/619/155 202/618/155 205/617/155
f 207/624/156 204/623/156 203/622/156 208/621/156
o 2 слой
v -0.0475 0.39 0.14
v -0.0475 0.39 -0.14
v -0.0475 -0.015000000000000013 0.14
v -0.0475 -0.015000000000000013 -0.14
v -0.29625 0.39 -0.14
v -0.29625 0.39 0.14
v -0.29625 -0.015000000000000013 -0.14
v -0.29625 -0.015000000000000013 0.14
vt 0.296875 0.952
vt 0.328125 0.952
vt 0.328125 0.904
vt 0.296875 0.904
vt 0.0625 0.696
vt 0.09375 0.696
vt 0.09375 0.648
vt 0.0625 0.648
vt 0.09375 0.696
vt 0.125 0.696
vt 0.125 0.648
vt 0.09375 0.648
vt 0.3125 0.84
vt 0.34375 0.84
vt 0.34375 0.792
vt 0.3125 0.792
vt 0.3203125 0.616
vt 0.296875 0.616
vt 0.296875 0.5840000000000001
vt 0.3203125 0.5840000000000001
vt 0.0625 0.624
vt 0.03125 0.624
vt 0.03125 0.5920000000000001
vt 0.0625 0.5920000000000001
vn 0 0 -1
vn 1 0 0
vn 0 0 1
vn -1 0 0
vn 0 1 0
vn 0 -1 0
usemtl none
f 212/628/157 215/627/157 213/626/157 210/625/157
f 211/632/158 212/631/158 210/630/158 209/629/158
f 216/636/159 211/635/159 209/634/159 214/633/159
f 215/640/160 216/639/160 214/638/160 213/637/160
f 214/644/161 209/643/161 210/642/161 213/641/161
f 215/648/162 212/647/162 211/646/162 216/645/162
o 1 слой
v -0.063125 0.374375 0.124375
v -0.063125 0.374375 -0.124375
v -0.063125 0.0006249999999999867 0.124375
v -0.063125 0.0006249999999999867 -0.124375
v -0.280625 0.374375 -0.124375
v -0.280625 0.374375 0.124375
v -0.280625 0.0006249999999999867 -0.124375
v -0.280625 0.0006249999999999867 0.124375
vt 0.21875 0.704
vt 0.25 0.704
vt 0.25 0.656
vt 0.21875 0.656
vt 0.25 0.704
vt 0.28125 0.704
vt 0.28125 0.656
vt 0.25 0.656
vt 0.28125 0.704
vt 0.3125 0.704
vt 0.3125 0.656
vt 0.28125 0.656
vt 0.296875 1
vt 0.328125 1
vt 0.328125 0.952
vt 0.296875 0.952
vt 0.390625 0.6
vt 0.359375 0.6
vt 0.359375 0.632
vt 0.390625 0.632
vt 0.03125 0.624
vt 0 0.624
vt 0 0.5920000000000001
vt 0.03125 0.5920000000000001
vn 0 0 -1
vn 1 0 0
vn 0 0 1
vn -1 0 0
vn 0 1 0
vn 0 -1 0
usemtl none
f 220/652/163 223/651/163 221/650/163 218/649/163
f 219/656/164 220/655/164 218/654/164 217/653/164
f 224/660/165 219/659/165 217/658/165 222/657/165
f 223/664/166 224/663/166 222/662/166 221/661/166
f 222/668/167 217/667/167 218/666/167 221/665/167
f 223/672/168 220/671/168 219/670/168 224/669/168
o 1 слой
v 0.21875 0.75 0.125
v 0.21875 0.75 -0.125
v 0.21875 0.3125 0.125
v 0.21875 0.3125 -0.125
v 0 0.75 -0.125
v 0 0.75 0.125
v 0 0.3125 -0.125
v 0 0.3125 0.125
vt 0.25 0.76
vt 0.28125 0.76
vt 0.28125 0.704
vt 0.25 0.704
vt 0.2578125 0.856
vt 0.2890625 0.856
vt 0.2890625 0.8
vt 0.2578125 0.8
vt 0.265625 1
vt 0.296875 1
vt 0.296875 0.944
vt 0.265625 0.944
vt 0.265625 0.944
vt 0.296875 0.944
vt 0.296875 0.888
vt 0.265625 0.888
vt 0.3984375 0.84
vt 0.3671875 0.84
vt 0.3671875 0.872
vt 0.3984375 0.872
vt 0.3984375 0.84
vt 0.3671875 0.84
vt 0.3671875 0.808
vt 0.3984375 0.808
vn 0 0 -1
vn 1 0 0
vn 0 0 1
vn -1 0 0
vn 0 1 0
vn 0 -1 0
usemtl none
f 228/676/169 231/675/169 229/674/169 226/673/169
f 227/680/170 228/679/170 226/678/170 225/677/170
f 232/684/171 227/683/171 225/682/171 230/681/171
f 231/688/172 232/687/172 230/686/172 229/685/172
f 230/692/173 225/691/173 226/690/173 229/689/173
f 231/696/174 228/695/174 227/694/174 232/693/174
o 2 слой
v 0.22398343933302728 0.7925036216539657 0.13125
v 0.22398343933302728 0.7925036216539657 -0.13125
v 0.2500886777770376 0.5942146493792037 0.13125
v 0.2500886777770376 0.5942146493792037 -0.13125
v -0.06725348869552952 0.7541615526893255 -0.13125
v -0.06725348869552952 0.7541615526893255 0.13125
v -0.04114825025151922 0.5558725804145634 -0.13125
v -0.04114825025151922 0.5558725804145634 0.13125
vt 0.3125 0.792
vt 0.34375 0.792
vt 0.34375 0.768
vt 0.3125 0.768
vt 0.3125 0.744
vt 0.34375 0.744
vt 0.34375 0.72
vt 0.3125 0.72
vt 0.3125 0.696
vt 0.34375 0.696
vt 0.34375 0.6719999999999999
vt 0.3125 0.6719999999999999
vt 0 0.6719999999999999
vt 0.03125 0.6719999999999999
vt 0.03125 0.648
vt 0 0.648
vt 0.3984375 0.776
vt 0.3671875 0.776
vt 0.3671875 0.808
vt 0.3984375 0.808
vt 0.296875 0.616
vt 0.3203125 0.616
vt 0.3203125 0.5840000000000001
vt 0.296875 0.5840000000000001
vn 0 0 -1
vn 0.9914448613738104 0.13052619222005157 0
vn 0 0 1
vn -0.9914448613738104 -0.13052619222005157 0
vn -0.13052619222005157 0.9914448613738104 0
vn 0.13052619222005157 -0.9914448613738104 0
usemtl none
f 236/700/175 239/699/175 237/698/175 234/697/175
f 235/704/176 236/703/176 234/702/176 233/701/176
f 240/708/177 235/707/177 233/706/177 238/705/177
f 239/712/178 240/711/178 238/710/178 237/709/178
f 238/716/179 233/715/179 234/714/179 237/713/179
f 239/720/180 236/719/180 235/718/180 240/717/180
o 2 слой
v 0.23375 0.39 0.14
v 0.23375 0.39 -0.14
v 0.23375 -0.015000000000000013 0.14
v 0.23375 -0.015000000000000013 -0.14
v -0.015000000000000013 0.39 -0.14
v -0.015000000000000013 0.39 0.14
v -0.015000000000000013 -0.015000000000000013 -0.14
v -0.015000000000000013 -0.015000000000000013 0.14
vt 0.125 0.656
vt 0.15625 0.656
vt 0.15625 0.608
vt 0.125 0.608
vt 0.15625 0.656
vt 0.1875 0.656
vt 0.1875 0.608
vt 0.15625 0.608
vt 0.1875 0.656
vt 0.21875 0.656
vt 0.21875 0.608
vt 0.1875 0.608
vt 0.21875 0.656
vt 0.25 0.656
vt 0.25 0.608
vt 0.21875 0.608
vt 0.296875 0.616
vt 0.3203125 0.616
vt 0.3203125 0.5840000000000001
vt 0.296875 0.5840000000000001
vt 0.3984375 0.712
vt 0.3671875 0.712
vt 0.3671875 0.6799999999999999
vt 0.3984375 0.6799999999999999
vn 0 0 -1
vn 1 0 0
vn 0 0 1
vn -1 0 0
vn 0 1 0
vn 0 -1 0
usemtl none
f 244/724/181 247/723/181 245/722/181 242/721/181
f 243/728/182 244/727/182 242/726/182 241/725/182
f 248/732/183 243/731/183 241/730/183 246/729/183
f 247/736/184 248/735/184 246/734/184 245/733/184
f 246/740/185 241/739/185 242/738/185 245/737/185
f 247/744/186 244/743/186 243/742/186 248/741/186
o 1 слой
v 0.218125 0.374375 0.124375
v 0.218125 0.374375 -0.124375
v 0.218125 0.0006249999999999867 0.124375
v 0.218125 0.0006249999999999867 -0.124375
v 0.0006249999999999867 0.374375 -0.124375
v 0.0006249999999999867 0.374375 0.124375
v 0.0006249999999999867 0.0006249999999999867 -0.124375
v 0.0006249999999999867 0.0006249999999999867 0.124375
vt 0.03125 0.6719999999999999
vt 0.0625 0.6719999999999999
vt 0.0625 0.624
vt 0.03125 0.624
vt 0.3203125 0.904
vt 0.3515625 0.904
vt 0.3515625 0.856
vt 0.3203125 0.856
vt 0.328125 1
vt 0.359375 1
vt 0.359375 0.952
vt 0.328125 0.952
vt 0.328125 0.952
vt 0.359375 0.952
vt 0.359375 0.904
vt 0.328125 0.904
vt 0.3984375 0.744
vt 0.3671875 0.744
vt 0.3671875 0.776
vt 0.3984375 0.776
vt 0.3984375 0.744
vt 0.3671875 0.744
vt 0.3671875 0.712
vt 0.3984375 0.712
vn 0 0 -1
vn 1 0 0
vn 0 0 1
vn -1 0 0
vn 0 1 0
vn 0 -1 0
usemtl none
f 252/748/187 255/747/187 253/746/187 250/745/187
f 251/752/188 252/751/188 250/750/188 249/749/188
f 256/756/189 251/755/189 249/754/189 254/753/189
f 255/760/190 256/759/190 254/758/190 253/757/190
f 254/764/191 249/763/191 250/762/191 253/761/191
f 255/768/192 252/767/192 251/766/192 256/765/192