# Made in Blockbench 5.1.4
mtllib materials.mtl

o sphere
v 0 -0.5 0
v 0 0.5 0
v 0.06698729810778065 0.43301270189221935 0.24999999999999994
v 0.11602540378443862 0.25000000000000006 0.4330127018922193
v 0.13397459621556132 3.061616997868383e-17 0.49999999999999994
v 0.11602540378443864 -0.2499999999999999 0.43301270189221935
v 0.06698729810778065 -0.43301270189221935 0.24999999999999994
v 0.18301270189221924 0.43301270189221935 0.18301270189221927
v 0.31698729810778065 0.25000000000000006 0.31698729810778065
v 0.3660254037844386 3.061616997868383e-17 0.36602540378443865
v 0.31698729810778065 -0.2499999999999999 0.3169872981077807
v 0.18301270189221924 -0.43301270189221935 0.18301270189221927
v 0.24999999999999994 0.43301270189221935 0.06698729810778065
v 0.4330127018922193 0.25000000000000006 0.11602540378443862
v 0.49999999999999994 3.061616997868383e-17 0.13397459621556132
v 0.43301270189221935 -0.2499999999999999 0.11602540378443864
v 0.24999999999999994 -0.43301270189221935 0.06698729810778065
v 0.24999999999999994 0.43301270189221935 -0.06698729810778067
v 0.4330127018922193 0.25000000000000006 -0.11602540378443868
v 0.49999999999999994 3.061616997868383e-17 -0.13397459621556138
v 0.43301270189221935 -0.2499999999999999 -0.1160254037844387
v 0.24999999999999994 -0.43301270189221935 -0.06698729810778067
v 0.18301270189221927 0.43301270189221935 -0.18301270189221924
v 0.31698729810778065 0.25000000000000006 -0.31698729810778065
v 0.36602540378443865 3.061616997868383e-17 -0.3660254037844386
v 0.3169872981077807 -0.2499999999999999 -0.31698729810778065
v 0.18301270189221927 -0.43301270189221935 -0.18301270189221924
v 0.06698729810778072 0.43301270189221935 -0.2499999999999999
v 0.11602540378443875 0.25000000000000006 -0.43301270189221924
v 0.1339745962155615 3.061616997868383e-17 -0.4999999999999999
v 0.11602540378443876 -0.2499999999999999 -0.4330127018922193
v 0.06698729810778072 -0.43301270189221935 -0.2499999999999999
v -0.06698729810778055 0.43301270189221935 -0.24999999999999997
v -0.11602540378443846 0.25000000000000006 -0.43301270189221935
v -0.13397459621556113 3.061616997868383e-17 -0.5
v -0.11602540378443847 -0.2499999999999999 -0.4330127018922194
v -0.06698729810778055 -0.43301270189221935 -0.24999999999999997
v -0.18301270189221924 0.43301270189221935 -0.1830127018922193
v -0.31698729810778065 0.25000000000000006 -0.3169872981077807
v -0.3660254037844386 3.061616997868383e-17 -0.3660254037844387
v -0.31698729810778065 -0.2499999999999999 -0.31698729810778076
v -0.18301270189221924 -0.43301270189221935 -0.1830127018922193
v -0.24999999999999994 0.43301270189221935 -0.06698729810778062
v -0.4330127018922193 0.25000000000000006 -0.11602540378443858
v -0.49999999999999994 3.061616997868383e-17 -0.13397459621556126
v -0.43301270189221935 -0.2499999999999999 -0.1160254037844386
v -0.24999999999999994 -0.43301270189221935 -0.06698729810778062
v -0.24999999999999997 0.43301270189221935 0.06698729810778054
v -0.43301270189221935 0.25000000000000006 0.11602540378443843
v -0.5 3.061616997868383e-17 0.1339745962155611
v -0.4330127018922194 -0.2499999999999999 0.11602540378443844
v -0.24999999999999997 -0.43301270189221935 0.06698729810778054
v -0.1830127018922193 0.43301270189221935 0.18301270189221922
v -0.3169872981077807 0.25000000000000006 0.3169872981077806
v -0.3660254037844387 3.061616997868383e-17 0.36602540378443854
v -0.31698729810778076 -0.2499999999999999 0.3169872981077806
v -0.1830127018922193 -0.43301270189221935 0.18301270189221922
v -0.06698729810778063 0.43301270189221935 0.24999999999999994
v -0.1160254037844386 0.25000000000000006 0.4330127018922193
v -0.1339745962155613 3.061616997868383e-17 0.49999999999999994
v -0.11602540378443861 -0.2499999999999999 0.43301270189221935
v -0.06698729810778063 -0.43301270189221935 0.24999999999999994
vt 0.29685793220332524 0.8517340017880437
vt 0.33133044113875887 0.8682132663130846
vt 0.27714676902298785 0.9173577297438659
vt 0.24802980720332524 0.9122808767880437
vt 0.26245915841744427 0.8466571488322214
vt 0.3240549159715258 0.85255363462556
vt 0.28472000991904634 0.9247063930955746
vt 0.2552539243074098 0.808537189171995
vt 0.23267142178998734 0.726779508549493
vt 0.3446778877337875 0.7148677348876101
vt 0.3522537392813183 0.7982213575681887
vt 0.23267142178998734 0.726779508549493
vt 0.22509557024245652 0.6434258858689141
vt 0.32209538521636516 0.633110054265108
vt 0.3446778877337875 0.7148677348876101
vt 0.22509557024245652 0.6434258858689141
vt 0.2305146842109843 0.5586902618309415
vt 0.28651791718288433 0.552734375
vt 0.32209538521636516 0.633110054265108
vt 0.5625883618272037 0.8178138326046269
vt 0.5215260473978102 0.8326987455449992
vt 0.498046875 0.7734240445435808
vt 0.33133044113875887 0.8682132663130846
vt 0.35219648342641263 0.8970335641509883
vt 0.2771467690229876 0.9173577297438659
vt 0.28472000991904634 0.9247063930955746
vt 0.3240549159715258 0.85255363462556
vt 0.37601639784366114 0.9082385574863673
vt 0.31359253571928036 0.947835150541283
vt 0.40688094285934084 0.983964703677803
vt 0.41160042221985305 0.9429873656682225
vt 0.4813763676629731 0.9488432932204909
vt 0.46730829176800287 0.9890360527672
vt 0.41160042221985305 0.9429873656682225
vt 0.4256684981148233 0.9027946061215134
vt 0.4860958470234854 0.9078659552109103
vt 0.4813763676629731 0.9488432932204909
vt 0.5194478703627998 0.8070078381281734
vt 0.4869541416024975 0.7767744450960481
vt 0.4988534701417395 0.7575324954388734
vt 0.5400579781256744 0.7736800201177432
vt 0.5874431813855201 0.7917818684001001
vt 0.5625883618272037 0.8178138326046269
vt 0.498046875 0.7734240445435808
vt 0.35219648342641263 0.8970335641509883
vt 0.3542162313216568 0.9309576150289699
vt 0.2771467690229876 0.9173577297438659
vt 0.0018128906249999998 0.974609375
vt 0.0002804687499999999 0.966796875
vt 0.00753203125 0.966796875
vt 0.005999609375000001 0.974609375
vt 0.4704708470234854 0.9312268812300715
vt 0.4657513676629731 0.8902495432204909
vt 0.5362017573370269 0.8902495432204909
vt 0.5314822779765147 0.9312268812300715
vt 0.4813763676629731 0.9488432932204909
vt 0.4860958470234854 0.9078659552109103
vt 0.5471072779765147 0.9078659552109103
vt 0.5518267573370269 0.9488432932204909
vt 0.4860958470234854 0.9078659552109103
vt 0.4989889650814865 0.8668886172013298
vt 0.5342141599185134 0.8668886172013298
vt 0.5471072779765147 0.9078659552109103
vt 0.5898490266722082 0.7611399339171498
vt 0.5874431813855201 0.7917818684001001
vt 0.498046875 0.7734240445435808
vt 0.3542162313216568 0.9309576150289699
vt 0.33688249084334454 0.9614664971241855
vt 0.2771467690229876 0.9173577297438659
vt 0.032935953781472564 0.9296875
vt 0.02630643243835199 0.9248071253070907
vt 0.03161740580551772 0.9198696441086798
vt 0.0360022655973141 0.9268368253886786
vt 0.5658948332319972 0.9890360527672
vt 0.5518267573370269 0.9488432932204909
vt 0.621602702780147 0.9429873656682224
vt 0.6263221821406593 0.983964703677803
vt 0.5518267573370269 0.9488432932204909
vt 0.5471072779765147 0.9078659552109103
vt 0.6075346268851768 0.9027946061215134
vt 0.621602702780147 0.9429873656682225
vt 0.5471072779765147 0.9078659552109103
vt 0.5504831884423244 0.8662092137761344
vt 0.5853711611638844 0.86328125
vt 0.6075346268851768 0.9027946061215134
vt 0.5692017479060736 0.7335827542138137
vt 0.5898490266722082 0.7611399339171498
vt 0.498046875 0.7734240445435808
vt 0.33688249084334454 0.9614664971241855
vt 0.30454806704306947 0.9808988971575604
vt 0.27714676902298785 0.9173577297438658
vt 0.0360022655973141 0.9268368253886786
vt 0.03161740580551772 0.9198696441086798
vt 0.03836640625 0.9172170695683917
vt 0.039898828125 0.9253053508183917
vt 0.0006309428593408162 0.9496022633449664
vt 0.0011918803593408151 0.9415139820949664
vt 0.00948515625 0.9426698499800715
vt 0.007813083820070293 0.9506032677963142
vt 0.0011918803593408151 0.9415139820949664
vt 0.0028639527892705217 0.9335805642787237
vt 0.01004609375 0.9345815687300715
vt 0.00948515625 0.9426698499800715
vt 0.0028639527892705217 0.9335805642787237
vt 0.005498209261935321 0.92578125
vt 0.009644847207264912 0.9263591839425526
vt 0.010046093749999999 0.9345815687300715
vt 0.5306862374897311 0.7160304185328284
vt 0.5692017479060736 0.7335827542138137
vt 0.498046875 0.7734240445435809
vt 0.2889608394320261 0.984375
vt 0.249745471002906 0.9808988971575604
vt 0.27714676902298785 0.9173577297438658
vt 0.039898828125 0.9253053508183917
vt 0.03836640625 0.9172170695683917
vt 0.04561796875 0.9172170695683917
vt 0.044085546875 0.9253053508183917
vt 0.01004609375 0.9507581312300715
vt 0.00948515625 0.9426698499800715
vt 0.01785859375 0.9426698499800715
vt 0.01729765625 0.9507581312300715
vt 0.00948515625 0.9426698499800715
vt 0.01004609375 0.9345815687300715
vt 0.01729765625 0.9345815687300715
vt 0.01785859375 0.9426698499800715
vt 0.01004609375 0.9345815687300715
vt 0.011578515625 0.9264932874800715
vt 0.015765234375 0.9264932874800715
vt 0.01729765625 0.9345815687300715
vt 0.4839744129481217 0.712890625
vt 0.5306862374897311 0.7160304185328284
vt 0.498046875 0.7734240445435809
vt 0.249745471002906 0.9808988971575604
vt 0.21741104720263094 0.9614664971241855
vt 0.27714676902298785 0.9173577297438658
vt 0.044085546875 0.9253053508183917
vt 0.04561796875 0.9172170695683917
vt 0.05236696919448228 0.9198696441086798
vt 0.0479821094026859 0.9268368253886786
vt 0.01953066617992971 0.9506032677963142
vt 0.01785859375 0.9426698499800715
vt 0.026151869640659183 0.9415139820949664
vt 0.026712807140659184 0.9496022633449664
vt 0.01785859375 0.9426698499800715
vt 0.01729765625 0.9345815687300715
vt 0.02447979721072948 0.9335805642787237
vt 0.026151869640659187 0.9415139820949664
vt 0.01729765625 0.9345815687300715
vt 0.01769890279273509 0.9263591839425526
vt 0.021845540738064682 0.92578125
vt 0.02447979721072948 0.9335805642787237
vt 0.4268920020939264 0.7335827542138137
vt 0.4654075125102688 0.7160304185328284
vt 0.498046875 0.7734240445435809
vt 0.21741104720263094 0.9614664971241855
vt 0.20007730672431867 0.9309576150289699
vt 0.27714676902298785 0.9173577297438659
vt 0.0479821094026859 0.9268368253886786
vt 0.05236696919448228 0.9198696441086798
vt 0.05767794256164801 0.9248071253070907
vt 0.051048421218527436 0.9296875
vt 0.051412192859340816 0.9984303883449664
vt 0.05197313035934081 0.9903421070949664
vt 0.06026640625 0.9914979749800715
vt 0.058594333820070295 0.9994313927963142
vt 0.05197313035934081 0.9903421070949664
vt 0.05364520278927052 0.9824086892787237
vt 0.06082734375 0.9834096937300715
vt 0.06026640625 0.9914979749800715
vt 0.05364520278927052 0.9824086892787237
vt 0.056279459261935325 0.974609375
vt 0.06042609720726491 0.9751873089425526
vt 0.06082734375 0.9834096937300715
vt 0.4062447233277919 0.7611399339171498
vt 0.4268920020939264 0.7335827542138137
vt 0.498046875 0.7734240445435808
vt 0.20007730672431873 0.9309576150289699
vt 0.20209705461956295 0.8970335641509883
vt 0.27714676902298785 0.9173577297438659
vt 0.029156640625 1
vt 0.02762421875 0.9921875
vt 0.03487578125 0.9921875
vt 0.033343359375 1
vt 0.06082734375 0.9995862562300715
vt 0.06026640625 0.9914979749800715
vt 0.06863984375 0.9914979749800715
vt 0.06807890625 0.9995862562300715
vt 0.06026640625 0.9914979749800715
vt 0.06082734375 0.9834096937300715
vt 0.06807890625 0.9834096937300715
vt 0.06863984375 0.9914979749800715
vt 0.06082734375 0.9834096937300715
vt 0.062359765625 0.9753214124800715
vt 0.06654648437499999 0.9753214124800715
vt 0.06807890625 0.9834096937300715
vt 0.40865056861447996 0.7917818684001001
vt 0.4062447233277919 0.7611399339171498
vt 0.498046875 0.7734240445435808
vt 0.20209705461956295 0.8970335641509883
vt 0.2229630969072166 0.8682132663130846
vt 0.27714676902298785 0.9173577297438659
vt 0.20209705461956295 0.8970335641509883
vt 0.12984297715633886 0.8728480487078376
vt 0.1659837878512448 0.8229301527325767
vt 0.2229630969072166 0.8682132663130846
vt 0.07031191617992971 0.9994313927963142
vt 0.06863984375 0.9914979749800715
vt 0.07693311964065919 0.9903421070949664
vt 0.07749405714065918 0.9984303883449664
vt 0.06863984375 0.9914979749800715
vt 0.06807890625 0.9834096937300715
vt 0.07526104721072949 0.9824086892787237
vt 0.07693311964065919 0.9903421070949664
vt 0.48142639687432565 0.7580550201177432
vt 0.5226309048582605 0.7419074954388734
vt 0.5345302333975025 0.7611494450960481
vt 0.5020365046372002 0.7913828381281734
vt 0.4335053881727963 0.8178138326046269
vt 0.40865056861447996 0.7917818684001001
vt 0.498046875 0.7734240445435808
vt 0.2229630969072166 0.8682132663130846
vt 0.25743560584265024 0.8517340017880437
vt 0.27714676902298785 0.9173577297438659
vt 0.2229630969072166 0.8682132663130846
vt 0.17339805912912815 0.8168609073926636
vt 0.23310580832463013 0.7883181693218612
vt 0.25743560584265024 0.8517340017880437
vt 0 0.7982213575681887
vt 0.007575851547530765 0.7148677348876101
vt 0.11958231749133097 0.726779508549493
vt 0.09699981497390875 0.812443439171995
vt 0.007575851547530765 0.7148677348876101
vt 0.030158354064953097 0.633110054265108
vt 0.1271581690388618 0.6434258858689141
vt 0.11958231749133097 0.726779508549493
vt 0.030158354064953097 0.633110054265108
vt 0.06573582209843398 0.552734375
vt 0.121739055070334 0.5586902618309414
vt 0.1271581690388618 0.6434258858689141
vt 0.4745677026021897 0.8326987455449992
vt 0.4335053881727963 0.8178138326046269
vt 0.498046875 0.7734240445435808
vt 0.25743560584265024 0.8517340017880437
vt 0.29685793220332524 0.8517340017880437
vt 0.27714676902298785 0.9173577297438659
vt 0.4208500100658781 0.8458746267880437
vt 0.36019375462853115 0.5790790238322214
vt 0.6472247834174443 0.5790790238322214
vt 0.5865685279800974 0.8458746267880437
vt 0.6935695892493876 0.9507581312300715
vt 0.6807601353506718 0.802951383549493
vt 0.8719742396493282 0.802951383549493
vt 0.8591647857506124 0.9441414574900036
vt 0.11958231749133097 0.726779508549493
vt 0.1271581690388618 0.6434258858689141
vt 0.22509557024245652 0.6434258858689141
vt 0.23267142178998734 0.726779508549493
vt 0.1271581690388618 0.6434258858689141
vt 0.14785459356599506 0.5600722631883357
vt 0.20439914571532325 0.5600722631883357
vt 0.22509557024245652 0.6434258858689141
vt 0.5215260473978102 0.8326987455449992
vt 0.4745677026021897 0.8326987455449992
vt 0.498046875 0.7734240445435808
vn 0.12940952255126043 0.9659258262890683 0.22414386804201333
vn 0.35355339059327373 0.7071067811865477 0.6123724356957945
vn 0.48296291314453405 0.2588190451025207 0.836516303737808
vn 0.48296291314453427 -0.2588190451025205 0.8365163037378079
vn 0.3535533905932741 -0.7071067811865475 0.6123724356957946
vn 0.12940952255126043 -0.9659258262890683 0.22414386804201333
vn 0.22414386804201336 0.9659258262890683 0.12940952255126045
vn 0.6123724356957944 0.7071067811865478 0.3535533905932736
vn 0.8365163037378079 0.2588190451025208 0.48296291314453405
vn 0.8365163037378078 -0.25881904510252074 0.48296291314453427
vn 0.6123724356957945 -0.7071067811865475 0.353553390593274
vn 0.22414386804201336 -0.9659258262890683 0.12940952255126045
vn 0.2588190451025207 0.9659258262890683 0
vn 0.7071067811865475 0.7071067811865476 0
vn 0.9659258262890683 0.25881904510252063 0
vn 0.9659258262890683 -0.2588190451025205 0
vn 0.7071067811865476 -0.7071067811865475 0
vn 0.2588190451025207 -0.9659258262890683 0
vn 0.22414386804201333 0.9659258262890683 -0.12940952255126045
vn 0.6123724356957944 0.7071067811865477 -0.3535533905932738
vn 0.836516303737808 0.25881904510252063 -0.48296291314453416
vn 0.8365163037378078 -0.2588190451025205 -0.4829629131445344
vn 0.6123724356957945 -0.7071067811865474 -0.3535533905932741
vn 0.22414386804201333 -0.9659258262890683 -0.12940952255126045
vn 0.1294095225512604 0.9659258262890683 -0.22414386804201333
vn 0.35355339059327373 0.7071067811865477 -0.6123724356957944
vn 0.48296291314453427 0.2588190451025208 -0.836516303737808
vn 0.4829629131445343 -0.2588190451025208 -0.8365163037378078
vn 0.3535533905932739 -0.7071067811865475 -0.6123724356957947
vn 0.1294095225512604 -0.9659258262890683 -0.22414386804201333
vn 1.608589638639305e-16 0.9659258262890683 -0.2588190451025207
vn 3.466028960407396e-16 0.7071067811865477 -0.7071067811865475
vn 4.0022255066204975e-16 0.2588190451025207 -0.9659258262890683
vn 4.621371947209864e-16 -0.25881904510252063 -0.9659258262890684
vn 4.0022255066204975e-16 -0.7071067811865476 -0.7071067811865476
vn 1.6085896386393055e-16 -0.9659258262890683 -0.25881904510252074
vn -0.12940952255126034 0.9659258262890683 -0.2241438680420134
vn -0.3535533905932735 0.7071067811865477 -0.6123724356957946
vn -0.48296291314453377 0.25881904510252063 -0.8365163037378082
vn -0.482962913144534 -0.25881904510252046 -0.836516303737808
vn -0.3535533905932737 -0.7071067811865474 -0.6123724356957947
vn -0.12940952255126034 -0.9659258262890683 -0.2241438680420134
vn -0.22414386804201336 0.9659258262890683 -0.1294095225512604
vn -0.6123724356957945 0.7071067811865477 -0.3535533905932735
vn -0.836516303737808 0.25881904510252074 -0.4829629131445339
vn -0.8365163037378078 -0.25881904510252074 -0.48296291314453416
vn -0.6123724356957946 -0.7071067811865476 -0.3535533905932739
vn -0.22414386804201336 -0.9659258262890683 -0.1294095225512604
vn -0.2588190451025207 0.9659258262890683 -5.361965462131021e-17
vn -0.7071067811865474 0.7071067811865477 -2.310685973604933e-16
vn -0.9659258262890683 0.2588190451025207 -2.0011127533102507e-16
vn -0.9659258262890684 -0.2588190451025206 -2.3106859736049333e-16
vn -0.7071067811865477 -0.7071067811865474 -2.00111275331025e-16
vn -0.2588190451025207 -0.9659258262890683 -5.361965462131021e-17
vn -0.22414386804201336 0.9659258262890683 0.12940952255126034
vn -0.6123724356957946 0.7071067811865477 0.3535533905932736
vn -0.8365163037378082 0.25881904510252063 0.48296291314453377
vn -0.836516303737808 -0.2588190451025205 0.48296291314453405
vn -0.6123724356957948 -0.7071067811865475 0.3535533905932738
vn -0.22414386804201336 -0.9659258262890683 0.12940952255126034
vn -0.12940952255126045 0.9659258262890683 0.22414386804201333
vn -0.3535533905932738 0.7071067811865477 0.6123724356957944
vn -0.4829629131445341 0.2588190451025208 0.8365163037378079
vn -0.48296291314453443 -0.25881904510252085 0.8365163037378079
vn -0.353553390593274 -0.7071067811865475 0.6123724356957946
vn -0.12940952255126045 -0.9659258262890683 0.22414386804201333
vn 0 0.9659258262890683 0.2588190451025207
vn 0 0.7071067811865477 0.7071067811865475
vn 0 0.25881904510252063 0.9659258262890683
vn 0 -0.2588190451025205 0.9659258262890683
vn 0 -0.7071067811865474 0.7071067811865477
vn 0 -0.9659258262890683 0.2588190451025207
usemtl m_a7c5872a-d1dd-3c21-ca6c-c339185071aa
f 3/1/1 8/2/1 2/3/1
f 3/4/2 4/5/2 9/6/2 8/7/2
f 4/8/3 5/9/3 10/10/3 9/11/3
f 5/12/4 6/13/4 11/14/4 10/15/4
f 6/16/5 7/17/5 12/18/5 11/19/5
f 12/20/6 7/21/6 1/22/6
f 8/23/7 13/24/7 2/25/7
f 8/26/8 9/27/8 14/28/8 13/29/8
f 9/30/9 10/31/9 15/32/9 14/33/9
f 10/34/10 11/35/10 16/36/10 15/37/10
f 11/38/11 12/39/11 17/40/11 16/41/11
f 17/42/12 12/43/12 1/44/12
f 13/45/13 18/46/13 2/47/13
f 13/48/14 14/49/14 19/50/14 18/51/14
f 14/52/15 15/53/15 20/54/15 19/55/15
f 15/56/16 16/57/16 21/58/16 20/59/16
f 16/60/17 17/61/17 22/62/17 21/63/17
f 22/64/18 17/65/18 1/66/18
f 18/67/19 23/68/19 2/69/19
f 18/70/20 19/71/20 24/72/20 23/73/20
f 19/74/21 20/75/21 25/76/21 24/77/21
f 20/78/22 21/79/22 26/80/22 25/81/22
f 21/82/23 22/83/23 27/84/23 26/85/23
f 27/86/24 22/87/24 1/88/24
f 23/89/25 28/90/25 2/91/25
f 23/92/26 24/93/26 29/94/26 28/95/26
f 24/96/27 25/97/27 30/98/27 29/99/27
f 25/100/28 26/101/28 31/102/28 30/103/28
f 26/104/29 27/105/29 32/106/29 31/107/29
f 32/108/30 27/109/30 1/110/30
f 28/111/31 33/112/31 2/113/31
f 28/114/32 29/115/32 34/116/32 33/117/32
f 29/118/33 30/119/33 35/120/33 34/121/33
f 30/122/34 31/123/34 36/124/34 35/125/34
f 31/126/35 32/127/35 37/128/35 36/129/35
f 37/130/36 32/131/36 1/132/36
f 33/133/37 38/134/37 2/135/37
f 33/136/38 34/137/38 39/138/38 38/139/38
f 34/140/39 35/141/39 40/142/39 39/143/39
f 35/144/40 36/145/40 41/146/40 40/147/40
f 36/148/41 37/149/41 42/150/41 41/151/41
f 42/152/42 37/153/42 1/154/42
f 38/155/43 43/156/43 2/157/43
f 38/158/44 39/159/44 44/160/44 43/161/44
f 39/162/45 40/163/45 45/164/45 44/165/45
f 40/166/46 41/167/46 46/168/46 45/169/46
f 41/170/47 42/171/47 47/172/47 46/173/47
f 47/174/48 42/175/48 1/176/48
f 43/177/49 48/178/49 2/179/49
f 43/180/50 44/181/50 49/182/50 48/183/50
f 44/184/51 45/185/51 50/186/51 49/187/51
f 45/188/52 46/189/52 51/190/52 50/191/52
f 46/192/53 47/193/53 52/194/53 51/195/53
f 52/196/54 47/197/54 1/198/54
f 48/199/55 53/200/55 2/201/55
f 48/202/56 49/203/56 54/204/56 53/205/56
f 49/206/57 50/207/57 55/208/57 54/209/57
f 50/210/58 51/211/58 56/212/58 55/213/58
f 51/214/59 52/215/59 57/216/59 56/217/59
f 57/218/60 52/219/60 1/220/60
f 53/221/61 58/222/61 2/223/61
f 53/224/62 54/225/62 59/226/62 58/227/62
f 54/228/63 55/229/63 60/230/63 59/231/63
f 55/232/64 56/233/64 61/234/64 60/235/64
f 56/236/65 57/237/65 62/238/65 61/239/65
f 62/240/66 57/241/66 1/242/66
f 58/243/67 3/244/67 2/245/67
f 58/246/68 59/247/68 4/248/68 3/249/68
f 59/250/69 60/251/69 5/252/69 4/253/69
f 60/254/70 61/255/70 6/256/70 5/257/70
f 61/258/71 62/259/71 7/260/71 6/261/71
f 7/262/72 62/263/72 1/264/72