# Made in Blockbench 5.1.3
mtllib materials.mtl

o cube
v -0.23740319525035972 0.7340377776188294 0.5316270410945776
v -0.44812496616238745 0.7277830144286231 0.3972499105956224
v -0.49509714102897634 0.8205765084420138 0.4665895259470896
v -0.2843753701169485 0.8268312716322201 0.600966656446045
v -0.3577594010580398 0.5248042514879557 0.7301011332739357
v -0.40473157592462866 0.6175977455013464 0.7994407486254029
v -0.5684811719700675 0.5185494882977495 0.5957240027749803
v -0.6154533468366565 0.6113429823111401 0.6650636181264475
vt 0.46875 0.7421875
vt 0.4375 0.7421875
vt 0.4375 0.7265625
vt 0.46875 0.7265625
vt 0.515625 0.703125
vt 0.515625 0.7421875
vt 0.5 0.7421875
vt 0.5 0.703125
vt 0.46875 0.703125
vt 0.5 0.703125
vt 0.5 0.71875
vt 0.46875 0.71875
vt 0.5 0.7421875
vt 0.5 0.703125
vt 0.515625 0.703125
vt 0.515625 0.7421875
vt 0.46875 0.703125
vt 0.5 0.703125
vt 0.5 0.7421875
vt 0.46875 0.7421875
vt 0.46875 0.7421875
vt 0.5 0.7421875
vt 0.5 0.703125
vt 0.46875 0.703125
vn 0.38513985858457667 0.6695472836187958 -0.635117094973946
vn 0.8428870836481117 0.025019052760824407 0.5375085219958212
vn -0.3851398585845766 -0.669547283618796 0.6351170949739458
vn -0.8428870836481113 -0.025019052760825392 -0.5375085219958218
vn -0.3757773989327114 0.7423479521071251 0.5547169228117379
vn 0.37577739893271134 -0.7423479521071252 -0.5547169228117377
usemtl m_f51bd9f0-0528-46b3-9e4c-599d0dc368a9
f 1/1/1 2/2/1 3/3/1 4/4/1
f 5/5/2 1/6/2 4/7/2 6/8/2
f 7/9/3 5/10/3 6/11/3 8/12/3
f 2/13/4 7/14/4 8/15/4 3/16/4
f 8/17/5 6/18/5 4/19/5 3/20/5
f 2/21/6 1/22/6 5/23/6 7/24/6
o cube
v -0.16409941730099672 0.4196014118454152 0.2720444819214549
v -0.33392074003447314 0.41407600603924993 0.1927574196998692
v -0.30090480866125474 0.5793161808587292 0.11052675083972388
v -0.1310834859277783 0.5848415866648945 0.18981381306130957
v -0.33279339216868953 0.6259583898387708 0.6189816383010909
v -0.29977746079547113 0.7911985646582501 0.5367509694409455
v -0.5026147149021659 0.6204329840326055 0.539694576079505
v -0.4695987835289477 0.7856731588520848 0.4574639072193597
vt 0.4375 0.7421875
vt 0.46875 0.7421875
vt 0.46875 0.7734375
vt 0.4375 0.7734375
vt 0.46875 0.6796875
vt 0.46875 0.7421875
vt 0.4375 0.7421875
vt 0.4375 0.6796875
vt 0.4375 0.7421875
vt 0.46875 0.7421875
vt 0.46875 0.7734375
vt 0.4375 0.7734375
vt 0.46875 0.6796875
vt 0.46875 0.7421875
vt 0.4375 0.7421875
vt 0.4375 0.6796875
vt 0.46875 0.7421875
vt 0.4375 0.7421875
vt 0.4375 0.6796875
vt 0.46875 0.6796875
vt 0.46875 0.6796875
vt 0.4375 0.6796875
vt 0.4375 0.7421875
vt 0.46875 0.7421875
vn 0.38558622826901223 -0.471673092556241 -0.7929992145820253
vn 0.905713721245208 0.02946883096621513 0.42286433184845734
vn -0.38558622826901273 0.4716730925562412 0.792999214582025
vn -0.9057137212452081 -0.02946883096621541 -0.42286433184845734
vn 0.1760849673238315 0.8812809323705557 -0.43856356725410905
vn -0.1760849673238318 -0.8812809323705557 0.4385635672541088
usemtl m_f51bd9f0-0528-46b3-9e4c-599d0dc368a9
f 9/25/7 10/26/7 11/27/7 12/28/7
f 13/29/8 9/30/8 12/31/8 14/32/8
f 15/33/9 13/34/9 14/35/9 16/36/9
f 10/37/10 15/38/10 16/39/10 11/40/10
f 16/41/11 14/42/11 12/43/11 11/44/11
f 10/45/12 9/46/12 13/47/12 15/48/12
o Лапа3
v -0.2693802201326497 0.21467079930803745 -0.12631256143870806
v -0.2317864891932078 0.13626936443523063 -0.21611749673704167
v -0.13586763815821684 0.212078512879237 -0.24214723028008478
v -0.17346136909765875 0.2904799477520438 -0.15234229498175117
v -0.5171467357773304 0.4284628788397068 -0.41667604133040964
v -0.4212278847423394 0.5042720272837131 -0.44270577487345275
v -0.47955300483788843 0.3500614439669 -0.5064809766287433
v -0.3836341538028975 0.4258705924109063 -0.5325107101717863
vt 0.234375 0.7578125
vt 0.25 0.7578125
vt 0.25 0.7734375
vt 0.234375 0.7734375
vt 0.1171875 0.75
vt 0.171875 0.75
vt 0.171875 0.765625
vt 0.1171875 0.765625
vt 0.234375 0.7421875
vt 0.25 0.7421875
vt 0.25 0.7578125
vt 0.234375 0.7578125
vt 0.234375 0.828125
vt 0.2890625 0.828125
vt 0.2890625 0.84375
vt 0.234375 0.84375
vt 0.1875 0.765625
vt 0.171875 0.765625
vt 0.171875 0.7109375
vt 0.1875 0.7109375
vt 0.25 0.7734375
vt 0.234375 0.7734375
vt 0.234375 0.828125
vt 0.25 0.828125
vn 0.5663234643306988 -0.4886676103581013 0.663687954038175
vn -0.300749847515535 0.6272114789824544 0.7184394823866688
vn -0.5663234643306985 0.48866761035810136 -0.6636879540381754
vn 0.3007498475155354 -0.6272114789824541 -0.7184394823866689
vn 0.7673508082799277 0.6064731875520508 -0.20823786834434488
vn -0.7673508082799277 -0.6064731875520509 0.20823786834434513
usemtl m_f51bd9f0-0528-46b3-9e4c-599d0dc368a9
f 17/49/13 18/50/13 19/51/13 20/52/13
f 21/53/14 17/54/14 20/55/14 22/56/14
f 23/57/15 21/58/15 22/59/15 24/60/15
f 18/61/16 23/62/16 24/63/16 19/64/16
f 24/65/17 22/66/17 20/67/17 19/68/17
f 18/69/18 17/70/18 21/71/18 23/72/18
o Лапа3
v -0.5577982303282866 0.03942370057182626 -0.4954637637588132
v -0.5371864796362711 0.03265996263626053 -0.47296998500669624
v -0.4823522982425099 0.39877096530623557 -0.41312897670251014
v -0.5029640489345254 0.4055347032418013 -0.43562275545462714
v -0.465638563227021 0.03942370057182626 -0.5799125397107707
v -0.41080438183325985 0.4055347032418013 -0.5200715314065847
v -0.44502681253500553 0.03265996263626053 -0.5574187609586537
v -0.39019263114124436 0.39877096530623557 -0.4975777526544677
vt 0.21875 0.71875
vt 0.2265625 0.71875
vt 0.2265625 0.765625
vt 0.21875 0.765625
vt 0.1875 0.71875
vt 0.203125 0.71875
vt 0.203125 0.765625
vt 0.1875 0.765625
vt 0.2265625 0.71875
vt 0.234375 0.71875
vt 0.234375 0.765625
vt 0.2265625 0.765625
vt 0.203125 0.71875
vt 0.21875 0.71875
vt 0.21875 0.765625
vt 0.203125 0.765625
vt 0.125 0.75
vt 0.1171875 0.75
vt 0.1171875 0.734375
vt 0.125 0.734375
vt 0.1328125 0.734375
vt 0.125 0.734375
vt 0.125 0.75
vt 0.1328125 0.75
vn -0.7372773368101241 -5.551115123125784e-17 0.6755902076156601
vn -0.6595760221444957 0.21643961393810313 -0.7198009200677424
vn 0.737277336810125 -2.9605947323337477e-16 -0.6755902076156592
vn 0.6595760221444955 -0.21643961393810315 0.7198009200677427
vn 0.14622448371669639 0.9762960071199334 0.15957602214449607
vn -0.14622448371669658 -0.9762960071199334 -0.1595760221444963
usemtl m_f51bd9f0-0528-46b3-9e4c-599d0dc368a9
f 25/73/19 26/74/19 27/75/19 28/76/19
f 29/77/20 25/78/20 28/79/20 30/80/20
f 31/81/21 29/82/21 30/83/21 32/84/21
f 26/85/22 31/86/22 32/87/22 27/88/22
f 32/89/23 30/90/23 28/91/23 27/92/23
f 26/93/24 25/94/24 29/95/24 31/96/24
o Лапа3
v -0.5464481581789608 0.04093773092511929 -0.4864170059787851
v -0.4542884910776952 0.04093773092511928 -0.5708657819307427
v -0.4542884910776952 0.04093773092511928 -0.5708657819307427
v -0.5464481581789608 0.04093773092511929 -0.4864170059787851
v -0.6301744631458372 0.024621956897612866 -0.5777882343522558
v -0.6301744631458372 0.024621956897612866 -0.5777882343522558
v -0.5380147960445717 0.024621956897612852 -0.6622370103042133
v -0.5380147960445717 0.024621956897612852 -0.6622370103042133
vt 0.03125 0.90625
vt 0.015625 0.90625
vt 0.015625 0.90625
vt 0.03125 0.90625
vt 0.046875 0.90625
vt 0.03125 0.90625
vt 0.03125 0.90625
vt 0.046875 0.90625
vt 0.0625 0.90625
vt 0.046875 0.90625
vt 0.046875 0.90625
vt 0.0625 0.90625
vt 0.015625 0.90625
vt 0 0.90625
vt 0 0.90625
vt 0.015625 0.90625
vt 0.015625 0.921875
vt 0.03125 0.921875
vt 0.03125 0.90625
vt 0.015625 0.90625
vt 0.03125 0.90625
vt 0.046875 0.90625
vt 0.046875 0.921875
vt 0.03125 0.921875
vn 0 0 0
vn 0 0 0
vn 0 0 0
vn 0 0 0
vn -0.08818221730122604 0.9914448613738106 -0.09623400338396595
vn 0.08818221730122605 -0.9914448613738106 0.09623400338396595
usemtl m_f51bd9f0-0528-46b3-9e4c-599d0dc368a9
f 33/97/25 34/98/25 35/99/25 36/100/25
f 37/101/26 33/102/26 36/103/26 38/104/26
f 39/105/27 37/106/27 38/107/27 40/108/27
f 34/109/28 39/110/28 40/111/28 35/112/28
f 40/113/29 38/114/29 36/115/29 35/116/29
f 34/117/30 33/118/30 37/119/30 39/120/30
o Лапа4
v -0.23260061610695856 0.12726504110133718 0.062499999999999944
v -0.2326006161069586 0.12726504110133718 -0.06250000000000006
v -0.1565054374808685 0.22643420863774155 -0.06250000000000007
v -0.15650543748086848 0.22643420863774155 0.062499999999999924
v -0.579692702484374 0.3935981662926525 0.06250000000000003
v -0.5035975238582839 0.49276733382905685 0.0625
v -0.579692702484374 0.3935981662926525 -0.06249999999999998
v -0.5035975238582839 0.49276733382905685 -0.06249999999999999
vt 0.25 0.7578125
vt 0.234375 0.7578125
vt 0.234375 0.7734375
vt 0.25 0.7734375
vt 0.234375 0.828125
vt 0.2890625 0.828125
vt 0.2890625 0.84375
vt 0.234375 0.84375
vt 0.234375 0.7578125
vt 0.25 0.7578125
vt 0.25 0.7421875
vt 0.234375 0.7421875
vt 0.1171875 0.75
vt 0.171875 0.75
vt 0.171875 0.765625
vt 0.1171875 0.765625
vt 0.1875 0.765625
vt 0.171875 0.765625
vt 0.171875 0.7109375
vt 0.1875 0.7109375
vt 0.25 0.828125
vt 0.234375 0.828125
vt 0.234375 0.7734375
vt 0.25 0.7734375
vn 0.7933533402912352 -0.6087614290087208 -1.7615982901092124e-16
vn 2.523732824005972e-16 1.625799376004331e-17 1
vn -0.7933533402912352 0.6087614290087207 0
vn -2.0599738972178616e-16 1.812680699284133e-17 -1
vn 0.6087614290087207 0.7933533402912353 0
vn -0.6087614290087207 -0.7933533402912353 1.3517219099783887e-16
usemtl m_f51bd9f0-0528-46b3-9e4c-599d0dc368a9
f 41/121/31 42/122/31 43/123/31 44/124/31
f 45/125/32 41/126/32 44/127/32 46/128/32
f 47/129/33 45/130/33 46/131/33 48/132/33
f 42/133/34 47/134/34 48/135/34 43/136/34
f 48/137/35 46/138/35 44/139/35 43/140/35
f 42/141/36 41/142/36 45/143/36 47/144/36
o Лапа4
v -0.6143545416416275 0.013130786330097566 0.06250000000000006
v -0.5833718897236959 0.009051842823220968 0.06250000000000004
v -0.5344245676411767 0.3808436658383999 0.0625
v -0.5654072195591083 0.3849226093452765 0.06250000000000001
v -0.6143545416416276 0.013130786330097566 -0.062499999999999924
v -0.5654072195591083 0.3849226093452765 -0.06249999999999997
v -0.583371889723696 0.009051842823220968 -0.06249999999999994
v -0.5344245676411767 0.3808436658383999 -0.06249999999999998
vt 0.2265625 0.71875
vt 0.21875 0.71875
vt 0.21875 0.765625
vt 0.2265625 0.765625
vt 0.203125 0.71875
vt 0.1875 0.71875
vt 0.1875 0.765625
vt 0.203125 0.765625
vt 0.234375 0.71875
vt 0.2265625 0.71875
vt 0.2265625 0.765625
vt 0.234375 0.765625
vt 0.21875 0.71875
vt 0.203125 0.71875
vt 0.203125 0.765625
vt 0.21875 0.765625
vt 0.1171875 0.734375
vt 0.125 0.734375
vt 0.125 0.75
vt 0.1171875 0.75
vt 0.1328125 0.734375
vt 0.125 0.734375
vt 0.125 0.75
vt 0.1328125 0.75
vn 4.547812834893351e-16 5.210721770661022e-17 1
vn -0.9914448613738105 0.1305261922200511 8.805799301948008e-16
vn -4.571965032213243e-16 -7.045263291900177e-17 -1
vn 0.9914448613738105 -0.1305261922200514 -8.805799301948008e-16
vn 0.13052619222005107 0.9914448613738105 0
vn -0.1305261922200511 -0.9914448613738106 1.1796119636642286e-16
usemtl m_f51bd9f0-0528-46b3-9e4c-599d0dc368a9
f 49/145/37 50/146/37 51/147/37 52/148/37
f 53/149/38 49/150/38 52/151/38 54/152/38
f 55/153/39 53/154/39 54/155/39 56/156/39
f 50/157/40 55/158/40 56/159/40 51/160/40
f 56/161/41 54/162/41 52/163/41 51/164/41
f 50/165/42 49/166/42 53/167/42 55/168/42
o Лапа4
v -0.6006407620773961 0.013873364393006644 0.06250000000000003
v -0.6006407620773961 0.013873364393006644 -0.06249999999999997
v -0.6006407620773961 0.013873364393006644 -0.06249999999999997
v -0.6006407620773961 0.013873364393006644 0.06250000000000003
v -0.7251650993388643 0.0029788965495493713 0.06250000000000006
v -0.7251650993388643 0.0029788965495493713 0.06250000000000006
v -0.7251650993388643 0.0029788965495493713 -0.06249999999999995
v -0.7251650993388643 0.0029788965495493713 -0.06249999999999995
vt 0.03125 0.90625
vt 0.015625 0.90625
vt 0.015625 0.90625
vt 0.03125 0.90625
vt 0.046875 0.90625
vt 0.03125 0.90625
vt 0.03125 0.90625
vt 0.046875 0.90625
vt 0.0625 0.90625
vt 0.046875 0.90625
vt 0.046875 0.90625
vt 0.0625 0.90625
vt 0.015625 0.90625
vt 0 0.90625
vt 0 0.90625
vt 0.015625 0.90625
vt 0.015625 0.921875
vt 0.03125 0.921875
vt 0.03125 0.90625
vt 0.015625 0.90625
vt 0.03125 0.90625
vt 0.046875 0.90625
vt 0.046875 0.921875
vt 0.03125 0.921875
vn 0 0 0
vn 0 0 0
vn 0 0 0
vn 0 0 0
vn -0.0871557427476582 0.9961946980917455 0
vn 0.0871557427476582 -0.9961946980917455 0
usemtl m_f51bd9f0-0528-46b3-9e4c-599d0dc368a9
f 57/169/43 58/170/43 59/171/43 60/172/43
f 61/173/44 57/174/44 60/175/44 62/176/44
f 63/177/45 61/178/45 62/179/45 64/180/45
f 58/181/46 63/182/46 64/183/46 59/184/46
f 64/185/47 62/186/47 60/187/47 59/188/47
f 58/189/48 57/190/48 61/191/48 63/192/48
o cube
v -0.08565329030424783 0.20175733700832948 0.2558540819226218
v -0.18062196971414146 0.12335590213552268 0.23442594758885674
v -0.22589967016244894 0.20175731979178022 0.14823924587912418
v -0.13093099075255532 0.280158754664587 0.16966738021288927
v -0.3218936916380666 0.403772313711377 0.5637285238064902
v -0.36717139208637406 0.48217373136763453 0.47754182209675766
v -0.4168623710479602 0.3253708788385702 0.5423003894727251
v -0.4621400714962677 0.4037722964948277 0.45611368776299255
vt 0.234375 0.7734375
vt 0.25 0.7734375
vt 0.25 0.7578125
vt 0.234375 0.7578125
vt 0.171875 0.75
vt 0.1171875 0.75
vt 0.1171875 0.765625
vt 0.171875 0.765625
vt 0.234375 0.7578125
vt 0.25 0.7578125
vt 0.25 0.7421875
vt 0.234375 0.7421875
vt 0.2890625 0.828125
vt 0.234375 0.828125
vt 0.234375 0.84375
vt 0.2890625 0.84375
vt 0.171875 0.765625
vt 0.1875 0.765625
vt 0.1875 0.7109375
vt 0.171875 0.7109375
vt 0.234375 0.828125
vt 0.25 0.828125
vt 0.25 0.7734375
vt 0.234375 0.7734375
vn 0.5399780601915858 -0.4617485181783943 -0.7037130100202704
vn 0.7597494352791491 0.6272114789824542 0.1714250746701206
vn -0.539978060191586 0.4617485181783941 0.7037130100202705
vn -0.7597494352791491 -0.6272114789824544 -0.1714250746701205
vn -0.36222160358645983 0.6272113412500602 -0.6894936136778602
vn 0.3622216035864598 -0.6272113412500602 0.6894936136778602
usemtl m_f51bd9f0-0528-46b3-9e4c-599d0dc368a9
f 65/193/49 66/194/49 67/195/49 68/196/49
f 69/197/50 65/198/50 68/199/50 70/200/50
f 71/201/51 69/202/51 70/203/51 72/204/51
f 66/205/52 71/206/52 72/207/52 67/208/52
f 72/209/53 70/210/53 68/211/53 67/212/53
f 66/213/54 65/214/54 69/215/54 71/216/54
o cube
v -0.39011487417136304 0.027487031734271306 0.6101098754235837
v -0.3715420194079305 0.020723293798705578 0.5859052598497839
v -0.3221319861547848 0.38683429646868056 0.5215128508413566
v -0.34070484091821723 0.3935980344042463 0.5457174664151565
v -0.4892840417077674 0.027487031734271306 0.5340146967974936
v -0.43987400845462166 0.3935980344042463 0.46962228778906634
v -0.47071118694433495 0.020723293798705578 0.5098100812236938
v -0.42130115369118915 0.38683429646868056 0.4454176722152665
vt 0.2265625 0.71875
vt 0.21875 0.71875
vt 0.21875 0.765625
vt 0.2265625 0.765625
vt 0.203125 0.71875
vt 0.1875 0.71875
vt 0.1875 0.765625
vt 0.203125 0.765625
vt 0.2265625 0.71875
vt 0.234375 0.71875
vt 0.234375 0.765625
vt 0.2265625 0.765625
vt 0.21875 0.71875
vt 0.203125 0.71875
vt 0.203125 0.765625
vt 0.21875 0.765625
vt 0.125 0.734375
vt 0.1328125 0.734375
vt 0.1328125 0.75
vt 0.125 0.75
vt 0.1171875 0.734375
vt 0.125 0.734375
vt 0.125 0.75
vt 0.1171875 0.75
vn 0.7933533402912344 4.810966440042341e-16 0.6087614290087218
vn -0.5943313524298393 0.21643961393810301 0.7745476983615943
vn -0.7933533402912353 -9.251858538542974e-18 -0.6087614290087207
vn 0.5943313524298389 -0.21643961393810301 -0.7745476983615944
vn 0.13176008867505556 0.9762960071199334 -0.17171309068913945
vn -0.1317600886750556 -0.9762960071199334 0.17171309068913937
usemtl m_f51bd9f0-0528-46b3-9e4c-599d0dc368a9
f 73/217/55 74/218/55 75/219/55 76/220/55
f 77/221/56 73/222/56 76/223/56 78/224/56
f 79/225/57 77/226/57 78/227/57 80/228/57
f 74/229/58 79/230/58 80/231/58 75/232/58
f 80/233/59 78/234/59 76/235/59 75/236/59
f 74/237/60 73/238/60 77/239/60 79/240/60
o cube
v -0.38330508918154405 0.027471954642679763 0.6012351908412585
v -0.48247425671794847 0.027471954642679763 0.5251400122151685
v -0.48247425671794847 0.027471954642679763 0.5251400122151685
v -0.38330508918154405 0.027471954642679763 0.6012351908412585
v -0.4587492630057033 0.011156180615173317 0.6995559524019451
v -0.4587492630057033 0.011156180615173317 0.6995559524019451
v -0.5579184305421077 0.011156180615173317 0.6234607737758551
v -0.5579184305421077 0.011156180615173317 0.6234607737758551
vt 0.03125 0.90625
vt 0.015625 0.90625
vt 0.015625 0.90625
vt 0.03125 0.90625
vt 0.046875 0.90625
vt 0.03125 0.90625
vt 0.03125 0.90625
vt 0.046875 0.90625
vt 0.0625 0.90625
vt 0.046875 0.90625
vt 0.046875 0.90625
vt 0.0625 0.90625
vt 0.015625 0.90625
vt 0 0.90625
vt 0 0.90625
vt 0.015625 0.90625
vt 0.015625 0.921875
vt 0.03125 0.921875
vt 0.03125 0.90625
vt 0.015625 0.90625
vt 0.03125 0.90625
vt 0.046875 0.90625
vt 0.046875 0.921875
vt 0.03125 0.921875
vn 0 0 0
vn 0 0 0
vn 0 0 0
vn 0 0 0
vn -0.07945931129894557 0.9914448613738104 0.10355339059327376
vn 0.07945931129894554 -0.9914448613738104 -0.10355339059327379
usemtl m_f51bd9f0-0528-46b3-9e4c-599d0dc368a9
f 81/241/61 82/242/61 83/243/61 84/244/61
f 85/245/62 81/246/62 84/247/62 86/248/62
f 87/249/63 85/250/63 86/251/63 88/252/63
f 82/253/64 87/254/64 88/255/64 83/256/64
f 88/257/65 86/258/65 84/259/65 83/260/65
f 82/261/66 81/262/66 85/263/66 87/264/66
o Лапа3
v 0.2317864891932078 0.13626936443523063 -0.21611749673704167
v 0.2693802201326497 0.21467079930803745 -0.12631256143870806
v 0.17346136909765875 0.2904799477520438 -0.15234229498175117
v 0.13586763815821684 0.212078512879237 -0.24214723028008478
v 0.47955300483788843 0.3500614439669 -0.5064809766287433
v 0.3836341538028975 0.4258705924109063 -0.5325107101717863
v 0.5171467357773304 0.4284628788397068 -0.41667604133040964
v 0.4212278847423394 0.5042720272837131 -0.44270577487345275
vt 0.234375 0.7734375
vt 0.25 0.7734375
vt 0.25 0.7578125
vt 0.234375 0.7578125
vt 0.234375 0.828125
vt 0.2890625 0.828125
vt 0.2890625 0.84375
vt 0.234375 0.84375
vt 0.25 0.7578125
vt 0.234375 0.7578125
vt 0.234375 0.7421875
vt 0.25 0.7421875
vt 0.1171875 0.75
vt 0.171875 0.75
vt 0.171875 0.765625
vt 0.1171875 0.765625
vt 0.1875 0.765625
vt 0.171875 0.765625
vt 0.171875 0.7109375
vt 0.1875 0.7109375
vt 0.25 0.828125
vt 0.234375 0.828125
vt 0.234375 0.7734375
vt 0.25 0.7734375
vn -0.5663234643306987 -0.48866761035810136 0.663687954038175
vn -0.3007498475155353 -0.6272114789824543 -0.7184394823866688
vn 0.5663234643306985 0.4886676103581013 -0.6636879540381754
vn 0.300749847515535 0.6272114789824544 0.7184394823866689
vn -0.7673508082799276 0.6064731875520509 -0.20823786834434493
vn 0.7673508082799277 -0.6064731875520506 0.2082378683443449
usemtl m_f51bd9f0-0528-46b3-9e4c-599d0dc368a9
f 89/265/67 90/266/67 91/267/67 92/268/67
f 93/269/68 89/270/68 92/271/68 94/272/68
f 95/273/69 93/274/69 94/275/69 96/276/69
f 90/277/70 95/278/70 96/279/70 91/280/70
f 96/281/71 94/282/71 92/283/71 91/284/71
f 90/285/72 89/286/72 93/287/72 95/288/72
o Лапа3
v 0.5371864796362711 0.03265996263626053 -0.47296998500669624
v 0.5577982303282866 0.03942370057182626 -0.4954637637588132
v 0.5029640489345254 0.4055347032418013 -0.43562275545462714
v 0.4823522982425099 0.39877096530623557 -0.41312897670251014
v 0.44502681253500553 0.03265996263626053 -0.5574187609586537
v 0.39019263114124436 0.39877096530623557 -0.4975777526544677
v 0.465638563227021 0.03942370057182626 -0.5799125397107707
v 0.41080438183325985 0.4055347032418013 -0.5200715314065847
vt 0.21875 0.71875
vt 0.2265625 0.71875
vt 0.2265625 0.765625
vt 0.21875 0.765625
vt 0.203125 0.71875
vt 0.21875 0.71875
vt 0.21875 0.765625
vt 0.203125 0.765625
vt 0.234375 0.71875
vt 0.2265625 0.71875
vt 0.2265625 0.765625
vt 0.234375 0.765625
vt 0.1875 0.71875
vt 0.203125 0.71875
vt 0.203125 0.765625
vt 0.1875 0.765625
vt 0.1171875 0.734375
vt 0.125 0.734375
vt 0.125 0.75
vt 0.1171875 0.75
vt 0.125 0.734375
vt 0.1328125 0.734375
vt 0.1328125 0.75
vt 0.125 0.75
vn 0.7372773368101242 3.7007434154171895e-17 0.6755902076156601
vn -0.6595760221444955 -0.21643961393810326 0.7198009200677427
vn -0.737277336810125 -2.9605947323337477e-16 -0.6755902076156594
vn 0.6595760221444957 0.21643961393810313 -0.7198009200677424
vn -0.1462244837166964 0.9762960071199334 0.15957602214449607
vn 0.14622448371669652 -0.9762960071199333 -0.15957602214449632
usemtl m_f51bd9f0-0528-46b3-9e4c-599d0dc368a9
f 97/289/73 98/290/73 99/291/73 100/292/73
f 101/293/74 97/294/74 100/295/74 102/296/74
f 103/297/75 101/298/75 102/299/75 104/300/75
f 98/301/76 103/302/76 104/303/76 99/304/76
f 104/305/77 102/306/77 100/307/77 99/308/77
f 98/309/78 97/310/78 101/311/78 103/312/78
o Лапа3
v 0.4542884910776952 0.04093773092511928 -0.5708657819307427
v 0.5464481581789608 0.04093773092511929 -0.4864170059787851
v 0.5464481581789608 0.04093773092511929 -0.4864170059787851
v 0.4542884910776952 0.04093773092511928 -0.5708657819307427
v 0.5380147960445717 0.024621956897612852 -0.6622370103042133
v 0.5380147960445717 0.024621956897612852 -0.6622370103042133
v 0.6301744631458372 0.024621956897612866 -0.5777882343522558
v 0.6301744631458372 0.024621956897612866 -0.5777882343522558
vt 0.015625 0.90625
vt 0.03125 0.90625
vt 0.03125 0.90625
vt 0.015625 0.90625
vt 0 0.90625
vt 0.015625 0.90625
vt 0.015625 0.90625
vt 0 0.90625
vt 0.046875 0.90625
vt 0.0625 0.90625
vt 0.0625 0.90625
vt 0.046875 0.90625
vt 0.03125 0.90625
vt 0.046875 0.90625
vt 0.046875 0.90625
vt 0.03125 0.90625
vt 0.03125 0.921875
vt 0.015625 0.921875
vt 0.015625 0.90625
vt 0.03125 0.90625
vt 0.046875 0.90625
vt 0.03125 0.90625
vt 0.03125 0.921875
vt 0.046875 0.921875
vn 0 0 0
vn 0 0 0
vn 0 0 0
vn 0 0 0
vn 0.08818221730122605 0.9914448613738106 -0.09623400338396595
vn -0.08818221730122604 -0.9914448613738106 0.09623400338396595
usemtl m_f51bd9f0-0528-46b3-9e4c-599d0dc368a9
f 105/313/79 106/314/79 107/315/79 108/316/79
f 109/317/80 105/318/80 108/319/80 110/320/80
f 111/321/81 109/322/81 110/323/81 112/324/81
f 106/325/82 111/326/82 112/327/82 107/328/82
f 112/329/83 110/330/83 108/331/83 107/332/83
f 106/333/84 105/334/84 109/335/84 111/336/84
o Лапа4
v 0.2326006161069586 0.12726504110133718 -0.06250000000000006
v 0.23260061610695856 0.12726504110133718 0.062499999999999944
v 0.15650543748086848 0.22643420863774155 0.062499999999999924
v 0.1565054374808685 0.22643420863774155 -0.06250000000000007
v 0.579692702484374 0.3935981662926525 -0.06249999999999998
v 0.5035975238582839 0.49276733382905685 -0.06249999999999999
v 0.579692702484374 0.3935981662926525 0.06250000000000003
v 0.5035975238582839 0.49276733382905685 0.0625
vt 0.234375 0.7578125
vt 0.25 0.7578125
vt 0.25 0.7734375
vt 0.234375 0.7734375
vt 0.171875 0.75
vt 0.1171875 0.75
vt 0.1171875 0.765625
vt 0.171875 0.765625
vt 0.234375 0.7421875
vt 0.25 0.7421875
vt 0.25 0.7578125
vt 0.234375 0.7578125
vt 0.2890625 0.828125
vt 0.234375 0.828125
vt 0.234375 0.84375
vt 0.2890625 0.84375
vt 0.171875 0.765625
vt 0.1875 0.765625
vt 0.1875 0.7109375
vt 0.171875 0.7109375
vt 0.234375 0.828125
vt 0.25 0.828125
vt 0.25 0.7734375
vt 0.234375 0.7734375
vn -0.7933533402912352 -0.6087614290087208 -1.7615982901092124e-16
vn 2.0599738972178609e-16 1.8126806992841327e-17 -1
vn 0.7933533402912352 0.6087614290087207 0
vn -2.861663301500571e-16 6.02979510127737e-17 1
vn -0.6087614290087208 0.7933533402912353 0
vn 0.6087614290087208 -0.7933533402912353 1.351721909978389e-16
usemtl m_f51bd9f0-0528-46b3-9e4c-599d0dc368a9
f 113/337/85 114/338/85 115/339/85 116/340/85
f 117/341/86 113/342/86 116/343/86 118/344/86
f 119/345/87 117/346/87 118/347/87 120/348/87
f 114/349/88 119/350/88 120/351/88 115/352/88
f 120/353/89 118/354/89 116/355/89 115/356/89
f 114/357/90 113/358/90 117/359/90 119/360/90
o Лапа4
v 0.5833718897236959 0.009051842823220968 0.06250000000000004
v 0.6143545416416275 0.013130786330097566 0.06250000000000006
v 0.5654072195591083 0.3849226093452765 0.06250000000000001
v 0.5344245676411767 0.3808436658383999 0.0625
v 0.583371889723696 0.009051842823220968 -0.06249999999999994
v 0.5344245676411767 0.3808436658383999 -0.06249999999999998
v 0.6143545416416276 0.013130786330097566 -0.062499999999999924
v 0.5654072195591083 0.3849226093452765 -0.06249999999999997
vt 0.21875 0.71875
vt 0.2265625 0.71875
vt 0.2265625 0.765625
vt 0.21875 0.765625
vt 0.203125 0.71875
vt 0.21875 0.71875
vt 0.21875 0.765625
vt 0.203125 0.765625
vt 0.2265625 0.71875
vt 0.234375 0.71875
vt 0.234375 0.765625
vt 0.2265625 0.765625
vt 0.1875 0.71875
vt 0.203125 0.71875
vt 0.203125 0.765625
vt 0.1875 0.765625
vt 0.125 0.734375
vt 0.1171875 0.734375
vt 0.1171875 0.75
vt 0.125 0.75
vt 0.125 0.734375
vt 0.1328125 0.734375
vt 0.1328125 0.75
vt 0.125 0.75
vn -4.547812834893351e-16 5.210721770661022e-17 1
vn -0.9914448613738105 -0.1305261922200511 -8.805799301948008e-16
vn 4.54781283489335e-16 -5.2107217706610085e-17 -1
vn 0.9914448613738105 0.1305261922200514 8.805799301948008e-16
vn -0.13052619222005107 0.9914448613738105 0
vn 0.13052619222005107 -0.9914448613738106 1.1102230246251563e-16
usemtl m_f51bd9f0-0528-46b3-9e4c-599d0dc368a9
f 121/361/91 122/362/91 123/363/91 124/364/91
f 125/365/92 121/366/92 124/367/92 126/368/92
f 127/369/93 125/370/93 126/371/93 128/372/93
f 122/373/94 127/374/94 128/375/94 123/376/94
f 128/377/95 126/378/95 124/379/95 123/380/95
f 122/381/96 121/382/96 125/383/96 127/384/96
o Лапа4
v 0.6006407620773961 0.013873364393006644 -0.06249999999999997
v 0.6006407620773961 0.013873364393006644 0.06250000000000003
v 0.6006407620773961 0.013873364393006644 0.06250000000000003
v 0.6006407620773961 0.013873364393006644 -0.06249999999999997
v 0.7251650993388643 0.0029788965495493713 -0.06249999999999995
v 0.7251650993388643 0.0029788965495493713 -0.06249999999999995
v 0.7251650993388643 0.0029788965495493713 0.06250000000000006
v 0.7251650993388643 0.0029788965495493713 0.06250000000000006
vt 0.015625 0.90625
vt 0.03125 0.90625
vt 0.03125 0.90625
vt 0.015625 0.90625
vt 0 0.90625
vt 0.015625 0.90625
vt 0.015625 0.90625
vt 0 0.90625
vt 0.046875 0.90625
vt 0.0625 0.90625
vt 0.0625 0.90625
vt 0.046875 0.90625
vt 0.03125 0.90625
vt 0.046875 0.90625
vt 0.046875 0.90625
vt 0.03125 0.90625
vt 0.03125 0.921875
vt 0.015625 0.921875
vt 0.015625 0.90625
vt 0.03125 0.90625
vt 0.046875 0.90625
vt 0.03125 0.90625
vt 0.03125 0.921875
vt 0.046875 0.921875
vn 0 0 0
vn 0 0 0
vn 0 0 0
vn 0 0 0
vn 0.0871557427476582 0.9961946980917455 0
vn -0.0871557427476582 -0.9961946980917455 0
usemtl m_f51bd9f0-0528-46b3-9e4c-599d0dc368a9
f 129/385/97 130/386/97 131/387/97 132/388/97
f 133/389/98 129/390/98 132/391/98 134/392/98
f 135/393/99 133/394/99 134/395/99 136/396/99
f 130/397/100 135/398/100 136/399/100 131/400/100
f 136/401/101 134/402/101 132/403/101 131/404/101
f 130/405/102 129/406/102 133/407/102 135/408/102
o cube
v 0.18062196971414146 0.12335590213552268 0.23442594758885674
v 0.08565329030424783 0.20175733700832948 0.2558540819226218
v 0.13093099075255532 0.280158754664587 0.16966738021288927
v 0.22589967016244894 0.20175731979178022 0.14823924587912418
v 0.4168623710479602 0.3253708788385702 0.5423003894727251
v 0.4621400714962677 0.4037722964948277 0.45611368776299255
v 0.3218936916380666 0.403772313711377 0.5637285238064902
v 0.36717139208637406 0.48217373136763453 0.47754182209675766
vt 0.25 0.7734375
vt 0.234375 0.7734375
vt 0.234375 0.7578125
vt 0.25 0.7578125
vt 0.234375 0.828125
vt 0.2890625 0.828125
vt 0.2890625 0.84375
vt 0.234375 0.84375
vt 0.25 0.7578125
vt 0.234375 0.7578125
vt 0.234375 0.7421875
vt 0.25 0.7421875
vt 0.1171875 0.75
vt 0.171875 0.75
vt 0.171875 0.765625
vt 0.1171875 0.765625
vt 0.1875 0.765625
vt 0.171875 0.765625
vt 0.171875 0.7109375
vt 0.1875 0.7109375
vt 0.25 0.828125
vt 0.234375 0.828125
vt 0.234375 0.7734375
vt 0.25 0.7734375
vn -0.5399780601915858 -0.46174851817839424 -0.7037130100202705
vn 0.7597494352791492 -0.6272114789824542 -0.1714250746701207
vn 0.539978060191586 0.461748518178394 0.7037130100202705
vn -0.759749435279149 0.6272114789824544 0.17142507467012053
vn 0.36222160358645983 0.6272113412500602 -0.6894936136778601
vn -0.36222160358645983 -0.6272113412500602 0.6894936136778602
usemtl m_f51bd9f0-0528-46b3-9e4c-599d0dc368a9
f 137/409/103 138/410/103 139/411/103 140/412/103
f 141/413/104 137/414/104 140/415/104 142/416/104
f 143/417/105 141/418/105 142/419/105 144/420/105
f 138/421/106 143/422/106 144/423/106 139/424/106
f 144/425/107 142/426/107 140/427/107 139/428/107
f 138/429/108 137/430/108 141/431/108 143/432/108
o cube
v 0.3715420194079305 0.020723293798705578 0.5859052598497839
v 0.39011487417136304 0.027487031734271306 0.6101098754235837
v 0.34070484091821723 0.3935980344042463 0.5457174664151565
v 0.3221319861547848 0.38683429646868056 0.5215128508413566
v 0.47071118694433495 0.020723293798705578 0.5098100812236938
v 0.42130115369118915 0.38683429646868056 0.4454176722152665
v 0.4892840417077674 0.027487031734271306 0.5340146967974936
v 0.43987400845462166 0.3935980344042463 0.46962228778906634
vt 0.21875 0.71875
vt 0.2265625 0.71875
vt 0.2265625 0.765625
vt 0.21875 0.765625
vt 0.203125 0.71875
vt 0.21875 0.71875
vt 0.21875 0.765625
vt 0.203125 0.765625
vt 0.234375 0.71875
vt 0.2265625 0.71875
vt 0.2265625 0.765625
vt 0.234375 0.765625
vt 0.1875 0.71875
vt 0.203125 0.71875
vt 0.203125 0.765625
vt 0.1875 0.765625
vt 0.1328125 0.734375
vt 0.125 0.734375
vt 0.125 0.75
vt 0.1328125 0.75
vt 0.125 0.734375
vt 0.1171875 0.734375
vt 0.1171875 0.75
vt 0.125 0.75
vn -0.7933533402912344 1.9428902930940225e-16 0.6087614290087219
vn -0.5943313524298389 -0.21643961393810313 -0.7745476983615944
vn 0.7933533402912353 1.110223024625157e-16 -0.6087614290087208
vn 0.5943313524298393 0.2164396139381029 0.7745476983615943
vn -0.13176008867505543 0.9762960071199333 -0.17171309068913945
vn 0.13176008867505556 -0.9762960071199334 0.17171309068913945
usemtl m_f51bd9f0-0528-46b3-9e4c-599d0dc368a9
f 145/433/109 146/434/109 147/435/109 148/436/109
f 149/437/110 145/438/110 148/439/110 150/440/110
f 151/441/111 149/442/111 150/443/111 152/444/111
f 146/445/112 151/446/112 152/447/112 147/448/112
f 152/449/113 150/450/113 148/451/113 147/452/113
f 146/453/114 145/454/114 149/455/114 151/456/114
o cube
v 0.4824742567179484 0.027471954642679763 0.5251400122151685
v 0.38330508918154405 0.027471954642679763 0.6012351908412585
v 0.38330508918154405 0.027471954642679763 0.6012351908412585
v 0.4824742567179484 0.027471954642679763 0.5251400122151685
v 0.5579184305421077 0.011156180615173317 0.6234607737758551
v 0.5579184305421077 0.011156180615173317 0.6234607737758551
v 0.45874926300570323 0.011156180615173317 0.6995559524019451
v 0.45874926300570323 0.011156180615173317 0.6995559524019451
vt 0.015625 0.90625
vt 0.03125 0.90625
vt 0.03125 0.90625
vt 0.015625 0.90625
vt 0 0.90625
vt 0.015625 0.90625
vt 0.015625 0.90625
vt 0 0.90625
vt 0.046875 0.90625
vt 0.0625 0.90625
vt 0.0625 0.90625
vt 0.046875 0.90625
vt 0.03125 0.90625
vt 0.046875 0.90625
vt 0.046875 0.90625
vt 0.03125 0.90625
vt 0.03125 0.921875
vt 0.015625 0.921875
vt 0.015625 0.90625
vt 0.03125 0.90625
vt 0.046875 0.90625
vt 0.03125 0.90625
vt 0.03125 0.921875
vt 0.046875 0.921875
vn 0 0 0
vn 0 0 0
vn 0 0 0
vn 0 0 0
vn 0.07945931129894554 0.9914448613738104 0.10355339059327379
vn -0.07945931129894557 -0.9914448613738104 -0.10355339059327376
usemtl m_f51bd9f0-0528-46b3-9e4c-599d0dc368a9
f 153/457/115 154/458/115 155/459/115 156/460/115
f 157/461/116 153/462/116 156/463/116 158/464/116
f 159/465/117 157/466/117 158/467/117 160/468/117
f 154/469/118 159/470/118 160/471/118 155/472/118
f 160/473/119 158/474/119 156/475/119 155/476/119
f 154/477/120 153/478/120 157/479/120 159/480/120
o Тело
v -0.25 0.175 0.21875
v 0.25 0.17499999999999993 0.21875
v 0.25 0.36249999999999993 0.21875
v -0.25 0.3625 0.21875
v -0.25 0.17500000000000004 -0.21875
v -0.25 0.36250000000000004 -0.21875
v 0.25 0.175 -0.21875
v 0.25 0.3625 -0.21875
vt 0.234375 0.9765625
vt 0.296875 0.9765625
vt 0.296875 1
vt 0.234375 1
vt 0.234375 0.9296875
vt 0.2890625 0.9296875
vt 0.2890625 0.953125
vt 0.234375 0.953125
vt 0.234375 0.953125
vt 0.296875 0.953125
vt 0.296875 0.9765625
vt 0.234375 0.9765625
vt 0.0625 0.7421875
vt 0.1171875 0.7421875
vt 0.1171875 0.765625
vt 0.0625 0.765625
vt 0.0625 0.90625
vt 0 0.90625
vt 0 0.8515625
vt 0.0625 0.8515625
vt 0.0625 0.7109375
vt 0 0.7109375
vt 0 0.765625
vt 0.0625 0.765625
vn 0 0 1
vn -1 0 0
vn 0 0 -1
vn 1 0 0
vn 1.1102230246251565e-16 1 1.2688263138573217e-16
vn -1.1102230246251565e-16 -1 -1.2688263138573217e-16
usemtl m_f51bd9f0-0528-46b3-9e4c-599d0dc368a9
f 161/481/121 162/482/121 163/483/121 164/484/121
f 165/485/122 161/486/122 164/487/122 166/488/122
f 167/489/123 165/490/123 166/491/123 168/492/123
f 162/493/124 167/494/124 168/495/124 163/496/124
f 168/497/125 166/498/125 164/499/125 163/500/125
f 162/501/126 161/502/126 165/503/126 167/504/126
o Тело
v -0.25 0.17499999999999993 0.21875
v 0.25 0.175 0.21875
v 0.25 0.3625 0.21875
v -0.25 0.36249999999999993 0.21875
v -0.25 0.175 -0.21875
v -0.25 0.3625 -0.21875
v 0.25 0.17500000000000004 -0.21875
v 0.25 0.36250000000000004 -0.21875
vt 0.0546875 0.921875
vt 0.1171875 0.921875
vt 0.1171875 0.9453125
vt 0.0546875 0.9453125
vt 0 0.921875
vt 0.0546875 0.921875
vt 0.0546875 0.9453125
vt 0 0.9453125
vt 0.171875 0.921875
vt 0.234375 0.921875
vt 0.234375 0.9453125
vt 0.171875 0.9453125
vt 0.1171875 0.921875
vt 0.171875 0.921875
vt 0.171875 0.9453125
vt 0.1171875 0.9453125
vt 0.1171875 1
vt 0.0546875 1
vt 0.0546875 0.9453125
vt 0.1171875 0.9453125
vt 0.1796875 0.9453125
vt 0.1171875 0.9453125
vt 0.1171875 1
vt 0.1796875 1
vn 0 0 1
vn -1 0 0
vn 0 0 -1
vn 1 0 0
vn -1.1102230246251565e-16 1 1.2688263138573217e-16
vn 1.1102230246251565e-16 -1 -1.2688263138573217e-16
usemtl m_f51bd9f0-0528-46b3-9e4c-599d0dc368a9
f 169/505/127 170/506/127 171/507/127 172/508/127
f 173/509/128 169/510/128 172/511/128 174/512/128
f 175/513/129 173/514/129 174/515/129 176/516/129
f 170/517/130 175/518/130 176/519/130 171/520/130
f 176/521/131 174/522/131 172/523/131 171/524/131
f 170/525/132 169/526/132 173/527/132 175/528/132
o cube
v 0.3125 0.375 -0.3125
v -0.3125 0.375 -0.3125
v -0.3125 1 -0.3125
v 0.3125 1 -0.3125
v 0.3125 0.375 0.3125
v 0.3125 1 0.3125
v -0.3125 0.375 0.3125
v -0.3125 1 0.3125
vt 0.625 0.7734375
vt 0.6875 0.7734375
vt 0.6875 0.8359375
vt 0.625 0.8359375
vt 0.5625 0.7734375
vt 0.625 0.7734375
vt 0.625 0.8359375
vt 0.5625 0.8359375
vt 0.5 0.7734375
vt 0.5625 0.7734375
vt 0.5625 0.8359375
vt 0.5 0.8359375
vt 0.4375 0.7734375
vt 0.5 0.7734375
vt 0.5 0.8359375
vt 0.4375 0.8359375
vt 0.5 0.8359375
vt 0.5625 0.8359375
vt 0.5625 0.8984375
vt 0.5 0.8984375
vt 0.5625 0.8984375
vt 0.625 0.8984375
vt 0.625 0.8359375
vt 0.5625 0.8359375
vn 0 0 -1
vn 1 0 0
vn 0 0 1
vn -1 0 0
vn 0 1 0
vn 0 -1 0
usemtl m_f51bd9f0-0528-46b3-9e4c-599d0dc368a9
f 177/529/133 178/530/133 179/531/133 180/532/133
f 181/533/134 177/534/134 180/535/134 182/536/134
f 183/537/135 181/538/135 182/539/135 184/540/135
f 178/541/136 183/542/136 184/543/136 179/544/136
f 184/545/137 182/546/137 180/547/137 179/548/137
f 178/549/138 177/550/138 181/551/138 183/552/138