# Made in Blockbench 5.1.3
mtllib materials.mtl

o Тело
v -0.234375 0.36250000000000004 -0.234375
v -0.234375 0.3625 0.234375
v -0.234375 0.17500000000000004 -0.234375
v -0.234375 0.175 0.234375
v 0.234375 0.36249999999999993 0.234375
v 0.234375 0.3625 -0.234375
v 0.234375 0.17499999999999993 0.234375
v 0.234375 0.175 -0.234375
vt 0 0.4375
vt 0.25 0.4375
vt 0.25 0.34375
vt 0 0.34375
vt 0 0.34375
vt 0.25 0.34375
vt 0.25 0.25
vt 0 0.25
vt 0 0.25
vt 0.25 0.25
vt 0.25 0.15625
vt 0 0.15625
vt 0.25 0.25
vt 0.5 0.25
vt 0.5 0.15625
vt 0.25 0.15625
vt 0.5 0.25
vt 0.25 0.25
vt 0.25 0.5
vt 0.5 0.5
vt 0.75 0.5
vt 0.5 0.5
vt 0.5 0.25
vt 0.75 0.25
vn -1.4997597826618576e-32 -1.2246467991473532e-16 1
vn -1 1.2246467991473532e-16 0
vn 1.4997597826618576e-32 1.2246467991473532e-16 -1
vn 1 -1.2246467991473532e-16 0
vn 1.2246467991473532e-16 1 1.2246467991473532e-16
vn -1.2246467991473532e-16 -1 -1.2246467991473532e-16
usemtl m_07919502-e25c-c918-bcb2-db616d9619df
f 4/4/1 7/3/1 5/2/1 2/1/1
f 3/8/2 4/7/2 2/6/2 1/5/2
f 8/12/3 3/11/3 1/10/3 6/9/3
f 7/16/4 8/15/4 6/14/4 5/13/4
f 6/20/5 1/19/5 2/18/5 5/17/5
f 7/24/6 4/23/6 3/22/6 8/21/6
o Лапа4
v -0.5042071280796288 0.49322686265200333 0.0625
v -0.15251975155959607 0.2329918934482915 0.062499999999999924
v -0.5785599764235464 0.3927447550748511 0.06250000000000001
v -0.22687259990351377 0.13250978587113932 0.062499999999999944
v -0.15251975155959613 0.2329918934482915 -0.06250000000000008
v -0.5042071280796288 0.49322686265200333 -0.06249999999999999
v -0.22687259990351377 0.13250978587113932 -0.06250000000000007
v -0.5785599764235464 0.3927447550748511 -0.06249999999999998
vt 0.65625 0.1875
vt 0.59375 0.1875
vt 0.59375 0.125
vt 0.65625 0.125
vt 0.75 0.5
vt 0.96875 0.5
vt 0.96875 0.4375
vt 0.75 0.4375
vt 0.65625 0.125
vt 0.71875 0.125
vt 0.71875 0.1875
vt 0.65625 0.1875
vt 0.5 0.25
vt 0.71875 0.25
vt 0.71875 0.1875
vt 0.5 0.1875
vt 0.8125 0.21875
vt 0.75 0.21875
vt 0.75 0.4375
vt 0.8125 0.4375
vt 0.78125 0
vt 0.71875 0
vt 0.71875 0.21875
vt 0.78125 0.21875
vn 0.8038568606172174 -0.5948227867513413 -1.78492079032026e-16
vn 2.220446049250313e-16 0 1
vn -0.8038568606172174 0.5948227867513413 1.78492079032026e-16
vn -2.220446049250313e-16 0 -1
vn 0.5948227867513413 0.8038568606172174 -1.3207719068460772e-16
vn -0.5948227867513413 -0.8038568606172174 1.3207719068460772e-16
usemtl m_07919502-e25c-c918-bcb2-db616d9619df
f 12/28/7 15/27/7 13/26/7 10/25/7
f 11/32/8 12/31/8 10/30/8 9/29/8
f 16/36/9 11/35/9 9/34/9 14/33/9
f 15/40/10 16/39/10 14/38/10 13/37/10
f 14/44/11 9/43/11 10/42/11 13/41/11
f 15/48/12 12/47/12 11/46/12 16/45/12
o Лапа4
v -0.5654072195591083 0.3849226093452765 -0.06249999999999997
v -0.5654072195591083 0.3849226093452765 0.06250000000000001
v -0.6143545416416276 0.013130786330097566 -0.062499999999999924
v -0.6143545416416275 0.013130786330097566 0.06250000000000006
v -0.5344245676411767 0.3808436658383999 0.0625
v -0.5344245676411767 0.3808436658383999 -0.06249999999999998
v -0.5833718897236959 0.009051842823220968 0.06250000000000004
v -0.583371889723696 0.009051842823220968 -0.06249999999999994
vt 0.59375 0.1875
vt 0.5625 0.1875
vt 0.5625 0
vt 0.59375 0
vt 0.84375 0.21875
vt 0.78125 0.21875
vt 0.78125 0.03125
vt 0.84375 0.03125
vt 0.84375 0.4375
vt 0.8125 0.4375
vt 0.8125 0.25
vt 0.84375 0.25
vt 0.5625 0.1875
vt 0.5 0.1875
vt 0.5 0
vt 0.5625 0
vt 0 0.15625
vt 0.03125 0.15625
vt 0.03125 0.09375
vt 0 0.09375
vt 0.0625 0.15625
vt 0.03125 0.15625
vt 0.03125 0.09375
vt 0.0625 0.09375
vn 3.429855849933327e-16 6.806305006382755e-17 1
vn -0.9914448613738104 0.13052619222005135 3.1934898502909905e-16
vn -3.429855849933327e-16 -6.806305006382755e-17 -1
vn 0.9914448613738104 -0.13052619222005135 -3.1934898502909905e-16
vn 0.13052619222005138 0.9914448613738105 -1.260283236315676e-16
vn -0.13052619222005138 -0.9914448613738105 1.260283236315676e-16
usemtl m_07919502-e25c-c918-bcb2-db616d9619df
f 20/52/13 23/51/13 21/50/13 18/49/13
f 19/56/14 20/55/14 18/54/14 17/53/14
f 24/60/15 19/59/15 17/58/15 22/57/15
f 23/64/16 24/63/16 22/62/16 21/61/16
f 22/68/17 17/67/17 18/66/17 21/65/17
f 23/72/18 20/71/18 19/70/18 24/69/18
o Лапа4
v -0.7251650993388643 0.0029788965495493713 0.06250000000000006
v -0.6006407620773961 0.013873364393006644 0.06250000000000003
v -0.7251650993388643 0.0029788965495493713 0.06250000000000006
v -0.6006407620773961 0.013873364393006644 0.06250000000000003
v -0.6006407620773961 0.013873364393006644 -0.06249999999999997
v -0.7251650993388643 0.0029788965495493713 -0.06249999999999995
v -0.6006407620773961 0.013873364393006644 -0.06249999999999997
v -0.7251650993388643 0.0029788965495493713 -0.06249999999999995
vt 0.125 0.4375
vt 0.0625 0.4375
vt 0.0625 0.4375
vt 0.125 0.4375
vt 0.1875 0.4375
vt 0.125 0.4375
vt 0.125 0.4375
vt 0.1875 0.4375
vt 0.25 0.4375
vt 0.1875 0.4375
vt 0.1875 0.4375
vt 0.25 0.4375
vt 0.0625 0.4375
vt 0 0.4375
vt 0 0.4375
vt 0.0625 0.4375
vt 0.0625 0.4375
vt 0.125 0.4375
vt 0.125 0.5
vt 0.0625 0.5
vt 0.125 0.5
vt 0.1875 0.5
vt 0.1875 0.4375
vt 0.125 0.4375
vn 0.9961946980917455 0.08715574274765818 -2.2119965816619248e-16
vn 2.220446049250313e-16 0 1
vn -0.9961946980917455 -0.08715574274765818 2.2119965816619248e-16
vn -2.220446049250313e-16 0 -1
vn -0.08715574274765818 0.9961946980917455 1.9352462465351423e-17
vn 0.08715574274765818 -0.9961946980917455 -1.9352462465351423e-17
usemtl m_07919502-e25c-c918-bcb2-db616d9619df
f 28/76/19 31/75/19 29/74/19 26/73/19
f 27/80/20 28/79/20 26/78/20 25/77/20
f 32/84/21 27/83/21 25/82/21 30/81/21
f 31/88/22 32/87/22 30/86/22 29/85/22
f 30/92/23 25/91/23 26/90/23 29/89/23
f 31/96/24 28/95/24 27/94/24 32/93/24
o Лапа3
v -0.420472626687766 0.5026969424571184 -0.4445099560235962
v -0.17270611104308536 0.28890486292544915 -0.15414647613189467
v -0.516391477722757 0.42688779401311205 -0.41848022248055317
v -0.2686249620780763 0.2130957144814428 -0.12811674258885156
v -0.13511238010364346 0.21050342805264233 -0.24395141143022825
v -0.3828788957483241 0.42429550758431167 -0.5343148913219298
v -0.2310312311386344 0.134694279608636 -0.21792167788718514
v -0.4787977467833151 0.3484863591403053 -0.5082851577788867
vt 0.59375 0.1875
vt 0.65625 0.1875
vt 0.65625 0.125
vt 0.59375 0.125
vt 0.5 0.25
vt 0.71875 0.25
vt 0.71875 0.1875
vt 0.5 0.1875
vt 0.65625 0.1875
vt 0.71875 0.1875
vt 0.71875 0.125
vt 0.65625 0.125
vt 0.75 0.5
vt 0.96875 0.5
vt 0.96875 0.4375
vt 0.75 0.4375
vt 0.8125 0.21875
vt 0.75 0.21875
vt 0.75 0.4375
vt 0.8125 0.4375
vt 0.78125 0.21875
vt 0.71875 0.21875
vt 0.71875 0
vt 0.78125 0
vn 0.5663234643306987 -0.4886676103581013 0.6636879540381752
vn -0.3007498475155352 0.6272114789824544 0.7184394823866689
vn -0.5663234643306987 0.4886676103581013 -0.6636879540381752
vn 0.3007498475155352 -0.6272114789824544 -0.7184394823866689
vn 0.7673508082799276 0.6064731875520509 -0.20823786834434485
vn -0.7673508082799276 -0.6064731875520509 0.20823786834434485
usemtl m_07919502-e25c-c918-bcb2-db616d9619df
f 36/100/25 39/99/25 37/98/25 34/97/25
f 35/104/26 36/103/26 34/102/26 33/101/26
f 40/108/27 35/107/27 33/106/27 38/105/27
f 39/112/28 40/111/28 38/110/28 37/109/28
f 38/116/29 33/115/29 34/114/29 37/113/29
f 39/120/30 36/119/30 35/118/30 40/117/30
o Лапа3
v -0.40619639847819655 0.4055347032418013 -0.5242939702041824
v -0.4983560655794621 0.4055347032418013 -0.43984519425222496
v -0.4610305798719578 0.03942370057182626 -0.5841349785083685
v -0.5531902469732233 0.03942370057182626 -0.49968620255641105
v -0.4777443148874466 0.39877096530623557 -0.417351415500108
v -0.38558464778618107 0.39877096530623557 -0.5018001914520656
v -0.5325784962812079 0.03265996263626053 -0.47719242380429405
v -0.4404188291799423 0.03265996263626053 -0.5616411997562516
vt 0.5625 0.1875
vt 0.59375 0.1875
vt 0.59375 0
vt 0.5625 0
vt 0.78125 0.21875
vt 0.84375 0.21875
vt 0.84375 0.03125
vt 0.78125 0.03125
vt 0.8125 0.4375
vt 0.84375 0.4375
vt 0.84375 0.25
vt 0.8125 0.25
vt 0.5 0.1875
vt 0.5625 0.1875
vt 0.5625 0
vt 0.5 0
vt 0.03125 0.09375
vt 0 0.09375
vt 0 0.15625
vt 0.03125 0.15625
vt 0.0625 0.15625
vt 0.03125 0.15625
vt 0.03125 0.09375
vt 0.0625 0.09375
vn -0.7372773368101245 1.5265566588595902e-16 0.67559020761566
vn -0.6595760221444955 0.2164396139381033 -0.7198009200677425
vn 0.7372773368101245 -1.5265566588595902e-16 -0.67559020761566
vn 0.6595760221444955 -0.2164396139381033 0.7198009200677425
vn 0.14622448371669655 0.9762960071199335 0.15957602214449615
vn -0.14622448371669655 -0.9762960071199335 -0.15957602214449615
usemtl m_07919502-e25c-c918-bcb2-db616d9619df
f 44/124/31 47/123/31 45/122/31 42/121/31
f 43/128/32 44/127/32 42/126/32 41/125/32
f 48/132/33 43/131/33 41/130/33 46/129/33
f 47/136/34 48/135/34 46/134/34 45/133/34
f 46/140/35 41/139/35 42/138/35 45/137/35
f 47/144/36 44/143/36 43/142/36 48/141/36
o Лапа3
v -0.6255641757990964 0.02462195689761286 -0.5820127843692525
v -0.5418378708322199 0.040937730925119285 -0.49064155599578174
v -0.6255641757990964 0.02462195689761286 -0.5820127843692525
v -0.5418378708322199 0.040937730925119285 -0.49064155599578174
v -0.4496782037309544 0.04093773092511928 -0.5750903319477393
v -0.533404508697831 0.024621956897612852 -0.66646156032121
v -0.4496782037309544 0.04093773092511928 -0.5750903319477393
v -0.533404508697831 0.024621956897612852 -0.66646156032121
vt 0.125 0.4375
vt 0.0625 0.4375
vt 0.0625 0.4375
vt 0.125 0.4375
vt 0.1875 0.4375
vt 0.125 0.4375
vt 0.125 0.4375
vt 0.1875 0.4375
vt 0.25 0.4375
vt 0.1875 0.4375
vt 0.1875 0.4375
vt 0.25 0.4375
vt 0.0625 0.4375
vt 0 0.4375
vt 0 0.4375
vt 0.0625 0.4375
vt 0.0625 0.4375
vt 0.125 0.4375
vt 0.125 0.5
vt 0.0625 0.5
vt 0.125 0.5
vt 0.1875 0.5
vt 0.1875 0.4375
vt 0.125 0.4375
vn 0.669810439735012 0.13052619222005138 0.7309698269877657
vn -0.7372773368101241 9.71445146547012e-17 0.6755902076156601
vn -0.669810439735012 -0.13052619222005138 -0.7309698269877657
vn 0.7372773368101241 -9.71445146547012e-17 -0.6755902076156601
vn -0.08818221730122601 0.9914448613738105 -0.09623400338396589
vn 0.08818221730122601 -0.9914448613738105 0.09623400338396589
usemtl m_07919502-e25c-c918-bcb2-db616d9619df
f 52/148/37 55/147/37 53/146/37 50/145/37
f 51/152/38 52/151/38 50/150/38 49/149/38
f 56/156/39 51/155/39 49/154/39 54/153/39
f 55/160/40 56/159/40 54/158/40 53/157/40
f 54/164/41 49/163/41 50/162/41 53/161/41
f 55/168/42 52/167/42 51/166/42 56/165/42
o Лапа4
v -0.3836341538028976 0.4258705924109063 0.5325107101717864
v -0.1358676381582169 0.21207851287923704 0.2421472302800848
v -0.47955300483788854 0.3500614439668999 0.5064809766287433
v -0.23178648919320782 0.13626936443523063 0.2161174967370417
v -0.1734613690976588 0.29047994775204383 0.15234229498175123
v -0.4212278847423395 0.5042720272837131 0.44270577487345286
v -0.26938022013264973 0.21467079930803745 0.12631256143870812
v -0.5171467357773305 0.42846287883970674 0.41667604133040975
vt 0.59375 0.125
vt 0.65625 0.125
vt 0.65625 0.1875
vt 0.59375 0.1875
vt 0.75 0.5
vt 0.96875 0.5
vt 0.96875 0.4375
vt 0.75 0.4375
vt 0.71875 0.125
vt 0.65625 0.125
vt 0.65625 0.1875
vt 0.71875 0.1875
vt 0.5 0.25
vt 0.71875 0.25
vt 0.71875 0.1875
vt 0.5 0.1875
vt 0.8125 0.21875
vt 0.75 0.21875
vt 0.75 0.4375
vt 0.8125 0.4375
vt 0.78125 0
vt 0.71875 0
vt 0.71875 0.21875
vt 0.78125 0.21875
vn 0.5663234643306987 -0.488667610358101 -0.6636879540381753
vn 0.3007498475155353 -0.6272114789824543 0.7184394823866688
vn -0.5663234643306987 0.488667610358101 0.6636879540381753
vn -0.3007498475155353 0.6272114789824543 -0.7184394823866688
vn 0.7673508082799274 0.606473187552051 0.2082378683443449
vn -0.7673508082799274 -0.606473187552051 -0.2082378683443449
usemtl m_07919502-e25c-c918-bcb2-db616d9619df
f 60/172/43 63/171/43 61/170/43 58/169/43
f 59/176/44 60/175/44 58/174/44 57/173/44
f 64/180/45 59/179/45 57/178/45 62/177/45
f 63/184/46 64/183/46 62/182/46 61/181/46
f 62/188/47 57/187/47 58/186/47 61/185/47
f 63/192/48 60/191/48 59/190/48 64/189/48
o Лапа4
v -0.3901926311412445 0.3987709653062355 0.49757775265446763
v -0.48235229824251 0.3987709653062355 0.4131289767025101
v -0.44502681253500564 0.032659962636260476 0.5574187609586536
v -0.5371864796362712 0.032659962636260476 0.4729699850066961
v -0.5029640489345255 0.40553470324180124 0.43562275545462703
v -0.41080438183325996 0.40553470324180124 0.5200715314065846
v -0.5577982303282867 0.0394237005718262 0.49546376375881307
v -0.46563856322702113 0.0394237005718262 0.5799125397107706
vt 0.5625 0.1875
vt 0.59375 0.1875
vt 0.59375 0
vt 0.5625 0
vt 0.5 0.1875
vt 0.5625 0.1875
vt 0.5625 0
vt 0.5 0
vt 0.84375 0.4375
vt 0.8125 0.4375
vt 0.8125 0.25
vt 0.84375 0.25
vt 0.78125 0.21875
vt 0.84375 0.21875
vt 0.84375 0.03125
vt 0.78125 0.03125
vt 0 0.15625
vt 0.03125 0.15625
vt 0.03125 0.09375
vt 0 0.09375
vt 0.03125 0.15625
vt 0.0625 0.15625
vt 0.0625 0.09375
vt 0.03125 0.09375
vn -0.7372773368101242 5.5511151231257815e-17 -0.6755902076156599
vn 0.6595760221444957 -0.21643961393810313 -0.7198009200677428
vn 0.7372773368101242 -5.5511151231257815e-17 0.6755902076156599
vn -0.6595760221444957 0.21643961393810313 0.7198009200677428
vn 0.14622448371669633 0.9762960071199334 -0.15957602214449604
vn -0.14622448371669633 -0.9762960071199334 0.15957602214449604
usemtl m_07919502-e25c-c918-bcb2-db616d9619df
f 68/196/49 71/195/49 69/194/49 66/193/49
f 67/200/50 68/199/50 66/198/50 65/197/50
f 72/204/51 67/203/51 65/202/51 70/201/51
f 71/208/52 72/207/52 70/206/52 69/205/52
f 70/212/53 65/211/53 66/210/53 69/209/53
f 71/216/54 68/215/54 67/214/54 72/213/54
o Лапа4
v -0.5380147960445717 0.02462195689761272 0.6622370103042133
v -0.4542884910776952 0.04093773092511917 0.5708657819307427
v -0.5380147960445717 0.02462195689761272 0.6622370103042133
v -0.4542884910776952 0.04093773092511917 0.5708657819307427
v -0.5464481581789608 0.04093773092511917 0.4864170059787851
v -0.6301744631458372 0.02462195689761272 0.5777882343522558
v -0.5464481581789608 0.04093773092511917 0.4864170059787851
v -0.6301744631458372 0.02462195689761272 0.5777882343522558
vt 0.0625 0.4375
vt 0.125 0.4375
vt 0.125 0.4375
vt 0.0625 0.4375
vt 0 0.4375
vt 0.0625 0.4375
vt 0.0625 0.4375
vt 0 0.4375
vt 0.1875 0.4375
vt 0.25 0.4375
vt 0.25 0.4375
vt 0.1875 0.4375
vt 0.125 0.4375
vt 0.1875 0.4375
vt 0.1875 0.4375
vt 0.125 0.4375
vt 0.125 0.4375
vt 0.0625 0.4375
vt 0.0625 0.5
vt 0.125 0.5
vt 0.1875 0.5
vt 0.125 0.5
vt 0.125 0.4375
vt 0.1875 0.4375
vn 0.669810439735012 0.1305261922200516 -0.7309698269877657
vn 0.7372773368101241 -1.3877787807814457e-17 0.6755902076156601
vn -0.669810439735012 -0.1305261922200516 0.7309698269877657
vn -0.7372773368101241 1.3877787807814457e-17 -0.6755902076156601
vn -0.0881822173012262 0.9914448613738105 0.09623400338396598
vn 0.0881822173012262 -0.9914448613738105 -0.09623400338396598
usemtl m_07919502-e25c-c918-bcb2-db616d9619df
f 76/220/55 79/219/55 77/218/55 74/217/55
f 75/224/56 76/223/56 74/222/56 73/221/56
f 80/228/57 75/227/57 73/226/57 78/225/57
f 79/232/58 80/231/58 78/230/58 77/229/58
f 78/236/59 73/235/59 74/234/59 77/233/59
f 79/240/60 76/239/60 75/238/60 80/237/60
o Лапа4
v 0.5344245676411767 0.3808436658383999 -0.06249999999999998
v 0.5344245676411767 0.3808436658383999 0.0625
v 0.583371889723696 0.009051842823220968 -0.06249999999999994
v 0.5833718897236959 0.009051842823220968 0.06250000000000004
v 0.5654072195591083 0.3849226093452765 0.06250000000000001
v 0.5654072195591083 0.3849226093452765 -0.06249999999999997
v 0.6143545416416275 0.013130786330097566 0.06250000000000006
v 0.6143545416416276 0.013130786330097566 -0.062499999999999924
vt 0.5625 0.1875
vt 0.59375 0.1875
vt 0.59375 0
vt 0.5625 0
vt 0.5 0.1875
vt 0.5625 0.1875
vt 0.5625 0
vt 0.5 0
vt 0.8125 0.4375
vt 0.84375 0.4375
vt 0.84375 0.25
vt 0.8125 0.25
vt 0.78125 0.21875
vt 0.84375 0.21875
vt 0.84375 0.03125
vt 0.78125 0.03125
vt 0.03125 0.15625
vt 0 0.15625
vt 0 0.09375
vt 0.03125 0.09375
vt 0.03125 0.15625
vt 0.0625 0.15625
vt 0.0625 0.09375
vt 0.03125 0.09375
vn -3.429855849933327e-16 6.806305006382755e-17 1
vn -0.9914448613738104 -0.13052619222005135 -3.1934898502909905e-16
vn 3.429855849933327e-16 -6.806305006382755e-17 -1
vn 0.9914448613738104 0.13052619222005135 3.1934898502909905e-16
vn -0.13052619222005138 0.9914448613738105 -1.260283236315676e-16
vn 0.13052619222005138 -0.9914448613738105 1.260283236315676e-16
usemtl m_07919502-e25c-c918-bcb2-db616d9619df
f 84/244/61 87/243/61 85/242/61 82/241/61
f 83/248/62 84/247/62 82/246/62 81/245/62
f 88/252/63 83/251/63 81/250/63 86/249/63
f 87/256/64 88/255/64 86/254/64 85/253/64
f 86/260/65 81/259/65 82/258/65 85/257/65
f 87/264/66 84/263/66 83/262/66 88/261/66
o Лапа4
v 0.7251650993388643 0.0029788965495493713 -0.06249999999999995
v 0.6006407620773961 0.013873364393006644 -0.06249999999999997
v 0.7251650993388643 0.0029788965495493713 -0.06249999999999995
v 0.6006407620773961 0.013873364393006644 -0.06249999999999997
v 0.6006407620773961 0.013873364393006644 0.06250000000000003
v 0.7251650993388643 0.0029788965495493713 0.06250000000000006
v 0.6006407620773961 0.013873364393006644 0.06250000000000003
v 0.7251650993388643 0.0029788965495493713 0.06250000000000006
vt 0.0625 0.4375
vt 0.125 0.4375
vt 0.125 0.4375
vt 0.0625 0.4375
vt 0 0.4375
vt 0.0625 0.4375
vt 0.0625 0.4375
vt 0 0.4375
vt 0.1875 0.4375
vt 0.25 0.4375
vt 0.25 0.4375
vt 0.1875 0.4375
vt 0.125 0.4375
vt 0.1875 0.4375
vt 0.1875 0.4375
vt 0.125 0.4375
vt 0.125 0.4375
vt 0.0625 0.4375
vt 0.0625 0.5
vt 0.125 0.5
vt 0.1875 0.5
vt 0.125 0.5
vt 0.125 0.4375
vt 0.1875 0.4375
vn -0.9961946980917455 0.08715574274765818 -2.2119965816619248e-16
vn 2.220446049250313e-16 0 -1
vn 0.9961946980917455 -0.08715574274765818 2.2119965816619248e-16
vn -2.220446049250313e-16 0 1
vn 0.08715574274765818 0.9961946980917455 1.9352462465351423e-17
vn -0.08715574274765818 -0.9961946980917455 -1.9352462465351423e-17
usemtl m_07919502-e25c-c918-bcb2-db616d9619df
f 92/268/67 95/267/67 93/266/67 90/265/67
f 91/272/68 92/271/68 90/270/68 89/269/68
f 96/276/69 91/275/69 89/274/69 94/273/69
f 95/280/70 96/279/70 94/278/70 93/277/70
f 94/284/71 89/283/71 90/282/71 93/281/71
f 95/288/72 92/287/72 91/286/72 96/285/72
o Лапа4
v 0.5042071280796288 0.49322686265200333 -0.06249999999999999
v 0.15251975155959613 0.2329918934482915 -0.06250000000000008
v 0.5785599764235464 0.3927447550748511 -0.06249999999999998
v 0.22687259990351377 0.13250978587113932 -0.06250000000000007
v 0.15251975155959607 0.2329918934482915 0.062499999999999924
v 0.5042071280796288 0.49322686265200333 0.0625
v 0.22687259990351377 0.13250978587113932 0.062499999999999944
v 0.5785599764235464 0.3927447550748511 0.06250000000000001
vt 0.59375 0.1875
vt 0.65625 0.1875
vt 0.65625 0.125
vt 0.59375 0.125
vt 0.71875 0.25
vt 0.5 0.25
vt 0.5 0.1875
vt 0.71875 0.1875
vt 0.65625 0.1875
vt 0.71875 0.1875
vt 0.71875 0.125
vt 0.65625 0.125
vt 0.96875 0.5
vt 0.75 0.5
vt 0.75 0.4375
vt 0.96875 0.4375
vt 0.75 0.21875
vt 0.8125 0.21875
vt 0.8125 0.4375
vt 0.75 0.4375
vt 0.71875 0
vt 0.78125 0
vt 0.78125 0.21875
vt 0.71875 0.21875
vn -0.8038568606172174 -0.5948227867513413 -1.78492079032026e-16
vn 2.220446049250313e-16 0 -1
vn 0.8038568606172174 0.5948227867513413 1.78492079032026e-16
vn -2.220446049250313e-16 0 1
vn -0.5948227867513413 0.8038568606172174 -1.3207719068460772e-16
vn 0.5948227867513413 -0.8038568606172174 1.3207719068460772e-16
usemtl m_07919502-e25c-c918-bcb2-db616d9619df
f 100/292/73 103/291/73 101/290/73 98/289/73
f 99/296/74 100/295/74 98/294/74 97/293/74
f 104/300/75 99/299/75 97/298/75 102/297/75
f 103/304/76 104/303/76 102/302/76 101/301/76
f 102/308/77 97/307/77 98/306/77 101/305/77
f 103/312/78 100/311/78 99/310/78 104/309/78
o Лапа3
v 0.3836341538028975 0.4258705924109063 -0.5325107101717863
v 0.13586763815821684 0.212078512879237 -0.24214723028008478
v 0.47955300483788843 0.3500614439669 -0.5064809766287433
v 0.2317864891932078 0.13626936443523063 -0.21611749673704167
v 0.17346136909765875 0.2904799477520438 -0.15234229498175117
v 0.4212278847423394 0.5042720272837131 -0.44270577487345275
v 0.2693802201326497 0.21467079930803745 -0.12631256143870806
v 0.5171467357773304 0.4284628788397068 -0.41667604133040964
vt 0.59375 0.125
vt 0.65625 0.125
vt 0.65625 0.1875
vt 0.59375 0.1875
vt 0.75 0.5
vt 0.96875 0.5
vt 0.96875 0.4375
vt 0.75 0.4375
vt 0.71875 0.125
vt 0.65625 0.125
vt 0.65625 0.1875
vt 0.71875 0.1875
vt 0.5 0.25
vt 0.71875 0.25
vt 0.71875 0.1875
vt 0.5 0.1875
vt 0.8125 0.21875
vt 0.75 0.21875
vt 0.75 0.4375
vt 0.8125 0.4375
vt 0.78125 0
vt 0.71875 0
vt 0.71875 0.21875
vt 0.78125 0.21875
vn -0.5663234643306987 -0.4886676103581013 0.6636879540381752
vn -0.3007498475155352 -0.6272114789824544 -0.7184394823866689
vn 0.5663234643306987 0.4886676103581013 -0.6636879540381752
vn 0.3007498475155352 0.6272114789824544 0.7184394823866689
vn -0.7673508082799276 0.6064731875520509 -0.20823786834434485
vn 0.7673508082799276 -0.6064731875520509 0.20823786834434485
usemtl m_07919502-e25c-c918-bcb2-db616d9619df
f 108/316/79 111/315/79 109/314/79 106/313/79
f 107/320/80 108/319/80 106/318/80 105/317/80
f 112/324/81 107/323/81 105/322/81 110/321/81
f 111/328/82 112/327/82 110/326/82 109/325/82
f 110/332/83 105/331/83 106/330/83 109/329/83
f 111/336/84 108/335/84 107/334/84 112/333/84
o Лапа3
v 0.39019263114124436 0.39877096530623557 -0.4975777526544677
v 0.4823522982425099 0.39877096530623557 -0.41312897670251014
v 0.44502681253500553 0.03265996263626053 -0.5574187609586537
v 0.5371864796362711 0.03265996263626053 -0.47296998500669624
v 0.5029640489345254 0.4055347032418013 -0.43562275545462714
v 0.41080438183325985 0.4055347032418013 -0.5200715314065847
v 0.5577982303282866 0.03942370057182626 -0.4954637637588132
v 0.465638563227021 0.03942370057182626 -0.5799125397107707
vt 0.5625 0.1875
vt 0.59375 0.1875
vt 0.59375 0
vt 0.5625 0
vt 0.5 0.1875
vt 0.5625 0.1875
vt 0.5625 0
vt 0.5 0
vt 0.84375 0.4375
vt 0.8125 0.4375
vt 0.8125 0.25
vt 0.84375 0.25
vt 0.78125 0.21875
vt 0.84375 0.21875
vt 0.84375 0.03125
vt 0.78125 0.03125
vt 0 0.15625
vt 0.03125 0.15625
vt 0.03125 0.09375
vt 0 0.09375
vt 0.03125 0.15625
vt 0.0625 0.15625
vt 0.0625 0.09375
vt 0.03125 0.09375
vn 0.7372773368101245 1.5265566588595902e-16 0.67559020761566
vn -0.6595760221444955 -0.2164396139381033 0.7198009200677425
vn -0.7372773368101245 -1.5265566588595902e-16 -0.67559020761566
vn 0.6595760221444955 0.2164396139381033 -0.7198009200677425
vn -0.14622448371669655 0.9762960071199335 0.15957602214449615
vn 0.14622448371669655 -0.9762960071199335 -0.15957602214449615
usemtl m_07919502-e25c-c918-bcb2-db616d9619df
f 116/340/85 119/339/85 117/338/85 114/337/85
f 115/344/86 116/343/86 114/342/86 113/341/86
f 120/348/87 115/347/87 113/346/87 118/345/87
f 119/352/88 120/351/88 118/350/88 117/349/88
f 118/356/89 113/355/89 114/354/89 117/353/89
f 119/360/90 116/359/90 115/358/90 120/357/90
o Лапа3
v 0.5380147960445717 0.024621956897612852 -0.6622370103042133
v 0.4542884910776952 0.04093773092511928 -0.5708657819307427
v 0.5380147960445717 0.024621956897612852 -0.6622370103042133
v 0.4542884910776952 0.04093773092511928 -0.5708657819307427
v 0.5464481581789608 0.04093773092511929 -0.4864170059787851
v 0.6301744631458372 0.024621956897612866 -0.5777882343522558
v 0.5464481581789608 0.04093773092511929 -0.4864170059787851
v 0.6301744631458372 0.024621956897612866 -0.5777882343522558
vt 0.0625 0.4375
vt 0.125 0.4375
vt 0.125 0.4375
vt 0.0625 0.4375
vt 0 0.4375
vt 0.0625 0.4375
vt 0.0625 0.4375
vt 0 0.4375
vt 0.1875 0.4375
vt 0.25 0.4375
vt 0.25 0.4375
vt 0.1875 0.4375
vt 0.125 0.4375
vt 0.1875 0.4375
vt 0.1875 0.4375
vt 0.125 0.4375
vt 0.125 0.4375
vt 0.0625 0.4375
vt 0.0625 0.5
vt 0.125 0.5
vt 0.1875 0.5
vt 0.125 0.5
vt 0.125 0.4375
vt 0.1875 0.4375
vn -0.669810439735012 0.13052619222005138 0.7309698269877657
vn -0.7372773368101241 -9.71445146547012e-17 -0.6755902076156601
vn 0.669810439735012 -0.13052619222005138 -0.7309698269877657
vn 0.7372773368101241 9.71445146547012e-17 0.6755902076156601
vn 0.08818221730122601 0.9914448613738105 -0.09623400338396589
vn -0.08818221730122601 -0.9914448613738105 0.09623400338396589
usemtl m_07919502-e25c-c918-bcb2-db616d9619df
f 124/364/91 127/363/91 125/362/91 122/361/91
f 123/368/92 124/367/92 122/366/92 121/365/92
f 128/372/93 123/371/93 121/370/93 126/369/93
f 127/376/94 128/375/94 126/374/94 125/373/94
f 126/380/95 121/379/95 122/378/95 125/377/95
f 127/384/96 124/383/96 123/382/96 128/381/96
o Лапа4
v 0.42047262668776614 0.5026969424571184 0.44450995602359633
v 0.17270611104308542 0.28890486292544915 0.15414647613189475
v 0.5163914777227571 0.42688779401311205 0.4184802224805533
v 0.26862496207807635 0.2130957144814428 0.12811674258885164
v 0.13511238010364351 0.21050342805264236 0.2439514114302283
v 0.38287889574832423 0.4242955075843116 0.53431489132193
v 0.23103123113863444 0.13469427960863595 0.2179216778871852
v 0.47879774678331516 0.34848635914030524 0.5082851577788868
vt 0.65625 0.125
vt 0.59375 0.125
vt 0.59375 0.1875
vt 0.65625 0.1875
vt 0.71875 0.25
vt 0.5 0.25
vt 0.5 0.1875
vt 0.71875 0.1875
vt 0.65625 0.125
vt 0.71875 0.125
vt 0.71875 0.1875
vt 0.65625 0.1875
vt 0.96875 0.5
vt 0.75 0.5
vt 0.75 0.4375
vt 0.96875 0.4375
vt 0.75 0.21875
vt 0.8125 0.21875
vt 0.8125 0.4375
vt 0.75 0.4375
vt 0.71875 0
vt 0.78125 0
vt 0.78125 0.21875
vt 0.71875 0.21875
vn -0.5663234643306987 -0.488667610358101 -0.6636879540381753
vn 0.3007498475155353 0.6272114789824543 -0.7184394823866688
vn 0.5663234643306987 0.488667610358101 0.6636879540381753
vn -0.3007498475155353 -0.6272114789824543 0.7184394823866688
vn -0.7673508082799274 0.606473187552051 0.2082378683443449
vn 0.7673508082799274 -0.606473187552051 -0.2082378683443449
usemtl m_07919502-e25c-c918-bcb2-db616d9619df
f 132/388/97 135/387/97 133/386/97 130/385/97
f 131/392/98 132/391/98 130/390/98 129/389/98
f 136/396/99 131/395/99 129/394/99 134/393/99
f 135/400/100 136/399/100 134/398/100 133/397/100
f 134/404/101 129/403/101 130/402/101 133/401/101
f 135/408/102 132/407/102 131/406/102 136/405/102
o Лапа4
v 0.4061963984781967 0.40553470324180124 0.5242939702041824
v 0.4983560655794622 0.40553470324180124 0.4398451942522249
v 0.46103057987195784 0.0394237005718262 0.5841349785083685
v 0.5531902469732234 0.0394237005718262 0.49968620255641094
v 0.47774431488744673 0.3987709653062355 0.41735141550010796
v 0.3855846477861812 0.3987709653062355 0.5018001914520654
v 0.5325784962812079 0.032659962636260476 0.477192423804294
v 0.44041882917994235 0.032659962636260476 0.5616411997562515
vt 0.59375 0.1875
vt 0.5625 0.1875
vt 0.5625 0
vt 0.59375 0
vt 0.84375 0.21875
vt 0.78125 0.21875
vt 0.78125 0.03125
vt 0.84375 0.03125
vt 0.8125 0.4375
vt 0.84375 0.4375
vt 0.84375 0.25
vt 0.8125 0.25
vt 0.5625 0.1875
vt 0.5 0.1875
vt 0.5 0
vt 0.5625 0
vt 0.03125 0.15625
vt 0 0.15625
vt 0 0.09375
vt 0.03125 0.09375
vt 0.0625 0.15625
vt 0.03125 0.15625
vt 0.03125 0.09375
vt 0.0625 0.09375
vn 0.7372773368101242 5.5511151231257815e-17 -0.6755902076156599
vn 0.6595760221444957 0.21643961393810313 0.7198009200677428
vn -0.7372773368101242 -5.5511151231257815e-17 0.6755902076156599
vn -0.6595760221444957 -0.21643961393810313 -0.7198009200677428
vn -0.14622448371669633 0.9762960071199334 -0.15957602214449604
vn 0.14622448371669633 -0.9762960071199334 0.15957602214449604
usemtl m_07919502-e25c-c918-bcb2-db616d9619df
f 140/412/103 143/411/103 141/410/103 138/409/103
f 139/416/104 140/415/104 138/414/104 137/413/104
f 144/420/105 139/419/105 137/418/105 142/417/105
f 143/424/106 144/423/106 142/422/106 141/421/106
f 142/428/107 137/427/107 138/426/107 141/425/107
f 143/432/108 140/431/108 139/430/108 144/429/108
o Лапа4
v 0.6255641757990964 0.02462195689761272 0.5820127843692525
v 0.5418378708322199 0.04093773092511917 0.4906415559957818
v 0.6255641757990964 0.02462195689761272 0.5820127843692525
v 0.5418378708322199 0.04093773092511917 0.4906415559957818
v 0.44967820373095435 0.04093773092511917 0.5750903319477393
v 0.5334045086978308 0.02462195689761272 0.6664615603212101
v 0.44967820373095435 0.04093773092511917 0.5750903319477393
v 0.5334045086978308 0.02462195689761272 0.6664615603212101
vt 0.125 0.4375
vt 0.0625 0.4375
vt 0.0625 0.4375
vt 0.125 0.4375
vt 0.1875 0.4375
vt 0.125 0.4375
vt 0.125 0.4375
vt 0.1875 0.4375
vt 0.25 0.4375
vt 0.1875 0.4375
vt 0.1875 0.4375
vt 0.25 0.4375
vt 0.0625 0.4375
vt 0 0.4375
vt 0 0.4375
vt 0.0625 0.4375
vt 0.0625 0.4375
vt 0.125 0.4375
vt 0.125 0.5
vt 0.0625 0.5
vt 0.125 0.5
vt 0.1875 0.5
vt 0.1875 0.4375
vt 0.125 0.4375
vn -0.669810439735012 0.1305261922200516 -0.7309698269877657
vn 0.7372773368101241 1.3877787807814457e-17 -0.6755902076156601
vn 0.669810439735012 -0.1305261922200516 0.7309698269877657
vn -0.7372773368101241 -1.3877787807814457e-17 0.6755902076156601
vn 0.0881822173012262 0.9914448613738105 0.09623400338396598
vn -0.0881822173012262 -0.9914448613738105 -0.09623400338396598
usemtl m_07919502-e25c-c918-bcb2-db616d9619df
f 148/436/109 151/435/109 149/434/109 146/433/109
f 147/440/110 148/439/110 146/438/110 145/437/110
f 152/444/111 147/443/111 145/442/111 150/441/111
f 151/448/112 152/447/112 150/446/112 149/445/112
f 150/452/113 145/451/113 146/450/113 149/449/113
f 151/456/114 148/455/114 147/454/114 152/453/114
o cube
v 0.25 0.875 0.25
v 0.25 0.875 -0.25
v 0.25 0.375 0.25
v 0.25 0.375 -0.25
v -0.25 0.875 -0.25
v -0.25 0.875 0.25
v -0.25 0.375 -0.25
v -0.25 0.375 0.25
vt 0.25 0.75
vt 0.5 0.75
vt 0.5 0.5
vt 0.25 0.5
vt 0 0.75
vt 0.25 0.75
vt 0.25 0.5
vt 0 0.5
vt 0.75 0.75
vt 1 0.75
vt 1 0.5
vt 0.75 0.5
vt 0.5 0.75
vt 0.75 0.75
vt 0.75 0.5
vt 0.5 0.5
vt 0.5 0.75
vt 0.25 0.75
vt 0.25 1
vt 0.5 1
vt 0.75 1
vt 0.5 1
vt 0.5 0.75
vt 0.75 0.75
vn 0 0 -1
vn 1 0 0
vn 0 0 1
vn -1 0 0
vn 0 1 0
vn 0 -1 0
usemtl m_07919502-e25c-c918-bcb2-db616d9619df
f 156/460/115 159/459/115 157/458/115 154/457/115
f 155/464/116 156/463/116 154/462/116 153/461/116
f 160/468/117 155/467/117 153/466/117 158/465/117
f 159/472/118 160/471/118 158/470/118 157/469/118
f 158/476/119 153/475/119 154/474/119 157/473/119
f 159/480/120 156/479/120 155/478/120 160/477/120