# Made in Blockbench 5.0.7
mtllib materials.mtl

o Лапа3
v -0.4212278847423394 0.5042720272837131 -0.44270577487345275
v -0.17346136909765875 0.2904799477520438 -0.15234229498175117
v -0.5171467357773304 0.4284628788397068 -0.41667604133040964
v -0.2693802201326497 0.21467079930803745 -0.12631256143870806
v -0.13586763815821684 0.212078512879237 -0.24214723028008478
v -0.3836341538028975 0.4258705924109063 -0.5325107101717863
v -0.2317864891932078 0.13626936443523063 -0.21611749673704167
v -0.47955300483788843 0.3500614439669 -0.5064809766287433
vt 0.234375 0.7734375
vt 0.25 0.7734375
vt 0.25 0.7578125
vt 0.234375 0.7578125
vt 0.1171875 0.765625
vt 0.171875 0.765625
vt 0.171875 0.75
vt 0.1171875 0.75
vt 0.234375 0.7578125
vt 0.25 0.7578125
vt 0.25 0.7421875
vt 0.234375 0.7421875
vt 0.234375 0.84375
vt 0.2890625 0.84375
vt 0.2890625 0.828125
vt 0.234375 0.828125
vt 0.1875 0.7109375
vt 0.171875 0.7109375
vt 0.171875 0.765625
vt 0.1875 0.765625
vt 0.25 0.828125
vt 0.234375 0.828125
vt 0.234375 0.7734375
vt 0.25 0.7734375
vn 0.5663234643306987 -0.4886676103581013 0.6636879540381752
vn -0.3007498475155352 0.6272114789824544 0.7184394823866689
vn -0.5663234643306987 0.4886676103581013 -0.6636879540381752
vn 0.3007498475155352 -0.6272114789824544 -0.7184394823866689
vn 0.7673508082799276 0.6064731875520509 -0.20823786834434485
vn -0.7673508082799276 -0.6064731875520509 0.20823786834434485
usemtl m_89e6b682-a229-f6a2-b2fb-d0ff1a6e0e56
f 4/4/1 7/3/1 5/2/1 2/1/1
f 3/8/2 4/7/2 2/6/2 1/5/2
f 8/12/3 3/11/3 1/10/3 6/9/3
f 7/16/4 8/15/4 6/14/4 5/13/4
f 6/20/5 1/19/5 2/18/5 5/17/5
f 7/24/6 4/23/6 3/22/6 8/21/6
o Лапа3
v -0.41080438183325985 0.4055347032418013 -0.5200715314065847
v -0.5029640489345254 0.4055347032418013 -0.43562275545462714
v -0.465638563227021 0.03942370057182626 -0.5799125397107707
v -0.5577982303282866 0.03942370057182626 -0.4954637637588132
v -0.4823522982425099 0.39877096530623557 -0.41312897670251014
v -0.39019263114124436 0.39877096530623557 -0.4975777526544677
v -0.5371864796362711 0.03265996263626053 -0.47296998500669624
v -0.44502681253500553 0.03265996263626053 -0.5574187609586537
vt 0.21875 0.765625
vt 0.2265625 0.765625
vt 0.2265625 0.71875
vt 0.21875 0.71875
vt 0.1875 0.765625
vt 0.203125 0.765625
vt 0.203125 0.71875
vt 0.1875 0.71875
vt 0.2265625 0.765625
vt 0.234375 0.765625
vt 0.234375 0.71875
vt 0.2265625 0.71875
vt 0.203125 0.765625
vt 0.21875 0.765625
vt 0.21875 0.71875
vt 0.203125 0.71875
vt 0.125 0.734375
vt 0.1171875 0.734375
vt 0.1171875 0.75
vt 0.125 0.75
vt 0.1328125 0.75
vt 0.125 0.75
vt 0.125 0.734375
vt 0.1328125 0.734375
vn -0.7372773368101245 1.5265566588595902e-16 0.67559020761566
vn -0.6595760221444955 0.2164396139381033 -0.7198009200677425
vn 0.7372773368101245 -1.5265566588595902e-16 -0.67559020761566
vn 0.6595760221444955 -0.2164396139381033 0.7198009200677425
vn 0.14622448371669655 0.9762960071199335 0.15957602214449615
vn -0.14622448371669655 -0.9762960071199335 -0.15957602214449615
usemtl m_89e6b682-a229-f6a2-b2fb-d0ff1a6e0e56
f 12/28/7 15/27/7 13/26/7 10/25/7
f 11/32/8 12/31/8 10/30/8 9/29/8
f 16/36/9 11/35/9 9/34/9 14/33/9
f 15/40/10 16/39/10 14/38/10 13/37/10
f 14/44/11 9/43/11 10/42/11 13/41/11
f 15/48/12 12/47/12 11/46/12 16/45/12
o Лапа3
v -0.6301744631458372 0.024621956897612866 -0.5777882343522558
v -0.5464481581789608 0.04093773092511929 -0.4864170059787851
v -0.6301744631458372 0.024621956897612866 -0.5777882343522558
v -0.5464481581789608 0.04093773092511929 -0.4864170059787851
v -0.4542884910776952 0.04093773092511928 -0.5708657819307427
v -0.5380147960445717 0.024621956897612852 -0.6622370103042133
v -0.4542884910776952 0.04093773092511928 -0.5708657819307427
v -0.5380147960445717 0.024621956897612852 -0.6622370103042133
vt 0.03125 0.90625
vt 0.015625 0.90625
vt 0.015625 0.90625
vt 0.03125 0.90625
vt 0.046875 0.90625
vt 0.03125 0.90625
vt 0.03125 0.90625
vt 0.046875 0.90625
vt 0.0625 0.90625
vt 0.046875 0.90625
vt 0.046875 0.90625
vt 0.0625 0.90625
vt 0.015625 0.90625
vt 0 0.90625
vt 0 0.90625
vt 0.015625 0.90625
vt 0.015625 0.90625
vt 0.03125 0.90625
vt 0.03125 0.921875
vt 0.015625 0.921875
vt 0.03125 0.921875
vt 0.046875 0.921875
vt 0.046875 0.90625
vt 0.03125 0.90625
vn 0.669810439735012 0.13052619222005138 0.7309698269877657
vn -0.7372773368101241 9.71445146547012e-17 0.6755902076156601
vn -0.669810439735012 -0.13052619222005138 -0.7309698269877657
vn 0.7372773368101241 -9.71445146547012e-17 -0.6755902076156601
vn -0.08818221730122601 0.9914448613738105 -0.09623400338396589
vn 0.08818221730122601 -0.9914448613738105 0.09623400338396589
usemtl m_89e6b682-a229-f6a2-b2fb-d0ff1a6e0e56
f 20/52/13 23/51/13 21/50/13 18/49/13
f 19/56/14 20/55/14 18/54/14 17/53/14
f 24/60/15 19/59/15 17/58/15 22/57/15
f 23/64/16 24/63/16 22/62/16 21/61/16
f 22/68/17 17/67/17 18/66/17 21/65/17
f 23/72/18 20/71/18 19/70/18 24/69/18
o Лапа4
v -0.5035975238582839 0.49276733382905685 0.0625
v -0.15650543748086848 0.22643420863774155 0.062499999999999924
v -0.579692702484374 0.3935981662926525 0.06250000000000003
v -0.23260061610695856 0.12726504110133718 0.062499999999999944
v -0.1565054374808685 0.22643420863774155 -0.06250000000000007
v -0.5035975238582839 0.49276733382905685 -0.06249999999999999
v -0.2326006161069586 0.12726504110133718 -0.06250000000000006
v -0.579692702484374 0.3935981662926525 -0.06249999999999998
vt 0.25 0.7734375
vt 0.234375 0.7734375
vt 0.234375 0.7578125
vt 0.25 0.7578125
vt 0.234375 0.84375
vt 0.2890625 0.84375
vt 0.2890625 0.828125
vt 0.234375 0.828125
vt 0.234375 0.7421875
vt 0.25 0.7421875
vt 0.25 0.7578125
vt 0.234375 0.7578125
vt 0.1171875 0.765625
vt 0.171875 0.765625
vt 0.171875 0.75
vt 0.1171875 0.75
vt 0.1875 0.7109375
vt 0.171875 0.7109375
vt 0.171875 0.765625
vt 0.1875 0.765625
vt 0.25 0.7734375
vt 0.234375 0.7734375
vt 0.234375 0.828125
vt 0.25 0.828125
vn 0.7933533402912352 -0.6087614290087207 -1.7615982901092124e-16
vn 2.220446049250313e-16 0 1
vn -0.7933533402912352 0.6087614290087207 1.7615982901092124e-16
vn -2.220446049250313e-16 0 -1
vn 0.6087614290087207 0.7933533402912352 -1.3517219099783887e-16
vn -0.6087614290087207 -0.7933533402912352 1.3517219099783887e-16
usemtl m_89e6b682-a229-f6a2-b2fb-d0ff1a6e0e56
f 28/76/19 31/75/19 29/74/19 26/73/19
f 27/80/20 28/79/20 26/78/20 25/77/20
f 32/84/21 27/83/21 25/82/21 30/81/21
f 31/88/22 32/87/22 30/86/22 29/85/22
f 30/92/23 25/91/23 26/90/23 29/89/23
f 31/96/24 28/95/24 27/94/24 32/93/24
o Лапа4
v -0.5654072195591083 0.3849226093452765 -0.06249999999999997
v -0.5654072195591083 0.3849226093452765 0.06250000000000001
v -0.6143545416416276 0.013130786330097566 -0.062499999999999924
v -0.6143545416416275 0.013130786330097566 0.06250000000000006
v -0.5344245676411767 0.3808436658383999 0.0625
v -0.5344245676411767 0.3808436658383999 -0.06249999999999998
v -0.5833718897236959 0.009051842823220968 0.06250000000000004
v -0.583371889723696 0.009051842823220968 -0.06249999999999994
vt 0.2265625 0.765625
vt 0.21875 0.765625
vt 0.21875 0.71875
vt 0.2265625 0.71875
vt 0.203125 0.765625
vt 0.1875 0.765625
vt 0.1875 0.71875
vt 0.203125 0.71875
vt 0.234375 0.765625
vt 0.2265625 0.765625
vt 0.2265625 0.71875
vt 0.234375 0.71875
vt 0.21875 0.765625
vt 0.203125 0.765625
vt 0.203125 0.71875
vt 0.21875 0.71875
vt 0.1171875 0.75
vt 0.125 0.75
vt 0.125 0.734375
vt 0.1171875 0.734375
vt 0.1328125 0.75
vt 0.125 0.75
vt 0.125 0.734375
vt 0.1328125 0.734375
vn 3.429855849933327e-16 6.806305006382755e-17 1
vn -0.9914448613738104 0.13052619222005135 3.1934898502909905e-16
vn -3.429855849933327e-16 -6.806305006382755e-17 -1
vn 0.9914448613738104 -0.13052619222005135 -3.1934898502909905e-16
vn 0.13052619222005138 0.9914448613738105 -1.260283236315676e-16
vn -0.13052619222005138 -0.9914448613738105 1.260283236315676e-16
usemtl m_89e6b682-a229-f6a2-b2fb-d0ff1a6e0e56
f 36/100/25 39/99/25 37/98/25 34/97/25
f 35/104/26 36/103/26 34/102/26 33/101/26
f 40/108/27 35/107/27 33/106/27 38/105/27
f 39/112/28 40/111/28 38/110/28 37/109/28
f 38/116/29 33/115/29 34/114/29 37/113/29
f 39/120/30 36/119/30 35/118/30 40/117/30
o Лапа4
v -0.7251650993388643 0.0029788965495493713 0.06250000000000006
v -0.6006407620773961 0.013873364393006644 0.06250000000000003
v -0.7251650993388643 0.0029788965495493713 0.06250000000000006
v -0.6006407620773961 0.013873364393006644 0.06250000000000003
v -0.6006407620773961 0.013873364393006644 -0.06249999999999997
v -0.7251650993388643 0.0029788965495493713 -0.06249999999999995
v -0.6006407620773961 0.013873364393006644 -0.06249999999999997
v -0.7251650993388643 0.0029788965495493713 -0.06249999999999995
vt 0.03125 0.90625
vt 0.015625 0.90625
vt 0.015625 0.90625
vt 0.03125 0.90625
vt 0.046875 0.90625
vt 0.03125 0.90625
vt 0.03125 0.90625
vt 0.046875 0.90625
vt 0.0625 0.90625
vt 0.046875 0.90625
vt 0.046875 0.90625
vt 0.0625 0.90625
vt 0.015625 0.90625
vt 0 0.90625
vt 0 0.90625
vt 0.015625 0.90625
vt 0.015625 0.90625
vt 0.03125 0.90625
vt 0.03125 0.921875
vt 0.015625 0.921875
vt 0.03125 0.921875
vt 0.046875 0.921875
vt 0.046875 0.90625
vt 0.03125 0.90625
vn 0.9961946980917455 0.08715574274765818 -2.2119965816619248e-16
vn 2.220446049250313e-16 0 1
vn -0.9961946980917455 -0.08715574274765818 2.2119965816619248e-16
vn -2.220446049250313e-16 0 -1
vn -0.08715574274765818 0.9961946980917455 1.9352462465351423e-17
vn 0.08715574274765818 -0.9961946980917455 -1.9352462465351423e-17
usemtl m_89e6b682-a229-f6a2-b2fb-d0ff1a6e0e56
f 44/124/31 47/123/31 45/122/31 42/121/31
f 43/128/32 44/127/32 42/126/32 41/125/32
f 48/132/33 43/131/33 41/130/33 46/129/33
f 47/136/34 48/135/34 46/134/34 45/133/34
f 46/140/35 41/139/35 42/138/35 45/137/35
f 47/144/36 44/143/36 43/142/36 48/141/36
o cube
v -0.36717139208637406 0.48217373136763453 0.47754182209675766
v -0.13093099075255532 0.280158754664587 0.16966738021288927
v -0.3218936916380666 0.403772313711377 0.5637285238064902
v -0.08565329030424783 0.20175733700832948 0.2558540819226218
v -0.22589967016244894 0.20175731979178022 0.14823924587912418
v -0.4621400714962677 0.4037722964948277 0.45611368776299255
v -0.18062196971414146 0.12335590213552268 0.23442594758885674
v -0.4168623710479602 0.3253708788385702 0.5423003894727251
vt 0.234375 0.7578125
vt 0.25 0.7578125
vt 0.25 0.7734375
vt 0.234375 0.7734375
vt 0.171875 0.765625
vt 0.1171875 0.765625
vt 0.1171875 0.75
vt 0.171875 0.75
vt 0.234375 0.7421875
vt 0.25 0.7421875
vt 0.25 0.7578125
vt 0.234375 0.7578125
vt 0.2890625 0.84375
vt 0.234375 0.84375
vt 0.234375 0.828125
vt 0.2890625 0.828125
vt 0.171875 0.7109375
vt 0.1875 0.7109375
vt 0.1875 0.765625
vt 0.171875 0.765625
vt 0.234375 0.7734375
vt 0.25 0.7734375
vt 0.25 0.828125
vt 0.234375 0.828125
vn 0.5399780601915858 -0.46174851817839424 -0.7037130100202705
vn 0.7597494352791492 0.6272114789824544 0.17142507467012058
vn -0.5399780601915858 0.46174851817839424 0.7037130100202705
vn -0.7597494352791492 -0.6272114789824544 -0.17142507467012058
vn -0.36222160358645983 0.6272113412500602 -0.6894936136778602
vn 0.36222160358645983 -0.6272113412500602 0.6894936136778602
usemtl m_89e6b682-a229-f6a2-b2fb-d0ff1a6e0e56
f 52/148/37 55/147/37 53/146/37 50/145/37
f 51/152/38 52/151/38 50/150/38 49/149/38
f 56/156/39 51/155/39 49/154/39 54/153/39
f 55/160/40 56/159/40 54/158/40 53/157/40
f 54/164/41 49/163/41 50/162/41 53/161/41
f 55/168/42 52/167/42 51/166/42 56/165/42
o cube
v -0.43987400845462166 0.3935980344042463 0.46962228778906634
v -0.34070484091821723 0.3935980344042463 0.5457174664151565
v -0.4892840417077674 0.027487031734271306 0.5340146967974936
v -0.39011487417136304 0.027487031734271306 0.6101098754235837
v -0.3221319861547848 0.38683429646868056 0.5215128508413566
v -0.42130115369118915 0.38683429646868056 0.4454176722152665
v -0.3715420194079305 0.020723293798705578 0.5859052598497839
v -0.47071118694433495 0.020723293798705578 0.5098100812236938
vt 0.2265625 0.765625
vt 0.21875 0.765625
vt 0.21875 0.71875
vt 0.2265625 0.71875
vt 0.203125 0.765625
vt 0.1875 0.765625
vt 0.1875 0.71875
vt 0.203125 0.71875
vt 0.2265625 0.765625
vt 0.234375 0.765625
vt 0.234375 0.71875
vt 0.2265625 0.71875
vt 0.21875 0.765625
vt 0.203125 0.765625
vt 0.203125 0.71875
vt 0.21875 0.71875
vt 0.125 0.75
vt 0.1328125 0.75
vt 0.1328125 0.734375
vt 0.125 0.734375
vt 0.1171875 0.75
vt 0.125 0.75
vt 0.125 0.734375
vt 0.1171875 0.734375
vn 0.7933533402912352 5.5511151231257815e-17 0.6087614290087209
vn -0.5943313524298389 0.2164396139381031 0.7745476983615946
vn -0.7933533402912352 -5.5511151231257815e-17 -0.6087614290087209
vn 0.5943313524298389 -0.2164396139381031 -0.7745476983615946
vn 0.13176008867505545 0.9762960071199334 -0.1717130906891394
vn -0.13176008867505545 -0.9762960071199334 0.1717130906891394
usemtl m_89e6b682-a229-f6a2-b2fb-d0ff1a6e0e56
f 60/172/43 63/171/43 61/170/43 58/169/43
f 59/176/44 60/175/44 58/174/44 57/173/44
f 64/180/45 59/179/45 57/178/45 62/177/45
f 63/184/46 64/183/46 62/182/46 61/181/46
f 62/188/47 57/187/47 58/186/47 61/185/47
f 63/192/48 60/191/48 59/190/48 64/189/48
o cube
v -0.4587492630057033 0.011156180615173317 0.6995559524019451
v -0.38330508918154405 0.027471954642679763 0.6012351908412585
v -0.4587492630057033 0.011156180615173317 0.6995559524019451
v -0.38330508918154405 0.027471954642679763 0.6012351908412585
v -0.48247425671794847 0.027471954642679763 0.5251400122151685
v -0.5579184305421077 0.011156180615173317 0.6234607737758551
v -0.48247425671794847 0.027471954642679763 0.5251400122151685
v -0.5579184305421077 0.011156180615173317 0.6234607737758551
vt 0.03125 0.90625
vt 0.015625 0.90625
vt 0.015625 0.90625
vt 0.03125 0.90625
vt 0.046875 0.90625
vt 0.03125 0.90625
vt 0.03125 0.90625
vt 0.046875 0.90625
vt 0.0625 0.90625
vt 0.046875 0.90625
vt 0.046875 0.90625
vt 0.0625 0.90625
vt 0.015625 0.90625
vt 0 0.90625
vt 0 0.90625
vt 0.015625 0.90625
vt 0.015625 0.90625
vt 0.03125 0.90625
vt 0.03125 0.921875
vt 0.015625 0.921875
vt 0.03125 0.921875
vt 0.046875 0.921875
vt 0.046875 0.90625
vt 0.03125 0.90625
vn 0.6035533905932737 0.13052619222005157 -0.786566092485493
vn 0.7933533402912353 0 0.6087614290087207
vn -0.6035533905932737 -0.13052619222005157 0.786566092485493
vn -0.7933533402912353 0 -0.6087614290087207
vn -0.07945931129894555 0.9914448613738104 0.10355339059327374
vn 0.07945931129894555 -0.9914448613738104 -0.10355339059327374
usemtl m_89e6b682-a229-f6a2-b2fb-d0ff1a6e0e56
f 68/196/49 71/195/49 69/194/49 66/193/49
f 67/200/50 68/199/50 66/198/50 65/197/50
f 72/204/51 67/203/51 65/202/51 70/201/51
f 71/208/52 72/207/52 70/206/52 69/205/52
f 70/212/53 65/211/53 66/210/53 69/209/53
f 71/216/54 68/215/54 67/214/54 72/213/54
o Лапа3
v 0.3836341538028975 0.4258705924109063 -0.5325107101717863
v 0.13586763815821684 0.212078512879237 -0.24214723028008478
v 0.47955300483788843 0.3500614439669 -0.5064809766287433
v 0.2317864891932078 0.13626936443523063 -0.21611749673704167
v 0.17346136909765875 0.2904799477520438 -0.15234229498175117
v 0.4212278847423394 0.5042720272837131 -0.44270577487345275
v 0.2693802201326497 0.21467079930803745 -0.12631256143870806
v 0.5171467357773304 0.4284628788397068 -0.41667604133040964
vt 0.234375 0.7578125
vt 0.25 0.7578125
vt 0.25 0.7734375
vt 0.234375 0.7734375
vt 0.234375 0.84375
vt 0.2890625 0.84375
vt 0.2890625 0.828125
vt 0.234375 0.828125
vt 0.25 0.7421875
vt 0.234375 0.7421875
vt 0.234375 0.7578125
vt 0.25 0.7578125
vt 0.1171875 0.765625
vt 0.171875 0.765625
vt 0.171875 0.75
vt 0.1171875 0.75
vt 0.1875 0.7109375
vt 0.171875 0.7109375
vt 0.171875 0.765625
vt 0.1875 0.765625
vt 0.25 0.7734375
vt 0.234375 0.7734375
vt 0.234375 0.828125
vt 0.25 0.828125
vn -0.5663234643306987 -0.4886676103581013 0.6636879540381752
vn -0.3007498475155352 -0.6272114789824544 -0.7184394823866689
vn 0.5663234643306987 0.4886676103581013 -0.6636879540381752
vn 0.3007498475155352 0.6272114789824544 0.7184394823866689
vn -0.7673508082799276 0.6064731875520509 -0.20823786834434485
vn 0.7673508082799276 -0.6064731875520509 0.20823786834434485
usemtl m_89e6b682-a229-f6a2-b2fb-d0ff1a6e0e56
f 76/220/55 79/219/55 77/218/55 74/217/55
f 75/224/56 76/223/56 74/222/56 73/221/56
f 80/228/57 75/227/57 73/226/57 78/225/57
f 79/232/58 80/231/58 78/230/58 77/229/58
f 78/236/59 73/235/59 74/234/59 77/233/59
f 79/240/60 76/239/60 75/238/60 80/237/60
o Лапа3
v 0.39019263114124436 0.39877096530623557 -0.4975777526544677
v 0.4823522982425099 0.39877096530623557 -0.41312897670251014
v 0.44502681253500553 0.03265996263626053 -0.5574187609586537
v 0.5371864796362711 0.03265996263626053 -0.47296998500669624
v 0.5029640489345254 0.4055347032418013 -0.43562275545462714
v 0.41080438183325985 0.4055347032418013 -0.5200715314065847
v 0.5577982303282866 0.03942370057182626 -0.4954637637588132
v 0.465638563227021 0.03942370057182626 -0.5799125397107707
vt 0.21875 0.765625
vt 0.2265625 0.765625
vt 0.2265625 0.71875
vt 0.21875 0.71875
vt 0.203125 0.765625
vt 0.21875 0.765625
vt 0.21875 0.71875
vt 0.203125 0.71875
vt 0.234375 0.765625
vt 0.2265625 0.765625
vt 0.2265625 0.71875
vt 0.234375 0.71875
vt 0.1875 0.765625
vt 0.203125 0.765625
vt 0.203125 0.71875
vt 0.1875 0.71875
vt 0.1171875 0.75
vt 0.125 0.75
vt 0.125 0.734375
vt 0.1171875 0.734375
vt 0.125 0.75
vt 0.1328125 0.75
vt 0.1328125 0.734375
vt 0.125 0.734375
vn 0.7372773368101245 1.5265566588595902e-16 0.67559020761566
vn -0.6595760221444955 -0.2164396139381033 0.7198009200677425
vn -0.7372773368101245 -1.5265566588595902e-16 -0.67559020761566
vn 0.6595760221444955 0.2164396139381033 -0.7198009200677425
vn -0.14622448371669655 0.9762960071199335 0.15957602214449615
vn 0.14622448371669655 -0.9762960071199335 -0.15957602214449615
usemtl m_89e6b682-a229-f6a2-b2fb-d0ff1a6e0e56
f 84/244/61 87/243/61 85/242/61 82/241/61
f 83/248/62 84/247/62 82/246/62 81/245/62
f 88/252/63 83/251/63 81/250/63 86/249/63
f 87/256/64 88/255/64 86/254/64 85/253/64
f 86/260/65 81/259/65 82/258/65 85/257/65
f 87/264/66 84/263/66 83/262/66 88/261/66
o Лапа3
v 0.5380147960445717 0.024621956897612852 -0.6622370103042133
v 0.4542884910776952 0.04093773092511928 -0.5708657819307427
v 0.5380147960445717 0.024621956897612852 -0.6622370103042133
v 0.4542884910776952 0.04093773092511928 -0.5708657819307427
v 0.5464481581789608 0.04093773092511929 -0.4864170059787851
v 0.6301744631458372 0.024621956897612866 -0.5777882343522558
v 0.5464481581789608 0.04093773092511929 -0.4864170059787851
v 0.6301744631458372 0.024621956897612866 -0.5777882343522558
vt 0.015625 0.90625
vt 0.03125 0.90625
vt 0.03125 0.90625
vt 0.015625 0.90625
vt 0 0.90625
vt 0.015625 0.90625
vt 0.015625 0.90625
vt 0 0.90625
vt 0.046875 0.90625
vt 0.0625 0.90625
vt 0.0625 0.90625
vt 0.046875 0.90625
vt 0.03125 0.90625
vt 0.046875 0.90625
vt 0.046875 0.90625
vt 0.03125 0.90625
vt 0.03125 0.90625
vt 0.015625 0.90625
vt 0.015625 0.921875
vt 0.03125 0.921875
vt 0.046875 0.921875
vt 0.03125 0.921875
vt 0.03125 0.90625
vt 0.046875 0.90625
vn -0.669810439735012 0.13052619222005138 0.7309698269877657
vn -0.7372773368101241 -9.71445146547012e-17 -0.6755902076156601
vn 0.669810439735012 -0.13052619222005138 -0.7309698269877657
vn 0.7372773368101241 9.71445146547012e-17 0.6755902076156601
vn 0.08818221730122601 0.9914448613738105 -0.09623400338396589
vn -0.08818221730122601 -0.9914448613738105 0.09623400338396589
usemtl m_89e6b682-a229-f6a2-b2fb-d0ff1a6e0e56
f 92/268/67 95/267/67 93/266/67 90/265/67
f 91/272/68 92/271/68 90/270/68 89/269/68
f 96/276/69 91/275/69 89/274/69 94/273/69
f 95/280/70 96/279/70 94/278/70 93/277/70
f 94/284/71 89/283/71 90/282/71 93/281/71
f 95/288/72 92/287/72 91/286/72 96/285/72
o Лапа4
v 0.5035975238582839 0.49276733382905685 -0.06249999999999999
v 0.1565054374808685 0.22643420863774155 -0.06250000000000007
v 0.579692702484374 0.3935981662926525 -0.06249999999999998
v 0.2326006161069586 0.12726504110133718 -0.06250000000000006
v 0.15650543748086848 0.22643420863774155 0.062499999999999924
v 0.5035975238582839 0.49276733382905685 0.0625
v 0.23260061610695856 0.12726504110133718 0.062499999999999944
v 0.579692702484374 0.3935981662926525 0.06250000000000003
vt 0.234375 0.7734375
vt 0.25 0.7734375
vt 0.25 0.7578125
vt 0.234375 0.7578125
vt 0.171875 0.765625
vt 0.1171875 0.765625
vt 0.1171875 0.75
vt 0.171875 0.75
vt 0.234375 0.7578125
vt 0.25 0.7578125
vt 0.25 0.7421875
vt 0.234375 0.7421875
vt 0.2890625 0.84375
vt 0.234375 0.84375
vt 0.234375 0.828125
vt 0.2890625 0.828125
vt 0.171875 0.7109375
vt 0.1875 0.7109375
vt 0.1875 0.765625
vt 0.171875 0.765625
vt 0.234375 0.7734375
vt 0.25 0.7734375
vt 0.25 0.828125
vt 0.234375 0.828125
vn -0.7933533402912352 -0.6087614290087207 -1.7615982901092124e-16
vn 2.220446049250313e-16 0 -1
vn 0.7933533402912352 0.6087614290087207 1.7615982901092124e-16
vn -2.220446049250313e-16 0 1
vn -0.6087614290087207 0.7933533402912352 -1.3517219099783887e-16
vn 0.6087614290087207 -0.7933533402912352 1.3517219099783887e-16
usemtl m_89e6b682-a229-f6a2-b2fb-d0ff1a6e0e56
f 100/292/73 103/291/73 101/290/73 98/289/73
f 99/296/74 100/295/74 98/294/74 97/293/74
f 104/300/75 99/299/75 97/298/75 102/297/75
f 103/304/76 104/303/76 102/302/76 101/301/76
f 102/308/77 97/307/77 98/306/77 101/305/77
f 103/312/78 100/311/78 99/310/78 104/309/78
o Лапа4
v 0.5344245676411767 0.3808436658383999 -0.06249999999999998
v 0.5344245676411767 0.3808436658383999 0.0625
v 0.583371889723696 0.009051842823220968 -0.06249999999999994
v 0.5833718897236959 0.009051842823220968 0.06250000000000004
v 0.5654072195591083 0.3849226093452765 0.06250000000000001
v 0.5654072195591083 0.3849226093452765 -0.06249999999999997
v 0.6143545416416275 0.013130786330097566 0.06250000000000006
v 0.6143545416416276 0.013130786330097566 -0.062499999999999924
vt 0.21875 0.765625
vt 0.2265625 0.765625
vt 0.2265625 0.71875
vt 0.21875 0.71875
vt 0.203125 0.765625
vt 0.21875 0.765625
vt 0.21875 0.71875
vt 0.203125 0.71875
vt 0.2265625 0.765625
vt 0.234375 0.765625
vt 0.234375 0.71875
vt 0.2265625 0.71875
vt 0.1875 0.765625
vt 0.203125 0.765625
vt 0.203125 0.71875
vt 0.1875 0.71875
vt 0.125 0.75
vt 0.1171875 0.75
vt 0.1171875 0.734375
vt 0.125 0.734375
vt 0.125 0.75
vt 0.1328125 0.75
vt 0.1328125 0.734375
vt 0.125 0.734375
vn -3.429855849933327e-16 6.806305006382755e-17 1
vn -0.9914448613738104 -0.13052619222005135 -3.1934898502909905e-16
vn 3.429855849933327e-16 -6.806305006382755e-17 -1
vn 0.9914448613738104 0.13052619222005135 3.1934898502909905e-16
vn -0.13052619222005138 0.9914448613738105 -1.260283236315676e-16
vn 0.13052619222005138 -0.9914448613738105 1.260283236315676e-16
usemtl m_89e6b682-a229-f6a2-b2fb-d0ff1a6e0e56
f 108/316/79 111/315/79 109/314/79 106/313/79
f 107/320/80 108/319/80 106/318/80 105/317/80
f 112/324/81 107/323/81 105/322/81 110/321/81
f 111/328/82 112/327/82 110/326/82 109/325/82
f 110/332/83 105/331/83 106/330/83 109/329/83
f 111/336/84 108/335/84 107/334/84 112/333/84
o Лапа4
v 0.7251650993388643 0.0029788965495493713 -0.06249999999999995
v 0.6006407620773961 0.013873364393006644 -0.06249999999999997
v 0.7251650993388643 0.0029788965495493713 -0.06249999999999995
v 0.6006407620773961 0.013873364393006644 -0.06249999999999997
v 0.6006407620773961 0.013873364393006644 0.06250000000000003
v 0.7251650993388643 0.0029788965495493713 0.06250000000000006
v 0.6006407620773961 0.013873364393006644 0.06250000000000003
v 0.7251650993388643 0.0029788965495493713 0.06250000000000006
vt 0.015625 0.90625
vt 0.03125 0.90625
vt 0.03125 0.90625
vt 0.015625 0.90625
vt 0 0.90625
vt 0.015625 0.90625
vt 0.015625 0.90625
vt 0 0.90625
vt 0.046875 0.90625
vt 0.0625 0.90625
vt 0.0625 0.90625
vt 0.046875 0.90625
vt 0.03125 0.90625
vt 0.046875 0.90625
vt 0.046875 0.90625
vt 0.03125 0.90625
vt 0.03125 0.90625
vt 0.015625 0.90625
vt 0.015625 0.921875
vt 0.03125 0.921875
vt 0.046875 0.921875
vt 0.03125 0.921875
vt 0.03125 0.90625
vt 0.046875 0.90625
vn -0.9961946980917455 0.08715574274765818 -2.2119965816619248e-16
vn 2.220446049250313e-16 0 -1
vn 0.9961946980917455 -0.08715574274765818 2.2119965816619248e-16
vn -2.220446049250313e-16 0 1
vn 0.08715574274765818 0.9961946980917455 1.9352462465351423e-17
vn -0.08715574274765818 -0.9961946980917455 -1.9352462465351423e-17
usemtl m_89e6b682-a229-f6a2-b2fb-d0ff1a6e0e56
f 116/340/85 119/339/85 117/338/85 114/337/85
f 115/344/86 116/343/86 114/342/86 113/341/86
f 120/348/87 115/347/87 113/346/87 118/345/87
f 119/352/88 120/351/88 118/350/88 117/349/88
f 118/356/89 113/355/89 114/354/89 117/353/89
f 119/360/90 116/359/90 115/358/90 120/357/90
o cube
v 0.4621400714962677 0.4037722964948277 0.45611368776299255
v 0.22589967016244894 0.20175731979178022 0.14823924587912418
v 0.4168623710479602 0.3253708788385702 0.5423003894727251
v 0.18062196971414146 0.12335590213552268 0.23442594758885674
v 0.13093099075255532 0.280158754664587 0.16966738021288927
v 0.36717139208637406 0.48217373136763453 0.47754182209675766
v 0.08565329030424783 0.20175733700832948 0.2558540819226218
v 0.3218936916380666 0.403772313711377 0.5637285238064902
vt 0.25 0.7578125
vt 0.234375 0.7578125
vt 0.234375 0.7734375
vt 0.25 0.7734375
vt 0.234375 0.84375
vt 0.2890625 0.84375
vt 0.2890625 0.828125
vt 0.234375 0.828125
vt 0.25 0.7421875
vt 0.234375 0.7421875
vt 0.234375 0.7578125
vt 0.25 0.7578125
vt 0.1171875 0.765625
vt 0.171875 0.765625
vt 0.171875 0.75
vt 0.1171875 0.75
vt 0.1875 0.7109375
vt 0.171875 0.7109375
vt 0.171875 0.765625
vt 0.1875 0.765625
vt 0.25 0.7734375
vt 0.234375 0.7734375
vt 0.234375 0.828125
vt 0.25 0.828125
vn -0.5399780601915858 -0.46174851817839424 -0.7037130100202705
vn 0.7597494352791492 -0.6272114789824544 -0.17142507467012058
vn 0.5399780601915858 0.46174851817839424 0.7037130100202705
vn -0.7597494352791492 0.6272114789824544 0.17142507467012058
vn 0.36222160358645983 0.6272113412500602 -0.6894936136778602
vn -0.36222160358645983 -0.6272113412500602 0.6894936136778602
usemtl m_89e6b682-a229-f6a2-b2fb-d0ff1a6e0e56
f 124/364/91 127/363/91 125/362/91 122/361/91
f 123/368/92 124/367/92 122/366/92 121/365/92
f 128/372/93 123/371/93 121/370/93 126/369/93
f 127/376/94 128/375/94 126/374/94 125/373/94
f 126/380/95 121/379/95 122/378/95 125/377/95
f 127/384/96 124/383/96 123/382/96 128/381/96
o cube
v 0.42130115369118915 0.38683429646868056 0.4454176722152665
v 0.3221319861547848 0.38683429646868056 0.5215128508413566
v 0.47071118694433495 0.020723293798705578 0.5098100812236938
v 0.3715420194079305 0.020723293798705578 0.5859052598497839
v 0.34070484091821723 0.3935980344042463 0.5457174664151565
v 0.43987400845462166 0.3935980344042463 0.46962228778906634
v 0.39011487417136304 0.027487031734271306 0.6101098754235837
v 0.4892840417077674 0.027487031734271306 0.5340146967974936
vt 0.21875 0.765625
vt 0.2265625 0.765625
vt 0.2265625 0.71875
vt 0.21875 0.71875
vt 0.203125 0.765625
vt 0.21875 0.765625
vt 0.21875 0.71875
vt 0.203125 0.71875
vt 0.234375 0.765625
vt 0.2265625 0.765625
vt 0.2265625 0.71875
vt 0.234375 0.71875
vt 0.1875 0.765625
vt 0.203125 0.765625
vt 0.203125 0.71875
vt 0.1875 0.71875
vt 0.1328125 0.75
vt 0.125 0.75
vt 0.125 0.734375
vt 0.1328125 0.734375
vt 0.125 0.75
vt 0.1171875 0.75
vt 0.1171875 0.734375
vt 0.125 0.734375
vn -0.7933533402912352 5.5511151231257815e-17 0.6087614290087209
vn -0.5943313524298389 -0.2164396139381031 -0.7745476983615946
vn 0.7933533402912352 -5.5511151231257815e-17 -0.6087614290087209
vn 0.5943313524298389 0.2164396139381031 0.7745476983615946
vn -0.13176008867505545 0.9762960071199334 -0.1717130906891394
vn 0.13176008867505545 -0.9762960071199334 0.1717130906891394
usemtl m_89e6b682-a229-f6a2-b2fb-d0ff1a6e0e56
f 132/388/97 135/387/97 133/386/97 130/385/97
f 131/392/98 132/391/98 130/390/98 129/389/98
f 136/396/99 131/395/99 129/394/99 134/393/99
f 135/400/100 136/399/100 134/398/100 133/397/100
f 134/404/101 129/403/101 130/402/101 133/401/101
f 135/408/102 132/407/102 131/406/102 136/405/102
o cube
v 0.5579184305421077 0.011156180615173317 0.6234607737758551
v 0.4824742567179484 0.027471954642679763 0.5251400122151685
v 0.5579184305421077 0.011156180615173317 0.6234607737758551
v 0.4824742567179484 0.027471954642679763 0.5251400122151685
v 0.38330508918154405 0.027471954642679763 0.6012351908412585
v 0.45874926300570323 0.011156180615173317 0.6995559524019451
v 0.38330508918154405 0.027471954642679763 0.6012351908412585
v 0.45874926300570323 0.011156180615173317 0.6995559524019451
vt 0.015625 0.90625
vt 0.03125 0.90625
vt 0.03125 0.90625
vt 0.015625 0.90625
vt 0 0.90625
vt 0.015625 0.90625
vt 0.015625 0.90625
vt 0 0.90625
vt 0.046875 0.90625
vt 0.0625 0.90625
vt 0.0625 0.90625
vt 0.046875 0.90625
vt 0.03125 0.90625
vt 0.046875 0.90625
vt 0.046875 0.90625
vt 0.03125 0.90625
vt 0.03125 0.90625
vt 0.015625 0.90625
vt 0.015625 0.921875
vt 0.03125 0.921875
vt 0.046875 0.921875
vt 0.03125 0.921875
vt 0.03125 0.90625
vt 0.046875 0.90625
vn -0.6035533905932737 0.13052619222005157 -0.786566092485493
vn 0.7933533402912353 0 -0.6087614290087207
vn 0.6035533905932737 -0.13052619222005157 0.786566092485493
vn -0.7933533402912353 0 0.6087614290087207
vn 0.07945931129894555 0.9914448613738104 0.10355339059327374
vn -0.07945931129894555 -0.9914448613738104 -0.10355339059327374
usemtl m_89e6b682-a229-f6a2-b2fb-d0ff1a6e0e56
f 140/412/103 143/411/103 141/410/103 138/409/103
f 139/416/104 140/415/104 138/414/104 137/413/104
f 144/420/105 139/419/105 137/418/105 142/417/105
f 143/424/106 144/423/106 142/422/106 141/421/106
f 142/428/107 137/427/107 138/426/107 141/425/107
f 143/432/108 140/431/108 139/430/108 144/429/108
o Тело
v -0.25 0.36250000000000004 -0.21875
v -0.25 0.3625 0.21875
v -0.25 0.17500000000000004 -0.21875
v -0.25 0.175 0.21875
v 0.25 0.36249999999999993 0.21875
v 0.25 0.3625 -0.21875
v 0.25 0.17499999999999993 0.21875
v 0.25 0.175 -0.21875
vt 0.234375 1
vt 0.296875 1
vt 0.296875 0.9765625
vt 0.234375 0.9765625
vt 0.234375 0.953125
vt 0.2890625 0.953125
vt 0.2890625 0.9296875
vt 0.234375 0.9296875
vt 0.234375 0.9765625
vt 0.296875 0.9765625
vt 0.296875 0.953125
vt 0.234375 0.953125
vt 0.0625 0.765625
vt 0.1171875 0.765625
vt 0.1171875 0.7421875
vt 0.0625 0.7421875
vt 0.0625 0.8515625
vt 0 0.8515625
vt 0 0.90625
vt 0.0625 0.90625
vt 0.0625 0.765625
vt 0 0.765625
vt 0 0.7109375
vt 0.0625 0.7109375
vn -1.4997597826618576e-32 -1.2246467991473532e-16 1
vn -1 1.2246467991473532e-16 0
vn 1.4997597826618576e-32 1.2246467991473532e-16 -1
vn 1 -1.2246467991473532e-16 0
vn 1.2246467991473532e-16 1 1.2246467991473532e-16
vn -1.2246467991473532e-16 -1 -1.2246467991473532e-16
usemtl m_89e6b682-a229-f6a2-b2fb-d0ff1a6e0e56
f 148/436/109 151/435/109 149/434/109 146/433/109
f 147/440/110 148/439/110 146/438/110 145/437/110
f 152/444/111 147/443/111 145/442/111 150/441/111
f 151/448/112 152/447/112 150/446/112 149/445/112
f 150/452/113 145/451/113 146/450/113 149/449/113
f 151/456/114 148/455/114 147/454/114 152/453/114
o Тело
v -0.25 0.3625 -0.21875
v -0.25 0.36249999999999993 0.21875
v -0.25 0.175 -0.21875
v -0.25 0.17499999999999993 0.21875
v 0.25 0.3625 0.21875
v 0.25 0.36250000000000004 -0.21875
v 0.25 0.175 0.21875
v 0.25 0.17500000000000004 -0.21875
vt 0.0546875 0.9453125
vt 0.1171875 0.9453125
vt 0.1171875 0.921875
vt 0.0546875 0.921875
vt 0 0.9453125
vt 0.0546875 0.9453125
vt 0.0546875 0.921875
vt 0 0.921875
vt 0.171875 0.9453125
vt 0.234375 0.9453125
vt 0.234375 0.921875
vt 0.171875 0.921875
vt 0.1171875 0.9453125
vt 0.171875 0.9453125
vt 0.171875 0.921875
vt 0.1171875 0.921875
vt 0.1171875 0.9453125
vt 0.0546875 0.9453125
vt 0.0546875 1
vt 0.1171875 1
vt 0.1796875 1
vt 0.1171875 1
vt 0.1171875 0.9453125
vt 0.1796875 0.9453125
vn 1.4997597826618576e-32 -1.2246467991473532e-16 1
vn -1 -1.2246467991473532e-16 0
vn -1.4997597826618576e-32 1.2246467991473532e-16 -1
vn 1 1.2246467991473532e-16 0
vn -1.2246467991473532e-16 1 1.2246467991473532e-16
vn 1.2246467991473532e-16 -1 -1.2246467991473532e-16
usemtl m_89e6b682-a229-f6a2-b2fb-d0ff1a6e0e56
f 156/460/115 159/459/115 157/458/115 154/457/115
f 155/464/116 156/463/116 154/462/116 153/461/116
f 160/468/117 155/467/117 153/466/117 158/465/117
f 159/472/118 160/471/118 158/470/118 157/469/118
f 158/476/119 153/475/119 154/474/119 157/473/119
f 159/480/120 156/479/120 155/478/120 160/477/120
o cube
v 0.3125 1 0.3125
v 0.3125 1 -0.3125
v 0.3125 0.375 0.3125
v 0.3125 0.375 -0.3125
v -0.3125 1 -0.3125
v -0.3125 1 0.3125
v -0.3125 0.375 -0.3125
v -0.3125 0.375 0.3125
vt 0.0625 0.921875
vt 0.140625 0.921875
vt 0.140625 0.84375
vt 0.0625 0.84375
vt 0.140625 0.921875
vt 0.21875 0.921875
vt 0.21875 0.84375
vt 0.140625 0.84375
vt 0 0.84375
vt 0.078125 0.84375
vt 0.078125 0.765625
vt 0 0.765625
vt 0.078125 0.84375
vt 0.15625 0.84375
vt 0.15625 0.765625
vt 0.078125 0.765625
vt 0.234375 0.765625
vt 0.15625 0.765625
vt 0.15625 0.84375
vt 0.234375 0.84375
vt 0.296875 0.921875
vt 0.21875 0.921875
vt 0.21875 0.84375
vt 0.296875 0.84375
vn 0 0 -1
vn 1 0 0
vn 0 0 1
vn -1 0 0
vn 0 1 0
vn 0 -1 0
usemtl m_89e6b682-a229-f6a2-b2fb-d0ff1a6e0e56
f 164/484/121 167/483/121 165/482/121 162/481/121
f 163/488/122 164/487/122 162/486/122 161/485/122
f 168/492/123 163/491/123 161/490/123 166/489/123
f 167/496/124 168/495/124 166/494/124 165/493/124
f 166/500/125 161/499/125 162/498/125 165/497/125
f 167/504/126 164/503/126 163/502/126 168/501/126