# Made in Blockbench 5.1.4
mtllib materials.mtl

o Тело
v 0.24875 0.04500000000000001 -0.12375
v -0.24875 0.04500000000000001 -0.12375
v -0.24875 0.48 -0.12375
v 0.24875 0.48 -0.12375
v 0.24875 0.04500000000000001 0.12375
v 0.24875 0.48 0.12375
v -0.24875 0.04500000000000001 0.12375
v -0.24875 0.48 0.12375
vt 0.0625 0.328125
vt 0.1875 0.328125
vt 0.1875 0.4375
vt 0.0625 0.4375
vt 0 0.328125
vt 0.0625 0.328125
vt 0.0625 0.4375
vt 0 0.4375
vt 0.25 0.328125
vt 0.375 0.328125
vt 0.375 0.4375
vt 0.25 0.4375
vt 0.1875 0.328125
vt 0.25 0.328125
vt 0.25 0.4375
vt 0.1875 0.4375
vt 0.1875 0.5
vt 0.0625 0.5
vt 0.0625 0.4375
vt 0.1875 0.4375
vt 0.3125 0.4375
vt 0.1875 0.4375
vt 0.1875 0.5
vt 0.3125 0.5
vn 0 0 -1
vn 1 0 0
vn 0 0 1
vn -1 0 0
vn 0 1 0
vn 0 -1 0
usemtl m_030f343e-4f42-2363-e8ee-73976c33f8ed
f 1/1/1 2/2/1 3/3/1 4/4/1
f 5/5/2 1/6/2 4/7/2 6/8/2
f 7/9/3 5/10/3 6/11/3 8/12/3
f 2/13/4 7/14/4 8/15/4 3/16/4
f 8/17/5 6/18/5 4/19/5 3/20/5
f 2/21/6 1/22/6 5/23/6 7/24/6
o cube
v -0.5234811866397674 -0.011116571408582403 -0.5253708153306365
v -0.6115191797725562 -0.022000668309060938 -0.6134381089180518
v -0.6145312700515076 0.024695958229376806 -0.6161981826636459
v -0.5264932769187188 0.03558005512985535 -0.5281308890762304
v -0.6118542304584769 -0.011591777498131776 -0.43696844372563415
v -0.6148663207374283 0.035104849040305974 -0.4397285174712281
v -0.6998922235912656 -0.02247587439861031 -0.5250357373130496
v -0.7029043138702171 0.024220752139827433 -0.5277958110586436
vt 0.25 0.6875
vt 0.28125 0.6875
vt 0.28125 0.703125
vt 0.25 0.703125
vt 0.28125 0.6875
vt 0.3125 0.6875
vt 0.3125 0.703125
vt 0.28125 0.703125
vt 0.4375 0.703125
vt 0.46875 0.703125
vt 0.46875 0.71875
vt 0.4375 0.71875
vt 0.4375 0.6875
vt 0.46875 0.6875
vt 0.46875 0.703125
vt 0.4375 0.703125
vt 0.234375 0.5625
vt 0.203125 0.5625
vt 0.203125 0.53125
vt 0.234375 0.53125
vt 0.46875 0.71875
vt 0.4375 0.71875
vt 0.4375 0.75
vt 0.46875 0.75
vn 0.7069843505496752 0.003801648716393067 -0.7072189728400188
vn 0.7043039450623103 0.08707277520382709 0.7045383486993239
vn -0.706984350549676 -0.003801648716394843 0.7072189728400179
vn -0.7043039450623101 -0.08707277520382867 -0.7045383486993239
vn -0.0642579259509651 0.9961946994866722 -0.05888157323933839
vn 0.06425792595096508 -0.996194699486672 0.05888157323933839
usemtl m_030f343e-4f42-2363-e8ee-73976c33f8ed
f 9/25/7 10/26/7 11/27/7 12/28/7
f 13/29/8 9/30/8 12/31/8 14/32/8
f 15/33/9 13/34/9 14/35/9 16/36/9
f 10/37/10 15/38/10 16/39/10 11/40/10
f 16/41/11 14/42/11 12/43/11 11/44/11
f 10/45/12 9/46/12 13/47/12 15/48/12
o cube
v -0.493155495996119 -0.022895830940382167 -0.5210068302956938
v -0.5306414211938055 -0.015983767793562365 -0.5580108087321788
v -0.4840429261999076 0.4549640734826065 -0.5172467183876104
v -0.4465570010022211 0.4480520103357867 -0.48024273995112543
v -0.6071929946900623 -0.021632053448002175 -0.4052480217406701
v -0.5605944996961644 0.44931578782816667 -0.3644839313961017
v -0.6446789198877487 -0.014719990301182373 -0.442252000177155
v -0.5980804248938508 0.45622785097498647 -0.40148790983258664
vt 0.46875 0.875
vt 0.484375 0.875
vt 0.484375 1
vt 0.46875 1
vt 0.375 0.875
vt 0.421875 0.875
vt 0.421875 1
vt 0.375 1
vt 0.484375 0.875
vt 0.5 0.875
vt 0.5 1
vt 0.484375 1
vt 0.421875 0.875
vt 0.46875 0.875
vt 0.46875 1
vt 0.421875 1
vt 0.3125 0.75
vt 0.296875 0.75
vt 0.296875 0.703125
vt 0.3125 0.703125
vt 0.25 0.515625
vt 0.234375 0.515625
vt 0.234375 0.5625
vt 0.25 0.5625
vn 0.7017692227319584 -0.00777709226080001 -0.7123618988001464
vn 0.7056174154858615 -0.1301094239401375 0.6965454764514796
vn -0.7017692227319584 0.0077770922607999235 0.7123618988001463
vn -0.705617415485862 0.13010942394013744 -0.6965454764514792
vn 0.09810209472399534 0.9914691395287767 0.08581913756751218
vn -0.09810209472399527 -0.9914691395287767 -0.08581913756751214
usemtl m_030f343e-4f42-2363-e8ee-73976c33f8ed
f 17/49/13 18/50/13 19/51/13 20/52/13
f 21/53/14 17/54/14 20/55/14 22/56/14
f 23/57/15 21/58/15 22/59/15 24/60/15
f 18/61/16 23/62/16 24/63/16 19/64/16
f 24/65/17 22/66/17 20/67/17 19/68/17
f 18/69/18 17/70/18 21/71/18 23/72/18
o cube
v -0.4947114311922666 0.4386902527537423 -0.5464881264889034
v -0.6272939526647443 0.4386902527537423 -0.4139056050164257
v -0.5420715506012361 0.5823235858385507 -0.32868320295291753
v -0.40948902912875845 0.5823235858385507 -0.4612657244253952
v -0.15616441842995293 0.03694799669965518 -0.20794111372658983
v -0.07094201636644476 0.18058132978446353 -0.12271871166308164
v -0.28874693990243055 0.036947996699655164 -0.07535859225411215
v -0.20352453783892238 0.18058132978446353 0.009863809809396051
vt 0.25 0.703125
vt 0.296875 0.703125
vt 0.296875 0.75
vt 0.25 0.75
vt 0 0.515625
vt 0.15625 0.515625
vt 0.15625 0.5625
vt 0 0.5625
vt 0.15625 0.515625
vt 0.203125 0.515625
vt 0.203125 0.5625
vt 0.15625 0.5625
vt 0.5625 0.453125
vt 0.71875 0.453125
vt 0.71875 0.5
vt 0.5625 0.5
vt 0.609375 0.453125
vt 0.5625 0.453125
vt 0.5625 0.296875
vt 0.609375 0.296875
vt 0.65625 0.296875
vt 0.609375 0.296875
vt 0.609375 0.453125
vt 0.65625 0.453125
vn -0.5416752204197021 0.6427876096865391 -0.5416752204197018
vn 0.7071067811865476 0 -0.7071067811865476
vn 0.5416752204197021 -0.6427876096865395 0.5416752204197017
vn -0.7071067811865474 0 0.7071067811865478
vn 0.4545194776720439 0.7660444431189781 0.4545194776720437
vn -0.45451947767204376 -0.766044443118978 -0.4545194776720436
usemtl m_030f343e-4f42-2363-e8ee-73976c33f8ed
f 25/73/19 26/74/19 27/75/19 28/76/19
f 29/77/20 25/78/20 28/79/20 30/80/20
f 31/81/21 29/82/21 30/83/21 32/84/21
f 26/85/22 31/86/22 32/87/22 27/88/22
f 32/89/23 30/90/23 28/91/23 27/92/23
f 26/93/24 25/94/24 29/95/24 31/96/24
o cube
v -0.7358098488199802 -0.00836540112370826 -0.03125
v -0.8599389563843752 -0.023095121259096407 -0.03125
v -0.8654626014351458 0.023453294077551715 -0.03125
v -0.7413334938707508 0.03818301421293986 -0.03125
v -0.7358098488199802 -0.00836540112370826 0.09375
v -0.7413334938707508 0.03818301421293986 0.09375
v -0.8599389563843752 -0.023095121259096407 0.09375
v -0.8654626014351458 0.023453294077551715 0.09375
vt 0.25 0.6875
vt 0.28125 0.6875
vt 0.28125 0.703125
vt 0.25 0.703125
vt 0.28125 0.6875
vt 0.3125 0.6875
vt 0.3125 0.703125
vt 0.28125 0.703125
vt 0.4375 0.703125
vt 0.46875 0.703125
vt 0.46875 0.71875
vt 0.4375 0.71875
vt 0.4375 0.6875
vt 0.46875 0.6875
vt 0.46875 0.703125
vt 0.4375 0.703125
vt 0.203125 0.53125
vt 0.234375 0.53125
vt 0.234375 0.5625
vt 0.203125 0.5625
vt 0.4375 0.71875
vt 0.46875 0.71875
vt 0.46875 0.75
vt 0.4375 0.75
vn 0 0 -1
vn 0.9930328605151602 0.11783776108310447 0
vn 0 0 1
vn -0.9930328605151602 -0.11783776108310447 0
vn -0.11783776108310517 0.9930328605151599 0
vn 0.11783776108310517 -0.9930328605151599 0
usemtl m_030f343e-4f42-2363-e8ee-73976c33f8ed
f 33/97/25 34/98/25 35/99/25 36/100/25
f 37/101/26 33/102/26 36/103/26 38/104/26
f 39/105/27 37/106/27 38/107/27 40/108/27
f 34/109/28 39/110/28 40/111/28 35/112/28
f 40/113/29 38/114/29 36/115/29 35/116/29
f 34/117/30 33/118/30 37/119/30 39/120/30
o cube
v -0.7158530755090757 -0.017191486451874016 -0.05
v -0.768724928182773 -0.012011445925888597 -0.05
v -0.7224092717151385 0.46072511915658104 -0.05
v -0.6695374190414412 0.45554507863059557 -0.05
v -0.7158530755090757 -0.017191486451874016 0.11250000000000002
v -0.6695374190414412 0.45554507863059557 0.11250000000000002
v -0.768724928182773 -0.012011445925888597 0.11250000000000002
v -0.7224092717151385 0.46072511915658104 0.11250000000000002
vt 0.46875 0.875
vt 0.484375 0.875
vt 0.484375 1
vt 0.46875 1
vt 0.375 0.875
vt 0.421875 0.875
vt 0.421875 1
vt 0.375 1
vt 0.484375 0.875
vt 0.5 0.875
vt 0.5 1
vt 0.484375 1
vt 0.421875 0.875
vt 0.46875 0.875
vt 0.46875 1
vt 0.421875 1
vt 0.296875 0.703125
vt 0.3125 0.703125
vt 0.3125 0.75
vt 0.296875 0.75
vt 0.234375 0.515625
vt 0.25 0.515625
vt 0.25 0.5625
vt 0.234375 0.5625
vn 0 0 -1
vn 0.9952348738578309 -0.09750664519502018 0
vn 0 0 1
vn -0.9952348738578309 0.09750664519502018 0
vn 0.09750664519502059 0.9952348738578309 0
vn -0.09750664519501955 -0.9952348738578309 0
usemtl m_030f343e-4f42-2363-e8ee-73976c33f8ed
f 41/121/31 42/122/31 43/123/31 44/124/31
f 45/125/32 41/126/32 44/127/32 46/128/32
f 47/129/33 45/130/33 46/131/33 48/132/33
f 42/133/34 47/134/34 48/135/34 43/136/34
f 48/137/35 46/138/35 44/139/35 43/140/35
f 42/141/36 41/142/36 45/143/36 47/144/36
o cube
v -0.7433999992544251 0.48656803044867836 -0.0625
v -0.7433999992544251 0.48656803044867836 0.125
v -0.6228773224381992 0.6302013635334868 0.12500000000000003
v -0.622877322438199 0.6302013635334868 -0.06249999999999997
v -0.2646222223050639 0.0848257743945913 -0.0625
v -0.14409954548883774 0.2284591074793997 -0.06249999999999997
v -0.2646222223050639 0.0848257743945913 0.125
v -0.14409954548883777 0.2284591074793997 0.12500000000000003
vt 0.25 0.703125
vt 0.296875 0.703125
vt 0.296875 0.75
vt 0.25 0.75
vt 0 0.515625
vt 0.15625 0.515625
vt 0.15625 0.5625
vt 0 0.5625
vt 0.15625 0.515625
vt 0.203125 0.515625
vt 0.203125 0.5625
vt 0.15625 0.5625
vt 0.5625 0.453125
vt 0.71875 0.453125
vt 0.71875 0.5
vt 0.5625 0.5
vt 0.5625 0.296875
vt 0.609375 0.296875
vt 0.609375 0.453125
vt 0.5625 0.453125
vt 0.609375 0.296875
vt 0.65625 0.296875
vt 0.65625 0.453125
vt 0.609375 0.453125
vn -0.7660444431189785 0.6427876096865388 0
vn 9.515168056236857e-17 1.133973571515794e-16 -1
vn 0.7660444431189782 -0.6427876096865394 0
vn -9.515168056236856e-17 -1.1339735715157938e-16 1
vn 0.6427876096865394 0.7660444431189781 9.515168056236857e-17
vn -0.6427876096865394 -0.766044443118978 0
usemtl m_030f343e-4f42-2363-e8ee-73976c33f8ed
f 49/145/37 50/146/37 51/147/37 52/148/37
f 53/149/38 49/150/38 52/151/38 54/152/38
f 55/153/39 53/154/39 54/155/39 56/156/39
f 50/157/40 55/158/40 56/159/40 51/160/40
f 56/161/41 54/162/41 52/163/41 51/164/41
f 50/165/42 49/166/42 53/167/42 55/168/42
o cube
v -0.6115191797725561 -0.022000668309060938 0.613438108918052
v -0.5234811866397674 -0.011116571408582403 0.5253708153306366
v -0.5264932769187188 0.03558005512985535 0.5281308890762305
v -0.6145312700515076 0.024695958229376806 0.616198182663646
v -0.6998922235912656 -0.02247587439861031 0.5250357373130496
v -0.7029043138702171 0.024220752139827436 0.5277958110586437
v -0.6118542304584768 -0.011591777498131776 0.43696844372563426
v -0.6148663207374283 0.035104849040305974 0.4397285174712282
vt 0.4375 0.703125
vt 0.46875 0.703125
vt 0.46875 0.71875
vt 0.4375 0.71875
vt 0.4375 0.703125
vt 0.46875 0.703125
vt 0.46875 0.6875
vt 0.4375 0.6875
vt 0.28125 0.6875
vt 0.3125 0.6875
vt 0.3125 0.703125
vt 0.28125 0.703125
vt 0.28125 0.6875
vt 0.25 0.6875
vt 0.25 0.703125
vt 0.28125 0.703125
vt 0.234375 0.5625
vt 0.203125 0.5625
vt 0.203125 0.53125
vt 0.234375 0.53125
vt 0.46875 0.75
vt 0.4375 0.75
vt 0.4375 0.71875
vt 0.46875 0.71875
vn 0.7069843505496756 0.003801648716394845 0.7072189728400183
vn -0.7043039450623102 -0.08707277520383018 0.7045383486993236
vn -0.7069843505496751 -0.003801648716394547 -0.7072189728400188
vn 0.7043039450623106 0.08707277520382861 -0.7045383486993234
vn -0.06425792595096508 0.9961946994866722 0.0588815732393384
vn 0.06425792595096515 -0.996194699486672 -0.05888157323933844
usemtl m_030f343e-4f42-2363-e8ee-73976c33f8ed
f 57/169/43 58/170/43 59/171/43 60/172/43
f 61/173/44 57/174/44 60/175/44 62/176/44
f 63/177/45 61/178/45 62/179/45 64/180/45
f 58/181/46 63/182/46 64/183/46 59/184/46
f 64/185/47 62/186/47 60/187/47 59/188/47
f 58/189/48 57/190/48 61/191/48 63/192/48
o cube
v -0.5306414211938054 -0.015983767793562365 0.5580108087321788
v -0.493155495996119 -0.022895830940382167 0.521006830295694
v -0.4465570010022212 0.4480520103357867 0.48024273995112554
v -0.4840429261999075 0.4549640734826065 0.5172467183876104
v -0.6446789198877487 -0.014719990301182373 0.44225200017715505
v -0.5980804248938507 0.45622785097498647 0.40148790983258664
v -0.6071929946900623 -0.021632053448002175 0.4052480217406702
v -0.5605944996961645 0.44931578782816667 0.3644839313961018
vt 0.484375 0.875
vt 0.5 0.875
vt 0.5 1
vt 0.484375 1
vt 0.421875 0.875
vt 0.375 0.875
vt 0.375 1
vt 0.421875 1
vt 0.484375 0.875
vt 0.46875 0.875
vt 0.46875 1
vt 0.484375 1
vt 0.46875 0.875
vt 0.421875 0.875
vt 0.421875 1
vt 0.46875 1
vt 0.3125 0.75
vt 0.296875 0.75
vt 0.296875 0.703125
vt 0.3125 0.703125
vt 0.234375 0.5625
vt 0.25 0.5625
vt 0.25 0.515625
vt 0.234375 0.515625
vn 0.7017692227319585 -0.007777092260799849 0.7123618988001463
vn -0.7056174154858613 0.13010942394013753 0.6965454764514798
vn -0.701769222731958 0.007777092260799993 -0.7123618988001468
vn 0.7056174154858615 -0.13010942394013736 -0.6965454764514796
vn 0.09810209472399581 0.9914691395287767 -0.0858191375675126
vn -0.09810209472399556 -0.9914691395287767 0.08581913756751243
usemtl m_030f343e-4f42-2363-e8ee-73976c33f8ed
f 65/193/49 66/194/49 67/195/49 68/196/49
f 69/197/50 65/198/50 68/199/50 70/200/50
f 71/201/51 69/202/51 70/203/51 72/204/51
f 66/205/52 71/206/52 72/207/52 67/208/52
f 72/209/53 70/210/53 68/211/53 67/212/53
f 66/213/54 65/214/54 69/215/54 71/216/54
o cube
v -0.6272939526647443 0.4386902527537423 0.4139056050164258
v -0.49471143119226657 0.4386902527537423 0.5464881264889034
v -0.4094890291287584 0.5823235858385507 0.46126572442539526
v -0.542071550601236 0.5823235858385507 0.3286832029529176
v -0.2887469399024306 0.036947996699655164 0.07535859225411215
v -0.2035245378389224 0.18058132978446353 -0.009863809809396051
v -0.1561644184299529 0.03694799669965518 0.20794111372658983
v -0.07094201636644473 0.18058132978446353 0.12271871166308161
vt 0.25 0.703125
vt 0.296875 0.703125
vt 0.296875 0.75
vt 0.25 0.75
vt 0 0.515625
vt 0.15625 0.515625
vt 0.15625 0.5625
vt 0 0.5625
vt 0.203125 0.515625
vt 0.15625 0.515625
vt 0.15625 0.5625
vt 0.203125 0.5625
vt 0.5625 0.453125
vt 0.71875 0.453125
vt 0.71875 0.5
vt 0.5625 0.5
vt 0.5625 0.296875
vt 0.609375 0.296875
vt 0.609375 0.453125
vt 0.5625 0.453125
vt 0.609375 0.296875
vt 0.65625 0.296875
vt 0.65625 0.453125
vt 0.609375 0.453125
vn -0.5416752204197018 0.6427876096865393 0.5416752204197022
vn -0.7071067811865476 0 -0.7071067811865476
vn 0.5416752204197018 -0.6427876096865395 -0.5416752204197018
vn 0.7071067811865476 2.3684757858670016e-16 0.7071067811865476
vn 0.45451947767204387 0.7660444431189781 -0.45451947767204387
vn -0.4545194776720435 -0.766044443118978 0.4545194776720439
usemtl m_030f343e-4f42-2363-e8ee-73976c33f8ed
f 73/217/55 74/218/55 75/219/55 76/220/55
f 77/221/56 73/222/56 76/223/56 78/224/56
f 79/225/57 77/226/57 78/227/57 80/228/57
f 74/229/58 79/230/58 80/231/58 75/232/58
f 80/233/59 78/234/59 76/235/59 75/236/59
f 74/237/60 73/238/60 77/239/60 79/240/60
o cube
v 0.6115191797725562 -0.022000668309060938 -0.6134381089180518
v 0.5234811866397674 -0.011116571408582403 -0.5253708153306365
v 0.5264932769187188 0.03558005512985535 -0.5281308890762304
v 0.6145312700515076 0.024695958229376806 -0.6161981826636459
v 0.6998922235912656 -0.02247587439861031 -0.5250357373130496
v 0.7029043138702171 0.024220752139827433 -0.5277958110586436
v 0.6118542304584769 -0.011591777498131776 -0.43696844372563415
v 0.6148663207374283 0.035104849040305974 -0.4397285174712281
vt 0.28125 0.6875
vt 0.25 0.6875
vt 0.25 0.703125
vt 0.28125 0.703125
vt 0.46875 0.6875
vt 0.4375 0.6875
vt 0.4375 0.703125
vt 0.46875 0.703125
vt 0.46875 0.703125
vt 0.4375 0.703125
vt 0.4375 0.71875
vt 0.46875 0.71875
vt 0.3125 0.6875
vt 0.28125 0.6875
vt 0.28125 0.703125
vt 0.3125 0.703125
vt 0.234375 0.53125
vt 0.203125 0.53125
vt 0.203125 0.5625
vt 0.234375 0.5625
vt 0.46875 0.71875
vt 0.4375 0.71875
vt 0.4375 0.75
vt 0.46875 0.75
vn -0.7069843505496752 0.0038016487163948435 -0.7072189728400188
vn 0.7043039450623103 -0.08707277520382868 -0.7045383486993237
vn 0.7069843505496759 -0.0038016487163963237 0.707218972840018
vn -0.7043039450623103 0.08707277520382693 0.7045383486993239
vn 0.0642579259509651 0.9961946994866722 -0.0588815732393384
vn -0.0642579259509651 -0.996194699486672 0.05888157323933838
usemtl m_030f343e-4f42-2363-e8ee-73976c33f8ed
f 81/241/61 82/242/61 83/243/61 84/244/61
f 85/245/62 81/246/62 84/247/62 86/248/62
f 87/249/63 85/250/63 86/251/63 88/252/63
f 82/253/64 87/254/64 88/255/64 83/256/64
f 88/257/65 86/258/65 84/259/65 83/260/65
f 82/261/66 81/262/66 85/263/66 87/264/66
o cube
v 0.5306414211938055 -0.015983767793562365 -0.5580108087321788
v 0.493155495996119 -0.022895830940382167 -0.5210068302956938
v 0.4465570010022211 0.4480520103357867 -0.48024273995112543
v 0.4840429261999076 0.4549640734826065 -0.5172467183876104
v 0.6446789198877487 -0.014719990301182373 -0.442252000177155
v 0.5980804248938508 0.45622785097498647 -0.40148790983258664
v 0.6071929946900623 -0.021632053448002175 -0.4052480217406701
v 0.5605944996961644 0.44931578782816667 -0.3644839313961017
vt 0.484375 0.875
vt 0.46875 0.875
vt 0.46875 1
vt 0.484375 1
vt 0.46875 0.875
vt 0.421875 0.875
vt 0.421875 1
vt 0.46875 1
vt 0.5 0.875
vt 0.484375 0.875
vt 0.484375 1
vt 0.5 1
vt 0.421875 0.875
vt 0.375 0.875
vt 0.375 1
vt 0.421875 1
vt 0.3125 0.703125
vt 0.296875 0.703125
vt 0.296875 0.75
vt 0.3125 0.75
vt 0.25 0.515625
vt 0.234375 0.515625
vt 0.234375 0.5625
vt 0.25 0.5625
vn -0.7017692227319585 -0.007777092260799929 -0.7123618988001463
vn 0.7056174154858619 0.1301094239401376 -0.6965454764514791
vn 0.7017692227319584 0.00777709226080001 0.7123618988001464
vn -0.7056174154858615 -0.1301094239401375 0.6965454764514796
vn -0.09810209472399536 0.9914691395287767 0.08581913756751222
vn 0.09810209472399532 -0.9914691395287767 -0.08581913756751208
usemtl m_030f343e-4f42-2363-e8ee-73976c33f8ed
f 89/265/67 90/266/67 91/267/67 92/268/67
f 93/269/68 89/270/68 92/271/68 94/272/68
f 95/273/69 93/274/69 94/275/69 96/276/69
f 90/277/70 95/278/70 96/279/70 91/280/70
f 96/281/71 94/282/71 92/283/71 91/284/71
f 90/285/72 89/286/72 93/287/72 95/288/72
o cube
v 0.6272939526647443 0.4386902527537423 -0.4139056050164257
v 0.4947114311922666 0.4386902527537423 -0.5464881264889034
v 0.40948902912875845 0.5823235858385507 -0.4612657244253952
v 0.5420715506012361 0.5823235858385507 -0.32868320295291753
v 0.28874693990243055 0.036947996699655164 -0.07535859225411215
v 0.20352453783892238 0.18058132978446353 0.009863809809396051
v 0.15616441842995293 0.03694799669965518 -0.20794111372658983
v 0.07094201636644476 0.18058132978446353 -0.12271871166308164
vt 0.296875 0.703125
vt 0.25 0.703125
vt 0.25 0.75
vt 0.296875 0.75
vt 0.71875 0.453125
vt 0.5625 0.453125
vt 0.5625 0.5
vt 0.71875 0.5
vt 0.203125 0.515625
vt 0.15625 0.515625
vt 0.15625 0.5625
vt 0.203125 0.5625
vt 0.15625 0.515625
vt 0 0.515625
vt 0 0.5625
vt 0.15625 0.5625
vt 0.609375 0.296875
vt 0.5625 0.296875
vt 0.5625 0.453125
vt 0.609375 0.453125
vt 0.65625 0.296875
vt 0.609375 0.296875
vt 0.609375 0.453125
vt 0.65625 0.453125
vn 0.541675220419702 0.6427876096865394 -0.5416752204197017
vn 0.7071067811865475 -1.1842378929335003e-16 0.7071067811865476
vn -0.5416752204197021 -0.6427876096865395 0.5416752204197017
vn -0.7071067811865476 2.3684757858670016e-16 -0.7071067811865476
vn -0.4545194776720439 0.7660444431189781 0.4545194776720437
vn 0.45451947767204387 -0.766044443118978 -0.45451947767204365
usemtl m_030f343e-4f42-2363-e8ee-73976c33f8ed
f 97/289/73 98/290/73 99/291/73 100/292/73
f 101/293/74 97/294/74 100/295/74 102/296/74
f 103/297/75 101/298/75 102/299/75 104/300/75
f 98/301/76 103/302/76 104/303/76 99/304/76
f 104/305/77 102/306/77 100/307/77 99/308/77
f 98/309/78 97/310/78 101/311/78 103/312/78
o cube
v 0.8599389563843752 -0.023095121259096407 -0.03125
v 0.7358098488199802 -0.00836540112370826 -0.03125
v 0.7413334938707508 0.03818301421293986 -0.03125
v 0.8654626014351458 0.023453294077551715 -0.03125
v 0.8599389563843752 -0.023095121259096407 0.09375
v 0.8654626014351458 0.023453294077551715 0.09375
v 0.7358098488199802 -0.00836540112370826 0.09375
v 0.7413334938707508 0.03818301421293986 0.09375
vt 0.28125 0.6875
vt 0.25 0.6875
vt 0.25 0.703125
vt 0.28125 0.703125
vt 0.46875 0.6875
vt 0.4375 0.6875
vt 0.4375 0.703125
vt 0.46875 0.703125
vt 0.46875 0.703125
vt 0.4375 0.703125
vt 0.4375 0.71875
vt 0.46875 0.71875
vt 0.3125 0.6875
vt 0.28125 0.6875
vt 0.28125 0.703125
vt 0.3125 0.703125
vt 0.234375 0.53125
vt 0.203125 0.53125
vt 0.203125 0.5625
vt 0.234375 0.5625
vt 0.46875 0.71875
vt 0.4375 0.71875
vt 0.4375 0.75
vt 0.46875 0.75
vn 0 0 -1
vn 0.9930328605151602 -0.11783776108310447 0
vn 0 0 1
vn -0.9930328605151602 0.11783776108310447 0
vn 0.11783776108310517 0.9930328605151599 0
vn -0.11783776108310517 -0.9930328605151599 0
usemtl m_030f343e-4f42-2363-e8ee-73976c33f8ed
f 105/313/79 106/314/79 107/315/79 108/316/79
f 109/317/80 105/318/80 108/319/80 110/320/80
f 111/321/81 109/322/81 110/323/81 112/324/81
f 106/325/82 111/326/82 112/327/82 107/328/82
f 112/329/83 110/330/83 108/331/83 107/332/83
f 106/333/84 105/334/84 109/335/84 111/336/84
o cube
v 0.768724928182773 -0.012011445925888597 -0.05
v 0.7158530755090757 -0.017191486451874016 -0.05
v 0.6695374190414412 0.45554507863059557 -0.05
v 0.7224092717151385 0.46072511915658104 -0.05
v 0.768724928182773 -0.012011445925888597 0.11250000000000002
v 0.7224092717151385 0.46072511915658104 0.11250000000000002
v 0.7158530755090757 -0.017191486451874016 0.11250000000000002
v 0.6695374190414412 0.45554507863059557 0.11250000000000002
vt 0.484375 0.875
vt 0.46875 0.875
vt 0.46875 1
vt 0.484375 1
vt 0.46875 0.875
vt 0.421875 0.875
vt 0.421875 1
vt 0.46875 1
vt 0.5 0.875
vt 0.484375 0.875
vt 0.484375 1
vt 0.5 1
vt 0.421875 0.875
vt 0.375 0.875
vt 0.375 1
vt 0.421875 1
vt 0.3125 0.703125
vt 0.296875 0.703125
vt 0.296875 0.75
vt 0.3125 0.75
vt 0.25 0.515625
vt 0.234375 0.515625
vt 0.234375 0.5625
vt 0.25 0.5625
vn 0 0 -1
vn 0.9952348738578309 0.09750664519502018 0
vn 0 0 1
vn -0.9952348738578309 -0.09750664519502018 0
vn -0.09750664519502059 0.9952348738578309 0
vn 0.09750664519501955 -0.9952348738578309 0
usemtl m_030f343e-4f42-2363-e8ee-73976c33f8ed
f 113/337/85 114/338/85 115/339/85 116/340/85
f 117/341/86 113/342/86 116/343/86 118/344/86
f 119/345/87 117/346/87 118/347/87 120/348/87
f 114/349/88 119/350/88 120/351/88 115/352/88
f 120/353/89 118/354/89 116/355/89 115/356/89
f 114/357/90 113/358/90 117/359/90 119/360/90
o cube
v 0.7433999992544251 0.48656803044867836 0.125
v 0.7433999992544251 0.48656803044867836 -0.0625
v 0.622877322438199 0.6302013635334868 -0.06249999999999997
v 0.6228773224381992 0.6302013635334868 0.12500000000000003
v 0.2646222223050639 0.0848257743945913 0.125
v 0.14409954548883777 0.2284591074793997 0.12500000000000003
v 0.2646222223050639 0.0848257743945913 -0.0625
v 0.14409954548883774 0.2284591074793997 -0.06249999999999997
vt 0.296875 0.703125
vt 0.25 0.703125
vt 0.25 0.75
vt 0.296875 0.75
vt 0.71875 0.453125
vt 0.5625 0.453125
vt 0.5625 0.5
vt 0.71875 0.5
vt 0.203125 0.515625
vt 0.15625 0.515625
vt 0.15625 0.5625
vt 0.203125 0.5625
vt 0.15625 0.515625
vt 0 0.515625
vt 0 0.5625
vt 0.15625 0.5625
vt 0.609375 0.296875
vt 0.5625 0.296875
vt 0.5625 0.453125
vt 0.609375 0.453125
vt 0.65625 0.296875
vt 0.609375 0.296875
vt 0.609375 0.453125
vt 0.65625 0.453125
vn 0.7660444431189782 0.6427876096865391 0
vn 9.51516805623686e-17 -1.1339735715157943e-16 1
vn -0.7660444431189782 -0.6427876096865393 0
vn -9.515168056236856e-17 1.1339735715157938e-16 -1
vn -0.6427876096865393 0.7660444431189783 9.515168056236857e-17
vn 0.6427876096865394 -0.766044443118978 0
usemtl m_030f343e-4f42-2363-e8ee-73976c33f8ed
f 121/361/91 122/362/91 123/363/91 124/364/91
f 125/365/92 121/366/92 124/367/92 126/368/92
f 127/369/93 125/370/93 126/371/93 128/372/93
f 122/373/94 127/374/94 128/375/94 123/376/94
f 128/377/95 126/378/95 124/379/95 123/380/95
f 122/381/96 121/382/96 125/383/96 127/384/96
o cube
v 0.5234811866397674 -0.011116571408582403 0.5253708153306366
v 0.6115191797725561 -0.022000668309060938 0.613438108918052
v 0.6145312700515076 0.024695958229376806 0.616198182663646
v 0.5264932769187188 0.03558005512985535 0.5281308890762305
v 0.6118542304584768 -0.011591777498131776 0.43696844372563426
v 0.6148663207374283 0.035104849040305974 0.4397285174712282
v 0.6998922235912656 -0.02247587439861031 0.5250357373130496
v 0.7029043138702171 0.024220752139827436 0.5277958110586437
vt 0.46875 0.703125
vt 0.4375 0.703125
vt 0.4375 0.71875
vt 0.46875 0.71875
vt 0.25 0.6875
vt 0.28125 0.6875
vt 0.28125 0.703125
vt 0.25 0.703125
vt 0.3125 0.6875
vt 0.28125 0.6875
vt 0.28125 0.703125
vt 0.3125 0.703125
vt 0.46875 0.703125
vt 0.4375 0.703125
vt 0.4375 0.6875
vt 0.46875 0.6875
vt 0.203125 0.5625
vt 0.234375 0.5625
vt 0.234375 0.53125
vt 0.203125 0.53125
vt 0.4375 0.75
vt 0.46875 0.75
vt 0.46875 0.71875
vt 0.4375 0.71875
vn -0.7069843505496756 0.003801648716394845 0.7072189728400183
vn -0.7043039450623108 0.087072775203827 -0.7045383486993235
vn 0.706984350549675 -0.0038016487163964707 -0.7072189728400189
vn 0.7043039450623101 -0.08707277520383049 0.7045383486993237
vn 0.06425792595096509 0.9961946994866722 0.05888157323933839
vn -0.06425792595096516 -0.996194699486672 -0.05888157323933839
usemtl m_030f343e-4f42-2363-e8ee-73976c33f8ed
f 129/385/97 130/386/97 131/387/97 132/388/97
f 133/389/98 129/390/98 132/391/98 134/392/98
f 135/393/99 133/394/99 134/395/99 136/396/99
f 130/397/100 135/398/100 136/399/100 131/400/100
f 136/401/101 134/402/101 132/403/101 131/404/101
f 130/405/102 129/406/102 133/407/102 135/408/102
o cube
v 0.493155495996119 -0.022895830940382167 0.521006830295694
v 0.5306414211938054 -0.015983767793562365 0.5580108087321788
v 0.4840429261999075 0.4549640734826065 0.5172467183876104
v 0.4465570010022212 0.4480520103357867 0.48024273995112554
v 0.6071929946900623 -0.021632053448002175 0.4052480217406702
v 0.5605944996961645 0.44931578782816667 0.3644839313961018
v 0.6446789198877487 -0.014719990301182373 0.44225200017715505
v 0.5980804248938507 0.45622785097498647 0.40148790983258664
vt 0.5 0.875
vt 0.484375 0.875
vt 0.484375 1
vt 0.5 1
vt 0.421875 0.875
vt 0.46875 0.875
vt 0.46875 1
vt 0.421875 1
vt 0.46875 0.875
vt 0.484375 0.875
vt 0.484375 1
vt 0.46875 1
vt 0.375 0.875
vt 0.421875 0.875
vt 0.421875 1
vt 0.375 1
vt 0.296875 0.75
vt 0.3125 0.75
vt 0.3125 0.703125
vt 0.296875 0.703125
vt 0.25 0.5625
vt 0.234375 0.5625
vt 0.234375 0.515625
vt 0.25 0.515625
vn -0.7017692227319584 -0.007777092260799925 0.7123618988001463
vn -0.7056174154858615 -0.13010942394013741 -0.6965454764514796
vn 0.7017692227319581 0.007777092260799672 -0.7123618988001468
vn 0.7056174154858613 0.13010942394013766 0.6965454764514797
vn -0.09810209472399575 0.9914691395287767 -0.08581913756751264
vn 0.09810209472399556 -0.9914691395287767 0.08581913756751239
usemtl m_030f343e-4f42-2363-e8ee-73976c33f8ed
f 137/409/103 138/410/103 139/411/103 140/412/103
f 141/413/104 137/414/104 140/415/104 142/416/104
f 143/417/105 141/418/105 142/419/105 144/420/105
f 138/421/106 143/422/106 144/423/106 139/424/106
f 144/425/107 142/426/107 140/427/107 139/428/107
f 138/429/108 137/430/108 141/431/108 143/432/108
o cube
v 0.49471143119226657 0.4386902527537423 0.5464881264889034
v 0.6272939526647443 0.4386902527537423 0.4139056050164258
v 0.542071550601236 0.5823235858385507 0.3286832029529176
v 0.4094890291287584 0.5823235858385507 0.46126572442539526
v 0.1561644184299529 0.03694799669965518 0.20794111372658983
v 0.07094201636644473 0.18058132978446353 0.12271871166308161
v 0.2887469399024306 0.036947996699655164 0.07535859225411215
v 0.2035245378389224 0.18058132978446353 -0.009863809809396051
vt 0.296875 0.703125
vt 0.25 0.703125
vt 0.25 0.75
vt 0.296875 0.75
vt 0.71875 0.453125
vt 0.5625 0.453125
vt 0.5625 0.5
vt 0.71875 0.5
vt 0.15625 0.515625
vt 0.203125 0.515625
vt 0.203125 0.5625
vt 0.15625 0.5625
vt 0.15625 0.515625
vt 0 0.515625
vt 0 0.5625
vt 0.15625 0.5625
vt 0.609375 0.296875
vt 0.5625 0.296875
vt 0.5625 0.453125
vt 0.609375 0.453125
vt 0.65625 0.296875
vt 0.609375 0.296875
vt 0.609375 0.453125
vt 0.65625 0.453125
vn 0.5416752204197015 0.6427876096865395 0.541675220419702
vn -0.7071067811865476 0 0.7071067811865476
vn -0.5416752204197018 -0.6427876096865395 -0.5416752204197018
vn 0.7071067811865476 0 -0.7071067811865476
vn -0.45451947767204387 0.7660444431189781 -0.45451947767204387
vn 0.4545194776720435 -0.766044443118978 0.45451947767204387
usemtl m_030f343e-4f42-2363-e8ee-73976c33f8ed
f 145/433/109 146/434/109 147/435/109 148/436/109
f 149/437/110 145/438/110 148/439/110 150/440/110
f 151/441/111 149/442/111 150/443/111 152/444/111
f 146/445/112 151/446/112 152/447/112 147/448/112
f 152/449/113 150/450/113 148/451/113 147/452/113
f 146/453/114 145/454/114 149/455/114 151/456/114
o mesh
v 0.25 1.73125 -0.25
v 0.25 1.73125 0.25
v 0.25 1.23125 0.25
v 0.25 1.23125 -0.25
v -0.25 1.23125 0.25
v -0.25 1.73125 0.25
v -0.25 1.73125 -0.25
v -0.25 1.23125 -0.25
vt 0.375 0.875
vt 0.25 0.875
vt 0.25 0.75
vt 0.375 0.75
vt 0.125 0.75
vt 0.125 0.875
vt 0 0.875
vt 0 0.75
vt 0.125 0.875
vt 0.25 0.875
vt 0.25 1
vt 0.125 1
vt 0.2505429453184172 1
vt 0.24946173086780254 0.8755429453184171
vt 0.3744570546815828 0.8744617308678025
vt 0.37553826913219746 0.9994570546815829
vt 0.25 0.75
vt 0.25 0.875
vt 0.125 0.875
vt 0.125 0.75
vt 0.5 0.875
vt 0.375 0.875
vt 0.375 0.75
vt 0.5 0.75
vn 1 0 0
vn -1 0 0
vn 0 1 0
vn 0 -1 0
vn 0 0 1
vn 0 0 -1
usemtl m_030f343e-4f42-2363-e8ee-73976c33f8ed
f 153/457/115 154/458/115 155/459/115 156/460/115
f 157/461/116 158/462/116 159/463/116 160/464/116
f 158/465/117 154/466/117 153/467/117 159/468/117
f 156/469/118 155/470/118 157/471/118 160/472/118
f 155/473/119 154/474/119 158/475/119 157/476/119
f 159/477/120 153/478/120 156/479/120 160/480/120
o cube
v -0.50277875 0.6000000000000001 0.12812499999999993
v -0.25277875000000005 0.6000000000000001 0.12812499999999993
v -0.25277875 1.225 0.12812500000000002
v -0.50277875 1.225 0.12812500000000002
v -0.50277875 0.6000000000000001 -0.12187500000000007
v -0.50277875 1.225 -0.12187500000000001
v -0.25277875000000005 0.6000000000000001 -0.12187500000000007
v -0.25277875 1.225 -0.12187500000000001
vt 0.8125 0.5
vt 0.875 0.5
vt 0.875 0.6875
vt 0.8125 0.6875
vt 0.6875 0.5
vt 0.75 0.5
vt 0.75 0.6875
vt 0.6875 0.6875
vt 0.625 0.5
vt 0.6875 0.5
vt 0.6875 0.6875
vt 0.625 0.6875
vt 0.75 0.5
vt 0.8125 0.5
vt 0.8125 0.6875
vt 0.75 0.6875
vt 0.75 0.6875
vt 0.75 0.75
vt 0.6875 0.75
vt 0.6875 0.6875
vt 0.75 0.6875
vt 0.8125 0.6875
vt 0.8125 0.75
vt 0.75 0.75
vn 0 -1.3322676295501878e-16 1
vn -1 0 0
vn 0 8.881784197001253e-17 -1
vn 1 -8.881784197001253e-17 0
vn 0 1 0
vn 0 -1 0
usemtl m_030f343e-4f42-2363-e8ee-73976c33f8ed
f 161/481/121 162/482/121 163/483/121 164/484/121
f 165/485/122 161/486/122 164/487/122 166/488/122
f 167/489/123 165/490/123 166/491/123 168/492/123
f 162/493/124 167/494/124 168/495/124 163/496/124
f 168/497/125 166/498/125 164/499/125 163/500/125
f 162/501/126 161/502/126 165/503/126 167/504/126
o cube
v 0.24722124999999995 0.6000000000000001 0.12812499999999993
v 0.49722124999999995 0.6000000000000001 0.12812499999999993
v 0.49722125 1.225 0.12812500000000002
v 0.24722125 1.225 0.12812500000000002
v 0.24722124999999995 0.6000000000000001 -0.12187500000000007
v 0.24722125 1.225 -0.12187500000000001
v 0.49722124999999995 0.6000000000000001 -0.12187500000000007
v 0.49722125 1.225 -0.12187500000000001
vt 0.8125 0.5
vt 0.875 0.5
vt 0.875 0.6875
vt 0.8125 0.6875
vt 0.6875 0.5
vt 0.75 0.5
vt 0.75 0.6875
vt 0.6875 0.6875
vt 0.625 0.5
vt 0.6875 0.5
vt 0.6875 0.6875
vt 0.625 0.6875
vt 0.75 0.5
vt 0.8125 0.5
vt 0.8125 0.6875
vt 0.75 0.6875
vt 0.75 0.75
vt 0.6875 0.75
vt 0.6875 0.6875
vt 0.75 0.6875
vt 0.8125 0.6875
vt 0.75 0.6875
vt 0.75 0.75
vt 0.8125 0.75
vn 0 -1.3322676295501878e-16 1
vn -1 8.881784197001253e-17 0
vn 0 8.881784197001253e-17 -1
vn 1 -8.881784197001253e-17 0
vn 0 1 0
vn 0 -1 0
usemtl m_030f343e-4f42-2363-e8ee-73976c33f8ed
f 169/505/127 170/506/127 171/507/127 172/508/127
f 173/509/128 169/510/128 172/511/128 174/512/128
f 175/513/129 173/514/129 174/515/129 176/516/129
f 170/517/130 175/518/130 176/519/130 171/520/130
f 176/521/131 174/522/131 172/523/131 171/524/131
f 170/525/132 169/526/132 173/527/132 175/528/132
o cube
v 0.25 0.47500000000000003 -0.125
v -0.25 0.47500000000000003 -0.125
v -0.25 1.225 -0.125
v 0.25 1.225 -0.125
v 0.25 0.47500000000000003 0.13124999999999998
v 0.25 1.225 0.13124999999999998
v -0.25 0.47500000000000003 0.13124999999999998
v -0.25 1.225 0.13124999999999998
vt 0.4375 0.5
vt 0.5625 0.5
vt 0.5625 0.6875
vt 0.4375 0.6875
vt 0.5625 0.5
vt 0.625 0.5
vt 0.625 0.6875
vt 0.5625 0.6875
vt 0.3125 0.5
vt 0.4375 0.5
vt 0.4375 0.6875
vt 0.3125 0.6875
vt 0.25 0.5
vt 0.3125 0.5
vt 0.3125 0.6875
vt 0.25 0.6875
vt 0.3125 0.6875
vt 0.4375 0.6875
vt 0.4375 0.75
vt 0.3125 0.75
vt 0.5625 0.6875
vt 0.5625 0.75
vt 0.4375 0.75
vt 0.4375 0.6875
vn 0 0 -1
vn 1 0 0
vn 0 0 1
vn -1 0 0
vn 0 1 0
vn 0 -1 0
usemtl m_030f343e-4f42-2363-e8ee-73976c33f8ed
f 177/529/133 178/530/133 179/531/133 180/532/133
f 181/533/134 177/534/134 180/535/134 182/536/134
f 183/537/135 181/538/135 182/539/135 184/540/135
f 178/541/136 183/542/136 184/543/136 179/544/136
f 184/545/137 182/546/137 180/547/137 179/548/137
f 178/549/138 177/550/138 181/551/138 183/552/138
o 2слой
v 0.265625 1.746875 0.265625
v 0.265625 1.746875 -0.265625
v 0.265625 1.215625 0.265625
v 0.265625 1.215625 -0.265625
v -0.265625 1.746875 0.265625
v -0.265625 1.746875 -0.265625
v -0.265625 1.215625 0.265625
v -0.265625 1.215625 -0.265625
vt 0.875 0.875
vt 0.75 0.875
vt 0.75 0.75
vt 0.875 0.75
vt 0.625 0.75
vt 0.625 0.875
vt 0.5 0.875
vt 0.5 0.75
vt 0.625 0.875
vt 0.75 0.875
vt 0.75 1
vt 0.625 1
vt 0.875 0.875
vt 0.875 1
vt 0.75 1
vt 0.75 0.875
vt 0.75 0.75
vt 0.75 0.875
vt 0.625 0.875
vt 0.625 0.75
vt 1 0.875
vt 0.875 0.875
vt 0.875 0.75
vt 1 0.75
vn 1 0 0
vn -1 0 0
vn 0 1 0
vn 0 -1 0
vn 0 0 1
vn 0 0 -1
usemtl m_030f343e-4f42-2363-e8ee-73976c33f8ed
f 186/553/139 185/554/139 187/555/139 188/556/139
f 191/557/140 189/558/140 190/559/140 192/560/140
f 189/561/141 185/562/141 186/563/141 190/564/141
f 188/565/142 187/566/142 191/567/142 192/568/142
f 187/569/143 185/570/143 189/571/143 191/572/143
f 190/573/144 186/574/144 188/575/144 192/576/144