# Made in Blockbench 5.1.4
mtllib materials.mtl

o 1 слой
v -0.25000000000000006 0.875 -0.24999999999999997
v -0.24999999999999997 0.875 0.25000000000000006
v -0.25000000000000006 0.375 -0.24999999999999997
v -0.24999999999999997 0.375 0.25000000000000006
v 0.25000000000000006 0.875 0.24999999999999997
v 0.24999999999999997 0.875 -0.25000000000000006
v 0.25000000000000006 0.375 0.24999999999999997
v 0.24999999999999997 0.375 -0.25000000000000006
vt 0.125 0.875
vt 0.25 0.875
vt 0.25 0.75
vt 0.125 0.75
vt 0 0.875
vt 0.125 0.875
vt 0.125 0.75
vt 0 0.75
vt 0.375 0.875
vt 0.5 0.875
vt 0.5 0.75
vt 0.375 0.75
vt 0.25 0.875
vt 0.375 0.875
vt 0.375 0.75
vt 0.25 0.75
vt 0.25 0.875
vt 0.125 0.875
vt 0.125 1
vt 0.25 1
vt 0.375 1
vt 0.25 1
vt 0.25 0.875
vt 0.375 0.875
vn 1.2246467991473532e-16 0 1
vn -1 0 1.2246467991473532e-16
vn -1.2246467991473532e-16 0 -1
vn 1 0 -1.2246467991473532e-16
vn 0 1 0
vn 0 -1 0
usemtl m_5c7fd064-6322-ddb5-2a44-6af46e555f0a
f 4/4/1 7/3/1 5/2/1 2/1/1
f 3/8/2 4/7/2 2/6/2 1/5/2
f 8/12/3 3/11/3 1/10/3 6/9/3
f 7/16/4 8/15/4 6/14/4 5/13/4
f 6/20/5 1/19/5 2/18/5 5/17/5
f 7/24/6 4/23/6 3/22/6 8/21/6
o 2 слой
v -0.28125000000000006 0.90625 -0.28124999999999994
v -0.28124999999999994 0.90625 0.28125000000000006
v -0.28125000000000006 0.34375 -0.28124999999999994
v -0.28124999999999994 0.34375 0.28125000000000006
v 0.28125000000000006 0.90625 0.28124999999999994
v 0.28124999999999994 0.90625 -0.28125000000000006
v 0.28125000000000006 0.34375 0.28124999999999994
v 0.28124999999999994 0.34375 -0.28125000000000006
vt 0.625 0.875
vt 0.75 0.875
vt 0.75 0.75
vt 0.625 0.75
vt 0.5 0.875
vt 0.625 0.875
vt 0.625 0.75
vt 0.5 0.75
vt 0.875 0.875
vt 1 0.875
vt 1 0.75
vt 0.875 0.75
vt 0.75 0.875
vt 0.875 0.875
vt 0.875 0.75
vt 0.75 0.75
vt 0.75 0.875
vt 0.625 0.875
vt 0.625 1
vt 0.75 1
vt 0.875 1
vt 0.75 1
vt 0.75 0.875
vt 0.875 0.875
vn 1.2246467991473532e-16 0 1
vn -1 0 1.2246467991473532e-16
vn -1.2246467991473532e-16 0 -1
vn 1 0 -1.2246467991473532e-16
vn 0 1 0
vn 0 -1 0
usemtl m_5c7fd064-6322-ddb5-2a44-6af46e555f0a
f 12/28/7 15/27/7 13/26/7 10/25/7
f 11/32/8 12/31/8 10/30/8 9/29/8
f 16/36/9 11/35/9 9/34/9 14/33/9
f 15/40/10 16/39/10 14/38/10 13/37/10
f 14/44/11 9/43/11 10/42/11 13/41/11
f 15/48/12 12/47/12 11/46/12 16/45/12
o cube
v -0.4266182245951607 0.6529034748924334 0.12746411983497496
v -0.5388109716829159 0.5535861154097363 0.17176888375814392
v -0.24043166990509549 0.4000754710042766 0.03218252178176437
v -0.35262441699285074 0.3007581115215796 0.07648728570493332
v -0.4758331377739868 0.546147020914378 0.3145712465160075
v -0.3636403906862315 0.6454643803970749 0.27026648259283853
v -0.28964658308392155 0.2933190170262212 0.21928964846279692
v -0.17745383599616632 0.3926363765089182 0.17498488453962796
vt 0.1875 0.359375
vt 0.15625 0.359375
vt 0.15625 0.296875
vt 0.1875 0.296875
vt 0.21875 0.359375
vt 0.1875 0.359375
vt 0.1875 0.296875
vt 0.21875 0.296875
vt 0.25 0.359375
vt 0.21875 0.359375
vt 0.21875 0.296875
vt 0.25 0.296875
vt 0.15625 0.359375
vt 0.125 0.359375
vt 0.125 0.296875
vt 0.15625 0.296875
vt 0.15625 0.375
vt 0.1875 0.375
vt 0.1875 0.40625
vt 0.15625 0.40625
vt 0.1875 0.40625
vt 0.21875 0.40625
vt 0.21875 0.375
vt 0.1875 0.375
vn -0.7180335813616335 -0.6356311006892605 0.28355048910828135
vn -0.4030581370171465 0.04761020477029394 -0.9139351216503269
vn 0.7180335813616335 0.6356311006892605 -0.28355048910828135
vn 0.4030581370171465 -0.04761020477029394 0.9139351216503269
vn -0.5674256904840081 0.7705234404210491 0.2903820131145466
vn 0.5674256904840081 -0.7705234404210491 -0.2903820131145466
usemtl m_5c7fd064-6322-ddb5-2a44-6af46e555f0a
f 20/52/13 23/51/13 21/50/13 18/49/13
f 19/56/14 20/55/14 18/54/14 17/53/14
f 24/60/15 19/59/15 17/58/15 22/57/15
f 23/64/16 24/63/16 22/62/16 21/61/16
f 22/68/17 17/67/17 18/66/17 21/65/17
f 23/72/18 20/71/18 19/70/18 24/69/18
o cube
v -0.5474595788098051 0.743675380045999 0.1723532997209387
v -0.7581931011915742 0.5258993284039086 0.2486502451103446
v -0.4316321486959957 0.609883507496797 0.11038563659726855
v -0.6423656710777649 0.3921074558547066 0.18668258198667442
v -0.682343551757997 0.5123908969996548 0.4195906386155659
v -0.4716100293762278 0.7301669486417451 0.34329369322616
v -0.5665161216441876 0.3785990244504527 0.3576229754918957
v -0.35578259926241845 0.596375076092543 0.2813260301024898
vt 0.875 0.5
vt 0.828125 0.5
vt 0.828125 0.453125
vt 0.875 0.453125
vt 0.953125 0.5
vt 0.875 0.5
vt 0.875 0.453125
vt 0.953125 0.453125
vt 1 0.5
vt 0.953125 0.5
vt 0.953125 0.453125
vt 1 0.453125
vt 0.828125 0.5
vt 0.75 0.5
vt 0.75 0.453125
vt 0.828125 0.453125
vt 0.828125 0.5
vt 0.875 0.5
vt 0.875 0.578125
vt 0.828125 0.578125
vt 0.875 0.578125
vt 0.921875 0.578125
vt 0.921875 0.5
vt 0.875 0.5
vn -0.6743472716216612 -0.6968833652546894 0.24415022524609886
vn -0.40453093031241183 0.07204496748935407 -0.9116820986945136
vn 0.6743472716216612 0.6968833652546894 -0.24415022524609886
vn 0.40453093031241183 -0.07204496748935407 0.9116820986945136
vn -0.6177462939403164 0.7135566535957446 0.330494203326241
vn 0.6177462939403164 -0.7135566535957446 -0.330494203326241
usemtl m_5c7fd064-6322-ddb5-2a44-6af46e555f0a
f 28/76/19 31/75/19 29/74/19 26/73/19
f 27/80/20 28/79/20 26/78/20 25/77/20
f 32/84/21 27/83/21 25/82/21 30/81/21
f 31/88/22 32/87/22 30/86/22 29/85/22
f 30/92/23 25/91/23 26/90/23 29/89/23
f 31/96/24 28/95/24 27/94/24 32/93/24
o Лапа5
v 0.5104723201843483 0.3975120220559175 -0.3774997488563917
v 0.1356281428328415 0.2842787091245865 -0.18236823026375792
v 0.571577294340823 0.3121354367194349 -0.3096615530547723
v 0.1967331169893162 0.19890212378810387 -0.11453003446213852
v 0.15614955790726381 0.369655301350838 -0.09340357985037381
v 0.5309937352587706 0.482888614282169 -0.28853509844300756
v 0.21725453206373854 0.2842787160143554 -0.0255653840487544
v 0.5920987094152453 0.3975120289456864 -0.22069690264138814
vt 0.859375 0.15625
vt 0.828125 0.15625
vt 0.828125 0.125
vt 0.859375 0.125
vt 0.96875 0.15625
vt 0.859375 0.15625
vt 0.859375 0.125
vt 0.96875 0.125
vt 1 0.15625
vt 0.96875 0.15625
vt 0.96875 0.125
vt 1 0.125
vt 0.828125 0.15625
vt 0.71875 0.15625
vt 0.71875 0.125
vt 0.828125 0.125
vt 0.828125 0.15625
vt 0.859375 0.15625
vt 0.859375 0.265625
vt 0.828125 0.265625
vt 0.859375 0.265625
vt 0.890625 0.265625
vt 0.890625 0.15625
vt 0.859375 0.15625
vn -0.8567866910891586 -0.2588190009858994 0.4460148996403058
vn -0.16417132059537864 -0.6830127378100119 -0.7117172033070729
vn 0.8567866910891586 0.2588190009858994 -0.4460148996403058
vn 0.16417132059537864 0.6830127378100119 0.7117172033070729
vn -0.4888397932517978 0.6830126826918611 -0.5427055664129554
vn 0.4888397932517978 -0.6830126826918611 0.5427055664129554
usemtl m_5c7fd064-6322-ddb5-2a44-6af46e555f0a
f 36/100/25 39/99/25 37/98/25 34/97/25
f 35/104/26 36/103/26 34/102/26 33/101/26
f 40/108/27 35/107/27 33/106/27 38/105/27
f 39/112/28 40/111/28 38/110/28 37/109/28
f 38/116/29 33/115/29 34/114/29 37/113/29
f 39/120/30 36/119/30 35/118/30 40/117/30
o Лапа5
v 0.4945780829534031 0.38683388973502836 -0.34003968625398695
v 0.5522966596077824 0.38683388973502836 -0.22916333210670925
v 0.5665721888129067 0.020722887065053413 -0.37751744559837885
v 0.624290765467286 0.02072288706505344 -0.26664109145110115
v 0.5793586950672831 0.3935976276705941 -0.2432509360877883
v 0.5216401184129038 0.3935976276705941 -0.354127290235066
v 0.6513528009267868 0.02748662500061917 -0.28072869543218026
v 0.5936342242724075 0.02748662500061914 -0.39160504957945796
vt 0.546875 0.375
vt 0.53125 0.375
vt 0.53125 0.28125
vt 0.546875 0.28125
vt 0.5625 0.375
vt 0.53125 0.375
vt 0.53125 0.28125
vt 0.5625 0.28125
vt 0.5625 0.375
vt 0.546875 0.375
vt 0.546875 0.28125
vt 0.5625 0.28125
vt 0.53125 0.375
vt 0.5625 0.375
vt 0.5625 0.28125
vt 0.53125 0.28125
vt 0.53125 0.28125
vt 0.546875 0.28125
vt 0.546875 0.296875
vt 0.53125 0.296875
vt 0.546875 0.34375
vt 0.53125 0.34375
vt 0.53125 0.375
vt 0.546875 0.375
vn 0.4617486132350343 2.636779683484747e-16 0.8870108331782216
vn -0.865985134704023 -0.21643961393810335 0.45080332739453044
vn -0.4617486132350343 -2.636779683484747e-16 -0.8870108331782216
vn 0.865985134704023 0.21643961393810335 -0.45080332739453044
vn -0.19198428229200976 0.9762960071199334 0.0999406915850452
vn 0.19198428229200976 -0.9762960071199334 -0.0999406915850452
usemtl m_5c7fd064-6322-ddb5-2a44-6af46e555f0a
f 44/124/31 47/123/31 45/122/31 42/121/31
f 43/128/32 44/127/32 42/126/32 41/125/32
f 48/132/33 43/131/33 41/130/33 46/129/33
f 47/136/34 48/135/34 46/134/34 45/133/34
f 46/140/35 41/139/35 42/138/35 45/137/35
f 47/144/36 44/143/36 43/142/36 48/141/36
o Лапа5
v 0.6981789388378056 0.010482345898201064 -0.44602758329154135
v 0.5882511472706243 0.026798119925707478 -0.3888027970617467
v 0.6981789388378056 0.010482345898201064 -0.44602758329154135
v 0.5882511472706243 0.026798119925707478 -0.3888027970617467
v 0.6459697239250035 0.026798119925707506 -0.277926442914469
v 0.7558975154921848 0.010482345898201092 -0.33515122914426365
v 0.6459697239250035 0.026798119925707506 -0.277926442914469
v 0.7558975154921848 0.010482345898201092 -0.33515122914426365
vt 0.6875 0.375
vt 0.65625 0.375
vt 0.65625 0.375
vt 0.6875 0.375
vt 0.71875 0.375
vt 0.6875 0.375
vt 0.6875 0.375
vt 0.71875 0.375
vt 0.75 0.375
vt 0.71875 0.375
vt 0.71875 0.375
vt 0.75 0.375
vt 0.65625 0.375
vt 0.625 0.375
vt 0.625 0.375
vt 0.65625 0.375
vt 0.65625 0.375
vt 0.6875 0.375
vt 0.6875 0.40625
vt 0.65625 0.40625
vt 0.6875 0.40625
vt 0.71875 0.40625
vt 0.71875 0.375
vt 0.6875 0.375
vn -0.8794223325374502 0.1305261922200513 0.45779828983835763
vn -0.4617486132350341 -2.081668171172169e-16 -0.8870108331782217
vn 0.8794223325374502 -0.1305261922200513 -0.45779828983835763
vn 0.4617486132350341 2.081668171172169e-16 0.8870108331782217
vn 0.1157781465126883 0.9914448613738104 -0.06027028824845837
vn -0.1157781465126883 -0.9914448613738104 0.06027028824845837
usemtl m_5c7fd064-6322-ddb5-2a44-6af46e555f0a
f 52/148/37 55/147/37 53/146/37 50/145/37
f 51/152/38 52/151/38 50/150/38 49/149/38
f 56/156/39 51/155/39 49/154/39 54/153/39
f 55/160/40 56/159/40 54/158/40 53/157/40
f 54/164/41 49/163/41 50/162/41 53/161/41
f 55/168/42 52/167/42 51/166/42 56/165/42
o Лапа6
v 0.5117410463798412 0.4977088437314378 -0.06250000000000015
v 0.11523138955130685 0.31281335421988177 -0.06250000000000017
v 0.5645683290974286 0.3844203703518566 -0.06250000000000014
v 0.16805867226889432 0.19952488084030054 -0.06250000000000015
v 0.11523138955130685 0.31281335421988177 0.06249999999999983
v 0.5117410463798412 0.49770884373143787 0.06249999999999985
v 0.16805867226889426 0.19952488084030054 0.06249999999999985
v 0.5645683290974286 0.3844203703518566 0.06249999999999986
vt 0.859375 0.15625
vt 0.828125 0.15625
vt 0.828125 0.125
vt 0.859375 0.125
vt 0.96875 0.15625
vt 0.859375 0.15625
vt 0.859375 0.125
vt 0.96875 0.125
vt 1 0.15625
vt 0.96875 0.15625
vt 0.96875 0.125
vt 1 0.125
vt 0.828125 0.15625
vt 0.71875 0.15625
vt 0.71875 0.125
vt 0.828125 0.125
vt 0.828125 0.15625
vt 0.859375 0.15625
vt 0.859375 0.265625
vt 0.828125 0.265625
vt 0.859375 0.265625
vt 0.890625 0.265625
vt 0.890625 0.15625
vt 0.859375 0.15625
vn -0.9063077870366499 -0.42261826174069955 -3.849425131916033e-17
vn 9.9579925010296e-17 -1.224646799147353e-16 -1
vn 0.9063077870366499 0.42261826174069955 3.849425131916033e-17
vn -9.9579925010296e-17 1.224646799147353e-16 1
vn -0.42261826174069955 0.9063077870366499 -1.5307498785579592e-16
vn 0.42261826174069955 -0.9063077870366499 1.5307498785579592e-16
usemtl m_5c7fd064-6322-ddb5-2a44-6af46e555f0a
f 60/172/43 63/171/43 61/170/43 58/169/43
f 59/176/44 60/175/44 58/174/44 57/173/44
f 64/180/45 59/179/45 57/178/45 62/177/45
f 63/184/46 64/183/46 62/182/46 61/181/46
f 62/188/47 57/187/47 58/186/47 61/185/47
f 63/192/48 60/191/48 59/190/48 64/189/48
o Лапа6
v 0.5344247455586574 0.3808436138535789 -0.06250000000000015
v 0.5344247455586574 0.3808436138535789 0.06249999999999983
v 0.5833720676411767 0.009051790838400008 -0.06250000000000008
v 0.5833720676411767 0.009051790838400032 0.06249999999999991
v 0.5654073974765889 0.38492255736045555 0.06249999999999984
v 0.565407397476589 0.38492255736045555 -0.06250000000000015
v 0.6143547195591083 0.013130734345276642 0.06249999999999992
v 0.6143547195591083 0.013130734345276618 -0.06250000000000007
vt 0.546875 0.375
vt 0.53125 0.375
vt 0.53125 0.28125
vt 0.546875 0.28125
vt 0.5625 0.375
vt 0.53125 0.375
vt 0.53125 0.28125
vt 0.5625 0.28125
vt 0.546875 0.375
vt 0.546875 0.375
vt 0.546875 0.28125
vt 0.546875 0.28125
vt 0.53125 0.375
vt 0.5625 0.375
vt 0.5625 0.28125
vt 0.53125 0.28125
vt 0.53125 0.34375
vt 0.546875 0.34375
vt 0.546875 0.375
vt 0.53125 0.375
vt 0.53125 0.28125
vt 0.546875 0.28125
vt 0.546875 0.296875
vt 0.53125 0.296875
vn -2.2052090507859736e-16 1.9052772997856283e-16 1
vn -0.9914448613738104 -0.13052619222005146 -1.819471590771284e-16
vn 2.2052090507859736e-16 -1.9052772997856283e-16 -1
vn 0.9914448613738104 0.13052619222005146 1.819471590771284e-16
vn -0.1305261922200515 0.9914448613738105 -2.3146045288210256e-16
vn 0.1305261922200515 -0.9914448613738105 2.3146045288210256e-16
usemtl m_5c7fd064-6322-ddb5-2a44-6af46e555f0a
f 68/196/49 71/195/49 69/194/49 66/193/49
f 67/200/50 68/199/50 66/198/50 65/197/50
f 72/204/51 67/203/51 65/202/51 70/201/51
f 71/208/52 72/207/52 70/206/52 69/205/52
f 70/212/53 65/211/53 66/210/53 69/209/53
f 71/216/54 68/215/54 67/214/54 72/213/54
o Лапа6
v 0.7347413498652234 0.002140791421777021 -0.06250000000000007
v 0.6102170126037553 0.013035259265234278 -0.06250000000000008
v 0.7347413498652234 0.002140791421777021 -0.06250000000000007
v 0.6102170126037553 0.013035259265234278 -0.06250000000000008
v 0.6102170126037553 0.013035259265234293 0.06249999999999992
v 0.7347413498652234 0.0021407914217770364 0.062499999999999924
v 0.6102170126037553 0.013035259265234293 0.06249999999999992
v 0.7347413498652234 0.0021407914217770364 0.062499999999999924
vt 0.6875 0.375
vt 0.65625 0.375
vt 0.65625 0.375
vt 0.6875 0.375
vt 0.71875 0.375
vt 0.6875 0.375
vt 0.6875 0.375
vt 0.71875 0.375
vt 0.75 0.375
vt 0.71875 0.375
vt 0.71875 0.375
vt 0.75 0.375
vt 0.65625 0.375
vt 0.625 0.375
vt 0.625 0.375
vt 0.65625 0.375
vt 0.65625 0.375
vt 0.6875 0.375
vt 0.6875 0.40625
vt 0.65625 0.40625
vt 0.6875 0.40625
vt 0.71875 0.40625
vt 0.71875 0.375
vt 0.6875 0.375
vn -0.9961946980917455 0.08715574274765805 -1.0987449346995346e-16
vn 9.957992501029601e-17 -1.224646799147353e-16 -1
vn 0.9961946980917455 -0.08715574274765805 1.0987449346995346e-16
vn -9.957992501029601e-17 1.224646799147353e-16 1
vn 0.08715574274765805 0.9961946980917455 -1.1331970250753356e-16
vn -0.08715574274765805 -0.9961946980917455 1.1331970250753356e-16
usemtl m_5c7fd064-6322-ddb5-2a44-6af46e555f0a
f 76/220/55 79/219/55 77/218/55 74/217/55
f 75/224/56 76/223/56 74/222/56 73/221/56
f 80/228/57 75/227/57 73/226/57 78/225/57
f 79/232/58 80/231/58 78/230/58 77/229/58
f 78/236/59 73/235/59 74/234/59 77/233/59
f 79/240/60 76/239/60 75/238/60 80/237/60
o cube
v 0.562844610294694 0.3975118602940419 0.24860193824541196
v 0.21667706033722495 0.28427854736271096 0.006212800289441628
v 0.530886532793907 0.31213527495755927 0.33412690511904475
v 0.18471898283643795 0.19890196202622834 0.09173776716307441
v 0.1472401866028749 0.36965513958896246 0.0654948217279208
v 0.4934077365603439 0.4828884525202934 0.30788395968389115
v 0.1152821091020879 0.28427855425247983 0.1510197886015536
v 0.4614496590595569 0.3975118671838107 0.393408926557524
vt 0.859375 0.15625
vt 0.828125 0.15625
vt 0.828125 0.125
vt 0.859375 0.125
vt 0.96875 0.15625
vt 0.859375 0.15625
vt 0.859375 0.125
vt 0.96875 0.125
vt 1 0.15625
vt 0.96875 0.15625
vt 0.96875 0.125
vt 1 0.125
vt 0.828125 0.15625
vt 0.71875 0.15625
vt 0.71875 0.125
vt 0.828125 0.125
vt 0.828125 0.15625
vt 0.859375 0.15625
vt 0.859375 0.265625
vt 0.828125 0.265625
vt 0.859375 0.265625
vt 0.890625 0.265625
vt 0.890625 0.15625
vt 0.859375 0.15625
vn -0.7912401141885008 -0.2588190009858993 -0.5540323153279323
vn 0.5554949898748004 -0.6830127378100118 -0.4742561715078334
vn 0.7912401141885008 0.2588190009858993 0.5540323153279323
vn -0.5554949898748004 0.6830127378100118 0.4742561715078334
vn 0.2556646200062961 0.6830126826918612 -0.6841997349890624
vn -0.2556646200062961 -0.6830126826918612 0.6841997349890624
usemtl m_5c7fd064-6322-ddb5-2a44-6af46e555f0a
f 84/244/61 87/243/61 85/242/61 82/241/61
f 83/248/62 84/247/62 82/246/62 81/245/62
f 88/252/63 83/251/63 81/250/63 86/249/63
f 87/256/64 88/255/64 86/254/64 85/253/64
f 86/260/65 81/259/65 82/258/65 85/257/65
f 87/264/66 84/263/66 83/262/66 88/261/66
o cube
v 0.5222789813143743 0.3868340250097872 0.25180140585275435
v 0.4505819267704935 0.3868340250097872 0.35419541138887833
v 0.5887653383978183 0.020723022339812183 0.2983556542706844
v 0.5170682838539375 0.02072302233981219 0.40074965980680843
v 0.4755736414599771 0.39359776294535287 0.37169479840724107
v 0.5472706960038578 0.39359776294535287 0.2693007928711171
v 0.5420599985434211 0.02748676027537791 0.41824904682517117
v 0.6137570530873019 0.027486760275377903 0.3158550412890471
vt 0.546875 0.375
vt 0.53125 0.375
vt 0.53125 0.28125
vt 0.546875 0.28125
vt 0.5625 0.375
vt 0.53125 0.375
vt 0.53125 0.28125
vt 0.5625 0.28125
vt 0.578125 0.375
vt 0.5625 0.375
vt 0.5625 0.28125
vt 0.578125 0.28125
vt 0.53125 0.375
vt 0.5625 0.375
vt 0.5625 0.28125
vt 0.53125 0.28125
vt 0.5625 0.375
vt 0.5625 0.375
vt 0.5625 0.40625
vt 0.5625 0.40625
vt 0.546875 0.34375
vt 0.53125 0.34375
vt 0.53125 0.375
vt 0.546875 0.375
vn -0.5735764363510459 8.326672684688672e-17 0.819152044288992
vn -0.7997348700634735 -0.2164396139381032 -0.5599803845876067
vn 0.5735764363510459 -8.326672684688672e-17 -0.819152044288992
vn 0.7997348700634735 0.2164396139381032 0.5599803845876067
vn -0.17729695222251743 0.9762960071199334 -0.12414466244781346
vn 0.17729695222251743 -0.9762960071199334 0.12414466244781346
usemtl m_5c7fd064-6322-ddb5-2a44-6af46e555f0a
f 92/268/67 95/267/67 93/266/67 90/265/67
f 91/272/68 92/271/68 90/270/68 89/269/68
f 96/276/69 91/275/69 89/274/69 94/273/69
f 95/280/70 96/279/70 94/278/70 93/277/70
f 94/284/71 89/283/71 90/282/71 93/281/71
f 95/288/72 92/287/72 91/286/72 96/285/72
o cube
v 0.7103027996062048 0.01048242747707127 0.383457100783667
v 0.6087847889819332 0.026798201504577696 0.3123734244804986
v 0.7103027996062048 0.01048242747707127 0.383457100783667
v 0.6087847889819332 0.026798201504577696 0.3123734244804986
v 0.5370877344380525 0.026798201504577703 0.4147674300166226
v 0.638605745062324 0.010482427477071277 0.48585110631979095
v 0.5370877344380525 0.026798201504577703 0.4147674300166226
v 0.638605745062324 0.010482427477071277 0.48585110631979095
vt 0.6875 0.375
vt 0.65625 0.375
vt 0.65625 0.375
vt 0.6875 0.375
vt 0.71875 0.375
vt 0.6875 0.375
vt 0.6875 0.375
vt 0.71875 0.375
vt 0.75 0.375
vt 0.71875 0.375
vt 0.71875 0.375
vt 0.75 0.375
vt 0.65625 0.375
vt 0.625 0.375
vt 0.625 0.375
vt 0.65625 0.375
vt 0.65625 0.375
vt 0.6875 0.375
vt 0.6875 0.40625
vt 0.65625 0.40625
vt 0.6875 0.40625
vt 0.71875 0.40625
vt 0.71875 0.375
vt 0.6875 0.375
vn -0.8121440849941729 0.1305261922200514 -0.5686694104253471
vn 0.5735764363510462 -2.081668171172169e-17 -0.819152044288992
vn 0.8121440849941729 -0.1305261922200514 0.5686694104253471
vn -0.5735764363510462 2.081668171172169e-17 0.819152044288992
vn 0.10692079719031303 0.9914448613738105 0.0748667481840487
vn -0.10692079719031303 -0.9914448613738105 -0.0748667481840487
usemtl m_5c7fd064-6322-ddb5-2a44-6af46e555f0a
f 100/292/73 103/291/73 101/290/73 98/289/73
f 99/296/74 100/295/74 98/294/74 97/293/74
f 104/300/75 99/299/75 97/298/75 102/297/75
f 103/304/76 104/303/76 102/302/76 101/301/76
f 102/308/77 97/307/77 98/306/77 101/305/77
f 103/312/78 100/311/78 99/310/78 104/309/78
o cube
v -0.4934077365603441 0.4828884525202932 0.3078839596838913
v -0.1472401866028751 0.3696551395889624 0.06549482172792087
v -0.461449659059557 0.3975118671838106 0.3934089265575241
v -0.11528210910208805 0.2842785542524798 0.15101978860155366
v -0.21667706033722514 0.2842785473627109 0.006212800289441739
v -0.5628446102946941 0.39751186029404173 0.24860193824541219
v -0.1847189828364381 0.19890196202622829 0.0917377671630745
v -0.5308865327939071 0.3121352749575591 0.33412690511904497
vt 0.828125 0.15625
vt 0.859375 0.15625
vt 0.859375 0.125
vt 0.828125 0.125
vt 0.71875 0.15625
vt 0.828125 0.15625
vt 0.828125 0.125
vt 0.71875 0.125
vt 0.96875 0.15625
vt 1 0.15625
vt 1 0.125
vt 0.96875 0.125
vt 0.859375 0.15625
vt 0.96875 0.15625
vt 0.96875 0.125
vt 0.859375 0.125
vt 0.859375 0.15625
vt 0.828125 0.15625
vt 0.828125 0.265625
vt 0.859375 0.265625
vt 0.890625 0.265625
vt 0.859375 0.265625
vt 0.859375 0.15625
vt 0.890625 0.15625
vn 0.7912401141885006 -0.25881900098589894 -0.5540323153279325
vn 0.5554949898748004 0.683012737810012 0.4742561715078332
vn -0.7912401141885006 0.25881900098589894 0.5540323153279325
vn -0.5554949898748004 -0.683012737810012 -0.4742561715078332
vn -0.2556646200062966 0.6830126826918611 -0.6841997349890624
vn 0.2556646200062966 -0.6830126826918611 0.6841997349890624
usemtl m_5c7fd064-6322-ddb5-2a44-6af46e555f0a
f 108/316/79 111/315/79 109/314/79 106/313/79
f 107/320/80 108/319/80 106/318/80 105/317/80
f 112/324/81 107/323/81 105/322/81 110/321/81
f 111/328/82 112/327/82 110/326/82 109/325/82
f 110/332/83 105/331/83 106/330/83 109/329/83
f 111/336/84 108/335/84 107/334/84 112/333/84
o cube
v -0.5472706960038579 0.3935977629453527 0.26930079287111724
v -0.47557364145997716 0.3935977629453527 0.37169479840724123
v -0.6137570530873019 0.027486760275377716 0.3158550412890473
v -0.5420599985434211 0.027486760275377737 0.4182490468251713
v -0.45058192677049363 0.386834025009787 0.3541954113888785
v -0.5222789813143744 0.386834025009787 0.2518014058527545
v -0.5170682838539375 0.020723022339812016 0.4007496598068086
v -0.5887653383978183 0.020723022339811995 0.2983556542706846
vt 0.53125 0.375
vt 0.546875 0.375
vt 0.546875 0.28125
vt 0.53125 0.28125
vt 0.5625 0.375
vt 0.53125 0.375
vt 0.53125 0.28125
vt 0.5625 0.28125
vt 0.5625 0.375
vt 0.578125 0.375
vt 0.578125 0.28125
vt 0.5625 0.28125
vt 0.53125 0.375
vt 0.5625 0.375
vt 0.5625 0.28125
vt 0.53125 0.28125
vt 0.5625 0.375
vt 0.5625 0.375
vt 0.5625 0.40625
vt 0.5625 0.40625
vt 0.53125 0.34375
vt 0.546875 0.34375
vt 0.546875 0.375
vt 0.53125 0.375
vn 0.5735764363510462 2.2204460492503126e-16 0.8191520442889918
vn -0.7997348700634735 0.21643961393810304 0.559980384587607
vn -0.5735764363510462 -2.2204460492503126e-16 -0.8191520442889918
vn 0.7997348700634735 -0.21643961393810304 -0.559980384587607
vn 0.17729695222251715 0.9762960071199335 -0.1241446624478135
vn -0.17729695222251715 -0.9762960071199335 0.1241446624478135
usemtl m_5c7fd064-6322-ddb5-2a44-6af46e555f0a
f 116/340/85 119/339/85 117/338/85 114/337/85
f 115/344/86 116/343/86 114/342/86 113/341/86
f 120/348/87 115/347/87 113/346/87 118/345/87
f 119/352/88 120/351/88 118/350/88 117/349/88
f 118/356/89 113/355/89 114/354/89 117/353/89
f 119/360/90 116/359/90 115/358/90 120/357/90
o cube
v -0.638605745062324 0.0104824274770711 0.4858511063197911
v -0.5370877344380525 0.02679820150457755 0.4147674300166227
v -0.638605745062324 0.0104824274770711 0.4858511063197911
v -0.5370877344380525 0.02679820150457755 0.4147674300166227
v -0.6087847889819332 0.02679820150457753 0.31237342448049876
v -0.7103027996062048 0.01048242747707108 0.3834571007836672
v -0.6087847889819332 0.02679820150457753 0.31237342448049876
v -0.7103027996062048 0.01048242747707108 0.3834571007836672
vt 0.65625 0.375
vt 0.6875 0.375
vt 0.6875 0.375
vt 0.65625 0.375
vt 0.625 0.375
vt 0.65625 0.375
vt 0.65625 0.375
vt 0.625 0.375
vt 0.71875 0.375
vt 0.75 0.375
vt 0.75 0.375
vt 0.71875 0.375
vt 0.6875 0.375
vt 0.71875 0.375
vt 0.71875 0.375
vt 0.6875 0.375
vt 0.6875 0.375
vt 0.65625 0.375
vt 0.65625 0.40625
vt 0.6875 0.40625
vt 0.71875 0.40625
vt 0.6875 0.40625
vt 0.6875 0.375
vt 0.71875 0.375
vn 0.8121440849941727 0.1305261922200516 -0.5686694104253474
vn 0.5735764363510463 1.6653345369377348e-16 0.8191520442889917
vn -0.8121440849941727 -0.1305261922200516 0.5686694104253474
vn -0.5735764363510463 -1.6653345369377348e-16 -0.8191520442889917
vn -0.10692079719031324 0.9914448613738105 0.07486674818404873
vn 0.10692079719031324 -0.9914448613738105 -0.07486674818404873
usemtl m_5c7fd064-6322-ddb5-2a44-6af46e555f0a
f 124/364/91 127/363/91 125/362/91 122/361/91
f 123/368/92 124/367/92 122/366/92 121/365/92
f 128/372/93 123/371/93 121/370/93 126/369/93
f 127/376/94 128/375/94 126/374/94 125/373/94
f 126/380/95 121/379/95 122/378/95 125/377/95
f 127/384/96 124/383/96 123/382/96 128/381/96
o Лапа5
v -0.5309937352587709 0.4828886142821689 -0.28853509844300745
v -0.15614955790726398 0.369655301350838 -0.09340357985037381
v -0.5920987094152456 0.39751202894568627 -0.22069690264138803
v -0.21725453206373865 0.2842787160143554 -0.025565384048754386
v -0.13562814283284166 0.2842787091245865 -0.18236823026375792
v -0.5104723201843486 0.3975120220559174 -0.3774997488563916
v -0.19673311698931634 0.19890212378810387 -0.11453003446213851
v -0.5715772943408233 0.3121354367194348 -0.30966155305477217
vt 0.828125 0.15625
vt 0.859375 0.15625
vt 0.859375 0.125
vt 0.828125 0.125
vt 0.71875 0.15625
vt 0.828125 0.15625
vt 0.828125 0.125
vt 0.71875 0.125
vt 0.96875 0.15625
vt 1 0.15625
vt 1 0.125
vt 0.96875 0.125
vt 0.859375 0.15625
vt 0.96875 0.15625
vt 0.96875 0.125
vt 0.859375 0.125
vt 0.859375 0.15625
vt 0.828125 0.15625
vt 0.828125 0.265625
vt 0.859375 0.265625
vt 0.890625 0.265625
vt 0.859375 0.265625
vt 0.859375 0.15625
vt 0.890625 0.15625
vn 0.8567866910891586 -0.25881900098589916 0.44601489964030555
vn -0.16417132059537862 0.6830127378100119 0.711717203307073
vn -0.8567866910891586 0.25881900098589916 -0.44601489964030555
vn 0.16417132059537862 -0.6830127378100119 -0.711717203307073
vn 0.48883979325179755 0.6830126826918612 -0.5427055664129555
vn -0.48883979325179755 -0.6830126826918612 0.5427055664129555
usemtl m_5c7fd064-6322-ddb5-2a44-6af46e555f0a
f 132/388/97 135/387/97 133/386/97 130/385/97
f 131/392/98 132/391/98 130/390/98 129/389/98
f 136/396/99 131/395/99 129/394/99 134/393/99
f 135/400/100 136/399/100 134/398/100 133/397/100
f 134/404/101 129/403/101 130/402/101 133/401/101
f 135/408/102 132/407/102 131/406/102 136/405/102
o Лапа5
v -0.521640118412904 0.39359762767059403 -0.35412729023506595
v -0.5793586950672833 0.39359762767059403 -0.2432509360877882
v -0.5936342242724076 0.02748662500061902 -0.39160504957945785
v -0.6513528009267869 0.027486625000619033 -0.2807286954321801
v -0.5522966596077826 0.3868338897350283 -0.2291633321067091
v -0.49457808295340333 0.3868338897350283 -0.34003968625398684
v -0.6242907654672862 0.020722887065053305 -0.26664109145110104
v -0.5665721888129069 0.02072288706505329 -0.37751744559837874
vt 0.53125 0.375
vt 0.546875 0.375
vt 0.546875 0.28125
vt 0.53125 0.28125
vt 0.5625 0.375
vt 0.53125 0.375
vt 0.53125 0.28125
vt 0.5625 0.28125
vt 0.546875 0.375
vt 0.5625 0.375
vt 0.5625 0.28125
vt 0.546875 0.28125
vt 0.53125 0.375
vt 0.5625 0.375
vt 0.5625 0.28125
vt 0.53125 0.28125
vt 0.546875 0.28125
vt 0.53125 0.28125
vt 0.53125 0.296875
vt 0.546875 0.296875
vt 0.53125 0.34375
vt 0.546875 0.34375
vt 0.546875 0.375
vt 0.53125 0.375
vn -0.46174861323503397 1.52655665885959e-16 0.8870108331782218
vn -0.8659851347040232 0.21643961393810315 -0.45080332739453016
vn 0.46174861323503397 -1.52655665885959e-16 -0.8870108331782218
vn 0.8659851347040232 -0.21643961393810315 0.45080332739453016
vn 0.19198428229200953 0.9762960071199334 0.09994069158504515
vn -0.19198428229200953 -0.9762960071199334 -0.09994069158504515
usemtl m_5c7fd064-6322-ddb5-2a44-6af46e555f0a
f 140/412/103 143/411/103 141/410/103 138/409/103
f 139/416/104 140/415/104 138/414/104 137/413/104
f 144/420/105 139/419/105 137/418/105 142/417/105
f 143/424/106 144/423/106 142/422/106 141/421/106
f 142/428/107 137/427/107 138/426/107 141/425/107
f 143/432/108 140/431/108 139/430/108 144/429/108
o Лапа5
v -0.7558975154921849 0.01048234589820101 -0.3351512291442635
v -0.6459697239250036 0.02679811992570745 -0.27792644291446883
v -0.7558975154921849 0.01048234589820101 -0.3351512291442635
v -0.6459697239250036 0.02679811992570745 -0.27792644291446883
v -0.5882511472706244 0.026798119925707437 -0.38880279706174653
v -0.6981789388378057 0.010482345898200997 -0.4460275832915412
v -0.5882511472706244 0.026798119925707437 -0.38880279706174653
v -0.6981789388378057 0.010482345898200997 -0.4460275832915412
vt 0.65625 0.375
vt 0.6875 0.375
vt 0.6875 0.375
vt 0.65625 0.375
vt 0.625 0.375
vt 0.65625 0.375
vt 0.65625 0.375
vt 0.625 0.375
vt 0.71875 0.375
vt 0.75 0.375
vt 0.75 0.375
vt 0.71875 0.375
vt 0.6875 0.375
vt 0.71875 0.375
vt 0.71875 0.375
vt 0.6875 0.375
vt 0.6875 0.375
vt 0.65625 0.375
vt 0.65625 0.40625
vt 0.6875 0.40625
vt 0.71875 0.40625
vt 0.6875 0.40625
vt 0.6875 0.375
vt 0.71875 0.375
vn 0.8794223325374502 0.13052619222005152 0.4577982898383573
vn -0.4617486132350338 1.0408340855860843e-16 0.8870108331782218
vn -0.8794223325374502 -0.13052619222005152 -0.4577982898383573
vn 0.4617486132350338 -1.0408340855860843e-16 -0.8870108331782218
vn -0.11577814651268857 0.9914448613738105 -0.06027028824845834
vn 0.11577814651268857 -0.9914448613738105 0.06027028824845834
usemtl m_5c7fd064-6322-ddb5-2a44-6af46e555f0a
f 148/436/109 151/435/109 149/434/109 146/433/109
f 147/440/110 148/439/110 146/438/110 145/437/110
f 152/444/111 147/443/111 145/442/111 150/441/111
f 151/448/112 152/447/112 150/446/112 149/445/112
f 150/452/113 145/451/113 146/450/113 149/449/113
f 151/456/114 148/455/114 147/454/114 152/453/114
o Лапа6
v -0.5117410463798413 0.49770884373143776 0.06249999999999997
v -0.11523138955130696 0.31281335421988177 0.06249999999999986
v -0.5645683290974287 0.3844203703518565 0.0625
v -0.16805867226889437 0.1995248808403005 0.06249999999999989
v -0.11523138955130702 0.31281335421988177 -0.06250000000000014
v -0.5117410463798413 0.4977088437314377 -0.06250000000000003
v -0.16805867226889443 0.1995248808403005 -0.06250000000000011
v -0.5645683290974287 0.38442037035185644 -0.06249999999999999
vt 0.828125 0.15625
vt 0.859375 0.15625
vt 0.859375 0.125
vt 0.828125 0.125
vt 0.71875 0.15625
vt 0.828125 0.15625
vt 0.828125 0.125
vt 0.71875 0.125
vt 0.96875 0.15625
vt 1 0.15625
vt 1 0.125
vt 0.96875 0.125
vt 0.859375 0.15625
vt 0.96875 0.15625
vt 0.96875 0.125
vt 0.859375 0.125
vt 0.859375 0.15625
vt 0.828125 0.15625
vt 0.828125 0.265625
vt 0.859375 0.265625
vt 0.890625 0.265625
vt 0.859375 0.265625
vt 0.859375 0.15625
vt 0.890625 0.15625
vn 0.9063077870366499 -0.42261826174069933 -2.6047563740651115e-16
vn 3.445092848397667e-16 1.2246467991473537e-16 1
vn -0.9063077870366499 0.42261826174069933 2.6047563740651115e-16
vn -3.445092848397667e-16 -1.2246467991473537e-16 -1
vn 0.42261826174069933 0.9063077870366499 -2.5658660815618906e-16
vn -0.42261826174069933 -0.9063077870366499 2.5658660815618906e-16
usemtl m_5c7fd064-6322-ddb5-2a44-6af46e555f0a
f 156/460/115 159/459/115 157/458/115 154/457/115
f 155/464/116 156/463/116 154/462/116 153/461/116
f 160/468/117 155/467/117 153/466/117 158/465/117
f 159/472/118 160/471/118 158/470/118 157/469/118
f 158/476/119 153/475/119 154/474/119 157/473/119
f 159/480/120 156/479/120 155/478/120 160/477/120
o Лапа6
v -0.5654073974765892 0.3849225573604554 -0.06250000000000001
v -0.5654073974765891 0.3849225573604554 0.06249999999999998
v -0.6143547195591084 0.013130734345276467 -0.06249999999999992
v -0.6143547195591083 0.013130734345276491 0.06250000000000007
v -0.5344247455586575 0.3808436138535788 0.062499999999999965
v -0.5344247455586576 0.3808436138535788 -0.06250000000000003
v -0.5833720676411768 0.00905179083839989 0.06250000000000006
v -0.5833720676411768 0.009051790838399866 -0.06249999999999993
vt 0.53125 0.375
vt 0.546875 0.375
vt 0.546875 0.28125
vt 0.53125 0.28125
vt 0.5625 0.375
vt 0.53125 0.375
vt 0.53125 0.28125
vt 0.5625 0.28125
vt 0.546875 0.375
vt 0.546875 0.375
vt 0.546875 0.28125
vt 0.546875 0.28125
vt 0.53125 0.375
vt 0.5625 0.375
vt 0.5625 0.28125
vt 0.53125 0.28125
vt 0.546875 0.34375
vt 0.53125 0.34375
vt 0.53125 0.375
vt 0.546875 0.375
vt 0.546875 0.28125
vt 0.53125 0.28125
vt 0.53125 0.296875
vt 0.546875 0.296875
vn 4.65450264908068e-16 1.9052772997856288e-16 1
vn -0.9914448613738106 0.13052619222005127 4.2478111427963413e-16
vn -4.65450264908068e-16 -1.9052772997856288e-16 -1
vn 0.9914448613738106 -0.13052619222005127 -4.2478111427963413e-16
vn 0.13052619222005127 0.9914448613738105 -2.634301495835382e-16
vn -0.13052619222005127 -0.9914448613738105 2.634301495835382e-16
usemtl m_5c7fd064-6322-ddb5-2a44-6af46e555f0a
f 164/484/121 167/483/121 165/482/121 162/481/121
f 163/488/122 164/487/122 162/486/122 161/485/122
f 168/492/123 163/491/123 161/490/123 166/489/123
f 167/496/124 168/495/124 166/494/124 165/493/124
f 166/500/125 161/499/125 162/498/125 165/497/125
f 167/504/126 164/503/126 163/502/126 168/501/126
o Лапа6
v -0.7347413498652234 0.0021407914217768586 0.06250000000000011
v -0.6102170126037553 0.013035259265234148 0.06250000000000007
v -0.7347413498652234 0.0021407914217768586 0.06250000000000011
v -0.6102170126037553 0.013035259265234148 0.06250000000000007
v -0.6102170126037553 0.01303525926523413 -0.06249999999999993
v -0.7347413498652234 0.002140791421776843 -0.06249999999999989
v -0.6102170126037553 0.01303525926523413 -0.06249999999999993
v -0.7347413498652234 0.002140791421776843 -0.06249999999999989
vt 0.65625 0.375
vt 0.6875 0.375
vt 0.6875 0.375
vt 0.65625 0.375
vt 0.625 0.375
vt 0.65625 0.375
vt 0.65625 0.375
vt 0.625 0.375
vt 0.71875 0.375
vt 0.75 0.375
vt 0.75 0.375
vt 0.71875 0.375
vt 0.6875 0.375
vt 0.71875 0.375
vt 0.71875 0.375
vt 0.6875 0.375
vt 0.6875 0.375
vt 0.65625 0.375
vt 0.65625 0.40625
vt 0.6875 0.40625
vt 0.71875 0.40625
vt 0.6875 0.40625
vt 0.6875 0.375
vt 0.71875 0.375
vn 0.9961946980917455 0.0871557427476583 -3.5387182313907746e-16
vn 3.445092848397666e-16 1.2246467991473535e-16 1
vn -0.9961946980917455 -0.0871557427476583 3.5387182313907746e-16
vn -3.445092848397666e-16 -1.2246467991473535e-16 -1
vn -0.0871557427476583 0.9961946980917455 -9.19727022308876e-17
vn 0.0871557427476583 -0.9961946980917455 9.19727022308876e-17
usemtl m_5c7fd064-6322-ddb5-2a44-6af46e555f0a
f 172/508/127 175/507/127 173/506/127 170/505/127
f 171/512/128 172/511/128 170/510/128 169/509/128
f 176/516/129 171/515/129 169/514/129 174/513/129
f 175/520/130 176/519/130 174/518/130 173/517/130
f 174/524/131 169/523/131 170/522/131 173/521/131
f 175/528/132 172/527/132 171/526/132 176/525/132
o Тело
v 0.21874999999999994 0.36250000000000004 0.2187499999999999
v 0.2187499999999999 0.3625 -0.2187500000000001
v 0.21874999999999997 0.23750000000000004 0.21874999999999992
v 0.21874999999999992 0.2375 -0.21875000000000008
v -0.2187500000000001 0.36249999999999993 -0.21875000000000006
v -0.21875000000000006 0.3625 0.21874999999999994
v -0.21875000000000008 0.23749999999999993 -0.21875000000000003
v -0.21875000000000003 0.2375 0.21874999999999997
vt 0.1875 0.15625
vt 0.09375 0.15625
vt 0.09375 0.125
vt 0.1875 0.125
vt 0.28125 0.15625
vt 0.1875 0.15625
vt 0.1875 0.125
vt 0.28125 0.125
vt 0.375 0.15625
vt 0.28125 0.15625
vt 0.28125 0.125
vt 0.375 0.125
vt 0.09375 0.15625
vt 0 0.15625
vt 0 0.125
vt 0.09375 0.125
vt 0.09375 0.15625
vt 0.1875 0.15625
vt 0.1875 0.25
vt 0.09375 0.25
vt 0.1875 0.25
vt 0.28125 0.25
vt 0.28125 0.15625
vt 0.1875 0.15625
vn -1.224646799147353e-16 -1.2246467991473532e-16 -1
vn 1 1.2246467991473532e-16 -1.2246467991473532e-16
vn 1.224646799147353e-16 1.2246467991473532e-16 1
vn -1 -1.2246467991473532e-16 1.2246467991473532e-16
vn -1.2246467991473535e-16 1 -1.224646799147353e-16
vn 1.2246467991473535e-16 -1 1.224646799147353e-16
usemtl m_5c7fd064-6322-ddb5-2a44-6af46e555f0a
f 180/532/133 183/531/133 181/530/133 178/529/133
f 179/536/134 180/535/134 178/534/134 177/533/134
f 184/540/135 179/539/135 177/538/135 182/537/135
f 183/544/136 184/543/136 182/542/136 181/541/136
f 182/548/137 177/547/137 178/546/137 181/545/137
f 183/552/138 180/551/138 179/550/138 184/549/138