# File generated by ImageToStl.com - Free Image and 3D model conversion tools

mtllib 9ff4a6a0c8d247738aa03ca9162286f6.mtl

o obj1
v 0.25 1.5625 0.125
v 0.25 0.9375 0.125
v 0.25 1.5625 -0.125
v 0.25 0.9375 -0.125
v -0.25 1.5625 -0.125
v -0.25 0.9375 -0.125
v -0.25 1.5625 0.125
v -0.25 0.9375 0.125
v -0.25 1.5625 0.125
v 0.25 1.5625 0.125
v -0.25 0.9375 0.125
v -0.25 0.9375 -0.125
v 0.25 0.9375 0.125
v 0.25 0.9375 -0.125
v 0.25 1.5625 0.125
v 0.25 0.9375 0.125
vn 1 0 0
vn -1 0 0
vn 0 1 0
vn 0 -1 0
vn 0 0 1
vn 0 0 -1
vt 0.25 0.6875
vt 0.25 0.54688
vt 0.3125 0.6875
vt 0.3125 0.54688
vt 0.4375 0.6875
vt 0.4375 0.54688
vt 0.5 0.6875
vt 0.5 0.54688
vt 0.4375 0.75
vt 0.3125 0.75
vt 0.5625 0.75
vt 0.5625 0.6875
vt 0.625 0.6875
vt 0.625 0.54688
usemtl mat0
f 1/1/1 2/2/1 3/3/1
f 2/2/1 4/4/1 3/3/1
f 5/5/2 6/6/2 7/7/2
f 6/6/2 8/8/2 7/7/2
f 5/5/3 9/9/3 3/3/3
f 9/9/3 10/10/3 3/3/3
f 11/11/4 12/12/4 13/9/4
f 12/12/4 14/5/4 13/9/4
f 7/7/5 8/8/5 15/13/5
f 8/8/5 16/14/5 15/13/5
f 3/3/6 4/4/6 5/5/6
f 4/4/6 6/6/6 5/5/6
# Vertices: 16, normals: 6, texture coordinates: 14, faces: 12

o obj2
v 0.265625 1.578125 0.140625
v 0.265625 0.796875 0.140625
v 0.265625 1.578125 -0.140625
v 0.265625 0.796875 -0.140625
v -0.265625 1.578125 -0.140625
v -0.265625 0.796875 -0.140625
v -0.265625 1.578125 0.140625
v -0.265625 0.796875 0.140625
v -0.265625 1.578125 0.140625
v 0.265625 1.578125 0.140625
v -0.265625 0.796875 0.140625
v -0.265625 0.796875 -0.140625
v 0.265625 0.796875 0.140625
v 0.265625 0.796875 -0.140625
v 0.265625 1.578125 0.140625
v 0.265625 0.796875 0.140625
v 0.265625 1.578125 -0.140625
v 0.265625 0.796875 -0.140625
v -0.265625 1.578125 -0.140625
v -0.265625 0.796875 -0.140625
vn 1 0 0
vn -1 0 0
vn 0 1 0
vn 0 -1 0
vn 0 0 1
vn 0 0 -1
vt 0.25 0.4375
vt 0.25 0.29688
vt 0.3125 0.4375
vt 0.3125 0.29688
vt 0.4375 0.4375
vt 0.4375 0.29688
vt 0.5 0.4375
vt 0.5 0.29688
vt 0.4375 0.5
vt 0.3125 0.5
vt 0.5625 0.5
vt 0.5625 0.4375
vt 0.625 0.4375
vt 0.625 0.29688
vt 0.3125 0.48438
vt 0.3125 0.32812
vt 0.4375 0.48438
vt 0.4375 0.32812
usemtl mat0
f 17/15/7 18/16/7 19/17/7
f 18/16/7 20/18/7 19/17/7
f 21/19/8 22/20/8 23/21/8
f 22/20/8 24/22/8 23/21/8
f 21/19/9 25/23/9 19/17/9
f 25/23/9 26/24/9 19/17/9
f 27/25/10 28/26/10 29/23/10
f 28/26/10 30/19/10 29/23/10
f 23/21/11 24/22/11 31/27/11
f 24/22/11 32/28/11 31/27/11
f 33/29/12 34/30/12 35/31/12
f 34/30/12 36/32/12 35/31/12
# Vertices: 20, normals: 6, texture coordinates: 18, faces: 12

o obj3
v 0.26765001 0.89014995 0.14139999
v 0.26765001 0.54484999 0.14139999
v 0.26765001 0.89014995 -0.14139999
v 0.26765001 0.54484999 -0.14139999
v -0.26765001 0.89014995 -0.14139999
v -0.26765001 0.54484999 -0.14139999
v -0.26765001 0.89014995 0.14139999
v -0.26765001 0.54484999 0.14139999
v -0.26765001 0.89014995 -0.14139999
v -0.26765001 0.89014995 0.14139999
v 0.26765001 0.89014995 -0.14139999
v 0.26765001 0.89014995 0.14139999
v -0.26765001 0.54484999 0.14139999
v -0.26765001 0.54484999 -0.14139999
v 0.26765001 0.54484999 0.14139999
v 0.26765001 0.54484999 -0.14139999
v -0.26765001 0.89014995 0.14139999
v -0.26765001 0.54484999 0.14139999
v 0.26765001 0.89014995 -0.14139999
v -0.26765001 0.89014995 -0.14139999
vn 1 0 0
vn -1 0 0
vn 0 1 0
vn 0 -1 0
vn 0 0 1
vn 0 0 -1
vt 0.5 0.3125
vt 0.5 0.25
vt 0.4375 0.3125
vt 0.4375 0.25
vt 0.3125 0.3125
vt 0.3125 0.25
vt 0.25 0.3125
vt 0.25 0.25
vt 0.375 0.9375
vt 0.375 1
vt 0.5 0.9375
vt 0.5 1
vt 0.4375 0.375
vt 0.5625 0.375
vt 0.5625 0.3125
vt 0.625 0.3125
vt 0.625 0.25
vt 0.4375 0.32812
vt 0.3125 0.32812
usemtl mat0
f 37/33/13 38/34/13 39/35/13
f 38/34/13 40/36/13 39/35/13
f 41/37/14 42/38/14 43/39/14
f 42/38/14 44/40/14 43/39/14
f 45/41/15 46/42/15 47/43/15
f 46/42/15 48/44/15 47/43/15
f 49/45/16 50/35/16 51/46/16
f 50/35/16 52/47/16 51/46/16
f 53/48/17 54/49/17 37/33/17
f 54/49/17 38/34/17 37/33/17
f 55/50/18 40/36/18 56/51/18
f 40/36/18 42/38/18 56/51/18
# Vertices: 20, normals: 6, texture coordinates: 19, faces: 12

o obj4
v 0.25186875 0.99936879 0.12561876
v 0.25186875 0.74813128 0.12561876
v 0.25186875 0.99936879 -0.12561876
v 0.25186875 0.74813128 -0.12561876
v -0.25186875 0.99936879 -0.12561876
v -0.25186875 0.74813128 -0.12561876
v -0.25186875 0.99936879 0.12561876
v -0.25186875 0.74813128 0.12561876
v -0.25186875 0.99936879 0.12561876
v 0.25186875 0.99936879 0.12561876
v -0.25186875 0.74813128 0.12561876
v -0.25186875 0.74813128 -0.12561876
v 0.25186875 0.74813128 0.12561876
v 0.25186875 0.74813128 -0.12561876
v 0.25186875 0.99936879 0.12561876
v 0.25186875 0.74813128 0.12561876
vn 1 0 0
vn -1 0 0
vn 0 1 0
vn 0 -1 0
vn 0 0 1
vn 0 0 -1
vt 0.25 0.5625
vt 0.25 0.5
vt 0.3125 0.5625
vt 0.3125 0.5
vt 0.4375 0.5625
vt 0.4375 0.5
vt 0.5 0.5625
vt 0.5 0.5
vt 0.4375 0.625
vt 0.3125 0.625
vt 0.5625 0.625
vt 0.5625 0.5625
vt 0.625 0.5625
vt 0.625 0.5
usemtl mat0
f 57/52/19 58/53/19 59/54/19
f 58/53/19 60/55/19 59/54/19
f 61/56/20 62/57/20 63/58/20
f 62/57/20 64/59/20 63/58/20
f 61/56/21 65/60/21 59/54/21
f 65/60/21 66/61/21 59/54/21
f 67/62/22 68/63/22 69/60/22
f 68/63/22 70/56/22 69/60/22
f 63/58/23 64/59/23 71/64/23
f 64/59/23 72/65/23 71/64/23
f 59/54/24 60/55/24 61/56/24
f 60/55/24 62/57/24 61/56/24
# Vertices: 16, normals: 6, texture coordinates: 14, faces: 12

o obj5
v 0.43905545 1.30754665 0.14139999
v 0.59983532 0.79761803 0.14139999
v 0.43905545 1.30754665 -0.14139999
v 0.59983532 0.79761803 -0.14139999
v 0.2289516 1.24130116 -0.14139999
v 0.38973148 0.73137254 -0.14139999
v 0.2289516 1.24130116 0.14139999
v 0.38973148 0.73137254 0.14139999
v 0.2289516 1.24130116 0.14139999
v 0.43905545 1.30754665 -0.14139999
v 0.43905545 1.30754665 0.14139999
v 0.38973148 0.73137254 0.14139999
v 0.38973148 0.73137254 -0.14139999
v 0.59983532 0.79761803 0.14139999
v 0.59983532 0.79761803 -0.14139999
v 0.2289516 1.24130116 0.14139999
v 0.38973148 0.73137254 0.14139999
v 0.2289516 1.24130116 -0.14139999
v 0.38973148 0.73137254 -0.14139999
vn 1 0 0
vn -1 0 0
vn 0 1 0
vn 0 -1 0
vn 0 0 1
vn 0 0 -1
vt 0.92188 0.125
vt 0.92188 0.01562
vt 0.85938 0.125
vt 0.85938 0.01562
vt 0.8125 0.10938
vt 0.8125 0
vt 0.75 0.10938
vt 0.75 0
vt 0.8125 0.17188
vt 0.85938 0.10938
vt 0.85938 0.17188
vt 0.85938 0.25
vt 0.85938 0.1875
vt 0.90625 0.25
vt 0.90625 0.1875
vt 0.96875 0.125
vt 0.96875 0.01562
vt 0.8125 0.125
vt 0.8125 0.01562
usemtl mat0
f 73/66/25 74/67/25 75/68/25
f 74/67/25 76/69/25 75/68/25
f 77/70/26 78/71/26 79/72/26
f 78/71/26 80/73/26 79/72/26
f 77/70/27 81/74/27 82/75/27
f 81/74/27 83/76/27 82/75/27
f 84/77/28 85/78/28 86/79/28
f 85/78/28 87/80/28 86/79/28
f 88/81/29 89/82/29 73/66/29
f 89/82/29 74/67/29 73/66/29
f 75/68/30 76/69/30 90/83/30
f 76/69/30 91/84/30 90/83/30
# Vertices: 19, normals: 6, texture coordinates: 19, faces: 12

o obj6
v 0.43811876 1.29624367 0.12561876
v 0.43811876 0.79313123 0.12561876
v 0.43811876 1.29624367 -0.12561876
v 0.43811876 0.79313123 -0.12561876
v 0.24938124 1.29624367 -0.12561876
v 0.24938124 0.79313123 -0.12561876
v 0.24938124 1.29624367 0.12561876
v 0.24938124 0.79313123 0.12561876
v 0.24938124 1.29624367 -0.12561876
v 0.24938124 1.29624367 0.12561876
v 0.43811876 1.29624367 -0.12561876
v 0.43811876 1.29624367 0.12561876
v 0.24938124 0.79313123 0.12561876
v 0.24938124 0.79313123 -0.12561876
v 0.43811876 0.79313123 0.12561876
v 0.43811876 0.79313123 -0.12561876
v 0.24938124 1.29624367 0.12561876
v 0.24938124 0.79313123 0.12561876
vn 1 0 0
vn -1 0 0
vn 0 1 0
vn 0 -1 0
vn 0 0 1
vn 0 0 -1
vt 0.67188 0.10938
vt 0.67188 0
vt 0.60938 0.10938
vt 0.60938 0
vt 0.5625 0.10938
vt 0.5625 0
vt 0.5 0.10938
vt 0.5 0
vt 0.5625 0.1875
vt 0.5625 0.25
vt 0.60938 0.1875
vt 0.60938 0.25
vt 0.65625 0.25
vt 0.65625 0.1875
vt 0.71875 0.10938
vt 0.71875 0
usemtl mat0
f 92/85/31 93/86/31 94/87/31
f 93/86/31 95/88/31 94/87/31
f 96/89/32 97/90/32 98/91/32
f 97/90/32 99/92/32 98/91/32
f 100/93/33 101/94/33 102/95/33
f 101/94/33 103/96/33 102/95/33
f 104/96/34 105/95/34 106/97/34
f 105/95/34 107/98/34 106/97/34
f 108/99/35 109/100/35 92/85/35
f 109/100/35 93/86/35 92/85/35
f 94/87/36 95/88/36 96/89/36
f 95/88/36 97/90/36 96/89/36
# Vertices: 18, normals: 6, texture coordinates: 16, faces: 12

o obj7
v 0.4375 1.609375 0.125
v 0.4375 1.171875 0.125
v 0.4375 1.609375 -0.125
v 0.4375 1.171875 -0.125
v 0.25 1.609375 -0.125
v 0.25 1.171875 -0.125
v 0.25 1.609375 0.125
v 0.25 1.171875 0.125
v 0.25 1.609375 0.125
v 0.4375 1.609375 -0.125
v 0.4375 1.609375 0.125
v 0.25 1.171875 0.125
v 0.25 1.171875 -0.125
v 0.4375 1.171875 0.125
v 0.4375 1.171875 -0.125
v 0.25 1.609375 0.125
v 0.25 1.171875 0.125
v 0.4375 1.609375 0.125
v 0.4375 1.171875 0.125
v 0.25 1.609375 -0.125
vn 1 0 0
vn -1 0 0
vn 0 1 0
vn 0 -1 0
vn 0 0 1
vn 0 0 -1
vt 0.67188 0.20312
vt 0.67188 0.09375
vt 0.60938 0.20312
vt 0.60938 0.09375
vt 0.5625 0.1875
vt 0.5625 0.09375
vt 0.5 0.1875
vt 0.5 0.09375
vt 0.5625 0.25
vt 0.60938 0.1875
vt 0.60938 0.25
vt 0.54688 0.25
vt 0.54688 0.1875
vt 0.59375 0.25
vt 0.59375 0.1875
vt 0.5625 0.20312
usemtl mat0
f 110/101/37 111/102/37 112/103/37
f 111/102/37 113/104/37 112/103/37
f 114/105/38 115/106/38 116/107/38
f 115/106/38 117/108/38 116/107/38
f 114/105/39 118/109/39 119/110/39
f 118/109/39 120/111/39 119/110/39
f 121/112/40 122/113/40 123/114/40
f 122/113/40 124/115/40 123/114/40
f 125/116/41 126/106/41 127/103/41
f 126/106/41 128/104/41 127/103/41
f 112/103/42 113/104/42 129/116/42
f 113/104/42 115/106/42 129/116/42
# Vertices: 20, normals: 6, texture coordinates: 16, faces: 12

o obj8
v 0.47146469 1.63944478 0.140625
v 0.49461544 1.37483055 0.140625
v 0.47146469 1.63944478 -0.140625
v 0.49461544 1.37483055 -0.140625
v 0.2535471 1.62037946 -0.140625
v 0.27669784 1.35576523 -0.140625
v 0.2535471 1.62037946 0.140625
v 0.27669784 1.35576523 0.140625
v 0.2535471 1.62037946 0.140625
v 0.47146469 1.63944478 0.140625
v 0.27669784 1.35576523 0.140625
v 0.27669784 1.35576523 -0.140625
v 0.49461544 1.37483055 0.140625
v 0.49461544 1.37483055 -0.140625
v 0.2535471 1.62037946 0.140625
v 0.27669784 1.35576523 0.140625
v 0.47146469 1.63944478 0.140625
v 0.49461544 1.37483055 0.140625
v 0.27669784 1.35576523 -0.140625
vn 1 0 0
vn -1 0 0
vn 0 1 0
vn 0 -1 0
vn 0 0 1
vn 0 0 -1
vt 0.90625 0.1875
vt 0.90625 0.125
vt 0.85938 0.1875
vt 0.85938 0.125
vt 0.8125 0.1875
vt 0.8125 0.09375
vt 0.75 0.1875
vt 0.75 0.09375
vt 0.8125 0.23438
vt 0.85938 0.23438
vt 0.03125 1
vt 0.03125 0.9375
vt 0.01562 1
vt 0.01562 0.9375
vt 0.96875 0.1875
vt 0.96875 0.125
vt 0.92188 0.1875
vt 0.92188 0.125
vt 0.8125 0.125
usemtl mat0
f 130/117/43 131/118/43 132/119/43
f 131/118/43 133/120/43 132/119/43
f 134/121/44 135/122/44 136/123/44
f 135/122/44 137/124/44 136/123/44
f 134/121/45 138/125/45 132/119/45
f 138/125/45 139/126/45 132/119/45
f 140/127/46 141/128/46 142/129/46
f 141/128/46 143/130/46 142/129/46
f 144/131/47 145/132/47 146/133/47
f 145/132/47 147/134/47 146/133/47
f 132/119/48 133/120/48 134/121/48
f 133/120/48 148/135/48 134/121/48
# Vertices: 19, normals: 6, texture coordinates: 19, faces: 12

o obj9
v -0.24938124 1.29624367 0.12561876
v -0.24938124 0.79313123 0.12561876
v -0.24938124 1.29624367 -0.12561876
v -0.24938124 0.79313123 -0.12561876
v -0.43811876 1.29624367 -0.12561876
v -0.43811876 0.79313123 -0.12561876
v -0.43811876 1.29624367 0.12561876
v -0.43811876 0.79313123 0.12561876
v -0.43811876 1.29624367 -0.12561876
v -0.43811876 1.29624367 0.12561876
v -0.24938124 1.29624367 -0.12561876
v -0.24938124 1.29624367 0.12561876
v -0.43811876 0.79313123 0.12561876
v -0.43811876 0.79313123 -0.12561876
v -0.24938124 0.79313123 0.12561876
v -0.24938124 0.79313123 -0.12561876
v -0.24938124 1.29624367 0.12561876
v -0.24938124 0.79313123 0.12561876
vn 1 0 0
vn -1 0 0
vn 0 1 0
vn 0 -1 0
vn 0 0 1
vn 0 0 -1
vt 0.5 0.10938
vt 0.5 0
vt 0.5625 0.10938
vt 0.5625 0
vt 0.60938 0.10938
vt 0.60938 0
vt 0.67188 0.10938
vt 0.67188 0
vt 0.60938 0.1875
vt 0.60938 0.25
vt 0.5625 0.1875
vt 0.5625 0.25
vt 0.65625 0.25
vt 0.65625 0.1875
vt 0.71875 0.10938
vt 0.71875 0
usemtl mat0
f 149/136/49 150/137/49 151/138/49
f 150/137/49 152/139/49 151/138/49
f 153/140/50 154/141/50 155/142/50
f 154/141/50 156/143/50 155/142/50
f 157/144/51 158/145/51 159/146/51
f 158/145/51 160/147/51 159/146/51
f 161/148/52 162/149/52 163/145/52
f 162/149/52 164/144/52 163/145/52
f 155/142/53 156/143/53 165/150/53
f 156/143/53 166/151/53 165/150/53
f 151/138/54 152/139/54 153/140/54
f 152/139/54 154/141/54 153/140/54
# Vertices: 18, normals: 6, texture coordinates: 16, faces: 12

o obj10
v -0.2289516 1.24130116 0.14139999
v -0.38973148 0.73137254 0.14139999
v -0.2289516 1.24130116 -0.14139999
v -0.38973148 0.73137254 -0.14139999
v -0.43905545 1.30754665 -0.14139999
v -0.59983532 0.79761803 -0.14139999
v -0.43905545 1.30754665 0.14139999
v -0.59983532 0.79761803 0.14139999
v -0.43905545 1.30754665 -0.14139999
v -0.43905545 1.30754665 0.14139999
v -0.2289516 1.24130116 0.14139999
v -0.59983532 0.79761803 0.14139999
v -0.59983532 0.79761803 -0.14139999
v -0.38973148 0.73137254 0.14139999
v -0.38973148 0.73137254 -0.14139999
v -0.2289516 1.24130116 0.14139999
v -0.38973148 0.73137254 0.14139999
v -0.2289516 1.24130116 -0.14139999
v -0.38973148 0.73137254 -0.14139999
vn 1 0 0
vn -1 0 0
vn 0 1 0
vn 0 -1 0
vn 0 0 1
vn 0 0 -1
vt 0.75 0.10938
vt 0.75 0
vt 0.8125 0.10938
vt 0.8125 0
vt 0.85938 0.125
vt 0.85938 0.01562
vt 0.92188 0.125
vt 0.92188 0.01562
vt 0.85938 0.10938
vt 0.85938 0.17188
vt 0.8125 0.17188
vt 0.90625 0.25
vt 0.90625 0.1875
vt 0.85938 0.25
vt 0.85938 0.1875
vt 0.96875 0.125
vt 0.96875 0.01562
vt 0.8125 0.125
vt 0.8125 0.01562
usemtl mat0
f 167/152/55 168/153/55 169/154/55
f 168/153/55 170/155/55 169/154/55
f 171/156/56 172/157/56 173/158/56
f 172/157/56 174/159/56 173/158/56
f 175/160/57 176/161/57 169/154/57
f 176/161/57 177/162/57 169/154/57
f 178/163/58 179/164/58 180/165/58
f 179/164/58 181/166/58 180/165/58
f 173/158/59 174/159/59 182/167/59
f 174/159/59 183/168/59 182/167/59
f 184/169/60 185/170/60 171/156/60
f 185/170/60 172/157/60 171/156/60
# Vertices: 19, normals: 6, texture coordinates: 19, faces: 12

o obj11
v -0.25 1.609375 0.125
v -0.25 1.171875 0.125
v -0.25 1.609375 -0.125
v -0.25 1.171875 -0.125
v -0.4375 1.609375 -0.125
v -0.4375 1.171875 -0.125
v -0.4375 1.609375 0.125
v -0.4375 1.171875 0.125
v -0.4375 1.609375 -0.125
v -0.4375 1.609375 0.125
v -0.25 1.609375 0.125
v -0.4375 1.171875 0.125
v -0.4375 1.171875 -0.125
v -0.25 1.171875 0.125
v -0.25 1.171875 -0.125
v -0.4375 1.609375 0.125
v -0.4375 1.171875 0.125
v -0.25 1.609375 0.125
v -0.25 1.171875 0.125
v -0.25 1.609375 -0.125
vn 1 0 0
vn -1 0 0
vn 0 1 0
vn 0 -1 0
vn 0 0 1
vn 0 0 -1
vt 0.5 0.1875
vt 0.5 0.09375
vt 0.5625 0.1875
vt 0.5625 0.09375
vt 0.60938 0.20312
vt 0.60938 0.09375
vt 0.67188 0.20312
vt 0.67188 0.09375
vt 0.60938 0.1875
vt 0.60938 0.25
vt 0.5625 0.25
vt 0.59375 0.25
vt 0.59375 0.1875
vt 0.54688 0.25
vt 0.54688 0.1875
vt 0.5625 0.20312
usemtl mat0
f 186/171/61 187/172/61 188/173/61
f 187/172/61 189/174/61 188/173/61
f 190/175/62 191/176/62 192/177/62
f 191/176/62 193/178/62 192/177/62
f 194/179/63 195/180/63 188/173/63
f 195/180/63 196/181/63 188/173/63
f 197/182/64 198/183/64 199/184/64
f 198/183/64 200/185/64 199/184/64
f 201/175/65 202/176/65 203/186/65
f 202/176/65 204/174/65 203/186/65
f 205/186/66 189/174/66 190/175/66
f 189/174/66 191/176/66 190/175/66
# Vertices: 20, normals: 6, texture coordinates: 16, faces: 12

o obj12
v -0.2535471 1.62037946 0.140625
v -0.27669784 1.35576523 0.140625
v -0.2535471 1.62037946 -0.140625
v -0.27669784 1.35576523 -0.140625
v -0.47146469 1.63944478 -0.140625
v -0.49461544 1.37483055 -0.140625
v -0.47146469 1.63944478 0.140625
v -0.49461544 1.37483055 0.140625
v -0.47146469 1.63944478 0.140625
v -0.2535471 1.62037946 0.140625
v -0.49461544 1.37483055 0.140625
v -0.49461544 1.37483055 -0.140625
v -0.27669784 1.35576523 0.140625
v -0.27669784 1.35576523 -0.140625
v -0.47146469 1.63944478 0.140625
v -0.49461544 1.37483055 0.140625
v -0.2535471 1.62037946 0.140625
v -0.27669784 1.35576523 0.140625
v -0.27669784 1.35576523 -0.140625
vn 1 0 0
vn -1 0 0
vn 0 1 0
vn 0 -1 0
vn 0 0 1
vn 0 0 -1
vt 0.75 0.1875
vt 0.75 0.09375
vt 0.8125 0.1875
vt 0.8125 0.09375
vt 0.85938 0.1875
vt 0.85938 0.125
vt 0.90625 0.1875
vt 0.90625 0.125
vt 0.85938 0.23438
vt 0.8125 0.23438
vt 0.01562 1
vt 0.01562 0.9375
vt 0.03125 1
vt 0.03125 0.9375
vt 0.92188 0.1875
vt 0.92188 0.125
vt 0.96875 0.1875
vt 0.96875 0.125
vt 0.8125 0.125
usemtl mat0
f 206/187/67 207/188/67 208/189/67
f 207/188/67 209/190/67 208/189/67
f 210/191/68 211/192/68 212/193/68
f 211/192/68 213/194/68 212/193/68
f 210/191/69 214/195/69 208/189/69
f 214/195/69 215/196/69 208/189/69
f 216/197/70 217/198/70 218/199/70
f 217/198/70 219/200/70 218/199/70
f 220/201/71 221/202/71 222/203/71
f 221/202/71 223/204/71 222/203/71
f 208/189/72 224/205/72 210/191/72
f 224/205/72 211/192/72 210/191/72
# Vertices: 19, normals: 6, texture coordinates: 19, faces: 12

o obj13
v -0.05625 1.82187495 -0.2043125
v -0.05625 1.73125002 -0.2043125
v -0.05625 1.82187495 -0.204375
v -0.05625 1.73125002 -0.204375
v -0.1375 1.82187495 -0.204375
v -0.1375 1.73125002 -0.204375
v -0.1375 1.82187495 -0.2043125
v -0.1375 1.73125002 -0.2043125
v -0.1375 1.73125002 -0.2043125
v -0.1375 1.73125002 -0.204375
v -0.05625 1.73125002 -0.2043125
v -0.05625 1.73125002 -0.204375
v -0.05625 1.82187495 -0.2043125
v -0.05625 1.73125002 -0.2043125
v -0.1375 1.82187495 -0.204375
v -0.1375 1.73125002 -0.204375
vn 1 0 0
vn -1 0 0
vn 0 1 0
vn 0 -1 0
vn 0 0 1
vn 0 0 -1
vt 0.96875 0.9375
vt 0.96875 0.90625
vt 0.98438 0.9375
vt 0.98438 0.90625
vt 1 0.9375
vt 1 0.90625
usemtl mat0
f 225/206/73 226/207/73 227/206/73
f 226/207/73 228/207/73 227/206/73
f 229/208/74 230/209/74 231/208/74
f 230/209/74 232/209/74 231/208/74
f 229/208/75 231/208/75 227/206/75
f 231/208/75 225/206/75 227/206/75
f 233/210/76 234/210/76 235/208/76
f 234/210/76 236/208/76 235/208/76
f 231/208/77 232/209/77 237/210/77
f 232/209/77 238/211/77 237/210/77
f 227/206/78 228/207/78 239/210/78
f 228/207/78 240/211/78 239/210/78
# Vertices: 16, normals: 6, texture coordinates: 6, faces: 12

o obj14
v -0.040625 1.84687504 -0.20368749
v -0.040625 1.71562502 -0.20368749
v -0.040625 1.84687504 -0.20375001
v -0.040625 1.71562502 -0.20375001
v -0.178125 1.84687504 -0.20375001
v -0.178125 1.71562502 -0.20375001
v -0.178125 1.84687504 -0.20368749
v -0.178125 1.71562502 -0.20368749
v -0.178125 1.71562502 -0.20368749
v -0.178125 1.71562502 -0.20375001
v -0.040625 1.71562502 -0.20368749
v -0.040625 1.71562502 -0.20375001
v -0.040625 1.84687504 -0.20368749
v -0.040625 1.71562502 -0.20368749
vn 1 0 0
vn -1 0 0
vn 0 1 0
vn 0 -1 0
vn 0 0 1
vn 0 0 -1
vt 0.9375 0.96875
vt 0.9375 0.9375
vt 0.96875 0.96875
vt 0.96875 0.9375
vt 1 0.96875
vt 1 0.9375
usemtl mat0
f 241/212/79 242/213/79 243/212/79
f 242/213/79 244/213/79 243/212/79
f 245/214/80 246/215/80 247/214/80
f 246/215/80 248/215/80 247/214/80
f 245/214/81 247/214/81 243/212/81
f 247/214/81 241/212/81 243/212/81
f 249/216/82 250/216/82 251/214/82
f 250/216/82 252/214/82 251/214/82
f 247/214/83 248/215/83 253/216/83
f 248/215/83 254/217/83 253/216/83
f 243/212/84 244/213/84 245/214/84
f 244/213/84 246/215/84 245/214/84
# Vertices: 14, normals: 6, texture coordinates: 6, faces: 12

o obj15
v 0.178125 1.84687504 -0.20368749
v 0.178125 1.71562502 -0.20368749
v 0.178125 1.84687504 -0.20375001
v 0.178125 1.71562502 -0.20375001
v 0.040625 1.84687504 -0.20375001
v 0.040625 1.71562502 -0.20375001
v 0.040625 1.84687504 -0.20368749
v 0.040625 1.71562502 -0.20368749
v 0.040625 1.71562502 -0.20368749
v 0.040625 1.71562502 -0.20375001
v 0.178125 1.71562502 -0.20368749
v 0.178125 1.71562502 -0.20375001
v 0.040625 1.84687504 -0.20368749
v 0.040625 1.71562502 -0.20368749
vn 1 0 0
vn -1 0 0
vn 0 1 0
vn 0 -1 0
vn 0 0 1
vn 0 0 -1
vt 0.96875 0.96875
vt 0.96875 0.9375
vt 0.9375 0.96875
vt 0.9375 0.9375
vt 1 0.96875
vt 1 0.9375
usemtl mat0
f 255/218/85 256/219/85 257/218/85
f 256/219/85 258/219/85 257/218/85
f 259/220/86 260/221/86 261/220/86
f 260/221/86 262/221/86 261/220/86
f 259/220/87 261/220/87 257/218/87
f 261/220/87 255/218/87 257/218/87
f 263/218/88 264/218/88 265/222/88
f 264/218/88 266/222/88 265/222/88
f 267/222/89 268/223/89 255/218/89
f 268/223/89 256/219/89 255/218/89
f 257/218/90 258/219/90 259/220/90
f 258/219/90 260/221/90 259/220/90
# Vertices: 14, normals: 6, texture coordinates: 6, faces: 12

o obj16
v 0.1375 1.82187495 -0.2043125
v 0.1375 1.73125002 -0.2043125
v 0.1375 1.82187495 -0.204375
v 0.1375 1.73125002 -0.204375
v 0.05625 1.82187495 -0.204375
v 0.05625 1.73125002 -0.204375
v 0.05625 1.82187495 -0.2043125
v 0.05625 1.73125002 -0.2043125
v 0.05625 1.73125002 -0.2043125
v 0.05625 1.73125002 -0.204375
v 0.1375 1.73125002 -0.2043125
v 0.1375 1.73125002 -0.204375
v 0.05625 1.82187495 -0.2043125
v 0.05625 1.73125002 -0.2043125
v 0.1375 1.82187495 -0.204375
v 0.1375 1.73125002 -0.204375
vn 1 0 0
vn -1 0 0
vn 0 1 0
vn 0 -1 0
vn 0 0 1
vn 0 0 -1
vt 0.98438 0.9375
vt 0.98438 0.90625
vt 0.96875 0.9375
vt 0.96875 0.90625
vt 1 0.9375
vt 1 0.90625
usemtl mat0
f 269/224/91 270/225/91 271/224/91
f 270/225/91 272/225/91 271/224/91
f 273/226/92 274/227/92 275/226/92
f 274/227/92 276/227/92 275/226/92
f 273/226/93 275/226/93 271/224/93
f 275/226/93 269/224/93 271/224/93
f 277/224/94 278/224/94 279/228/94
f 278/224/94 280/228/94 279/228/94
f 281/228/95 282/229/95 269/224/95
f 282/229/95 270/225/95 269/224/95
f 283/228/96 284/229/96 273/226/96
f 284/229/96 274/227/96 273/226/96
# Vertices: 16, normals: 6, texture coordinates: 6, faces: 12

o obj17
v 0.18125001 1.9375 0.203125
v 0.18125001 1.56875002 0.203125
v 0.18125001 1.9375 -0.203125
v 0.18125001 1.56875002 -0.203125
v -0.18125001 1.9375 -0.203125
v -0.18125001 1.56875002 -0.203125
v -0.18125001 1.9375 0.203125
v -0.18125001 1.56875002 0.203125
v -0.18125001 1.9375 0.203125
v 0.18125001 1.9375 0.203125
v -0.18125001 1.56875002 0.203125
v -0.18125001 1.56875002 -0.203125
v 0.18125001 1.56875002 0.203125
v 0.18125001 1.56875002 -0.203125
v 0.18125001 1.9375 0.203125
v 0.18125001 1.56875002 0.203125
vn 1 0 0
vn -1 0 0
vn 0 1 0
vn 0 -1 0
vn 0 0 1
vn 0 0 -1
vt 0 0.875
vt 0 0.75
vt 0.125 0.875
vt 0.125 0.75
vt 0.25 0.875
vt 0.25 0.75
vt 0.375 0.875
vt 0.375 0.75
vt 0.25 1
vt 0.125 1
vt 0.375 1
vt 0.5 0.875
vt 0.5 0.75
usemtl mat0
f 285/230/97 286/231/97 287/232/97
f 286/231/97 288/233/97 287/232/97
f 289/234/98 290/235/98 291/236/98
f 290/235/98 292/237/98 291/236/98
f 289/234/99 293/238/99 287/232/99
f 293/238/99 294/239/99 287/232/99
f 295/240/100 296/236/100 297/238/100
f 296/236/100 298/234/100 297/238/100
f 291/236/101 292/237/101 299/241/101
f 292/237/101 300/242/101 299/241/101
f 287/232/102 288/233/102 289/234/102
f 288/233/102 290/235/102 289/234/102
# Vertices: 16, normals: 6, texture coordinates: 13, faces: 12

o obj18
v 0.29200906 1.96161456 0.21337515
v 0.38048915 1.606857 0.2133643
v 0.29048042 1.9612464 -0.21474696
v 0.37896051 1.60648883 -0.21475781
v 0.09945843 1.91360357 -0.21402394
v 0.18793851 1.55884601 -0.21403478
v 0.10098706 1.91397174 0.21409817
v 0.18946715 1.55921418 0.21408733
v 0.09945843 1.91360357 -0.21402394
v 0.10098706 1.91397174 0.21409817
v 0.29048042 1.9612464 -0.21474696
v 0.29200906 1.96161456 0.21337515
v 0.18946715 1.55921418 0.21408733
v 0.38048915 1.606857 0.2133643
v 0.37896051 1.60648883 -0.21475781
v 0.10098706 1.91397174 0.21409817
v 0.18946715 1.55921418 0.21408733
v 0.29200906 1.96161456 0.21337515
v 0.38048915 1.606857 0.2133643
v 0.29048042 1.9612464 -0.21474696
v 0.37896051 1.60648883 -0.21475781
v 0.09945843 1.91360357 -0.21402394
v 0.18793851 1.55884601 -0.21403478
vn 1 0 0
vn -1 0 0
vn 0 1 0
vn 0 -1 0
vn 0 0 1
vn 0 0 -1
vt 0.625 1
vt 0.625 0.9375
vt 0.54688 1
vt 0.54688 0.9375
vt 0.42188 1
vt 0.42188 0.9375
vt 0.375 1
vt 0.375 0.9375
vt 0.04688 0.9375
vt 0.04688 0.875
vt 0 0.9375
vt 0 0.875
vt 0.09375 1
vt 0.09375 0.9375
vt 0.14062 1
vt 0.14062 0.9375
usemtl mat0
f 301/243/103 302/244/103 303/245/103
f 302/244/103 304/246/103 303/245/103
f 305/247/104 306/248/104 307/249/104
f 306/248/104 308/250/104 307/249/104
f 309/251/105 310/252/105 311/253/105
f 310/252/105 312/254/105 311/253/105
f 313/247/106 306/248/106 314/249/106
f 306/248/106 315/250/106 314/249/106
f 316/255/107 317/256/107 318/257/107
f 317/256/107 319/258/107 318/257/107
f 320/257/108 321/258/108 322/255/108
f 321/258/108 323/256/108 322/255/108
# Vertices: 23, normals: 6, texture coordinates: 16, faces: 12

o obj19
v -0.13459471 1.93900758 0.215625
v -0.27338339 1.71252504 0.215625
v -0.13459471 1.93900758 -0.215625
v -0.27338339 1.71252504 -0.215625
v -0.25449724 2.01248394 -0.215625
v -0.39328591 1.7860014 -0.215625
v -0.25449724 2.01248394 0.215625
v -0.39328591 1.7860014 0.215625
v -0.25449724 2.01248394 -0.215625
v -0.25449724 2.01248394 0.215625
v -0.13459471 1.93900758 -0.215625
v -0.13459471 1.93900758 0.215625
v -0.39328591 1.7860014 0.215625
v -0.39328591 1.7860014 -0.215625
v -0.27338339 1.71252504 0.215625
v -0.27338339 1.71252504 -0.215625
v -0.25449724 2.01248394 0.215625
v -0.39328591 1.7860014 0.215625
v -0.13459471 1.93900758 0.215625
v -0.27338339 1.71252504 0.215625
vn 1 0 0
vn -1 0 0
vn 0 1 0
vn 0 -1 0
vn 0 0 1
vn 0 0 -1
vt 0 0.92188
vt 0 0.875
vt 0.07812 0.92188
vt 0.07812 0.875
vt 0.10938 0.92188
vt 0.10938 0.875
vt 0.17188 0.92188
vt 0.17188 0.875
vt 0.09375 0.92188
vt 0.09375 1
vt 0.0625 0.92188
vt 0.0625 1
vt 0.42188 1
vt 0.42188 0.92188
vt 0.375 1
vt 0.375 0.92188
vt 0.1875 0.92188
vt 0.1875 0.875
vt 0.21875 0.92188
vt 0.21875 0.875
usemtl mat0
f 324/259/109 325/260/109 326/261/109
f 325/260/109 327/262/109 326/261/109
f 328/263/110 329/264/110 330/265/110
f 329/264/110 331/266/110 330/265/110
f 332/267/111 333/268/111 334/269/111
f 333/268/111 335/270/111 334/269/111
f 336/271/112 337/272/112 338/273/112
f 337/272/112 339/274/112 338/273/112
f 340/275/113 341/276/113 342/277/113
f 341/276/113 343/278/113 342/277/113
f 326/261/114 327/262/114 328/263/114
f 327/262/114 329/264/114 328/263/114
# Vertices: 20, normals: 6, texture coordinates: 20, faces: 12

o obj20
v 0.25449724 2.01248394 0.215625
v 0.39328591 1.7860014 0.215625
v 0.25449724 2.01248394 -0.215625
v 0.39328591 1.7860014 -0.215625
v 0.13459471 1.93900758 -0.215625
v 0.27338339 1.71252504 -0.215625
v 0.13459471 1.93900758 0.215625
v 0.27338339 1.71252504 0.215625
v 0.13459471 1.93900758 0.215625
v 0.25449724 2.01248394 -0.215625
v 0.25449724 2.01248394 0.215625
v 0.27338339 1.71252504 0.215625
v 0.27338339 1.71252504 -0.215625
v 0.39328591 1.7860014 0.215625
v 0.39328591 1.7860014 -0.215625
v 0.13459471 1.93900758 0.215625
v 0.27338339 1.71252504 0.215625
v 0.25449724 2.01248394 0.215625
v 0.39328591 1.7860014 0.215625
vn 1 0 0
vn -1 0 0
vn 0 1 0
vn 0 -1 0
vn 0 0 1
vn 0 0 -1
vt 0.17188 0.92188
vt 0.17188 0.875
vt 0.10938 0.92188
vt 0.10938 0.875
vt 0.07812 0.92188
vt 0.07812 0.875
vt 0 0.92188
vt 0 0.875
vt 0.07812 1
vt 0.09375 0.92188
vt 0.09375 1
vt 0.375 1
vt 0.375 0.92188
vt 0.42188 1
vt 0.42188 0.92188
vt 0.21875 0.92188
vt 0.21875 0.875
vt 0.1875 0.92188
vt 0.1875 0.875
usemtl mat0
f 344/279/115 345/280/115 346/281/115
f 345/280/115 347/282/115 346/281/115
f 348/283/116 349/284/116 350/285/116
f 349/284/116 351/286/116 350/285/116
f 348/283/117 352/287/117 353/288/117
f 352/287/117 354/289/117 353/288/117
f 355/290/118 356/291/118 357/292/118
f 356/291/118 358/293/118 357/292/118
f 359/294/119 360/295/119 361/296/119
f 360/295/119 362/297/119 361/296/119
f 346/281/120 347/282/120 348/283/120
f 347/282/120 349/284/120 348/283/120
# Vertices: 19, normals: 6, texture coordinates: 19, faces: 12

o obj21
v 0.25 2.046875 0.234375
v 0.25 1.53125 0.234375
v 0.25 2.046875 -0.234375
v 0.25 1.53125 -0.234375
v -0.265625 2.046875 -0.234375
v -0.265625 1.53125 -0.234375
v -0.265625 2.046875 0.234375
v -0.265625 1.53125 0.234375
v -0.265625 2.046875 0.234375
v 0.25 2.046875 0.234375
v -0.265625 1.53125 0.234375
v -0.265625 1.53125 -0.234375
v 0.25 1.53125 0.234375
v 0.25 1.53125 -0.234375
v 0.25 2.046875 0.234375
v 0.25 1.53125 0.234375
vn 1 0 0
vn -1 0 0
vn 0 1 0
vn 0 -1 0
vn 0 0 1
vn 0 0 -1
vt 0.5 0.875
vt 0.5 0.75
vt 0.625 0.875
vt 0.625 0.75
vt 0.75 0.875
vt 0.75 0.75
vt 0.875 0.875
vt 0.875 0.75
vt 0.75 1
vt 0.625 1
vt 0.875 1
vt 1 0.875
vt 1 0.75
usemtl mat0
f 363/298/121 364/299/121 365/300/121
f 364/299/121 366/301/121 365/300/121
f 367/302/122 368/303/122 369/304/122
f 368/303/122 370/305/122 369/304/122
f 367/302/123 371/306/123 365/300/123
f 371/306/123 372/307/123 365/300/123
f 373/308/124 374/304/124 375/306/124
f 374/304/124 376/302/124 375/306/124
f 369/304/125 370/305/125 377/309/125
f 370/305/125 378/310/125 377/309/125
f 365/300/126 366/301/126 367/302/126
f 366/301/126 368/303/126 367/302/126
# Vertices: 16, normals: 6, texture coordinates: 13, faces: 12

o obj22
v -0.10098706 1.91397174 0.21409817
v -0.18946715 1.55921418 0.21408733
v -0.09945843 1.91360357 -0.21402394
v -0.18793851 1.55884601 -0.21403478
v -0.29048042 1.9612464 -0.21474696
v -0.37896051 1.60648883 -0.21475781
v -0.29200906 1.96161456 0.21337515
v -0.38048915 1.606857 0.2133643
v -0.29048042 1.9612464 -0.21474696
v -0.29200906 1.96161456 0.21337515
v -0.09945843 1.91360357 -0.21402394
v -0.10098706 1.91397174 0.21409817
v -0.38048915 1.606857 0.2133643
v -0.37896051 1.60648883 -0.21475781
v -0.18946715 1.55921418 0.21408733
v -0.29200906 1.96161456 0.21337515
v -0.38048915 1.606857 0.2133643
v -0.10098706 1.91397174 0.21409817
v -0.18946715 1.55921418 0.21408733
v -0.09945843 1.91360357 -0.21402394
v -0.18793851 1.55884601 -0.21403478
v -0.29048042 1.9612464 -0.21474696
v -0.37896051 1.60648883 -0.21475781
vn 1 0 0
vn -1 0 0
vn 0 1 0
vn 0 -1 0
vn 0 0 1
vn 0 0 -1
vt 0.375 1
vt 0.375 0.9375
vt 0.42188 1
vt 0.42188 0.9375
vt 0.54688 1
vt 0.54688 0.9375
vt 0.625 1
vt 0.625 0.9375
vt 0 0.9375
vt 0 0.875
vt 0.04688 0.9375
vt 0.04688 0.875
vt 0.14062 1
vt 0.14062 0.9375
vt 0.09375 1
vt 0.09375 0.9375
usemtl mat0
f 379/311/127 380/312/127 381/313/127
f 380/312/127 382/314/127 381/313/127
f 383/315/128 384/316/128 385/317/128
f 384/316/128 386/318/128 385/317/128
f 387/319/129 388/320/129 389/321/129
f 388/320/129 390/322/129 389/321/129
f 391/311/130 392/312/130 393/313/130
f 392/312/130 382/314/130 393/313/130
f 394/323/131 395/324/131 396/325/131
f 395/324/131 397/326/131 396/325/131
f 398/325/132 399/326/132 400/323/132
f 399/326/132 401/324/132 400/323/132
# Vertices: 23, normals: 6, texture coordinates: 16, faces: 12

o obj23
v 0.21875 2.25 -0.115625
v 0.21875 1.796875 -0.115625
v 0.21875 2.25 -0.240625
v 0.21875 1.796875 -0.240625
v -0.234375 2.25 -0.240625
v -0.234375 1.796875 -0.240625
v -0.234375 2.25 -0.115625
v -0.234375 1.796875 -0.115625
v -0.234375 2.25 -0.240625
v -0.234375 2.25 -0.115625
v 0.21875 2.25 -0.115625
v -0.234375 1.796875 -0.115625
v -0.234375 1.796875 -0.240625
v 0.21875 1.796875 -0.115625
v 0.21875 1.796875 -0.240625
v -0.234375 2.25 -0.115625
v -0.234375 1.796875 -0.115625
v 0.21875 2.25 -0.115625
v 0.21875 1.796875 -0.115625
vn 1 0 0
vn -1 0 0
vn 0 1 0
vn 0 -1 0
vn 0 0 1
vn 0 0 -1
vt 0.375 0.98438
vt 0.375 0.875
vt 0.39062 0.98438
vt 0.39062 0.875
vt 0.5 0.98438
vt 0.5 0.875
vt 0.51562 0.98438
vt 0.51562 0.875
vt 0.48438 0.98438
vt 0.48438 1
vt 0.39062 1
vt 0.57812 1
vt 0.57812 0.98438
vt 0.90625 0.67188
vt 0.90625 0.5625
vt 1 0.67188
vt 1 0.5625
usemtl mat0
f 402/327/133 403/328/133 404/329/133
f 403/328/133 405/330/133 404/329/133
f 406/331/134 407/332/134 408/333/134
f 407/332/134 409/334/134 408/333/134
f 410/335/135 411/336/135 404/329/135
f 411/336/135 412/337/135 404/329/135
f 413/338/136 414/339/136 415/336/136
f 414/339/136 416/335/136 415/336/136
f 417/340/137 418/341/137 419/342/137
f 418/341/137 420/343/137 419/342/137
f 404/329/138 405/330/138 406/331/138
f 405/330/138 407/332/138 406/331/138
# Vertices: 19, normals: 6, texture coordinates: 17, faces: 12

o obj24
v 0.26014999 0.453275 0.14139999
v 0.26014999 -0.0189 0.14139999
v 0.26014999 0.453275 -0.14139999
v 0.26014999 -0.0189 -0.14139999
v -0.02265 0.453275 -0.14139999
v -0.02265 -0.0189 -0.14139999
v -0.02265 0.453275 0.14139999
v -0.02265 -0.0189 0.14139999
v -0.02265 0.453275 -0.14139999
v -0.02265 0.453275 0.14139999
v 0.26014999 0.453275 -0.14139999
v 0.26014999 0.453275 0.14139999
v -0.02265 -0.0189 0.14139999
v -0.02265 -0.0189 -0.14139999
v 0.26014999 -0.0189 0.14139999
v 0.26014999 -0.0189 -0.14139999
v 0.26014999 0.453275 0.14139999
v 0.26014999 -0.0189 0.14139999
vn 1 0 0
vn -1 0 0
vn 0 1 0
vn 0 -1 0
vn 0 0 1
vn 0 0 -1
vt 0 0.32812
vt 0 0.21875
vt 0.0625 0.32812
vt 0.0625 0.21875
vt 0.125 0.32812
vt 0.125 0.21875
vt 0.1875 0.32812
vt 0.1875 0.21875
vt 0.0625 0.9375
vt 0.0625 1
vt 0 0.9375
vt 0 1
vt 0.1875 0.5
vt 0.1875 0.4375
vt 0.125 0.5
vt 0.125 0.4375
vt 0.25 0.32812
vt 0.25 0.21875
usemtl mat0
f 421/344/139 422/345/139 423/346/139
f 422/345/139 424/347/139 423/346/139
f 425/348/140 426/349/140 427/350/140
f 426/349/140 428/351/140 427/350/140
f 429/352/141 430/353/141 431/354/141
f 430/353/141 432/355/141 431/354/141
f 433/356/142 434/357/142 435/358/142
f 434/357/142 436/359/142 435/358/142
f 427/350/143 428/351/143 437/360/143
f 428/351/143 438/361/143 437/360/143
f 423/346/144 424/347/144 425/348/144
f 424/347/144 426/349/144 425/348/144
# Vertices: 18, normals: 6, texture coordinates: 18, faces: 12

o obj25
v 0.24436875 0.43749374 0.12561876
v 0.24436875 -0.00311875 0.12561876
v 0.24436875 0.43749374 -0.12561876
v 0.24436875 -0.00311875 -0.12561876
v 0.02438125 0.43749374 -0.12561876
v 0.02438125 -0.00311875 -0.12561876
v 0.02438125 0.43749374 0.12561876
v 0.02438125 -0.00311875 0.12561876
v 0.02438125 0.43749374 -0.12561876
v 0.02438125 0.43749374 0.12561876
v 0.24436875 0.43749374 -0.12561876
v 0.24436875 0.43749374 0.12561876
v 0.02438125 -0.00311875 0.12561876
v 0.02438125 -0.00311875 -0.12561876
v 0.24436875 -0.00311875 0.12561876
v 0.24436875 -0.00311875 -0.12561876
v 0.24436875 0.43749374 0.12561876
v 0.24436875 -0.00311875 0.12561876
vn 1 0 0
vn -1 0 0
vn 0 1 0
vn 0 -1 0
vn 0 0 1
vn 0 0 -1
vt 0 0.60938
vt 0 0.5
vt 0.0625 0.60938
vt 0.0625 0.5
vt 0.125 0.60938
vt 0.125 0.5
vt 0.1875 0.60938
vt 0.1875 0.5
vt 0.125 0.6875
vt 0.125 0.75
vt 0.0625 0.6875
vt 0.0625 0.75
vt 0.1875 0.75
vt 0.1875 0.6875
vt 0.25 0.60938
vt 0.25 0.5
usemtl mat0
f 439/362/145 440/363/145 441/364/145
f 440/363/145 442/365/145 441/364/145
f 443/366/146 444/367/146 445/368/146
f 444/367/146 446/369/146 445/368/146
f 447/370/147 448/371/147 449/372/147
f 448/371/147 450/373/147 449/372/147
f 451/374/148 452/375/148 453/371/148
f 452/375/148 454/370/148 453/371/148
f 445/368/149 446/369/149 455/376/149
f 446/369/149 456/377/149 455/376/149
f 441/364/150 442/365/150 443/366/150
f 442/365/150 444/367/150 443/366/150
# Vertices: 18, normals: 6, texture coordinates: 16, faces: 12

o obj26
v 0.24375001 0.8125 0.125
v 0.24375001 0.375 0.125
v 0.24375001 0.8125 -0.125
v 0.24375001 0.375 -0.125
v 0.025 0.8125 -0.125
v 0.025 0.375 -0.125
v 0.025 0.8125 0.125
v 0.025 0.375 0.125
v 0.025 0.8125 0.125
v 0.24375001 0.8125 0.125
v 0.025 0.375 0.125
v 0.025 0.375 -0.125
v 0.24375001 0.375 0.125
v 0.24375001 0.375 -0.125
v 0.24375001 0.8125 0.125
v 0.24375001 0.375 0.125
vn 1 0 0
vn -1 0 0
vn 0 1 0
vn 0 -1 0
vn 0 0 1
vn 0 0 -1
vt 0 0.6875
vt 0 0.59375
vt 0.0625 0.6875
vt 0.0625 0.59375
vt 0.125 0.6875
vt 0.125 0.59375
vt 0.1875 0.6875
vt 0.1875 0.59375
vt 0.125 0.75
vt 0.0625 0.75
vt 0.25 0.6875
vt 0.25 0.59375
usemtl mat0
f 457/378/151 458/379/151 459/380/151
f 458/379/151 460/381/151 459/380/151
f 461/382/152 462/383/152 463/384/152
f 462/383/152 464/385/152 463/384/152
f 461/382/153 465/386/153 459/380/153
f 465/386/153 466/387/153 459/380/153
f 467/386/154 468/382/154 469/387/154
f 468/382/154 470/380/154 469/387/154
f 463/384/155 464/385/155 471/388/155
f 464/385/155 472/389/155 471/388/155
f 459/380/156 460/381/156 461/382/156
f 460/381/156 462/383/156 461/382/156
# Vertices: 16, normals: 6, texture coordinates: 12, faces: 12

o obj27
v 0.20610457 0.7010181 0.13237439
v 0.39297033 0.27112591 0.13303887
v 0.20751611 0.70121628 -0.13637184
v 0.39438187 0.27132409 -0.13570737
v -0.00742672 0.60778297 -0.13756969
v 0.17943904 0.17789077 -0.13690522
v -0.00883827 0.60758479 0.13117655
v 0.17802749 0.17769259 0.13184102
v -0.00742672 0.60778297 -0.13756969
v -0.00883827 0.60758479 0.13117655
v 0.20751611 0.70121628 -0.13637184
v 0.20610457 0.7010181 0.13237439
v 0.17802749 0.17769259 0.13184102
v 0.17943904 0.17789077 -0.13690522
v 0.39297033 0.27112591 0.13303887
v 0.39438187 0.27132409 -0.13570737
v -0.00883827 0.60758479 0.13117655
v 0.17802749 0.17769259 0.13184102
v 0.20610457 0.7010181 0.13237439
v 0.39297033 0.27112591 0.13303887
v -0.00742672 0.60778297 -0.13756969
v 0.17943904 0.17789077 -0.13690522
vn 1 0 0
vn -1 0 0
vn 0 1 0
vn 0 -1 0
vn 0 0 1
vn 0 0 -1
vt 0 0.40625
vt 0 0.3125
vt 0.0625 0.40625
vt 0.0625 0.3125
vt 0.125 0.42188
vt 0.125 0.32812
vt 0.1875 0.42188
vt 0.1875 0.32812
vt 0.125 0.4375
vt 0.125 0.5
vt 0.0625 0.4375
vt 0.0625 0.5
vt 0.0625 1
vt 0.0625 0.9375
vt 0 1
vt 0 0.9375
vt 0.1875 0.40625
vt 0.1875 0.3125
vt 0.25 0.40625
vt 0.25 0.3125
vt 0.125 0.40625
vt 0.125 0.3125
usemtl mat0
f 473/390/157 474/391/157 475/392/157
f 474/391/157 476/393/157 475/392/157
f 477/394/158 478/395/158 479/396/158
f 478/395/158 480/397/158 479/396/158
f 481/398/159 482/399/159 483/400/159
f 482/399/159 484/401/159 483/400/159
f 485/402/160 486/403/160 487/404/160
f 486/403/160 488/405/160 487/404/160
f 489/406/161 490/407/161 491/408/161
f 490/407/161 492/409/161 491/408/161
f 475/392/162 476/393/162 493/410/162
f 476/393/162 494/411/162 493/410/162
# Vertices: 22, normals: 6, texture coordinates: 22, faces: 12

o obj28
v 0.2513653 0.84929342 0.140625
v 0.31695572 0.41041763 0.140625
v 0.2513653 0.84929342 -0.140625
v 0.31695572 0.41041763 -0.140625
v -0.02061407 0.80864584 -0.140625
v 0.04497635 0.36977005 -0.140625
v -0.02061407 0.80864584 0.140625
v 0.04497635 0.36977005 0.140625
v -0.02061407 0.80864584 -0.140625
v -0.02061407 0.80864584 0.140625
v 0.2513653 0.84929342 -0.140625
v 0.2513653 0.84929342 0.140625
v 0.04497635 0.36977005 0.140625
v 0.04497635 0.36977005 -0.140625
v 0.31695572 0.41041763 0.140625
v 0.31695572 0.41041763 -0.140625
v -0.02061407 0.80864584 0.140625
v 0.04497635 0.36977005 0.140625
v 0.2513653 0.84929342 0.140625
v 0.31695572 0.41041763 0.140625
v -0.02061407 0.80864584 -0.140625
v 0.04497635 0.36977005 -0.140625
vn 1 0 0
vn -1 0 0
vn 0 1 0
vn 0 -1 0
vn 0 0 1
vn 0 0 -1
vt 0 0.40625
vt 0 0.3125
vt 0.0625 0.40625
vt 0.0625 0.3125
vt 0.125 0.42188
vt 0.125 0.32812
vt 0.1875 0.42188
vt 0.1875 0.32812
vt 0.125 0.4375
vt 0.125 0.5
vt 0.0625 0.4375
vt 0.0625 0.5
vt 0.0625 1
vt 0.0625 0.9375
vt 0 1
vt 0 0.9375
vt 0.1875 0.40625
vt 0.1875 0.3125
vt 0.25 0.40625
vt 0.25 0.3125
vt 0.125 0.40625
vt 0.125 0.3125
usemtl mat0
f 495/412/163 496/413/163 497/414/163
f 496/413/163 498/415/163 497/414/163
f 499/416/164 500/417/164 501/418/164
f 500/417/164 502/419/164 501/418/164
f 503/420/165 504/421/165 505/422/165
f 504/421/165 506/423/165 505/422/165
f 507/424/166 508/425/166 509/426/166
f 508/425/166 510/427/166 509/426/166
f 511/428/167 512/429/167 513/430/167
f 512/429/167 514/431/167 513/430/167
f 497/414/168 498/415/168 515/432/168
f 498/415/168 516/433/168 515/432/168
# Vertices: 22, normals: 6, texture coordinates: 22, faces: 12

o obj29
v 0.02265 0.453275 0.14139999
v 0.02265 -0.0189 0.14139999
v 0.02265 0.453275 -0.14139999
v 0.02265 -0.0189 -0.14139999
v -0.26014999 0.453275 -0.14139999
v -0.26014999 -0.0189 -0.14139999
v -0.26014999 0.453275 0.14139999
v -0.26014999 -0.0189 0.14139999
v -0.26014999 0.453275 -0.14139999
v -0.26014999 0.453275 0.14139999
v 0.02265 0.453275 -0.14139999
v 0.02265 0.453275 0.14139999
v -0.26014999 -0.0189 0.14139999
v -0.26014999 -0.0189 -0.14139999
v 0.02265 -0.0189 0.14139999
v 0.02265 -0.0189 -0.14139999
v -0.26014999 0.453275 0.14139999
v -0.26014999 -0.0189 0.14139999
vn 1 0 0
vn -1 0 0
vn 0 1 0
vn 0 -1 0
vn 0 0 1
vn 0 0 -1
vt 0.1875 0.32812
vt 0.1875 0.21875
vt 0.125 0.32812
vt 0.125 0.21875
vt 0.0625 0.32812
vt 0.0625 0.21875
vt 0 0.32812
vt 0 0.21875
vt 0 0.9375
vt 0 1
vt 0.0625 0.9375
vt 0.0625 1
vt 0.125 0.5
vt 0.125 0.4375
vt 0.1875 0.5
vt 0.1875 0.4375
vt 0.25 0.32812
vt 0.25 0.21875
usemtl mat0
f 517/434/169 518/435/169 519/436/169
f 518/435/169 520/437/169 519/436/169
f 521/438/170 522/439/170 523/440/170
f 522/439/170 524/441/170 523/440/170
f 525/442/171 526/443/171 527/444/171
f 526/443/171 528/445/171 527/444/171
f 529/446/172 530/447/172 531/448/172
f 530/447/172 532/449/172 531/448/172
f 533/450/173 534/451/173 517/434/173
f 534/451/173 518/435/173 517/434/173
f 519/436/174 520/437/174 521/438/174
f 520/437/174 522/439/174 521/438/174
# Vertices: 18, normals: 6, texture coordinates: 18, faces: 12

o obj30
v -0.02438125 0.43749374 0.12561876
v -0.02438125 -0.00311875 0.12561876
v -0.02438125 0.43749374 -0.12561876
v -0.02438125 -0.00311875 -0.12561876
v -0.24436875 0.43749374 -0.12561876
v -0.24436875 -0.00311875 -0.12561876
v -0.24436875 0.43749374 0.12561876
v -0.24436875 -0.00311875 0.12561876
v -0.24436875 0.43749374 -0.12561876
v -0.24436875 0.43749374 0.12561876
v -0.02438125 0.43749374 -0.12561876
v -0.02438125 0.43749374 0.12561876
v -0.24436875 -0.00311875 0.12561876
v -0.24436875 -0.00311875 -0.12561876
v -0.02438125 -0.00311875 0.12561876
v -0.02438125 -0.00311875 -0.12561876
v -0.24436875 0.43749374 0.12561876
v -0.24436875 -0.00311875 0.12561876
vn 1 0 0
vn -1 0 0
vn 0 1 0
vn 0 -1 0
vn 0 0 1
vn 0 0 -1
vt 0.1875 0.60938
vt 0.1875 0.5
vt 0.125 0.60938
vt 0.125 0.5
vt 0.0625 0.60938
vt 0.0625 0.5
vt 0 0.60938
vt 0 0.5
vt 0.0625 0.6875
vt 0.0625 0.75
vt 0.125 0.6875
vt 0.125 0.75
vt 0.1875 0.75
vt 0.1875 0.6875
vt 0.25 0.60938
vt 0.25 0.5
usemtl mat0
f 535/452/175 536/453/175 537/454/175
f 536/453/175 538/455/175 537/454/175
f 539/456/176 540/457/176 541/458/176
f 540/457/176 542/459/176 541/458/176
f 543/460/177 544/461/177 545/462/177
f 544/461/177 546/463/177 545/462/177
f 547/463/178 548/462/178 549/464/178
f 548/462/178 550/465/178 549/464/178
f 551/466/179 552/467/179 535/452/179
f 552/467/179 536/453/179 535/452/179
f 537/454/180 538/455/180 539/456/180
f 538/455/180 540/457/180 539/456/180
# Vertices: 18, normals: 6, texture coordinates: 16, faces: 12

o obj31
v -0.025 0.8125 0.125
v -0.025 0.375 0.125
v -0.025 0.8125 -0.125
v -0.025 0.375 -0.125
v -0.24375001 0.8125 -0.125
v -0.24375001 0.375 -0.125
v -0.24375001 0.8125 0.125
v -0.24375001 0.375 0.125
v -0.24375001 0.8125 0.125
v -0.025 0.8125 0.125
v -0.24375001 0.375 0.125
v -0.24375001 0.375 -0.125
v -0.025 0.375 0.125
v -0.025 0.375 -0.125
v -0.24375001 0.8125 0.125
v -0.24375001 0.375 0.125
vn 1 0 0
vn -1 0 0
vn 0 1 0
vn 0 -1 0
vn 0 0 1
vn 0 0 -1
vt 0.1875 0.6875
vt 0.1875 0.59375
vt 0.125 0.6875
vt 0.125 0.59375
vt 0.0625 0.6875
vt 0.0625 0.59375
vt 0 0.6875
vt 0 0.59375
vt 0.0625 0.75
vt 0.125 0.75
vt 0.25 0.6875
vt 0.25 0.59375
usemtl mat0
f 553/468/181 554/469/181 555/470/181
f 554/469/181 556/471/181 555/470/181
f 557/472/182 558/473/182 559/474/182
f 558/473/182 560/475/182 559/474/182
f 557/472/183 561/476/183 555/470/183
f 561/476/183 562/477/183 555/470/183
f 563/476/184 564/472/184 565/477/184
f 564/472/184 566/470/184 565/477/184
f 567/478/185 568/479/185 553/468/185
f 568/479/185 554/469/185 553/468/185
f 555/470/186 556/471/186 557/472/186
f 556/471/186 558/473/186 557/472/186
# Vertices: 16, normals: 6, texture coordinates: 12, faces: 12

o obj32
v 0.02061407 0.80864584 0.140625
v -0.04497635 0.36977005 0.140625
v 0.02061407 0.80864584 -0.140625
v -0.04497635 0.36977005 -0.140625
v -0.2513653 0.84929342 -0.140625
v -0.31695572 0.41041763 -0.140625
v -0.2513653 0.84929342 0.140625
v -0.31695572 0.41041763 0.140625
v -0.2513653 0.84929342 -0.140625
v -0.2513653 0.84929342 0.140625
v 0.02061407 0.80864584 -0.140625
v 0.02061407 0.80864584 0.140625
v -0.31695572 0.41041763 0.140625
v -0.31695572 0.41041763 -0.140625
v -0.04497635 0.36977005 0.140625
v -0.04497635 0.36977005 -0.140625
v -0.2513653 0.84929342 0.140625
v -0.31695572 0.41041763 0.140625
v 0.02061407 0.80864584 0.140625
v -0.04497635 0.36977005 0.140625
v 0.02061407 0.80864584 -0.140625
v -0.04497635 0.36977005 -0.140625
vn 1 0 0
vn -1 0 0
vn 0 1 0
vn 0 -1 0
vn 0 0 1
vn 0 0 -1
vt 0.1875 0.42188
vt 0.1875 0.32812
vt 0.125 0.42188
vt 0.125 0.32812
vt 0.0625 0.40625
vt 0.0625 0.3125
vt 0 0.40625
vt 0 0.3125
vt 0.0625 0.4375
vt 0.0625 0.5
vt 0.125 0.4375
vt 0.125 0.5
vt 0 1
vt 0 0.9375
vt 0.0625 1
vt 0.0625 0.9375
vt 0.25 0.40625
vt 0.25 0.3125
vt 0.1875 0.40625
vt 0.1875 0.3125
vt 0.125 0.40625
vt 0.125 0.3125
usemtl mat0
f 569/480/187 570/481/187 571/482/187
f 570/481/187 572/483/187 571/482/187
f 573/484/188 574/485/188 575/486/188
f 574/485/188 576/487/188 575/486/188
f 577/488/189 578/489/189 579/490/189
f 578/489/189 580/491/189 579/490/189
f 581/492/190 582/493/190 583/494/190
f 582/493/190 584/495/190 583/494/190
f 585/496/191 586/497/191 587/498/191
f 586/497/191 588/499/191 587/498/191
f 589/500/192 590/501/192 573/484/192
f 590/501/192 574/485/192 573/484/192
# Vertices: 22, normals: 6, texture coordinates: 22, faces: 12

o obj33
v 0.00883827 0.60758479 0.13117655
v -0.17802749 0.17769259 0.13184102
v 0.00742672 0.60778297 -0.13756969
v -0.17943904 0.17789077 -0.13690522
v -0.20751611 0.70121628 -0.13637184
v -0.39438187 0.27132409 -0.13570737
v -0.20610457 0.7010181 0.13237439
v -0.39297033 0.27112591 0.13303887
v -0.20751611 0.70121628 -0.13637184
v -0.20610457 0.7010181 0.13237439
v 0.00742672 0.60778297 -0.13756969
v 0.00883827 0.60758479 0.13117655
v -0.39297033 0.27112591 0.13303887
v -0.39438187 0.27132409 -0.13570737
v -0.17802749 0.17769259 0.13184102
v -0.17943904 0.17789077 -0.13690522
v -0.20610457 0.7010181 0.13237439
v -0.39297033 0.27112591 0.13303887
v 0.00883827 0.60758479 0.13117655
v -0.17802749 0.17769259 0.13184102
v 0.00742672 0.60778297 -0.13756969
v -0.17943904 0.17789077 -0.13690522
vn 1 0 0
vn -1 0 0
vn 0 1 0
vn 0 -1 0
vn 0 0 1
vn 0 0 -1
vt 0.1875 0.42188
vt 0.1875 0.32812
vt 0.125 0.42188
vt 0.125 0.32812
vt 0.0625 0.40625
vt 0.0625 0.3125
vt 0 0.40625
vt 0 0.3125
vt 0.0625 0.4375
vt 0.0625 0.5
vt 0.125 0.4375
vt 0.125 0.5
vt 0 1
vt 0 0.9375
vt 0.0625 1
vt 0.0625 0.9375
vt 0.25 0.40625
vt 0.25 0.3125
vt 0.1875 0.40625
vt 0.1875 0.3125
vt 0.125 0.40625
vt 0.125 0.3125
usemtl mat0
f 591/502/193 592/503/193 593/504/193
f 592/503/193 594/505/193 593/504/193
f 595/506/194 596/507/194 597/508/194
f 596/507/194 598/509/194 597/508/194
f 599/510/195 600/511/195 601/512/195
f 600/511/195 602/513/195 601/512/195
f 603/514/196 604/515/196 605/516/196
f 604/515/196 606/517/196 605/516/196
f 607/518/197 608/519/197 609/520/197
f 608/519/197 610/521/197 609/520/197
f 611/522/198 612/523/198 595/506/198
f 612/523/198 596/507/198 595/506/198
# Vertices: 22, normals: 6, texture coordinates: 22, faces: 12

