# Made in Blockbench 5.1.3
mtllib materials.mtl

o cube
v -0.46918579164189034 -0.125 0.1022080132013794
v -0.2683146636148468 -0.125 -0.1371808752733013
v -0.46918579164189034 -0.3125 0.1022080132013794
v -0.2683146636148468 -0.3125 -0.1371808752733013
v -0.5077035520895274 -0.125 -0.33805200330034485
v -0.708574680116571 -0.125 -0.09866311482566417
v -0.5077035520895274 -0.3125 -0.33805200330034485
v -0.708574680116571 -0.3125 -0.09866311482566417
vt 0.3125 0.375
vt 0.46875 0.375
vt 0.46875 0.28125
vt 0.3125 0.28125
vt 0.46875 0.375
vt 0.625 0.375
vt 0.625 0.28125
vt 0.46875 0.28125
vt 0.625 0.375
vt 0.78125 0.375
vt 0.78125 0.28125
vt 0.625 0.28125
vt 0.3125 0.28125
vt 0.46875 0.28125
vt 0.46875 0.1875
vt 0.3125 0.1875
vt 0.15625 0.21875
vt 0 0.21875
vt 0 0.375
vt 0.15625 0.375
vt 0.3125 0.375
vt 0.15625 0.375
vt 0.15625 0.21875
vt 0.3125 0.21875
vn 0.6427876096865394 0 -0.7660444431189781
vn 0.7660444431189781 0 0.6427876096865394
vn -0.6427876096865394 0 0.7660444431189781
vn -0.7660444431189781 0 -0.6427876096865394
vn 0 1 0
vn 0 -1 0
usemtl m_013b1016-bc26-08ae-8327-b56010b1ed33
f 4/4/1 7/3/1 5/2/1 2/1/1
f 3/8/2 4/7/2 2/6/2 1/5/2
f 8/12/3 3/11/3 1/10/3 6/9/3
f 7/16/4 8/15/4 6/14/4 5/13/4
f 6/20/5 1/19/5 2/18/5 5/17/5
f 7/24/6 4/23/6 3/22/6 8/21/6
o cube
v 0.4375 0.0625 0.5
v 0.4375 0.0625 -0.375
v 0.4375 -0.3125 0.5
v 0.4375 -0.3125 -0.375
v -0.125 0.0625 -0.375
v -0.125 0.0625 0.5
v -0.125 -0.3125 -0.375
v -0.125 -0.3125 0.5
vt 0.5625 1
vt 0.84375 1
vt 0.84375 0.8125
vt 0.5625 0.8125
vt 0.875 0.5625
vt 0.4375 0.5625
vt 0.4375 0.375
vt 0.875 0.375
vt 0.84375 1
vt 0.5625 1
vt 0.5625 0.8125
vt 0.84375 0.8125
vt 0.4375 0.5625
vt 0.875 0.5625
vt 0.875 0.375
vt 0.4375 0.375
vt 0.28125 0.5625
vt 0 0.5625
vt 0 1
vt 0.28125 1
vt 0.5625 1
vt 0.28125 1
vt 0.28125 0.5625
vt 0.5625 0.5625
vn 0 0 -1
vn 1 0 0
vn 0 0 1
vn -1 0 0
vn 0 1 0
vn 0 -1 0
usemtl m_013b1016-bc26-08ae-8327-b56010b1ed33
f 12/28/7 15/27/7 13/26/7 10/25/7
f 11/32/8 12/31/8 10/30/8 9/29/8
f 16/36/9 11/35/9 9/34/9 14/33/9
f 15/40/10 16/39/10 14/38/10 13/37/10
f 14/44/11 9/43/11 10/42/11 13/41/11
f 15/48/12 12/47/12 11/46/12 16/45/12
o cube
v 0.5219851173919474 0.3125 0.20661742925642684
v 0.2351968992164244 0.3125 -0.20295859288806906
v 0.5219851173919474 0.0625 0.20661742925642684
v 0.2351968992164244 0.0625 -0.20295859288806906
v -0.17437912292807145 0.3125 0.08382962528745394
v 0.11240909524745157 0.3125 0.4934056474319498
v -0.17437912292807145 0.0625 0.08382962528745394
v 0.11240909524745157 0.0625 0.4934056474319498
vt 0.59375 1
vt 0.84375 1
vt 0.84375 0.90625
vt 0.59375 0.90625
vt 0.5625 1
vt 0.8125 1
vt 0.8125 0.875
vt 0.5625 0.875
vt 0.84375 1
vt 0.5625 1
vt 0.5625 0.8125
vt 0.84375 0.8125
vt 0.84375 1
vt 0.5625 1
vt 0.5625 0.8125
vt 0.84375 0.8125
vt 0.25 0.75
vt 0 0.75
vt 0 1
vt 0.25 1
vt 0.25 0.8125
vt 0 0.8125
vt 0 0.5625
vt 0.25 0.5625
vn -0.573576436351046 0 -0.8191520442889918
vn 0.8191520442889918 0 -0.573576436351046
vn 0.573576436351046 0 0.8191520442889918
vn -0.8191520442889918 0 0.573576436351046
vn 0 1 0
vn 0 -1 0
usemtl m_013b1016-bc26-08ae-8327-b56010b1ed33
f 20/52/13 23/51/13 21/50/13 18/49/13
f 19/56/14 20/55/14 18/54/14 17/53/14
f 24/60/15 19/59/15 17/58/15 22/57/15
f 23/64/16 24/63/16 22/62/16 21/61/16
f 22/68/17 17/67/17 18/66/17 21/65/17
f 23/72/18 20/71/18 19/70/18 24/69/18