
g
v 0.1824 0.8874 0.1963
v 0.1824 0.5067 0.1963
v 0.1824 0.8874 -0.1844
v 0.1824 0.5067 -0.1844
v -0.1983 0.8874 -0.1844
v -0.1983 0.5067 -0.1844
v -0.1983 0.8874 0.1963
v -0.1983 0.5067 0.1963
v -0.1983 0.8874 -0.1844
v -0.1983 0.8874 0.1963
v 0.1824 0.8874 -0.1844
v 0.1824 0.8874 0.1963
v -0.1983 0.5067 0.1963
v -0.1983 0.5067 -0.1844
v 0.1824 0.5067 0.1963
v 0.1824 0.5067 -0.1844
v -0.1983 0.8874 0.1963
v -0.1983 0.5067 0.1963
v 0.1824 0.8874 0.1963
v 0.1824 0.5067 0.1963
v 0.1824 0.8874 -0.1844
v 0.1824 0.5067 -0.1844
v -0.1983 0.8874 -0.1844
v -0.1983 0.5067 -0.1844
v 0.176 0.824 -0.1856
v 0.176 0.6653 -0.1856
v 0.176 0.824 -0.1857
v 0.176 0.6653 -0.1857
v 0.0174 0.824 -0.1857
v 0.0174 0.6653 -0.1857
v 0.0174 0.824 -0.1856
v 0.0174 0.6653 -0.1856
v 0.0174 0.824 -0.1857
v 0.0174 0.824 -0.1856
v 0.0174 0.6653 -0.1856
v 0.0174 0.6653 -0.1857
v 0.176 0.6653 -0.1856
v 0.176 0.6653 -0.1857
v 0.0174 0.824 -0.1856
v 0.0174 0.6653 -0.1856
v 0.176 0.824 -0.1856
v 0.176 0.6653 -0.1856
v 0.176 0.824 -0.1857
v 0.176 0.6653 -0.1857
v 0.0174 0.824 -0.1857
v 0.0174 0.6653 -0.1857
v 0.1443 0.7922 -0.1863
v 0.1443 0.6971 -0.1863
v 0.1443 0.7922 -0.1863
v 0.1443 0.6971 -0.1863
v 0.0491 0.7922 -0.1863
v 0.0491 0.6971 -0.1863
v 0.0491 0.7922 -0.1863
v 0.0491 0.6971 -0.1863
v 0.0491 0.7922 -0.1863
v 0.0491 0.7922 -0.1863
v 0.0491 0.6971 -0.1863
v 0.0491 0.6971 -0.1863
v 0.1443 0.6971 -0.1863
v 0.1443 0.6971 -0.1863
v 0.0491 0.7922 -0.1863
v 0.0491 0.6971 -0.1863
v 0.1443 0.7922 -0.1863
v 0.1443 0.6971 -0.1863
v 0.1443 0.7922 -0.1863
v 0.1443 0.6971 -0.1863
v 0.0491 0.7922 -0.1863
v 0.0491 0.6971 -0.1863
v -0.0334 0.824 -0.1856
v -0.0334 0.6653 -0.1856
v -0.0334 0.824 -0.1857
v -0.0334 0.6653 -0.1857
v -0.192 0.824 -0.1857
v -0.192 0.6653 -0.1857
v -0.192 0.824 -0.1856
v -0.192 0.6653 -0.1856
v -0.192 0.824 -0.1857
v -0.192 0.824 -0.1856
v -0.192 0.6653 -0.1856
v -0.192 0.6653 -0.1857
v -0.0334 0.6653 -0.1856
v -0.0334 0.6653 -0.1857
v -0.192 0.824 -0.1856
v -0.192 0.6653 -0.1856
v -0.0334 0.824 -0.1856
v -0.0334 0.6653 -0.1856
v -0.0334 0.824 -0.1857
v -0.0334 0.6653 -0.1857
v -0.192 0.824 -0.1857
v -0.192 0.6653 -0.1857
v -0.0651 0.7922 -0.1863
v -0.0651 0.6971 -0.1863
v -0.0651 0.7922 -0.1863
v -0.0651 0.6971 -0.1863
v -0.1603 0.7922 -0.1863
v -0.1603 0.6971 -0.1863
v -0.1603 0.7922 -0.1863
v -0.1603 0.6971 -0.1863
v -0.1603 0.7922 -0.1863
v -0.1603 0.7922 -0.1863
v -0.1603 0.6971 -0.1863
v -0.1603 0.6971 -0.1863
v -0.0651 0.6971 -0.1863
v -0.0651 0.6971 -0.1863
v -0.1603 0.7922 -0.1863
v -0.1603 0.6971 -0.1863
v -0.0651 0.7922 -0.1863
v -0.0651 0.6971 -0.1863
v -0.0651 0.7922 -0.1863
v -0.0651 0.6971 -0.1863
v -0.1603 0.7922 -0.1863
v -0.1603 0.6971 -0.1863
v 0.2164 0.824 -0.2183
v 0.2164 0.7605 -0.2183
v 0.2164 0.824 -0.2184
v 0.2164 0.7605 -0.2184
v -0.2323 0.824 0.2303
v -0.2323 0.7605 0.2303
v -0.2323 0.824 0.2303
v -0.2323 0.7605 0.2303
v -0.2323 0.824 0.2303
v -0.2323 0.824 0.2303
v -0.2323 0.7605 0.2303
v -0.2323 0.7605 0.2303
v 0.2164 0.7605 -0.2183
v 0.2164 0.7605 -0.2184
v -0.2323 0.824 0.2303
v -0.2323 0.7605 0.2303
v 0.2164 0.824 -0.2183
v 0.2164 0.7605 -0.2183
v 0.2164 0.824 -0.2184
v 0.2164 0.7605 -0.2184
v -0.2323 0.824 0.2303
v -0.2323 0.7605 0.2303
v 0.2388 0.7224 -0.2408
v 0.2388 0.659 -0.2408
v 0.2388 0.7224 -0.2408
v 0.2388 0.659 -0.2408
v -0.2548 0.7224 0.2527
v -0.2548 0.659 0.2527
v -0.2547 0.7224 0.2528
v -0.2547 0.659 0.2528
v -0.2548 0.7224 0.2527
v -0.2547 0.7224 0.2528
v -0.2547 0.659 0.2528
v -0.2548 0.659 0.2527
v 0.2388 0.659 -0.2408
v 0.2388 0.659 -0.2408
v -0.2547 0.7224 0.2528
v -0.2547 0.659 0.2528
v 0.2388 0.7224 -0.2408
v 0.2388 0.659 -0.2408
v 0.2388 0.7224 -0.2408
v 0.2388 0.659 -0.2408
v -0.2548 0.7224 0.2527
v -0.2548 0.659 0.2527
v 0.2164 0.6209 -0.2183
v 0.2164 0.5575 -0.2183
v 0.2164 0.6209 -0.2184
v 0.2164 0.5575 -0.2184
v -0.2323 0.6209 0.2303
v -0.2323 0.5575 0.2303
v -0.2323 0.6209 0.2303
v -0.2323 0.5575 0.2303
v -0.2323 0.6209 0.2303
v -0.2323 0.6209 0.2303
v -0.2323 0.5575 0.2303
v -0.2323 0.5575 0.2303
v 0.2164 0.5575 -0.2183
v 0.2164 0.5575 -0.2184
v -0.2323 0.6209 0.2303
v -0.2323 0.5575 0.2303
v 0.2164 0.6209 -0.2183
v 0.2164 0.5575 -0.2183
v 0.2164 0.6209 -0.2184
v 0.2164 0.5575 -0.2184
v -0.2323 0.6209 0.2303
v -0.2323 0.5575 0.2303
v -0.2323 0.6209 -0.2184
v -0.2323 0.5575 -0.2184
v -0.2323 0.6209 -0.2184
v -0.2323 0.5575 -0.2184
v 0.2164 0.6209 0.2303
v 0.2164 0.5575 0.2303
v 0.2164 0.6209 0.2302
v 0.2164 0.5575 0.2302
v 0.2164 0.6209 0.2303
v 0.2164 0.6209 0.2302
v 0.2164 0.5575 0.2302
v 0.2164 0.5575 0.2303
v -0.2323 0.5575 -0.2184
v -0.2323 0.5575 -0.2184
v 0.2164 0.6209 0.2302
v 0.2164 0.5575 0.2302
v -0.2323 0.6209 -0.2184
v -0.2323 0.5575 -0.2184
v -0.2323 0.6209 -0.2184
v -0.2323 0.5575 -0.2184
v 0.2164 0.6209 0.2303
v 0.2164 0.5575 0.2303
v -0.2323 0.824 -0.2184
v -0.2323 0.7605 -0.2184
v -0.2323 0.824 -0.2184
v -0.2323 0.7605 -0.2184
v 0.2164 0.824 0.2303
v 0.2164 0.7605 0.2303
v 0.2164 0.824 0.2302
v 0.2164 0.7605 0.2302
v 0.2164 0.824 0.2303
v 0.2164 0.824 0.2302
v 0.2164 0.7605 0.2302
v 0.2164 0.7605 0.2303
v -0.2323 0.7605 -0.2184
v -0.2323 0.7605 -0.2184
v 0.2164 0.824 0.2302
v 0.2164 0.7605 0.2302
v -0.2323 0.824 -0.2184
v -0.2323 0.7605 -0.2184
v -0.2323 0.824 -0.2184
v -0.2323 0.7605 -0.2184
v 0.2164 0.824 0.2303
v 0.2164 0.7605 0.2303
v -0.2547 0.7224 -0.2409
v -0.2547 0.659 -0.2409
v -0.2548 0.7224 -0.2408
v -0.2548 0.659 -0.2408
v 0.2388 0.7224 0.2527
v 0.2388 0.659 0.2527
v 0.2388 0.7224 0.2527
v 0.2388 0.659 0.2527
v 0.2388 0.7224 0.2527
v 0.2388 0.7224 0.2527
v 0.2388 0.659 0.2527
v 0.2388 0.659 0.2527
v -0.2547 0.659 -0.2409
v -0.2548 0.659 -0.2408
v 0.2388 0.7224 0.2527
v 0.2388 0.659 0.2527
v -0.2547 0.7224 -0.2409
v -0.2547 0.659 -0.2409
v -0.2548 0.7224 -0.2408
v -0.2548 0.659 -0.2408
v 0.2388 0.7224 0.2527
v 0.2388 0.659 0.2527
v -0.1436 0.9189 -0.2081
v -0.0803 0.915 -0.2093
v -0.1436 0.9189 -0.2082
v -0.0803 0.9149 -0.2093
v -0.1606 0.5544 0.09739999
v -0.0973 0.5505 0.0962
v -0.1606 0.5544 0.09739999
v -0.0973 0.5505 0.0963
v -0.1606 0.5544 0.09739999
v -0.1606 0.5544 0.09739999
v -0.0973 0.5505 0.0963
v -0.0973 0.5505 0.0962
v -0.0803 0.915 -0.2093
v -0.0803 0.9149 -0.2093
v -0.1606 0.5544 0.09739999
v -0.0973 0.5505 0.0963
v -0.1436 0.9189 -0.2081
v -0.0803 0.915 -0.2093
v -0.1436 0.9189 -0.2082
v -0.0803 0.9149 -0.2093
v -0.1606 0.5544 0.09739999
v -0.0973 0.5505 0.0962
v -0.0276 0.9356 -0.2527
v 0.0358 0.9331 -0.2512
v -0.0276 0.9355 -0.2528
v 0.0358 0.9331 -0.2513
v -0.0477 0.6459 0.1243
v 0.0157 0.6434 0.1258
v -0.0477 0.6459 0.1243
v 0.0157 0.6435 0.1258
v -0.0477 0.6459 0.1243
v -0.0477 0.6459 0.1243
v 0.0157 0.6435 0.1258
v 0.0157 0.6434 0.1258
v 0.0358 0.9331 -0.2512
v 0.0358 0.9331 -0.2513
v -0.0477 0.6459 0.1243
v 0.0157 0.6435 0.1258
v -0.0276 0.9356 -0.2527
v 0.0358 0.9331 -0.2512
v -0.0276 0.9355 -0.2528
v 0.0358 0.9331 -0.2513
v -0.0477 0.6459 0.1243
v 0.0157 0.6434 0.1258
v 0.0839 0.912 -0.2101
v 0.1473 0.912 -0.2073
v 0.0839 0.9119 -0.2101
v 0.1473 0.9119 -0.2074
v 0.068 0.5143 0.1539
v 0.1314 0.5143 0.1567
v 0.068 0.5143 0.154
v 0.1314 0.5143 0.1567
v 0.068 0.5143 0.1539
v 0.068 0.5143 0.154
v 0.1314 0.5143 0.1567
v 0.1314 0.5143 0.1567
v 0.1473 0.912 -0.2073
v 0.1473 0.9119 -0.2074
v 0.068 0.5143 0.154
v 0.1314 0.5143 0.1567
v 0.0839 0.912 -0.2101
v 0.1473 0.912 -0.2073
v 0.0839 0.9119 -0.2101
v 0.1473 0.9119 -0.2074
v 0.068 0.5143 0.1539
v 0.1314 0.5143 0.1567
v 0.2363 0.9347 0.0377
v -0.138 0.5918 0.0377
v 0.2363 0.9347 -0.0258
v -0.138 0.5918 -0.0258
v 0.2362 0.9348 -0.0258
v -0.138 0.5918 -0.0258
v 0.2362 0.9348 0.0377
v -0.138 0.5918 0.0377
v 0.2362 0.9348 -0.0258
v 0.2362 0.9348 0.0377
v 0.2363 0.9347 -0.0258
v 0.2363 0.9347 0.0377
v -0.138 0.5918 0.0377
v -0.138 0.5918 -0.0258
v -0.138 0.5918 0.0377
v -0.138 0.5918 -0.0258
v -0.138 0.5918 0.0377
v -0.138 0.5918 0.0377
v 0.2363 0.9347 -0.0258
v -0.138 0.5918 -0.0258
v 0.2362 0.9348 -0.0258
v -0.138 0.5918 -0.0258
v 0.2129 0.9133 -0.0892
v -0.138 0.5918 -0.0892
v 0.2129 0.9133 -0.1527
v -0.138 0.5918 -0.1527
v 0.2128 0.9134 -0.1527
v -0.138 0.5918 -0.1527
v 0.2128 0.9134 -0.0892
v -0.138 0.5918 -0.0892
v 0.2128 0.9134 -0.1527
v 0.2128 0.9134 -0.0892
v 0.2129 0.9133 -0.1527
v 0.2129 0.9133 -0.0892
v -0.138 0.5918 -0.0892
v -0.138 0.5918 -0.1527
v -0.138 0.5918 -0.0892
v -0.138 0.5918 -0.1527
v -0.138 0.5918 -0.0892
v -0.138 0.5918 -0.0892
v 0.2129 0.9133 -0.1527
v -0.138 0.5918 -0.1527
v 0.2128 0.9134 -0.1527
v -0.138 0.5918 -0.1527
v 0.2129 0.9133 0.1646
v -0.138 0.5918 0.1646
v 0.2129 0.9133 0.1011
v -0.138 0.5918 0.1011
v 0.2128 0.9134 0.1011
v -0.138 0.5918 0.1011
v 0.2128 0.9134 0.1646
v -0.138 0.5918 0.1646
v 0.2128 0.9134 0.1011
v 0.2128 0.9134 0.1646
v 0.2129 0.9133 0.1011
v 0.2129 0.9133 0.1646
v -0.138 0.5918 0.1646
v -0.138 0.5918 0.1011
v -0.138 0.5918 0.1646
v -0.138 0.5918 0.1011
v -0.138 0.5918 0.1646
v -0.138 0.5918 0.1646
v 0.2129 0.9133 0.1011
v -0.138 0.5918 0.1011
v 0.2128 0.9134 0.1011
v -0.138 0.5918 0.1011
v -0.2354 0.933 0.0377
v 0.129 0.5353 0.0377
v -0.2354 0.933 -0.0258
v 0.129 0.5353 -0.0258
v -0.2354 0.9329 -0.0258
v 0.129 0.5353 -0.0258
v -0.2354 0.9329 0.0377
v 0.129 0.5353 0.0377
v -0.2354 0.9329 -0.0258
v -0.2354 0.9329 0.0377
v -0.2354 0.933 -0.0258
v -0.2354 0.933 0.0377
v 0.129 0.5353 0.0377
v 0.129 0.5353 -0.0258
v 0.129 0.5353 0.0377
v 0.129 0.5353 -0.0258
v 0.129 0.5353 0.0377
v 0.129 0.5353 0.0377
v -0.2354 0.933 -0.0258
v 0.129 0.5353 -0.0258
v -0.2354 0.9329 -0.0258
v 0.129 0.5353 -0.0258
v -0.2139 0.9096 -0.0892
v 0.129 0.5353 -0.0892
v -0.2139 0.9096 -0.1527
v 0.129 0.5353 -0.1527
v -0.214 0.9095 -0.1527
v 0.129 0.5353 -0.1527
v -0.214 0.9095 -0.0892
v 0.129 0.5353 -0.0892
v -0.214 0.9095 -0.1527
v -0.214 0.9095 -0.0892
v -0.2139 0.9096 -0.1527
v -0.2139 0.9096 -0.0892
v 0.129 0.5353 -0.0892
v 0.129 0.5353 -0.1527
v 0.129 0.5353 -0.0892
v 0.129 0.5353 -0.1527
v 0.129 0.5353 -0.0892
v 0.129 0.5353 -0.0892
v -0.2139 0.9096 -0.1527
v 0.129 0.5353 -0.1527
v -0.214 0.9095 -0.1527
v 0.129 0.5353 -0.1527
v -0.2139 0.9096 0.1646
v 0.129 0.5353 0.1646
v -0.2139 0.9096 0.1011
v 0.129 0.5353 0.1011
v -0.214 0.9095 0.1011
v 0.129 0.5353 0.1011
v -0.214 0.9095 0.1646
v 0.129 0.5353 0.1646
v -0.214 0.9095 0.1011
v -0.214 0.9095 0.1646
v -0.2139 0.9096 0.1011
v -0.2139 0.9096 0.1646
v 0.129 0.5353 0.1646
v 0.129 0.5353 0.1011
v 0.129 0.5353 0.1646
v 0.129 0.5353 0.1011
v 0.129 0.5353 0.1646
v 0.129 0.5353 0.1646
v -0.2139 0.9096 0.1011
v 0.129 0.5353 0.1011
v -0.214 0.9095 0.1011
v 0.129 0.5353 0.1011
v -0.0297 0.9181 0.2276
v 0.0336 0.9164 0.2253
v -0.0297 0.9181 0.2275
v 0.0336 0.9164 0.2252
v -0.0482 0.627 -0.064
v 0.0152 0.6253 -0.0663
v -0.0482 0.6269 -0.064
v 0.0152 0.6252 -0.0663
v -0.0482 0.627 -0.064
v -0.0482 0.6269 -0.064
v 0.0152 0.6252 -0.0663
v 0.0152 0.6253 -0.0663
v 0.0336 0.9164 0.2253
v 0.0336 0.9164 0.2252
v -0.0482 0.6269 -0.064
v 0.0152 0.6252 -0.0663
v -0.0297 0.9181 0.2276
v 0.0336 0.9164 0.2253
v -0.0297 0.9181 0.2275
v 0.0336 0.9164 0.2252
v -0.0482 0.627 -0.064
v 0.0152 0.6253 -0.0663
v -0.1448 0.9074 0.2203
v -0.0815 0.9082 0.2163
v -0.1448 0.9074 0.2203
v -0.0815 0.9082 0.2163
v -0.1606 0.5937 -0.0937
v -0.0973 0.5945 -0.0977
v -0.1606 0.5936 -0.0937
v -0.0973 0.5944 -0.0977
v -0.1606 0.5937 -0.0937
v -0.1606 0.5936 -0.0937
v -0.0973 0.5944 -0.0977
v -0.0973 0.5945 -0.0977
v -0.0815 0.9082 0.2163
v -0.0815 0.9082 0.2163
v -0.1606 0.5936 -0.0937
v -0.0973 0.5944 -0.0977
v -0.1448 0.9074 0.2203
v -0.0815 0.9082 0.2163
v -0.1448 0.9074 0.2203
v -0.0815 0.9082 0.2163
v -0.1606 0.5937 -0.0937
v -0.0973 0.5945 -0.0977
v 0.0839 0.9136 0.2202
v 0.1473 0.9109 0.2204
v 0.0839 0.9137 0.2201
v 0.1473 0.9109 0.2204
v 0.068 0.5164 -0.1443
v 0.1314 0.5136 -0.144
v 0.068 0.5163 -0.1442
v 0.1314 0.5136 -0.144
v 0.068 0.5164 -0.1443
v 0.068 0.5163 -0.1442
v 0.1314 0.5136 -0.144
v 0.1314 0.5136 -0.144
v 0.1473 0.9109 0.2204
v 0.1473 0.9109 0.2204
v 0.068 0.5163 -0.1442
v 0.1314 0.5136 -0.144
v 0.0839 0.9136 0.2202
v 0.1473 0.9109 0.2204
v 0.0839 0.9137 0.2201
v 0.1473 0.9109 0.2204
v 0.068 0.5164 -0.1443
v 0.1314 0.5136 -0.144
v 0.242 0.5644 0.1372
v 0.242 -0.1856 0.1372
v 0.242 0.5644 -0.1191
v 0.242 -0.1856 -0.1191
v -0.258 0.5644 -0.1191
v -0.258 -0.1856 -0.1191
v -0.258 0.5644 0.1372
v -0.258 -0.1856 0.1372
v -0.258 0.5644 -0.1191
v -0.258 0.5644 0.1372
v 0.242 0.5644 -0.1191
v 0.242 0.5644 0.1372
v -0.258 -0.1856 0.1372
v -0.258 -0.1856 -0.1191
v 0.242 -0.1856 0.1372
v 0.242 -0.1856 -0.1191
v -0.258 0.5644 0.1372
v -0.258 -0.1856 0.1372
v 0.242 0.5644 0.1372
v 0.242 -0.1856 0.1372
v 0.242 0.5644 -0.1191
v 0.242 -0.1856 -0.1191
v -0.258 0.5644 -0.1191
v -0.258 -0.1856 -0.1191
v -0.1338 -0.1886 0.1591
v -0.2395 -0.4152 0.1591
v -0.1338 -0.1886 -0.1253
v -0.2395 -0.4152 -0.1253
v -0.2443 -0.1371 -0.1253
v -0.3499 -0.3637 -0.1253
v -0.2443 -0.1371 0.1591
v -0.3499 -0.3637 0.1591
v -0.2443 -0.1371 -0.1253
v -0.2443 -0.1371 0.1591
v -0.1338 -0.1886 -0.1253
v -0.1338 -0.1886 0.1591
v -0.3499 -0.3637 0.1591
v -0.3499 -0.3637 -0.1253
v -0.2395 -0.4152 0.1591
v -0.2395 -0.4152 -0.1253
v -0.2443 -0.1371 0.1591
v -0.3499 -0.3637 0.1591
v -0.1338 -0.1886 0.1591
v -0.2395 -0.4152 0.1591
v -0.1338 -0.1886 -0.1253
v -0.2395 -0.4152 -0.1253
v -0.2443 -0.1371 -0.1253
v -0.3499 -0.3637 -0.1253
v 0.1174 -0.168 0.1291
v 0.0088 -0.7835 0.1291
v 0.1174 -0.168 -0.1147
v 0.0088 -0.7835 -0.1147
v -0.2519 -0.1029 -0.1147
v -0.3605 -0.7184 -0.1147
v -0.2519 -0.1029 0.1291
v -0.3605 -0.7184 0.1291
v -0.2519 -0.1029 -0.1147
v -0.2519 -0.1029 0.1291
v 0.1174 -0.168 -0.1147
v 0.1174 -0.168 0.1291
v -0.3605 -0.7184 0.1291
v -0.3605 -0.7184 -0.1147
v 0.0088 -0.7835 0.1291
v 0.0088 -0.7835 -0.1147
v 0.1174 -0.168 0.1291
v 0.0088 -0.7835 0.1291
v 0.1174 -0.168 -0.1147
v 0.0088 -0.7835 -0.1147
v -0.2519 -0.1029 -0.1147
v -0.3605 -0.7184 -0.1147
v -0.0455 -0.1856 0.1247
v -0.0455 -0.8106 0.1247
v -0.0455 -0.1856 -0.1034
v -0.0455 -0.8106 -0.1034
v -0.258 -0.1856 -0.1034
v -0.258 -0.8106 -0.1034
v -0.258 -0.1856 0.1247
v -0.258 -0.8106 0.1247
v -0.258 -0.1856 -0.1034
v -0.258 -0.1856 0.1247
v -0.0455 -0.1856 -0.1034
v -0.0455 -0.1856 0.1247
v -0.258 -0.8106 0.1247
v -0.258 -0.8106 -0.1034
v -0.0455 -0.8106 0.1247
v -0.0455 -0.8106 -0.1034
v -0.258 -0.1856 0.1247
v -0.258 -0.8106 0.1247
v -0.0455 -0.1856 0.1247
v -0.0455 -0.8106 0.1247
v -0.0455 -0.1856 -0.1034
v -0.0455 -0.8106 -0.1034
v -0.258 -0.1856 -0.1034
v -0.258 -0.8106 -0.1034
v -0.0455 -0.8106 0.1247
v -0.0455 -0.9356 0.1247
v -0.0455 -0.8106 -0.1659
v -0.0455 -0.9356 -0.1659
v -0.258 -0.8106 -0.1659
v -0.258 -0.9356 -0.1659
v -0.258 -0.8106 0.1247
v -0.258 -0.9356 0.1247
v -0.258 -0.8106 -0.1659
v -0.258 -0.8106 0.1247
v -0.0455 -0.8106 -0.1659
v -0.0455 -0.8106 0.1247
v -0.258 -0.9356 0.1247
v -0.258 -0.9356 -0.1659
v -0.0455 -0.9356 0.1247
v -0.0455 -0.9356 -0.1659
v -0.258 -0.9356 0.1247
v -0.0455 -0.8106 0.1247
v -0.0455 -0.9356 0.1247
v -0.0455 -0.8106 -0.1659
v -0.0455 -0.9356 -0.1659
v -0.258 -0.8106 -0.1659
v -0.258 -0.9356 -0.1659
v 0.1163 -0.1819 -0.1233
v 0.2218 -0.4084 -0.1317
v 0.1186 -0.1914 0.1609
v 0.2241 -0.4179 0.1525
v 0.2291 -0.1399 0.1617
v 0.3346 -0.3664 0.1534
v 0.2268 -0.1305 -0.1225
v 0.3323 -0.357 -0.1308
v 0.2291 -0.1399 0.1617
v 0.2268 -0.1305 -0.1225
v 0.1186 -0.1914 0.1609
v 0.1163 -0.1819 -0.1233
v 0.3323 -0.357 -0.1308
v 0.3346 -0.3664 0.1534
v 0.2218 -0.4084 -0.1317
v 0.2241 -0.4179 0.1525
v 0.2268 -0.1305 -0.1225
v 0.3323 -0.357 -0.1308
v 0.1163 -0.1819 -0.1233
v 0.2218 -0.4084 -0.1317
v 0.1186 -0.1914 0.1609
v 0.2241 -0.4179 0.1525
v 0.2291 -0.1399 0.1617
v 0.3346 -0.3664 0.1534
v 0.242 -0.1231 0.1309
v 0.242 -0.7481 0.1309
v 0.242 -0.1231 -0.1128
v 0.242 -0.7481 -0.1128
v -0.007999999 -0.1231 -0.1128
v -0.007999999 -0.7481 -0.1128
v -0.007999999 -0.1231 0.1309
v -0.007999999 -0.7481 0.1309
v -0.007999999 -0.1231 -0.1128
v -0.007999999 -0.1231 0.1309
v 0.242 -0.1231 -0.1128
v 0.242 -0.1231 0.1309
v -0.007999999 -0.7481 0.1309
v -0.007999999 -0.7481 -0.1128
v 0.242 -0.7481 0.1309
v 0.242 -0.7481 -0.1128
v -0.007999999 -0.1231 0.1309
v -0.007999999 -0.7481 0.1309
v 0.242 -0.1231 0.1309
v 0.242 -0.7481 0.1309
v 0.242 -0.1231 -0.1128
v 0.242 -0.7481 -0.1128
v -0.007999999 -0.1231 -0.1128
v -0.007999999 -0.7481 -0.1128
v 0.2358 -0.1856 0.1247
v 0.2358 -0.8106 0.1247
v 0.2358 -0.1856 -0.1034
v 0.2358 -0.8106 -0.1034
v 0.0233 -0.1856 -0.1034
v 0.0233 -0.8106 -0.1034
v 0.0233 -0.1856 0.1247
v 0.0233 -0.8106 0.1247
v 0.0233 -0.1856 -0.1034
v 0.0233 -0.1856 0.1247
v 0.2358 -0.1856 -0.1034
v 0.2358 -0.1856 0.1247
v 0.0233 -0.8106 0.1247
v 0.0233 -0.8106 -0.1034
v 0.2358 -0.8106 0.1247
v 0.2358 -0.8106 -0.1034
v 0.0233 -0.1856 0.1247
v 0.0233 -0.8106 0.1247
v 0.2358 -0.1856 0.1247
v 0.2358 -0.8106 0.1247
v 0.2358 -0.1856 -0.1034
v 0.2358 -0.8106 -0.1034
v 0.0233 -0.1856 -0.1034
v 0.0233 -0.8106 -0.1034
v 0.2358 -0.8106 0.1247
v 0.2358 -0.9356 0.1247
v 0.2358 -0.8106 -0.1659
v 0.2358 -0.9356 -0.1659
v 0.0233 -0.8106 -0.1659
v 0.0233 -0.9356 -0.1659
v 0.0233 -0.8106 0.1247
v 0.0233 -0.9356 0.1247
v 0.0233 -0.8106 -0.1659
v 0.0233 -0.8106 0.1247
v 0.2358 -0.8106 -0.1659
v 0.2358 -0.8106 0.1247
v 0.0233 -0.9356 0.1247
v 0.0233 -0.9356 -0.1659
v 0.2358 -0.9356 0.1247
v 0.2358 -0.9356 -0.1659
v 0.0233 -0.9356 0.1247
v 0.2358 -0.8106 0.1247
v 0.2358 -0.9356 0.1247
v 0.2358 -0.8106 -0.1659
v 0.2358 -0.9356 -0.1659
v 0.0233 -0.8106 -0.1659
v 0.0233 -0.9356 -0.1659
v -0.258 0.5644 0.1309
v -0.258 0.0019 0.1309
v -0.258 0.5644 -0.1191
v -0.258 0.0019 -0.1191
v -0.508 0.5644 -0.1191
v -0.508 0.0019 -0.1191
v -0.508 0.5644 0.1309
v -0.508 0.0019 0.1309
v -0.508 0.5644 -0.1191
v -0.508 0.5644 0.1309
v -0.258 0.5644 -0.1191
v -0.258 0.5644 0.1309
v -0.508 0.0019 0.1309
v -0.508 0.0019 -0.1191
v -0.258 0.0019 0.1309
v -0.258 0.0019 -0.1191
v -0.508 0.5644 0.1309
v -0.508 0.0019 0.1309
v -0.258 0.5644 0.1309
v -0.258 0.0019 0.1309
v -0.258 0.5644 -0.1191
v -0.258 0.0019 -0.1191
v -0.508 0.5644 -0.1191
v -0.508 0.0019 -0.1191
v -0.258 0.5019 0.1247
v -0.258 -0.1856 0.1247
v -0.258 0.5019 -0.1128
v -0.258 -0.1856 -0.1128
v -0.4924 0.5019 -0.1128
v -0.4924 -0.1856 -0.1128
v -0.4924 0.5019 0.1247
v -0.4924 -0.1856 0.1247
v -0.4924 0.5019 -0.1128
v -0.4924 0.5019 0.1247
v -0.258 0.5019 -0.1128
v -0.258 0.5019 0.1247
v -0.4924 -0.1856 0.1247
v -0.4924 -0.1856 -0.1128
v -0.258 -0.1856 0.1247
v -0.258 -0.1856 -0.1128
v -0.4924 0.5019 0.1247
v -0.4924 -0.1856 0.1247
v -0.258 0.5019 0.1247
v -0.258 -0.1856 0.1247
v -0.258 0.5019 -0.1128
v -0.258 -0.1856 -0.1128
v -0.4924 0.5019 -0.1128
v -0.4924 -0.1856 -0.1128
v -0.2119 0.0301 0.1466
v -0.3968 -0.3664 0.1466
v -0.2119 0.0301 0.1466
v -0.3968 -0.3664 0.1466
v -0.4952 0.1622 0.1466
v -0.6801 -0.2343 0.1466
v -0.4952 0.1622 0.1466
v -0.6801 -0.2343 0.1466
v -0.4952 0.1622 0.1466
v -0.4952 0.1622 0.1466
v -0.6801 -0.2343 0.1466
v -0.6801 -0.2343 0.1466
v -0.3968 -0.3664 0.1466
v -0.3968 -0.3664 0.1466
v -0.4952 0.1622 0.1466
v -0.6801 -0.2343 0.1466
v -0.2119 0.0301 0.1466
v -0.3968 -0.3664 0.1466
v -0.2119 0.0301 0.1466
v -0.3968 -0.3664 0.1466
v -0.4952 0.1622 0.1466
v -0.6801 -0.2343 0.1466
v -0.2119 0.0301 0.1528
v -0.4232 -0.423 0.1528
v -0.2119 0.0301 -0.1347
v -0.4232 -0.423 -0.1347
v -0.4952 0.1622 -0.1347
v -0.7065 -0.291 -0.1347
v -0.4952 0.1622 0.1528
v -0.7065 -0.291 0.1528
v -0.4952 0.1622 -0.1347
v -0.4952 0.1622 0.1528
v -0.2119 0.0301 -0.1347
v -0.2119 0.0301 0.1528
v -0.7065 -0.291 0.1528
v -0.7065 -0.291 -0.1347
v -0.4232 -0.423 0.1528
v -0.4232 -0.423 -0.1347
v -0.4952 0.1622 0.1528
v -0.7065 -0.291 0.1528
v -0.2119 0.0301 0.1528
v -0.4232 -0.423 0.1528
v -0.2119 0.0301 -0.1347
v -0.4232 -0.423 -0.1347
v -0.4952 0.1622 -0.1347
v -0.7065 -0.291 -0.1347
v 0.2424 0.5644 -0.1159
v 0.2424 0.0019 -0.1159
v 0.2424 0.5644 0.1341
v 0.2424 0.0019 0.1341
v 0.4924 0.5644 0.1341
v 0.4924 0.0019 0.1341
v 0.4924 0.5644 -0.1159
v 0.4924 0.0019 -0.1159
v 0.4924 0.5644 0.1341
v 0.4924 0.5644 -0.1159
v 0.2424 0.5644 0.1341
v 0.2424 0.5644 -0.1159
v 0.4924 0.0019 -0.1159
v 0.4924 0.0019 0.1341
v 0.2424 0.0019 -0.1159
v 0.2424 0.0019 0.1341
v 0.4924 0.5644 -0.1159
v 0.4924 0.0019 -0.1159
v 0.2424 0.5644 -0.1159
v 0.2424 0.0019 -0.1159
v 0.2424 0.5644 0.1341
v 0.2424 0.0019 0.1341
v 0.4924 0.5644 0.1341
v 0.4924 0.0019 0.1341
v 0.2119 0.0301 -0.1378
v 0.4232 -0.423 -0.1378
v 0.2119 0.0301 0.1497
v 0.4232 -0.423 0.1497
v 0.4952 0.1622 0.1497
v 0.7065 -0.291 0.1497
v 0.4952 0.1622 -0.1378
v 0.7065 -0.291 -0.1378
v 0.4952 0.1622 0.1497
v 0.4952 0.1622 -0.1378
v 0.2119 0.0301 0.1497
v 0.2119 0.0301 -0.1378
v 0.7065 -0.291 -0.1378
v 0.7065 -0.291 0.1497
v 0.4232 -0.423 -0.1378
v 0.4232 -0.423 0.1497
v 0.4952 0.1622 -0.1378
v 0.7065 -0.291 -0.1378
v 0.2119 0.0301 -0.1378
v 0.4232 -0.423 -0.1378
v 0.2119 0.0301 0.1497
v 0.4232 -0.423 0.1497
v 0.4952 0.1622 0.1497
v 0.7065 -0.291 0.1497
v 0.2119 0.0301 0.1434
v 0.3968 -0.3664 0.1434
v 0.2119 0.0301 0.1434
v 0.3968 -0.3664 0.1434
v 0.4952 0.1622 0.1434
v 0.6801 -0.2343 0.1434
v 0.4952 0.1622 0.1434
v 0.6801 -0.2343 0.1434
v 0.4952 0.1622 0.1434
v 0.4952 0.1622 0.1434
v 0.6801 -0.2343 0.1434
v 0.6801 -0.2343 0.1434
v 0.3968 -0.3664 0.1434
v 0.3968 -0.3664 0.1434
v 0.4952 0.1622 0.1434
v 0.6801 -0.2343 0.1434
v 0.2119 0.0301 0.1434
v 0.3968 -0.3664 0.1434
v 0.2119 0.0301 0.1434
v 0.3968 -0.3664 0.1434
v 0.4952 0.1622 0.1434
v 0.6801 -0.2343 0.1434
v 0.2424 0.5019 -0.1097
v 0.2424 -0.1856 -0.1097
v 0.2424 0.5019 0.1278
v 0.2424 -0.1856 0.1278
v 0.4767 0.5019 0.1278
v 0.4767 -0.1856 0.1278
v 0.4767 0.5019 -0.1097
v 0.4767 -0.1856 -0.1097
v 0.4767 0.5019 0.1278
v 0.4767 0.5019 -0.1097
v 0.2424 0.5019 0.1278
v 0.2424 0.5019 -0.1097
v 0.4767 -0.1856 -0.1097
v 0.4767 -0.1856 0.1278
v 0.2424 -0.1856 -0.1097
v 0.2424 -0.1856 0.1278
v 0.4767 0.5019 -0.1097
v 0.4767 -0.1856 -0.1097
v 0.2424 0.5019 -0.1097
v 0.2424 -0.1856 -0.1097
v 0.2424 0.5019 0.1278
v 0.2424 -0.1856 0.1278
v 0.4767 0.5019 0.1278
v 0.4767 -0.1856 0.1278
vt 0.1353 0.248
vt 0.1353 0.3091
vt 0.1964 0.3091
vt 0.1964 0.248
vt 0.1353 0.248
vt 0.1964 0.3091
vt 0.1371 0.5812
vt 0.1371 0.6423
vt 0.1981 0.6423
vt 0.1981 0.5812
vt 0.1371 0.5812
vt 0.1981 0.6423
vt 0.4413 0.5574
vt 0.5551 0.5574
vt 0.5551 0.4435
vt 0.4413 0.4435
vt 0.4413 0.5574
vt 0.5551 0.4435
vt 0.5392 0.1246
vt 0.4583 0.1246
vt 0.4583 0.2054
vt 0.5392 0.2054
vt 0.5392 0.1246
vt 0.4583 0.2054
vt 0.4682 0.9147
vt 0.4682 0.9757
vt 0.5293 0.9757
vt 0.5293 0.9147
vt 0.4682 0.9147
vt 0.5293 0.9757
vt 0.1374 0.9147
vt 0.1374 0.9757
vt 0.1985 0.9757
vt 0.1985 0.9147
vt 0.1374 0.9147
vt 0.1985 0.9757
vt 0.1966 0.2989
vt 0.1966 0.2989
vt 0.1966 0.2734
vt 0.1966 0.2734
vt 0.1966 0.2989
vt 0.1966 0.2734
vt 0.1369 0.6321
vt 0.1369 0.6321
vt 0.1369 0.6067
vt 0.1369 0.6067
vt 0.1369 0.6321
vt 0.1369 0.6067
vt 0.5555 0.4929
vt 0.5555 0.4455
vt 0.5555 0.4929
vt 0.5555 0.4929
vt 0.5555 0.4455
vt 0.5555 0.4455
vt 0.5394 0.1704
vt 0.5394 0.204
vt 0.5394 0.1704
vt 0.5394 0.1704
vt 0.5394 0.204
vt 0.5394 0.204
vt 0.5028 0.9401
vt 0.5028 0.9656
vt 0.5282 0.9656
vt 0.5282 0.9401
vt 0.5028 0.9401
vt 0.5282 0.9656
vt 0.1384 0.9401
vt 0.1384 0.9656
vt 0.1639 0.9656
vt 0.1639 0.9401
vt 0.1384 0.9401
vt 0.1639 0.9656
vt 0 0
vt 0 0
vt 0 0
vt 0 0
vt 0 0
vt 0 0
vt 0 0
vt 0 0
vt 0 0
vt 0 0
vt 0 0
vt 0 0
vt 0 0
vt 0 0
vt 0 0
vt 0 0
vt 0 0
vt 0 0
vt 0 0
vt 0 0
vt 0 0
vt 0 0
vt 0 0
vt 0 0
vt 0.5079 0.9452
vt 0.5079 0.9605
vt 0.5231 0.9605
vt 0.5231 0.9452
vt 0.5079 0.9452
vt 0.5231 0.9605
vt 0.1435 0.9452
vt 0.1435 0.9605
vt 0.1588 0.9605
vt 0.1588 0.9452
vt 0.1435 0.9452
vt 0.1588 0.9605
vt 0.1966 0.2989
vt 0.1966 0.2989
vt 0.1966 0.2734
vt 0.1966 0.2734
vt 0.1966 0.2989
vt 0.1966 0.2734
vt 0.1369 0.6321
vt 0.1369 0.6321
vt 0.1369 0.6067
vt 0.1369 0.6067
vt 0.1369 0.6321
vt 0.1369 0.6067
vt 0.5555 0.5555
vt 0.5555 0.5081
vt 0.5555 0.5555
vt 0.5555 0.5555
vt 0.5555 0.5081
vt 0.5555 0.5081
vt 0.5394 0.1259
vt 0.5394 0.1596
vt 0.5394 0.1259
vt 0.5394 0.1259
vt 0.5394 0.1596
vt 0.5394 0.1596
vt 0.4692 0.9401
vt 0.4692 0.9656
vt 0.4946 0.9656
vt 0.4946 0.9401
vt 0.4692 0.9401
vt 0.4946 0.9656
vt 0.172 0.9401
vt 0.172 0.9656
vt 0.1975 0.9656
vt 0.1975 0.9401
vt 0.172 0.9401
vt 0.1975 0.9656
vt 0 0
vt 0 0
vt 0 0
vt 0 0
vt 0 0
vt 0 0
vt 0 0
vt 0 0
vt 0 0
vt 0 0
vt 0 0
vt 0 0
vt 0 0
vt 0 0
vt 0 0
vt 0 0
vt 0 0
vt 0 0
vt 0 0
vt 0 0
vt 0 0
vt 0 0
vt 0 0
vt 0 0
vt 0.4743 0.9452
vt 0.4743 0.9605
vt 0.4896 0.9605
vt 0.4896 0.9452
vt 0.4743 0.9452
vt 0.4896 0.9605
vt 0.1771 0.9452
vt 0.1771 0.9605
vt 0.1924 0.9605
vt 0.1924 0.9452
vt 0.1771 0.9452
vt 0.1924 0.9605
vt 0.2018 0.2989
vt 0.2018 0.2989
vt 0.2018 0.2887
vt 0.2018 0.2887
vt 0.2018 0.2989
vt 0.2018 0.2887
vt 0 0
vt 0 0
vt 0 0
vt 0 0
vt 0 0
vt 0 0
vt 0 0
vt 0 0
vt 0 0
vt 0.4311 0.5676
vt 0.5653 0.4334
vt 0.5653 0.4334
vt 0 0
vt 0 0
vt 0 0
vt 0.4511 0.1173
vt 0.5463 0.2126
vt 0.5464 0.2126
vt 0.1298 0.2989
vt 0.2018 0.2989
vt 0.1298 0.2887
vt 0.1298 0.2887
vt 0.2018 0.2989
vt 0.2018 0.2887
vt 0.1317 0.6321
vt 0.2036 0.6321
vt 0.1317 0.6219
vt 0.1317 0.6219
vt 0.2036 0.6321
vt 0.2036 0.6219
vt 0 0
vt 0 0
vt 0 0
vt 0 0
vt 0 0
vt 0 0
vt 0.2072 0.6158
vt 0.2072 0.6158
vt 0.2072 0.6057
vt 0.2072 0.6057
vt 0.2072 0.6158
vt 0.2072 0.6057
vt 0.4244 0.5743
vt 0.572 0.4267
vt 0.4244 0.5743
vt 0 0
vt 0 0
vt 0 0
vt 0.4463 0.1126
vt 0.5511 0.2174
vt 0.4463 0.1126
vt 0 0
vt 0 0
vt 0 0
vt 0.1262 0.2826
vt 0.2054 0.2826
vt 0.1262 0.2724
vt 0.1262 0.2724
vt 0.2054 0.2826
vt 0.2054 0.2724
vt 0.1281 0.6158
vt 0.2072 0.6158
vt 0.1281 0.6057
vt 0.1281 0.6057
vt 0.2072 0.6158
vt 0.2072 0.6057
vt 0.2018 0.2663
vt 0.2018 0.2663
vt 0.2018 0.2562
vt 0.2018 0.2562
vt 0.2018 0.2663
vt 0.2018 0.2562
vt 0 0
vt 0 0
vt 0 0
vt 0 0
vt 0 0
vt 0 0
vt 0 0
vt 0 0
vt 0 0
vt 0.4311 0.5676
vt 0.5653 0.4334
vt 0.5653 0.4334
vt 0 0
vt 0 0
vt 0 0
vt 0.4511 0.1173
vt 0.5463 0.2126
vt 0.5464 0.2126
vt 0.1298 0.2663
vt 0.2018 0.2663
vt 0.1298 0.2562
vt 0.1298 0.2562
vt 0.2018 0.2663
vt 0.2018 0.2562
vt 0.1317 0.5995
vt 0.2036 0.5995
vt 0.1317 0.5894
vt 0.1317 0.5894
vt 0.2036 0.5995
vt 0.2036 0.5894
vt 0 0
vt 0 0
vt 0 0
vt 0 0
vt 0 0
vt 0 0
vt 0.1298 0.2663
vt 0.1299 0.2663
vt 0.1298 0.2562
vt 0.1298 0.2562
vt 0.1299 0.2663
vt 0.1299 0.2562
vt 0.4311 0.4334
vt 0.5653 0.5676
vt 0.4312 0.4334
vt 0 0
vt 0 0
vt 0 0
vt 0.4511 0.2126
vt 0.5464 0.1173
vt 0.4511 0.2126
vt 0 0
vt 0 0
vt 0 0
vt 0.1299 0.2663
vt 0.2018 0.2663
vt 0.1299 0.2562
vt 0.1299 0.2562
vt 0.2018 0.2663
vt 0.2018 0.2562
vt 0.1317 0.5995
vt 0.2036 0.5995
vt 0.1317 0.5894
vt 0.1317 0.5894
vt 0.2036 0.5995
vt 0.2036 0.5894
vt 0 0
vt 0 0
vt 0 0
vt 0 0
vt 0 0
vt 0 0
vt 0.1298 0.2989
vt 0.1299 0.2989
vt 0.1298 0.2887
vt 0.1298 0.2887
vt 0.1299 0.2989
vt 0.1299 0.2887
vt 0.4311 0.4334
vt 0.5653 0.5676
vt 0.4312 0.4334
vt 0 0
vt 0 0
vt 0 0
vt 0.4511 0.2126
vt 0.5464 0.1173
vt 0.4511 0.2126
vt 0 0
vt 0 0
vt 0 0
vt 0.1299 0.2989
vt 0.2018 0.2989
vt 0.1299 0.2887
vt 0.1299 0.2887
vt 0.2018 0.2989
vt 0.2018 0.2887
vt 0.1317 0.6321
vt 0.2036 0.6321
vt 0.1317 0.6219
vt 0.1317 0.6219
vt 0.2036 0.6321
vt 0.2036 0.6219
vt 0.128 0.6158
vt 0.1281 0.6158
vt 0.128 0.6057
vt 0.128 0.6057
vt 0.1281 0.6158
vt 0.1281 0.6057
vt 0 0
vt 0 0
vt 0 0
vt 0 0
vt 0 0
vt 0 0
vt 0 0
vt 0 0
vt 0 0
vt 0.4244 0.4267
vt 0.572 0.5743
vt 0.572 0.5743
vt 0 0
vt 0 0
vt 0 0
vt 0.4463 0.2174
vt 0.5511 0.1126
vt 0.5511 0.1126
vt 0.1263 0.2826
vt 0.2054 0.2826
vt 0.1263 0.2724
vt 0.1263 0.2724
vt 0.2054 0.2826
vt 0.2054 0.2724
vt 0.1281 0.6158
vt 0.2072 0.6158
vt 0.1281 0.6057
vt 0.1281 0.6057
vt 0.2072 0.6158
vt 0.2072 0.6057
vt 0.5622 0.541
vt 0.5623 0.541
vt 0.5626 0.5221
vt 0.1795 0.9802
vt 0.1897 0.9808
vt 0.1795 0.9801
vt 0 0
vt 0 0
vt 0 0
vt 0.4796 0.146
vt 0.4793 0.1326
vt 0.4796 0.146
vt 0 0
vt 0 0
vt 0 0
vt 0.1823 0.5889
vt 0.1333 0.6473
vt 0.1333 0.6473
vt 0.1513 0.255
vt 0.2004 0.3135
vt 0.1514 0.255
vt 0.1514 0.255
vt 0.2004 0.3135
vt 0.2004 0.3135
vt 0.4712 0.5272
vt 0.4709 0.5461
vt 0.5622 0.541
vt 0.5626 0.5221
vt 0.4712 0.5272
vt 0.5622 0.541
vt 0.5444 0.1496
vt 0.5442 0.1362
vt 0.4793 0.1326
vt 0.4796 0.146
vt 0.5444 0.1496
vt 0.4793 0.1326
vt 0.5756 0.5063
vt 0.5756 0.5063
vt 0.5751 0.4874
vt 0.5751 0.4874
vt 0.5756 0.5063
vt 0.5751 0.4874
vt 0 0
vt 0 0
vt 0 0
vt 0.5025 0.9366
vt 0.4923 0.937
vt 0.5025 0.9366
vt 0 0
vt 0 0
vt 0 0
vt 0.1866 0.6036
vt 0.1261 0.65
vt 0.1262 0.65
vt 0.1466 0.2699
vt 0.2071 0.3164
vt 0.1466 0.2699
vt 0.1466 0.2699
vt 0.2071 0.3164
vt 0.2071 0.3164
vt 0.4624 0.4934
vt 0.4628 0.5124
vt 0.5756 0.5063
vt 0.5751 0.4874
vt 0.4624 0.4934
vt 0.5756 0.5063
vt 0.5534 0.1743
vt 0.5537 0.1608
vt 0.4736 0.1565
vt 0.4733 0.17
vt 0.5534 0.1743
vt 0.4736 0.1565
vt 0.1532 0.9797
vt 0.1532 0.9797
vt 0.143 0.9797
vt 0.562 0.454
vt 0.5628 0.473
vt 0.562 0.454
vt 0.4673 0.1811
vt 0.4673 0.1811
vt 0.4667 0.1946
vt 0 0
vt 0 0
vt 0 0
vt 0.1913 0.5825
vt 0.133 0.6462
vt 0.1914 0.5825
vt 0.1914 0.5825
vt 0.133 0.6462
vt 0.133 0.6462
vt 0 0
vt 0 0
vt 0 0
vt 0.1417 0.2492
vt 0.2 0.313
vt 0.2001 0.313
vt 0.5628 0.473
vt 0.4531 0.4588
vt 0.4539 0.4778
vt 0.5628 0.473
vt 0.562 0.454
vt 0.4531 0.4588
vt 0.4673 0.1811
vt 0.544 0.1979
vt 0.5446 0.1845
vt 0.4673 0.1811
vt 0.4667 0.1946
vt 0.544 0.1979
vt 0.1709 0.3167
vt 0.1607 0.2617
vt 0.1607 0.3167
vt 0.1709 0.3167
vt 0.1709 0.2617
vt 0.1607 0.2617
vt 0.1727 0.6499
vt 0.1625 0.5949
vt 0.1625 0.6499
vt 0.1727 0.6499
vt 0.1727 0.5949
vt 0.1625 0.5949
vt 0.1709 0.3167
vt 0.1709 0.3167
vt 0.1607 0.3167
vt 0.1607 0.3167
vt 0.1709 0.3167
vt 0.1607 0.3167
vt 0 0
vt 0 0
vt 0 0
vt 0 0
vt 0 0
vt 0 0
vt 0.5379 0.9833
vt 0.5379 0.9833
vt 0.4779 0.9283
vt 0 0
vt 0 0
vt 0 0
vt 0.1288 0.9833
vt 0.1288 0.9833
vt 0.1888 0.9283
vt 0 0
vt 0 0
vt 0 0
vt 0.1811 0.2617
vt 0.1811 0.3132
vt 0.1913 0.3132
vt 0.1913 0.2617
vt 0.1811 0.2617
vt 0.1913 0.3132
vt 0.1422 0.5949
vt 0.1422 0.6464
vt 0.1524 0.6464
vt 0.1524 0.5949
vt 0.1422 0.5949
vt 0.1524 0.6464
vt 0.1913 0.3132
vt 0.1913 0.3132
vt 0.1811 0.3132
vt 0.1811 0.3132
vt 0.1913 0.3132
vt 0.1811 0.3132
vt 0 0
vt 0 0
vt 0 0
vt 0 0
vt 0 0
vt 0 0
vt 0.5341 0.9799
vt 0.5341 0.9799
vt 0.4779 0.9283
vt 0 0
vt 0 0
vt 0 0
vt 0.1325 0.9799
vt 0.1325 0.9799
vt 0.1888 0.9283
vt 0 0
vt 0 0
vt 0 0
vt 0.1404 0.2617
vt 0.1404 0.3132
vt 0.1506 0.3132
vt 0.1506 0.2617
vt 0.1404 0.2617
vt 0.1506 0.3132
vt 0.1829 0.5949
vt 0.1829 0.6464
vt 0.1931 0.6464
vt 0.1931 0.5949
vt 0.1829 0.5949
vt 0.1931 0.6464
vt 0.1506 0.3132
vt 0.1506 0.3132
vt 0.1404 0.3132
vt 0.1404 0.3132
vt 0.1506 0.3132
vt 0.1404 0.3132
vt 0 0
vt 0 0
vt 0 0
vt 0 0
vt 0 0
vt 0 0
vt 0.5341 0.9799
vt 0.5341 0.9799
vt 0.4779 0.9283
vt 0 0
vt 0 0
vt 0 0
vt 0.1325 0.9799
vt 0.1325 0.9799
vt 0.1888 0.9283
vt 0 0
vt 0 0
vt 0 0
vt 0.1709 0.3164
vt 0.1607 0.2526
vt 0.1607 0.3164
vt 0.1709 0.3164
vt 0.1709 0.2526
vt 0.1607 0.2526
vt 0.1727 0.6496
vt 0.1625 0.5858
vt 0.1625 0.6496
vt 0.1727 0.6496
vt 0.1727 0.5858
vt 0.1625 0.5858
vt 0.1625 0.6496
vt 0.1625 0.6496
vt 0.1727 0.6496
vt 0.1727 0.6496
vt 0.1625 0.6496
vt 0.1727 0.6496
vt 0 0
vt 0 0
vt 0 0
vt 0 0
vt 0 0
vt 0 0
vt 0.4622 0.983
vt 0.4622 0.983
vt 0.5207 0.9193
vt 0 0
vt 0 0
vt 0 0
vt 0.2044 0.983
vt 0.2044 0.983
vt 0.146 0.9193
vt 0 0
vt 0 0
vt 0 0
vt 0.1913 0.3126
vt 0.1811 0.2526
vt 0.1811 0.3126
vt 0.1913 0.3126
vt 0.1913 0.2526
vt 0.1811 0.2526
vt 0.1524 0.6458
vt 0.1422 0.5858
vt 0.1422 0.6458
vt 0.1524 0.6458
vt 0.1524 0.5858
vt 0.1422 0.5858
vt 0.1422 0.6458
vt 0.1422 0.6458
vt 0.1524 0.6458
vt 0.1524 0.6458
vt 0.1422 0.6458
vt 0.1524 0.6458
vt 0 0
vt 0 0
vt 0 0
vt 0 0
vt 0 0
vt 0 0
vt 0.4657 0.9793
vt 0.4657 0.9793
vt 0.5207 0.9193
vt 0 0
vt 0 0
vt 0 0
vt 0.201 0.9793
vt 0.201 0.9793
vt 0.146 0.9193
vt 0 0
vt 0 0
vt 0 0
vt 0.1506 0.3126
vt 0.1404 0.2526
vt 0.1404 0.3126
vt 0.1506 0.3126
vt 0.1506 0.2526
vt 0.1404 0.2526
vt 0.1931 0.6458
vt 0.1829 0.5858
vt 0.1829 0.6458
vt 0.1931 0.6458
vt 0.1931 0.5858
vt 0.1829 0.5858
vt 0.1829 0.6458
vt 0.1829 0.6458
vt 0.1931 0.6458
vt 0.1931 0.6458
vt 0.1829 0.6458
vt 0.1931 0.6458
vt 0 0
vt 0 0
vt 0 0
vt 0 0
vt 0 0
vt 0 0
vt 0.4657 0.9793
vt 0.4657 0.9793
vt 0.5207 0.9193
vt 0 0
vt 0 0
vt 0 0
vt 0.201 0.9793
vt 0.201 0.9793
vt 0.146 0.9193
vt 0 0
vt 0 0
vt 0 0
vt 0.4319 0.507
vt 0.432 0.507
vt 0.4326 0.488
vt 0.4326 0.488
vt 0.432 0.507
vt 0.4327 0.488
vt 0.1744 0.934
vt 0.1744 0.9339
vt 0.1642 0.9337
vt 0.1642 0.9337
vt 0.1744 0.9339
vt 0.1642 0.9337
vt 0.1564 0.6005
vt 0.2031 0.6472
vt 0.1564 0.6005
vt 0.1564 0.6005
vt 0.2031 0.6472
vt 0.2032 0.6472
vt 0.1774 0.267
vt 0.1307 0.3137
vt 0.1774 0.267
vt 0.1774 0.267
vt 0.1307 0.3137
vt 0.1307 0.3137
vt 0.5141 0.1699
vt 0.5136 0.1564
vt 0.4517 0.1604
vt 0.4522 0.1738
vt 0.5141 0.1699
vt 0.4517 0.1604
vt 0.4327 0.488
vt 0.432 0.507
vt 0.5191 0.5125
vt 0.5198 0.4935
vt 0.4327 0.488
vt 0.5191 0.5125
vt 0 0
vt 0 0
vt 0 0
vt 0 0
vt 0 0
vt 0 0
vt 0.1924 0.9286
vt 0.1924 0.9286
vt 0.1823 0.9288
vt 0.1823 0.9288
vt 0.1924 0.9286
vt 0.1823 0.9287
vt 0.1516 0.5952
vt 0.202 0.6455
vt 0.1516 0.5952
vt 0 0
vt 0 0
vt 0 0
vt 0.1825 0.2621
vt 0.1321 0.3124
vt 0.1825 0.2621
vt 0 0
vt 0 0
vt 0 0
vt 0.5207 0.146
vt 0.5199 0.1326
vt 0.4532 0.1359
vt 0.4541 0.1494
vt 0.5207 0.146
vt 0.4532 0.1359
vt 0.4353 0.5225
vt 0.4341 0.5414
vt 0.528 0.5461
vt 0.5292 0.5272
vt 0.4353 0.5225
vt 0.528 0.5461
vt 0.4342 0.473
vt 0.4342 0.473
vt 0.4341 0.454
vt 0 0
vt 0 0
vt 0 0
vt 0.5306 0.1811
vt 0.5306 0.1811
vt 0.5306 0.1946
vt 0 0
vt 0 0
vt 0 0
vt 0.1435 0.5828
vt 0.202 0.6465
vt 0.1435 0.5828
vt 0.1435 0.5828
vt 0.202 0.6465
vt 0.202 0.6465
vt 0 0
vt 0 0
vt 0 0
vt 0 0
vt 0 0
vt 0 0
vt 0.4532 0.1845
vt 0.5306 0.1946
vt 0.5306 0.1811
vt 0.4532 0.1845
vt 0.4532 0.1979
vt 0.5306 0.1946
vt 0.5432 0.4778
vt 0.4341 0.454
vt 0.4342 0.473
vt 0.5432 0.4778
vt 0.5431 0.4588
vt 0.4341 0.454
vt 0.1448 0.2573
vt 0.1859 0.2573
vt 0.1448 0.137
vt 0.1448 0.137
vt 0.1859 0.2573
vt 0.1859 0.137
vt 0.1476 0.5905
vt 0.1887 0.5905
vt 0.1476 0.4702
vt 0.1476 0.4702
vt 0.1887 0.5905
vt 0.1887 0.4702
vt 0.5356 0.5752
vt 0.5356 0.4257
vt 0.459 0.5752
vt 0.459 0.5752
vt 0.5356 0.4257
vt 0.459 0.4257
vt 0.4709 0.1119
vt 0.4709 0.218
vt 0.5253 0.1119
vt 0.5253 0.1119
vt 0.4709 0.218
vt 0.5253 0.218
vt 0.4586 0.8036
vt 0.4586 0.9238999
vt 0.5388 0.9238999
vt 0.5388 0.8036
vt 0.4586 0.8036
vt 0.5388 0.9238999
vt 0.1279 0.8036
vt 0.1279 0.9238999
vt 0.208 0.9238999
vt 0.208 0.8036
vt 0.1279 0.8036
vt 0.208 0.9238999
vt 0.1413 0.1001
vt 0.1413 0.1365
vt 0.1869 0.1365
vt 0.1869 0.1001
vt 0.1413 0.1001
vt 0.1869 0.1365
vt 0.1466 0.4417
vt 0.1466 0.478
vt 0.1922 0.478
vt 0.1922 0.4417
vt 0.1466 0.4417
vt 0.1922 0.478
vt 0.5375 0.5711
vt 0.5375 0.5381
vt 0.4524 0.5711
vt 0.4524 0.5711
vt 0.5375 0.5381
vt 0.4524 0.5381
vt 0.4662 0.0924
vt 0.4662 0.1158
vt 0.5266 0.0924
vt 0.5266 0.0924
vt 0.4662 0.1158
vt 0.5266 0.1158
vt 0.4439 0.7751
vt 0.4608 0.8114
vt 0.4785 0.8031
vt 0.4616 0.7668
vt 0.4439 0.7751
vt 0.4785 0.8031
vt 0.2051 0.7668
vt 0.1881 0.8031
vt 0.2059 0.8114
vt 0.2228 0.7751
vt 0.2051 0.7668
vt 0.2059 0.8114
vt 0.1461 0.0411
vt 0.1461 0.1398
vt 0.1852 0.1398
vt 0.1852 0.0411
vt 0.1461 0.0411
vt 0.1852 0.1398
vt 0.1483 0.3848
vt 0.1483 0.4835
vt 0.1874 0.4835
vt 0.1874 0.3848
vt 0.1483 0.3848
vt 0.1874 0.4835
vt 0.4614 0.5734
vt 0.5343 0.5734
vt 0.5343 0.463
vt 0.4614 0.463
vt 0.4614 0.5734
vt 0.5343 0.463
vt 0.5244 0.0901
vt 0.4726 0.0901
vt 0.4726 0.1685
vt 0.5244 0.1685
vt 0.5244 0.0901
vt 0.4726 0.1685
vt 0.4422 0.7182
vt 0.4596 0.8169
vt 0.5188 0.8065
vt 0.5188 0.8065
vt 0.5014 0.7077
vt 0.4422 0.7182
vt 0.1653 0.7077
vt 0.1478 0.8065
vt 0.2071 0.8169
vt 0.2245 0.7182
vt 0.1653 0.7077
vt 0.2071 0.8169
vt 0.1834 0.137
vt 0.1468 0.0367
vt 0.1468 0.137
vt 0.1834 0.137
vt 0.1834 0.0367
vt 0.1468 0.0367
vt 0.1867 0.4702
vt 0.1501 0.37
vt 0.1501 0.4702
vt 0.1867 0.4702
vt 0.1867 0.37
vt 0.1501 0.37
vt 0.4627 0.5752
vt 0.5309 0.5752
vt 0.5309 0.5117
vt 0.4627 0.5117
vt 0.4627 0.5752
vt 0.5309 0.5117
vt 0.522 0.1119
vt 0.4735 0.1119
vt 0.4735 0.157
vt 0.522 0.157
vt 0.522 0.1119
vt 0.4735 0.157
vt 0.4586 0.8036
vt 0.4927 0.8036
vt 0.4586 0.7034
vt 0.4586 0.7034
vt 0.4927 0.8036
vt 0.4927 0.7034
vt 0.174 0.8036
vt 0.208 0.8036
vt 0.174 0.7034
vt 0.174 0.7034
vt 0.208 0.8036
vt 0.208 0.7034
vt 0.1468 0.0367
vt 0.1934 0.0367
vt 0.1468 0.0167
vt 0.1468 0.0167
vt 0.1934 0.0367
vt 0.1934 0.0167
vt 0.1401 0.37
vt 0.1867 0.37
vt 0.1401 0.35
vt 0.1401 0.35
vt 0.1867 0.37
vt 0.1867 0.35
vt 0.4627 0.5752
vt 0.5496 0.5752
vt 0.5496 0.5117
vt 0.4627 0.5117
vt 0.4627 0.5752
vt 0.5496 0.5117
vt 0.5352 0.1119
vt 0.4735 0.1119
vt 0.4735 0.157
vt 0.5352 0.157
vt 0.5352 0.1119
vt 0.4735 0.157
vt 0.4586 0.6833
vt 0.4586 0.7034
vt 0.4927 0.7034
vt 0.4927 0.6833
vt 0.4586 0.6833
vt 0.4927 0.7034
vt 0.174 0.6833
vt 0.174 0.7034
vt 0.208 0.7034
vt 0.208 0.6833
vt 0.174 0.6833
vt 0.208 0.7034
vt 0.1456 0.4345
vt 0.1469 0.4708
vt 0.1925 0.4693
vt 0.1911 0.433
vt 0.1456 0.4345
vt 0.1925 0.4693
vt 0.1422 0.108
vt 0.1409 0.1443
vt 0.1864 0.1458
vt 0.1864 0.1458
vt 0.1878 0.1095
vt 0.1422 0.108
vt 0.4516 0.4296
vt 0.4519 0.4626
vt 0.5366 0.4303
vt 0.5366 0.4303
vt 0.4519 0.4626
vt 0.5369 0.4633
vt 0.5278 0.2372
vt 0.528 0.2138
vt 0.4674 0.2377
vt 0.4674 0.2377
vt 0.528 0.2138
vt 0.4676 0.2142
vt 0.1134 0.7761
vt 0.1303 0.8125
vt 0.148 0.8042
vt 0.1311 0.7679
vt 0.1134 0.7761
vt 0.148 0.8042
vt 0.5359 0.7664
vt 0.519 0.8027
vt 0.5367 0.811
vt 0.5537 0.7746
vt 0.5359 0.7664
vt 0.5367 0.811
vt 0.1458 0.0467
vt 0.1458 0.147
vt 0.1849 0.147
vt 0.1849 0.0467
vt 0.1458 0.0467
vt 0.1849 0.147
vt 0.1486 0.3801
vt 0.1486 0.4803
vt 0.1877 0.4803
vt 0.1877 0.3801
vt 0.1486 0.3801
vt 0.1877 0.4803
vt 0.4609 0.5005
vt 0.5337 0.5005
vt 0.5337 0.4257
vt 0.4609 0.4257
vt 0.4609 0.5005
vt 0.5337 0.4257
vt 0.5239 0.165
vt 0.4722 0.165
vt 0.4722 0.218
vt 0.5239 0.218
vt 0.5239 0.165
vt 0.4722 0.218
vt 0.4987 0.7134
vt 0.4987 0.8137
vt 0.5388 0.8137
vt 0.5388 0.7134
vt 0.4987 0.7134
vt 0.5388 0.8137
vt 0.1279 0.7134
vt 0.1279 0.8137
vt 0.1679 0.8137
vt 0.1679 0.7134
vt 0.1279 0.7134
vt 0.1679 0.8137
vt 0.1834 0.137
vt 0.1468 0.0367
vt 0.1468 0.137
vt 0.1834 0.137
vt 0.1834 0.0367
vt 0.1468 0.0367
vt 0.1867 0.4702
vt 0.1501 0.37
vt 0.1501 0.4702
vt 0.1867 0.4702
vt 0.1867 0.37
vt 0.1501 0.37
vt 0.4627 0.4911
vt 0.5309 0.4911
vt 0.5309 0.4276
vt 0.4627 0.4276
vt 0.4627 0.4911
vt 0.5309 0.4276
vt 0.522 0.1716
vt 0.4735 0.1716
vt 0.4735 0.2167
vt 0.522 0.2167
vt 0.522 0.1716
vt 0.4735 0.2167
vt 0.5037 0.8036
vt 0.5378 0.8036
vt 0.5037 0.7034
vt 0.5037 0.7034
vt 0.5378 0.8036
vt 0.5378 0.7034
vt 0.1288 0.8036
vt 0.1629 0.8036
vt 0.1288 0.7034
vt 0.1288 0.7034
vt 0.1629 0.8036
vt 0.1629 0.7034
vt 0.1468 0.0367
vt 0.1934 0.0367
vt 0.1468 0.0167
vt 0.1468 0.0167
vt 0.1934 0.0367
vt 0.1934 0.0167
vt 0.1401 0.37
vt 0.1867 0.37
vt 0.1401 0.35
vt 0.1401 0.35
vt 0.1867 0.37
vt 0.1867 0.35
vt 0.4627 0.4911
vt 0.5496 0.4911
vt 0.5496 0.4276
vt 0.4627 0.4276
vt 0.4627 0.4911
vt 0.5496 0.4276
vt 0.5352 0.1716
vt 0.4735 0.1716
vt 0.4735 0.2167
vt 0.5352 0.2167
vt 0.5352 0.1716
vt 0.4735 0.2167
vt 0.5037 0.6833
vt 0.5037 0.7034
vt 0.5378 0.7034
vt 0.5378 0.6833
vt 0.5037 0.6833
vt 0.5378 0.7034
vt 0.1288 0.6833
vt 0.1288 0.7034
vt 0.1629 0.7034
vt 0.1629 0.6833
vt 0.1288 0.6833
vt 0.1629 0.7034
vt 0.1458 0.2573
vt 0.1859 0.2573
vt 0.1458 0.167
vt 0.1458 0.167
vt 0.1859 0.2573
vt 0.1859 0.167
vt 0.1476 0.5905
vt 0.1877 0.5905
vt 0.1476 0.5003
vt 0.1476 0.5003
vt 0.1877 0.5905
vt 0.1877 0.5003
vt 0.4609 0.65
vt 0.5356 0.65
vt 0.5356 0.5752
vt 0.4609 0.5752
vt 0.4609 0.65
vt 0.5356 0.5752
vt 0.5253 0.0588
vt 0.4722 0.0588
vt 0.4722 0.1119
vt 0.5253 0.1119
vt 0.5253 0.0588
vt 0.4722 0.1119
vt 0.4185 0.9238999
vt 0.4586 0.9238999
vt 0.4185 0.8337
vt 0.4185 0.8337
vt 0.4586 0.9238999
vt 0.4586 0.8337
vt 0.208 0.9238999
vt 0.2481 0.9238999
vt 0.208 0.8337
vt 0.208 0.8337
vt 0.2481 0.9238999
vt 0.2481 0.8337
vt 0.1468 0.2472
vt 0.1849 0.2472
vt 0.1468 0.137
vt 0.1468 0.137
vt 0.1849 0.2472
vt 0.1849 0.137
vt 0.1486 0.5805
vt 0.1867 0.5805
vt 0.1486 0.4702
vt 0.1486 0.4702
vt 0.1867 0.5805
vt 0.1867 0.4702
vt 0.4627 0.6453
vt 0.5337 0.6453
vt 0.5337 0.5752
vt 0.4627 0.5752
vt 0.4627 0.6453
vt 0.5337 0.5752
vt 0.5239 0.0621
vt 0.4735 0.0621
vt 0.4735 0.1119
vt 0.5239 0.1119
vt 0.5239 0.0621
vt 0.4735 0.1119
vt 0.421 0.9139
vt 0.4586 0.9139
vt 0.421 0.8036
vt 0.421 0.8036
vt 0.4586 0.9139
vt 0.4586 0.8036
vt 0.208 0.9139
vt 0.2456 0.9139
vt 0.208 0.8036
vt 0.208 0.8036
vt 0.2456 0.9139
vt 0.2456 0.8036
vt 0 0
vt 0 0
vt 0 0
vt 0 0
vt 0 0
vt 0 0
vt 0 0
vt 0 0
vt 0 0
vt 0 0
vt 0 0
vt 0 0
vt 0 0
vt 0 0
vt 0 0
vt 0 0
vt 0 0
vt 0 0
vt 0 0
vt 0 0
vt 0 0
vt 0 0
vt 0 0
vt 0 0
vt 0.466 0.8382
vt 0.3909 0.7958
vt 0.4206 0.8594
vt 0.466 0.8382
vt 0.4364 0.7746
vt 0.3909 0.7958
vt 0.2303 0.7746
vt 0.2007 0.8382
vt 0.2461 0.8594
vt 0.2758 0.7958
vt 0.2303 0.7746
vt 0.2461 0.8594
vt 0.1884 0.1716
vt 0.1423 0.0989
vt 0.1423 0.1716
vt 0.1884 0.1716
vt 0.1884 0.0989
vt 0.1423 0.0989
vt 0.1912 0.526
vt 0.1451 0.4533
vt 0.1451 0.526
vt 0.1912 0.526
vt 0.1912 0.4533
vt 0.1451 0.4533
vt 0.4543 0.6462
vt 0.5403 0.6462
vt 0.5403 0.5615
vt 0.4543 0.5615
vt 0.4543 0.6462
vt 0.5403 0.5615
vt 0.5286 0.0167
vt 0.4676 0.0167
vt 0.4676 0.0768
vt 0.5286 0.0768
vt 0.5286 0.0167
vt 0.4676 0.0768
vt 0.466 0.8382
vt 0.3867 0.7867
vt 0.4206 0.8594
vt 0.4321 0.7656
vt 0.3867 0.7867
vt 0.466 0.8382
vt 0.2345 0.7656
vt 0.2007 0.8382
vt 0.2461 0.8594
vt 0.28 0.7867
vt 0.2345 0.7656
vt 0.2461 0.8594
vt 0.1481 0.5905
vt 0.1882 0.5905
vt 0.1481 0.5003
vt 0.1481 0.5003
vt 0.1882 0.5905
vt 0.1882 0.5003
vt 0.1453 0.2573
vt 0.1854 0.2573
vt 0.1453 0.167
vt 0.1453 0.167
vt 0.1854 0.2573
vt 0.1854 0.167
vt 0.5347 0.3508
vt 0.4599 0.3508
vt 0.4599 0.4256
vt 0.5347 0.4256
vt 0.5347 0.3508
vt 0.4599 0.4256
vt 0.4715 0.2712
vt 0.5246 0.2712
vt 0.5246 0.2181
vt 0.4715 0.2181
vt 0.4715 0.2712
vt 0.5246 0.2181
vt 0.08769999 0.9238999
vt 0.1278 0.9238999
vt 0.08769999 0.8337
vt 0.08769999 0.8337
vt 0.1278 0.9238999
vt 0.1278 0.8337
vt 0.5389 0.9238999
vt 0.579 0.9238999
vt 0.5389 0.8337
vt 0.5389 0.8337
vt 0.579 0.9238999
vt 0.579 0.8337
vt 0.1907 0.5048
vt 0.1446 0.4322
vt 0.1446 0.5048
vt 0.1907 0.5048
vt 0.1907 0.4322
vt 0.1446 0.4322
vt 0.1889 0.1927
vt 0.1428 0.1201
vt 0.1428 0.1927
vt 0.1889 0.1927
vt 0.1889 0.1201
vt 0.1428 0.1201
vt 0.4552 0.4347
vt 0.5412 0.35
vt 0.4552 0.35
vt 0.4552 0.4347
vt 0.5412 0.4347
vt 0.5412 0.35
vt 0.4682 0.3167
vt 0.5293 0.3167
vt 0.5293 0.2565
vt 0.4682 0.2565
vt 0.4682 0.3167
vt 0.5293 0.2565
vt 0.0533 0.7867
vt 0.0872 0.8594
vt 0.1327 0.8382
vt 0.0988 0.7656
vt 0.0533 0.7867
vt 0.1327 0.8382
vt 0.5794 0.8594
vt 0.5679 0.7656
vt 0.534 0.8382
vt 0.5794 0.8594
vt 0.6133 0.7867
vt 0.5679 0.7656
vt 0 0
vt 0 0
vt 0 0
vt 0 0
vt 0 0
vt 0 0
vt 0 0
vt 0 0
vt 0 0
vt 0 0
vt 0 0
vt 0 0
vt 0 0
vt 0 0
vt 0 0
vt 0 0
vt 0 0
vt 0 0
vt 0 0
vt 0 0
vt 0 0
vt 0 0
vt 0 0
vt 0 0
vt 0.0576 0.7958
vt 0.0872 0.8594
vt 0.1327 0.8382
vt 0.103 0.7746
vt 0.0576 0.7958
vt 0.1327 0.8382
vt 0.5794 0.8594
vt 0.5636 0.7746
vt 0.534 0.8382
vt 0.5794 0.8594
vt 0.6091 0.7958
vt 0.5636 0.7746
vt 0.1491 0.5805
vt 0.1872 0.5805
vt 0.1491 0.4702
vt 0.1491 0.4702
vt 0.1872 0.5805
vt 0.1872 0.4702
vt 0.1463 0.2472
vt 0.1844 0.2472
vt 0.1463 0.137
vt 0.1463 0.137
vt 0.1844 0.2472
vt 0.1844 0.137
vt 0.5328 0.3555
vt 0.4618 0.3555
vt 0.4618 0.4256
vt 0.5328 0.4256
vt 0.5328 0.3555
vt 0.4618 0.4256
vt 0.4729 0.2679
vt 0.5233 0.2679
vt 0.5233 0.2181
vt 0.4729 0.2181
vt 0.4729 0.2679
vt 0.5233 0.2181
vt 0.0902 0.9139
vt 0.1278 0.9139
vt 0.0902 0.8036
vt 0.0902 0.8036
vt 0.1278 0.9139
vt 0.1278 0.8036
vt 0.5389 0.9139
vt 0.5765 0.9139
vt 0.5389 0.8036
vt 0.5389 0.8036
vt 0.5765 0.9139
vt 0.5765 0.8036
g name0
f 1/2 2/1 3/3
f 2/5 4/4 3/6
f 5/8 6/7 7/9
f 6/11 8/10 7/12
f 9/14 10/13 11/15
f 10/17 12/16 11/18
f 13/20 14/19 15/21
f 14/23 16/22 15/24
f 17/26 18/25 19/27
f 18/29 20/28 19/30
f 21/32 22/31 23/33
f 22/35 24/34 23/36
f 25/37 26/39 27/38
f 26/40 28/42 27/41
f 29/43 30/45 31/44
f 30/46 32/48 31/47
f 33/49 34/51 27/50
f 34/52 25/54 27/53
f 35/55 36/57 37/56
f 36/58 38/60 37/59
f 39/62 40/61 41/63
f 40/65 42/64 41/66
f 43/68 44/67 45/69
f 44/71 46/70 45/72
f 47/73 48/75 49/74
f 48/76 50/78 49/77
f 51/79 52/81 53/80
f 52/82 54/84 53/83
f 55/85 56/87 49/86
f 56/88 47/90 49/89
f 57/91 58/93 59/92
f 58/94 60/96 59/95
f 61/98 62/97 63/99
f 62/101 64/100 63/102
f 65/104 66/103 67/105
f 66/107 68/106 67/108
f 69/109 70/111 71/110
f 70/112 72/114 71/113
f 73/115 74/117 75/116
f 74/118 76/120 75/119
f 77/121 78/123 71/122
f 78/124 69/126 71/125
f 79/127 80/129 81/128
f 80/130 82/132 81/131
f 83/134 84/133 85/135
f 84/137 86/136 85/138
f 87/140 88/139 89/141
f 88/143 90/142 89/144
f 91/145 92/147 93/146
f 92/148 94/150 93/149
f 95/151 96/153 97/152
f 96/154 98/156 97/155
f 99/157 100/159 93/158
f 100/160 91/162 93/161
f 101/163 102/165 103/164
f 102/166 104/168 103/167
f 105/170 106/169 107/171
f 106/173 108/172 107/174
f 109/176 110/175 111/177
f 110/179 112/178 111/180
f 113/181 114/183 115/182
f 114/184 116/186 115/185
f 117/187 118/189 119/188
f 118/190 120/192 119/191
f 121/193 122/195 115/194
f 122/196 113/198 115/197
f 123/199 124/201 125/200
f 124/202 126/204 125/203
f 127/205 128/207 129/206
f 128/208 130/210 129/209
f 131/211 132/213 133/212
f 132/214 134/216 133/215
f 135/217 136/219 137/218
f 136/220 138/222 137/221
f 139/223 140/225 141/224
f 140/226 142/228 141/227
f 143/229 144/231 137/230
f 144/232 135/234 137/233
f 145/235 146/237 147/236
f 146/238 148/240 147/239
f 149/241 150/243 151/242
f 150/244 152/246 151/245
f 153/247 154/249 155/248
f 154/250 156/252 155/251
f 157/253 158/255 159/254
f 158/256 160/258 159/257
f 161/259 162/261 163/260
f 162/262 164/264 163/263
f 165/265 166/267 159/266
f 166/268 157/270 159/269
f 167/271 168/273 169/272
f 168/274 170/276 169/275
f 171/277 172/279 173/278
f 172/280 174/282 173/281
f 175/283 176/285 177/284
f 176/286 178/288 177/287
f 179/289 180/291 181/290
f 180/292 182/294 181/293
f 183/295 184/297 185/296
f 184/298 186/300 185/299
f 187/301 188/303 181/302
f 188/304 179/306 181/305
f 189/307 190/309 191/308
f 190/310 192/312 191/311
f 193/313 194/315 195/314
f 194/316 196/318 195/317
f 197/319 198/321 199/320
f 198/322 200/324 199/323
f 201/325 202/327 203/326
f 202/328 204/330 203/329
f 205/331 206/333 207/332
f 206/334 208/336 207/335
f 209/337 210/339 203/338
f 210/340 201/342 203/341
f 211/343 212/345 213/344
f 212/346 214/348 213/347
f 215/349 216/351 217/350
f 216/352 218/354 217/353
f 219/355 220/357 221/356
f 220/358 222/360 221/359
f 223/361 224/363 225/362
f 224/364 226/366 225/365
f 227/367 228/369 229/368
f 228/370 230/372 229/371
f 231/373 232/375 225/374
f 232/376 223/378 225/377
f 233/379 234/381 235/380
f 234/382 236/384 235/383
f 237/385 238/387 239/386
f 238/388 240/390 239/389
f 241/391 242/393 243/392
f 242/394 244/396 243/395
f 245/397 246/399 247/398
f 246/400 248/402 247/401
f 249/403 250/405 251/404
f 250/406 252/408 251/407
f 253/409 254/411 247/410
f 254/412 245/414 247/413
f 255/415 256/417 257/416
f 256/418 258/420 257/419
f 259/422 260/421 261/423
f 260/425 262/424 261/426
f 263/428 264/427 265/429
f 264/431 266/430 265/432
f 267/433 268/435 269/434
f 268/436 270/438 269/437
f 271/439 272/441 273/440
f 272/442 274/444 273/443
f 275/445 276/447 269/446
f 276/448 267/450 269/449
f 277/451 278/453 279/452
f 278/454 280/456 279/455
f 281/458 282/457 283/459
f 282/461 284/460 283/462
f 285/464 286/463 287/465
f 286/467 288/466 287/468
f 289/469 290/471 291/470
f 290/472 292/474 291/473
f 293/475 294/477 295/476
f 294/478 296/480 295/479
f 297/481 298/483 291/482
f 298/484 289/486 291/485
f 299/487 300/489 301/488
f 300/490 302/492 301/491
f 303/495 304/494 305/493
f 304/498 306/497 305/496
f 307/501 308/500 309/499
f 308/504 310/503 309/502
f 311/507 312/506 313/505
f 312/510 314/509 313/508
f 315/513 316/512 317/511
f 316/516 318/515 317/514
f 319/517 320/519 321/518
f 320/520 322/522 321/521
f 323/523 324/525 325/524
f 324/526 326/528 325/527
f 320/529 327/531 322/530
f 327/532 328/534 322/533
f 329/535 330/537 331/536
f 330/538 332/540 331/539
f 333/542 334/541 335/543
f 334/545 336/544 335/546
f 337/548 338/547 339/549
f 338/551 340/550 339/552
f 341/553 342/555 343/554
f 342/556 344/558 343/557
f 345/559 346/561 347/560
f 346/562 348/564 347/563
f 342/565 349/567 344/566
f 349/568 350/570 344/569
f 351/571 352/573 353/572
f 352/574 354/576 353/575
f 355/578 356/577 357/579
f 356/581 358/580 357/582
f 359/584 360/583 361/585
f 360/587 362/586 361/588
f 363/589 364/591 365/590
f 364/592 366/594 365/593
f 367/595 368/597 369/596
f 368/598 370/600 369/599
f 364/601 371/603 366/602
f 371/604 372/606 366/605
f 373/607 374/609 375/608
f 374/610 376/612 375/611
f 377/615 378/614 379/613
f 378/618 380/617 379/616
f 381/621 382/620 383/619
f 382/624 384/623 383/622
f 385/625 386/627 387/626
f 386/628 388/630 387/629
f 389/631 390/633 391/632
f 390/634 392/636 391/635
f 386/637 393/639 388/638
f 393/640 394/642 388/641
f 395/643 396/645 397/644
f 396/646 398/648 397/647
f 399/651 400/650 401/649
f 400/654 402/653 401/652
f 403/657 404/656 405/655
f 404/660 406/659 405/658
f 407/661 408/663 409/662
f 408/664 410/666 409/665
f 411/667 412/669 413/668
f 412/670 414/672 413/671
f 408/673 415/675 410/674
f 415/676 416/678 410/677
f 417/679 418/681 419/680
f 418/682 420/684 419/683
f 421/687 422/686 423/685
f 422/690 424/689 423/688
f 425/693 426/692 427/691
f 426/696 428/695 427/694
f 429/697 430/699 431/698
f 430/700 432/702 431/701
f 433/703 434/705 435/704
f 434/706 436/708 435/707
f 430/709 437/711 432/710
f 437/712 438/714 432/713
f 439/715 440/717 441/716
f 440/718 442/720 441/719
f 443/721 444/723 445/722
f 444/724 446/726 445/725
f 447/727 448/729 449/728
f 448/730 450/732 449/731
f 451/733 452/735 445/734
f 452/736 443/738 445/737
f 453/739 454/741 455/740
f 454/742 456/744 455/743
f 457/746 458/745 459/747
f 458/749 460/748 459/750
f 461/752 462/751 463/753
f 462/755 464/754 463/756
f 465/757 466/759 467/758
f 466/760 468/762 467/761
f 469/763 470/765 471/764
f 470/766 472/768 471/767
f 473/769 474/771 467/770
f 474/772 465/774 467/773
f 475/775 476/777 477/776
f 476/778 478/780 477/779
f 479/782 480/781 481/783
f 480/785 482/784 481/786
f 483/788 484/787 485/789
f 484/791 486/790 485/792
f 487/793 488/795 489/794
f 488/796 490/798 489/797
f 491/799 492/801 493/800
f 492/802 494/804 493/803
f 495/805 496/807 489/806
f 496/808 487/810 489/809
f 497/811 498/813 499/812
f 498/814 500/816 499/815
f 501/819 502/818 503/817
f 502/822 504/821 503/820
f 505/825 506/824 507/823
f 506/828 508/827 507/826
f 509/829 510/831 511/830
f 510/832 512/834 511/833
f 513/835 514/837 515/836
f 514/838 516/840 515/839
f 517/841 518/843 519/842
f 518/844 520/846 519/845
f 521/847 522/849 523/848
f 522/850 524/852 523/851
f 525/854 526/853 527/855
f 526/857 528/856 527/858
f 529/860 530/859 531/861
f 530/863 532/862 531/864
f 533/866 534/865 535/867
f 534/869 536/868 535/870
f 537/872 538/871 539/873
f 538/875 540/874 539/876
f 541/877 542/879 543/878
f 542/880 544/882 543/881
f 545/883 546/885 547/884
f 546/886 548/888 547/887
f 549/890 550/889 551/891
f 550/893 552/892 551/894
f 553/896 554/895 555/897
f 554/899 556/898 555/900
f 557/902 558/901 559/903
f 558/905 560/904 559/906
f 561/908 562/907 563/909
f 562/911 564/910 563/912
f 565/914 566/913 567/915
f 566/917 568/916 567/918
f 569/920 570/919 571/921
f 570/923 572/922 571/924
f 563/926 564/925 573/927
f 564/930 574/929 573/928
f 575/932 576/931 577/933
f 576/935 578/934 577/936
f 579/939 580/938 581/937
f 580/942 582/941 581/940
f 583/945 584/944 585/943
f 584/948 586/947 585/946
f 587/950 588/949 589/951
f 588/953 590/952 589/954
f 591/956 592/955 593/957
f 592/959 594/958 593/960
f 595/961 596/963 597/962
f 596/964 598/966 597/965
f 599/967 600/969 601/968
f 600/970 602/972 601/971
f 603/973 604/975 605/974
f 604/976 606/978 605/977
f 607/979 608/981 609/980
f 608/982 610/984 609/983
f 611/986 612/985 613/987
f 612/989 614/988 613/990
f 615/992 616/991 617/993
f 616/995 618/994 617/996
f 612/998 619/997 620/999
f 619/1001 621/1000 620/1002
f 622/1004 623/1003 624/1005
f 623/1007 625/1006 624/1008
f 626/1010 627/1009 628/1011
f 627/1013 629/1012 628/1014
f 630/1016 631/1015 632/1017
f 631/1020 633/1019 632/1018
f 634/1021 635/1023 636/1022
f 635/1024 637/1026 636/1025
f 638/1027 639/1029 640/1028
f 639/1030 641/1032 640/1031
f 642/1034 643/1033 644/1035
f 643/1037 645/1036 644/1038
f 646/1040 647/1039 648/1041
f 647/1043 649/1042 648/1044
f 650/1046 651/1045 652/1047
f 651/1049 653/1048 652/1050
f 654/1052 655/1051 656/1053
f 655/1055 657/1054 656/1056
f 658/1058 659/1057 660/1059
f 659/1061 661/1060 660/1062
f 662/1064 663/1063 664/1065
f 663/1067 665/1066 664/1068
f 666/1070 667/1069 668/1071
f 667/1073 669/1072 668/1074
f 670/1076 671/1075 672/1077
f 671/1079 673/1078 672/1080
f 674/1083 675/1082 676/1081
f 675/1086 677/1085 676/1084
f 678/1089 679/1088 680/1087
f 679/1092 681/1091 680/1090
f 682/1094 683/1093 684/1095
f 683/1097 685/1096 684/1098
f 686/1100 687/1099 688/1101
f 687/1103 689/1102 688/1104
f 690/1105 691/1107 692/1106
f 691/1108 693/1110 692/1109
f 694/1111 695/1113 696/1112
f 695/1114 697/1116 696/1115
f 698/1117 699/1119 700/1118
f 699/1120 701/1122 700/1121
f 702/1123 703/1125 704/1124
f 703/1126 705/1128 704/1127
f 706/1130 707/1129 708/1131
f 707/1133 709/1132 708/1134
f 710/1136 711/1135 712/1137
f 711/1139 713/1138 712/1140
f 707/1142 714/1141 715/1143
f 714/1145 716/1144 715/1146
f 717/1148 718/1147 719/1149
f 718/1151 720/1150 719/1152
f 721/1153 722/1155 723/1154
f 722/1156 724/1158 723/1157
f 725/1159 726/1161 727/1160
f 726/1162 728/1164 727/1163
f 729/1166 730/1165 731/1167
f 730/1169 732/1168 731/1170
f 733/1172 734/1171 735/1173
f 734/1175 736/1174 735/1176
f 737/1177 738/1179 739/1178
f 738/1180 740/1182 739/1181
f 741/1183 742/1185 743/1184
f 742/1186 744/1188 743/1187
f 745/1189 746/1191 747/1190
f 746/1192 748/1194 747/1193
f 749/1195 750/1197 751/1196
f 750/1198 752/1200 751/1199
f 753/1202 754/1201 755/1203
f 754/1205 756/1204 755/1206
f 757/1208 758/1207 759/1209
f 758/1211 760/1210 759/1212
f 761/1213 762/1215 763/1214
f 762/1216 764/1218 763/1217
f 765/1219 766/1221 767/1220
f 766/1222 768/1224 767/1223
f 769/1225 770/1227 771/1226
f 770/1228 772/1230 771/1229
f 773/1231 774/1233 775/1232
f 774/1234 776/1236 775/1235
f 777/1237 778/1239 771/1238
f 778/1240 769/1242 771/1241
f 779/1243 780/1245 781/1244
f 780/1246 782/1248 781/1247
f 783/1251 784/1250 785/1249
f 784/1254 786/1253 785/1252
f 787/1256 788/1255 789/1257
f 788/1259 790/1258 789/1260
f 791/1263 792/1262 793/1261
f 792/1266 794/1265 793/1264
f 795/1269 796/1268 797/1267
f 796/1272 798/1271 797/1270
f 799/1274 800/1273 801/1275
f 800/1277 802/1276 801/1278
f 803/1280 804/1279 805/1281
f 804/1283 806/1282 805/1284
f 807/1287 808/1286 809/1285
f 808/1289 810/1288 809/1290
f 811/1292 812/1291 813/1293
f 812/1295 814/1294 813/1296
f 815/1297 816/1299 817/1298
f 816/1300 818/1302 817/1301
f 819/1303 820/1305 821/1304
f 820/1306 822/1308 821/1307
f 823/1310 824/1309 825/1311
f 824/1313 826/1312 825/1314
f 827/1316 828/1315 829/1317
f 828/1319 830/1318 829/1320
f 831/1321 832/1323 833/1322
f 832/1324 834/1326 833/1325
f 835/1327 836/1329 837/1328
f 836/1330 838/1332 837/1331
f 839/1335 840/1334 841/1333
f 840/1338 842/1337 841/1336
f 843/1341 844/1340 845/1339
f 844/1344 846/1343 845/1342
f 847/1347 848/1346 849/1345
f 848/1350 850/1349 849/1348
f 851/1352 852/1351 853/1353
f 852/1355 854/1354 853/1356
f 855/1358 856/1357 857/1359
f 856/1361 858/1360 857/1362
f 859/1365 860/1364 861/1363
f 860/1368 862/1367 861/1366
f 863/1369 864/1371 865/1370
f 864/1372 866/1374 865/1373
f 867/1375 868/1377 869/1376
f 868/1378 870/1380 869/1379
f 871/1381 872/1383 865/1382
f 872/1384 863/1386 865/1385
f 873/1387 874/1389 875/1388
f 874/1390 876/1392 875/1391
f 877/1394 878/1393 879/1395
f 878/1397 880/1396 879/1398
f 881/1401 882/1400 883/1399
f 882/1404 884/1403 883/1402
f 885/1405 886/1407 887/1406
f 886/1408 888/1410 887/1409
f 889/1411 890/1413 891/1412
f 890/1414 892/1416 891/1415
f 893/1418 894/1417 895/1419
f 894/1421 896/1420 895/1422
f 897/1424 898/1423 899/1425
f 898/1427 900/1426 899/1428
f 901/1429 902/1431 903/1430
f 902/1432 904/1434 903/1433
f 905/1435 906/1437 907/1436
f 906/1438 908/1440 907/1439
